<svg xmlns="http://www.w3.org/2000/svg" width="194.434" height="194.434" viewBox="0 0 194.434 194.434">
  <g id="Grupo_143185" data-name="Grupo 143185" transform="translate(-319 -5565)">
    <g id="Grupo_143152" data-name="Grupo 143152" transform="translate(0 1)">
      <g id="Grupo_143150" data-name="Grupo 143150" transform="translate(303 5548)">
        <g id="Grupo_86258" data-name="Grupo 86258" transform="translate(16 16)">
          <path id="Trazado_116050" data-name="Trazado 116050" d="M97.217,0A97.217,97.217,0,1,1,0,97.217,97.217,97.217,0,0,1,97.217,0Z" transform="translate(0)" fill="#bddcf6"/>
          <circle id="_40" data-name="40" cx="82.927" cy="82.927" r="82.927" transform="translate(14.055 14.524)" fill="#fff"/>
        </g>
      </g>
      <g id="Grupo_143151" data-name="Grupo 143151" transform="translate(367 5589)">
        <path id="Trazado_200677" data-name="Trazado 200677" d="M90.226,75.206h9.3a5.813,5.813,0,0,0,5.813-5.813V43.813A5.813,5.813,0,0,0,99.528,38H15.813A5.813,5.813,0,0,0,10,43.813V69.393a5.813,5.813,0,0,0,5.813,5.813Z" transform="translate(-8.062 -8.062)" fill="#feca2e"/>
        <path id="Trazado_200678" data-name="Trazado 200678" d="M378.094,358.646l16.1,16.1a4.633,4.633,0,0,0,6.552-6.551l-16.1-16.1Z" transform="translate(-304.826 -261.29)" fill="#4dd0e1"/>
        <path id="Trazado_200679" data-name="Trazado 200679" d="M236.512,187.254A23.254,23.254,0,1,1,213.258,164,23.254,23.254,0,0,1,236.512,187.254Z" transform="translate(-153.184 -109.645)" fill="#fff"/>
        <path id="Trazado_200680" data-name="Trazado 200680" d="M262.234,221.115A15.115,15.115,0,1,1,247.119,206,15.115,15.115,0,0,1,262.234,221.115Z" transform="translate(-187.046 -143.507)" fill="#bddcf6"/>
        <path id="Trazado_200681" data-name="Trazado 200681" d="M239.057,196a17.053,17.053,0,1,0,17.053,17.053A17.072,17.072,0,0,0,239.057,196Zm0,30.23a13.177,13.177,0,1,1,13.177-13.177A13.192,13.192,0,0,1,239.057,226.23Z" transform="translate(-178.983 -135.444)"/>
        <path id="Trazado_200682" data-name="Trazado 200682" d="M301.942,239a1.938,1.938,0,1,0,0,3.876,4.85,4.85,0,0,1,4.844,4.844,1.938,1.938,0,0,0,3.876,0A8.729,8.729,0,0,0,301.942,239Z" transform="translate(-241.868 -170.115)"/>
        <path id="Trazado_200683" data-name="Trazado 200683" d="M46.421,99.044a1.938,1.938,0,1,0-3.442,1.782L48.2,110.9a1.937,1.937,0,0,0,3.468-.052l3.158-6.575,3.43,6.627a1.94,1.94,0,0,0,1.721,1.047H60a1.94,1.94,0,0,0,1.718-1.1l4.839-10.077A1.938,1.938,0,1,0,63.065,99.1l-3.158,6.575-3.431-6.627a1.937,1.937,0,0,0-3.468.052l-3.157,6.575Z" transform="translate(-34.475 -56.432)"/>
        <path id="Trazado_200684" data-name="Trazado 200684" d="M117.926,31.876a1.94,1.94,0,1,0-1.369-.568A1.952,1.952,0,0,0,117.926,31.876Z" transform="translate(-93.511)"/>
        <path id="Trazado_200685" data-name="Trazado 200685" d="M99.217,61.331V35.751A7.76,7.76,0,0,0,91.466,28H32.553a1.938,1.938,0,1,0,0,3.876H91.466a3.88,3.88,0,0,1,3.876,3.876V61.331a3.88,3.88,0,0,1-3.876,3.876h-9.3c-.056,0-.11,0-.165.008a25.325,25.325,0,0,0-13.622-11.39l2.873-5.981,3.431,6.627A1.936,1.936,0,0,0,76.4,55.517h.029a1.939,1.939,0,0,0,1.718-1.1l4.839-10.077a1.938,1.938,0,0,0-3.493-1.677l-3.157,6.575-3.431-6.627a1.938,1.938,0,0,0-3.468.052l-3.158,6.575-3.43-6.627a1.938,1.938,0,0,0-3.443,1.782L63.7,52.679a25.228,25.228,0,0,0-10.5.692l4.337-9.029a1.938,1.938,0,0,0-3.493-1.677l-3.158,6.575-3.431-6.627a1.938,1.938,0,0,0-3.468.052l-3.157,6.575L37.4,42.612a1.938,1.938,0,0,0-3.442,1.782L39.173,54.47a1.938,1.938,0,0,0,3.468-.052L45.8,47.844l3.43,6.627a1.9,1.9,0,0,0,.2.308,25.358,25.358,0,0,0-11.28,10.428H7.751a3.88,3.88,0,0,1-3.876-3.876V35.751a3.88,3.88,0,0,1,3.876-3.876h7.944a1.938,1.938,0,1,0,0-3.876H7.751A7.76,7.76,0,0,0,0,35.751V61.331a7.76,7.76,0,0,0,7.751,7.751H36.368A25.186,25.186,0,0,0,72.62,99.448L88,114.828a6.571,6.571,0,0,0,9.292-9.293l-6.043-6.043a1.938,1.938,0,0,0-2.74,2.74l6.043,6.044a2.7,2.7,0,0,1-3.811,3.812L75.87,97.217a25.169,25.169,0,0,0,7.909-28.135h7.687A7.76,7.76,0,0,0,99.217,61.331ZM60.074,98.925A21.316,21.316,0,1,1,81.39,77.609,21.341,21.341,0,0,1,60.074,98.925Z"/>
        <path id="Trazado_200686" data-name="Trazado 200686" d="M430.658,370.849a1.937,1.937,0,1,0,1.37-.568A1.951,1.951,0,0,0,430.658,370.849Z" transform="translate(-346.746 -275.953)"/>
      </g>
    </g>
  </g>
</svg>
