<svg xmlns="http://www.w3.org/2000/svg" width="405.72" height="404.72" viewBox="0 0 405.72 404.72">
  <g id="Grupo_143180" data-name="Grupo 143180" transform="translate(-597.5 -522.5)">
    <path id="Trazado_196593" data-name="Trazado 196593" d="M50.656,186.409A138.551,138.551,0,0,1,189.175,50.63V34.855A154.324,154.324,0,0,0,34.881,186.409Z" transform="translate(611.14 536.005)" fill="#bddcf6" stroke="#fff" stroke-width="3"/>
    <path id="Trazado_196595" data-name="Trazado 196595" d="M286.52,186.409h15.775A154.324,154.324,0,0,0,148,34.855V50.63A138.551,138.551,0,0,1,286.52,186.409" transform="translate(652.314 536.005)" fill="#4dd0e1" stroke="#fff" stroke-width="3"/>
    <path id="Trazado_196597" data-name="Trazado 196597" d="M50.63,148.741c0-.928.016-1.852.035-2.776H34.89c-.016.925-.035,1.848-.035,2.776a154.33,154.33,0,0,0,154.33,154.33V287.3A138.555,138.555,0,0,1,50.63,148.741" transform="translate(611.13 576.449)" fill="#636363" stroke="#fff" stroke-width="3"/>
    <path id="Trazado_196600" data-name="Trazado 196600" d="M286.555,148.741A138.555,138.555,0,0,1,148,287.3V303.07a154.33,154.33,0,0,0,154.33-154.33c0-.928-.019-1.851-.035-2.776H286.52C286.539,146.888,286.555,147.813,286.555,148.741Z" transform="translate(652.314 576.449)" fill="#feca2e" stroke="#fff" stroke-miterlimit="10" stroke-width="3"/>
    <path id="Trazado_196601" data-name="Trazado 196601" d="M207.365,47.36A46.86,46.86,0,1,1,160.505.5a46.86,46.86,0,0,1,46.86,46.86" transform="translate(639.355 523.5)" fill="#4dd0e1" stroke="#fff" stroke-width="3"/>
    <path id="Trazado_196602" data-name="Trazado 196602" d="M207.365,273.65a46.86,46.86,0,1,1-46.86-46.86,46.86,46.86,0,0,1,46.86,46.86" transform="translate(639.355 605.21)" fill="#636363" stroke="#fff" stroke-width="3"/>
    <path id="Trazado_196603" data-name="Trazado 196603" d="M47.36,113.645A46.86,46.86,0,1,1,.5,160.505a46.86,46.86,0,0,1,46.86-46.86" transform="translate(598.5 564.355)" fill="#bddcf6" stroke="#fff" stroke-width="3"/>
    <path id="Trazado_196604" data-name="Trazado 196604" d="M273.65,113.645a46.86,46.86,0,1,1-46.86,46.86,46.86,46.86,0,0,1,46.86-46.86" transform="translate(681.21 564.355)" fill="#feca2e" stroke="#fff" stroke-width="3"/>
    <path id="Trazado_196605" data-name="Trazado 196605" d="M237.671,166.889a70.783,70.783,0,1,1-70.782-70.782,70.782,70.782,0,0,1,70.782,70.782" transform="translate(633.894 557.893)" fill="#0f2771" stroke="#fff" stroke-width="3"/>
    <path id="Trazado_200750" data-name="Trazado 200750" d="M4.052-4.342V0H.967V-12.8H6.073a5.948,5.948,0,0,1,2.6.541,4.074,4.074,0,0,1,1.749,1.538,4.2,4.2,0,0,1,.62,2.263A3.7,3.7,0,0,1,9.7-5.462,5.561,5.561,0,0,1,6.021-4.342Zm0-2.382H6.073A1.906,1.906,0,0,0,7.44-7.172a1.665,1.665,0,0,0,.47-1.266A2.059,2.059,0,0,0,7.427-9.87a1.712,1.712,0,0,0-1.318-.545H4.052ZM15.671,0H12.7V-13.5h2.971Zm7.181,0a3.344,3.344,0,0,1-.281-.853A2.754,2.754,0,0,1,20.285.176,3.374,3.374,0,0,1,18-.637a2.588,2.588,0,0,1-.94-2.043A2.66,2.66,0,0,1,18.2-5.019a5.821,5.821,0,0,1,3.322-.791h.914v-.5q0-1.316-1.134-1.316A.927.927,0,0,0,20.25-6.587H17.288a2.655,2.655,0,0,1,1.173-2.239,4.931,4.931,0,0,1,2.993-.86,4.323,4.323,0,0,1,2.874.888,3.086,3.086,0,0,1,1.081,2.435v4.21a4.311,4.311,0,0,0,.4,2V0ZM21-1.934a1.652,1.652,0,0,0,.918-.237,1.487,1.487,0,0,0,.523-.536V-4.228h-.861q-1.547,0-1.547,1.389a.848.848,0,0,0,.272.655A.986.986,0,0,0,21-1.934ZM29.769-9.51l.1,1.116a3.225,3.225,0,0,1,2.716-1.292A2.713,2.713,0,0,1,34.8-8.8a4.226,4.226,0,0,1,.76,2.672V0H32.59V-6a1.6,1.6,0,0,0-.29-1.059A1.342,1.342,0,0,0,31.245-7.4a1.413,1.413,0,0,0-1.292.686V0H26.991V-9.51ZM41.8.176a4.889,4.889,0,0,1-3.542-1.305,4.507,4.507,0,0,1-1.354-3.4v-.246a5.84,5.84,0,0,1,.541-2.575,3.955,3.955,0,0,1,1.578-1.727,4.763,4.763,0,0,1,2.461-.611,4.117,4.117,0,0,1,3.164,1.244,4.887,4.887,0,0,1,1.16,3.467v1.151H39.92a2.135,2.135,0,0,0,.694,1.257A2.066,2.066,0,0,0,42-2.109a2.662,2.662,0,0,0,2.2-.984l1.354,1.6A3.784,3.784,0,0,1,43.985-.277,5.3,5.3,0,0,1,41.8.176ZM41.467-7.4q-1.3,0-1.547,1.723h2.988v-.229a1.467,1.467,0,0,0-.36-1.1A1.434,1.434,0,0,0,41.467-7.4ZM52.356,0a3.344,3.344,0,0,1-.281-.853A2.754,2.754,0,0,1,49.79.176,3.374,3.374,0,0,1,47.5-.637a2.588,2.588,0,0,1-.94-2.043,2.66,2.66,0,0,1,1.143-2.338,5.821,5.821,0,0,1,3.322-.791h.914v-.5q0-1.316-1.134-1.316a.927.927,0,0,0-1.055,1.042H46.793a2.655,2.655,0,0,1,1.173-2.239,4.931,4.931,0,0,1,2.993-.86,4.323,4.323,0,0,1,2.874.888,3.086,3.086,0,0,1,1.081,2.435v4.21a4.311,4.311,0,0,0,.4,2V0ZM50.5-1.934a1.652,1.652,0,0,0,.918-.237,1.487,1.487,0,0,0,.523-.536V-4.228h-.861q-1.547,0-1.547,1.389a.848.848,0,0,0,.272.655A.986.986,0,0,0,50.5-1.934Zm11.8-4.9L61.33-6.9a1.752,1.752,0,0,0-1.793.879V0H56.575V-9.51h2.777l.1,1.222a2.294,2.294,0,0,1,2.083-1.4,2.888,2.888,0,0,1,.826.105Z" transform="translate(768.501 576.5)" fill="#12263f"/>
    <path id="Trazado_200751" data-name="Trazado 200751" d="M8.235-2.391H4.008L3.27,0h-3.3L4.667-12.8h2.9L12.3,0H8.982ZM4.746-4.772H7.5L6.117-9.211ZM17.112-2.109a1.317,1.317,0,0,0,.967-.338,1.241,1.241,0,0,0,.334-.945H21.19A3.288,3.288,0,0,1,20.07-.826a4.168,4.168,0,0,1-2.887,1,4.22,4.22,0,0,1-3.27-1.3,5.125,5.125,0,0,1-1.2-3.6v-.123A5.792,5.792,0,0,1,13.25-7.4a3.872,3.872,0,0,1,1.534-1.7,4.573,4.573,0,0,1,2.373-.593A4.116,4.116,0,0,1,20.1-8.657a3.647,3.647,0,0,1,1.09,2.786H18.413A1.626,1.626,0,0,0,18.053-7a1.244,1.244,0,0,0-.967-.4q-1.151,0-1.345,1.468a10.357,10.357,0,0,0-.062,1.283,4.068,4.068,0,0,0,.343,1.986A1.187,1.187,0,0,0,17.112-2.109Zm8.78-9.765V-9.51h1.564v2.057H25.893V-3.1a1.111,1.111,0,0,0,.193.747,1.037,1.037,0,0,0,.765.211,4.345,4.345,0,0,0,.738-.053V-.079a5.466,5.466,0,0,1-1.67.255A3.1,3.1,0,0,1,23.66-.545a2.954,2.954,0,0,1-.729-2.188v-4.72H21.718V-9.51h1.213v-2.364ZM34.286-1.028a3.054,3.054,0,0,1-2.54,1.2,3,3,0,0,1-2.369-.91,3.826,3.826,0,0,1-.8-2.615V-9.51h2.962v6.179a1.065,1.065,0,0,0,1.187,1.222,1.548,1.548,0,0,0,1.45-.729V-9.51h2.979V0H34.374ZM44.13,0a3.344,3.344,0,0,1-.281-.853A2.754,2.754,0,0,1,41.563.176a3.374,3.374,0,0,1-2.285-.813,2.588,2.588,0,0,1-.94-2.043A2.66,2.66,0,0,1,39.48-5.019,5.821,5.821,0,0,1,42.8-5.81h.914v-.5q0-1.316-1.134-1.316a.927.927,0,0,0-1.055,1.042H38.566A2.655,2.655,0,0,1,39.74-8.825a4.931,4.931,0,0,1,2.993-.86,4.323,4.323,0,0,1,2.874.888,3.086,3.086,0,0,1,1.081,2.435v4.21a4.311,4.311,0,0,0,.4,2V0ZM42.275-1.934a1.652,1.652,0,0,0,.918-.237,1.487,1.487,0,0,0,.523-.536V-4.228h-.861q-1.547,0-1.547,1.389a.848.848,0,0,0,.272.655A.986.986,0,0,0,42.275-1.934Zm11.8-4.9L53.1-6.9a1.752,1.752,0,0,0-1.793.879V0H48.349V-9.51h2.777l.1,1.222a2.294,2.294,0,0,1,2.083-1.4,2.888,2.888,0,0,1,.826.105Z" transform="translate(618.5 731.5)" fill="#12263f"/>
    <path id="Trazado_200752" data-name="Trazado 200752" d="M11.663,0H8.6V-5.344H4.052V0H.967V-12.8H4.052v5.08H8.6V-12.8h3.067Zm7.172,0a3.344,3.344,0,0,1-.281-.853A2.754,2.754,0,0,1,16.269.176a3.374,3.374,0,0,1-2.285-.813,2.588,2.588,0,0,1-.94-2.043,2.66,2.66,0,0,1,1.143-2.338,5.821,5.821,0,0,1,3.322-.791h.914v-.5q0-1.316-1.134-1.316a.927.927,0,0,0-1.055,1.042H13.271a2.655,2.655,0,0,1,1.173-2.239,4.931,4.931,0,0,1,2.993-.86,4.323,4.323,0,0,1,2.874.888,3.086,3.086,0,0,1,1.081,2.435v4.21a4.311,4.311,0,0,0,.4,2V0ZM16.98-1.934a1.652,1.652,0,0,0,.918-.237,1.487,1.487,0,0,0,.523-.536V-4.228h-.861q-1.547,0-1.547,1.389a.848.848,0,0,0,.272.655A.986.986,0,0,0,16.98-1.934Zm10.072-.176a1.317,1.317,0,0,0,.967-.338,1.241,1.241,0,0,0,.334-.945h2.777A3.288,3.288,0,0,1,30.01-.826a4.168,4.168,0,0,1-2.887,1,4.22,4.22,0,0,1-3.27-1.3,5.125,5.125,0,0,1-1.2-3.6v-.123A5.792,5.792,0,0,1,23.19-7.4a3.872,3.872,0,0,1,1.534-1.7A4.573,4.573,0,0,1,27.1-9.686a4.116,4.116,0,0,1,2.944,1.028,3.647,3.647,0,0,1,1.09,2.786H28.354A1.626,1.626,0,0,0,27.993-7a1.244,1.244,0,0,0-.967-.4q-1.151,0-1.345,1.468a10.357,10.357,0,0,0-.062,1.283,4.068,4.068,0,0,0,.343,1.986A1.187,1.187,0,0,0,27.053-2.109ZM36.984.176a4.889,4.889,0,0,1-3.542-1.305,4.507,4.507,0,0,1-1.354-3.4v-.246a5.84,5.84,0,0,1,.541-2.575,3.955,3.955,0,0,1,1.578-1.727,4.763,4.763,0,0,1,2.461-.611,4.117,4.117,0,0,1,3.164,1.244,4.887,4.887,0,0,1,1.16,3.467v1.151H35.1A2.135,2.135,0,0,0,35.8-2.566a2.066,2.066,0,0,0,1.389.457,2.662,2.662,0,0,0,2.2-.984l1.354,1.6A3.784,3.784,0,0,1,39.168-.277,5.3,5.3,0,0,1,36.984.176ZM36.65-7.4q-1.3,0-1.547,1.723h2.988v-.229a1.467,1.467,0,0,0-.36-1.1A1.434,1.434,0,0,0,36.65-7.4Zm11.285.571L46.96-6.9a1.752,1.752,0,0,0-1.793.879V0H42.205V-9.51h2.777l.1,1.222a2.294,2.294,0,0,1,2.083-1.4,2.888,2.888,0,0,1,.826.105Z" transform="translate(930.5 731.5)" fill="#12263f"/>
    <path id="Trazado_200753" data-name="Trazado 200753" d="M-25.9-14.219l3.174,9.893,3.164-9.893h4.512V0h-3.437V-3.32l.332-6.8L-21.592,0h-2.266L-27.3-10.127l.332,6.807V0H-30.4V-14.219ZM-7.91.2a5.432,5.432,0,0,1-3.936-1.45,5.008,5.008,0,0,1-1.5-3.774V-5.3a6.489,6.489,0,0,1,.6-2.861A4.395,4.395,0,0,1-11-10.083a5.292,5.292,0,0,1,2.734-.679A4.574,4.574,0,0,1-4.746-9.38,5.43,5.43,0,0,1-3.457-5.527v1.279H-10a2.372,2.372,0,0,0,.771,1.4,2.3,2.3,0,0,0,1.543.508A2.958,2.958,0,0,0-5.244-3.437l1.5,1.777A4.2,4.2,0,0,1-5.483-.308,5.891,5.891,0,0,1-7.91.2Zm-.371-8.418q-1.445,0-1.719,1.914h3.32v-.254a1.63,1.63,0,0,0-.4-1.226A1.593,1.593,0,0,0-8.281-8.223Zm9.688-2.344V.361A3.836,3.836,0,0,1,.332,3.252,4.127,4.127,0,0,1-2.637,4.268,7.009,7.009,0,0,1-4.189,4.1V1.611a6.3,6.3,0,0,0,.928.088A1.2,1.2,0,0,0-1.895.342V-10.566Zm-3.545-2.725a1.469,1.469,0,0,1,.508-1.152,1.916,1.916,0,0,1,1.318-.449,1.916,1.916,0,0,1,1.318.449,1.469,1.469,0,0,1,.508,1.152,1.469,1.469,0,0,1-.508,1.152,1.916,1.916,0,0,1-1.318.449,1.916,1.916,0,0,1-1.318-.449A1.469,1.469,0,0,1-2.139-13.291Zm4.99,7.91A6.236,6.236,0,0,1,3.467-8.2a4.4,4.4,0,0,1,1.768-1.9,5.323,5.323,0,0,1,2.705-.664,4.858,4.858,0,0,1,3.74,1.47,5.64,5.64,0,0,1,1.367,4v.117a5.472,5.472,0,0,1-1.372,3.921A4.871,4.871,0,0,1,7.959.2,4.927,4.927,0,0,1,4.336-1.157,5.29,5.29,0,0,1,2.861-4.824Zm3.291.205A3.932,3.932,0,0,0,6.6-3.027a1.529,1.529,0,0,0,1.357.684q1.758,0,1.8-2.705v-.332q0-2.842-1.816-2.842-1.65,0-1.787,2.451ZM20.889-7.588,19.8-7.666a1.947,1.947,0,0,0-1.992.977V0H14.521V-10.566h3.086l.107,1.357a2.548,2.548,0,0,1,2.314-1.553,3.209,3.209,0,0,1,.918.117ZM27.734,0a3.716,3.716,0,0,1-.312-.947A3.06,3.06,0,0,1,24.883.2a3.749,3.749,0,0,1-2.539-.9A2.875,2.875,0,0,1,21.3-2.979a2.955,2.955,0,0,1,1.27-2.6,6.468,6.468,0,0,1,3.691-.879h1.016v-.559q0-1.462-1.26-1.462a1.03,1.03,0,0,0-1.172,1.158H21.553a2.95,2.95,0,0,1,1.3-2.487,5.479,5.479,0,0,1,3.325-.956,4.8,4.8,0,0,1,3.193.986,3.429,3.429,0,0,1,1.2,2.705v4.678a4.79,4.79,0,0,0,.449,2.227V0ZM25.674-2.148a1.836,1.836,0,0,0,1.021-.264,1.653,1.653,0,0,0,.581-.6V-4.7h-.957Q24.6-4.7,24.6-3.154a.942.942,0,0,0,.3.728A1.1,1.1,0,0,0,25.674-2.148Zm-59.5,30.8a1.464,1.464,0,0,0,1.074-.376,1.379,1.379,0,0,0,.371-1.05H-29.3a3.653,3.653,0,0,1-1.245,2.852A4.631,4.631,0,0,1-33.75,31.2a4.689,4.689,0,0,1-3.633-1.445,5.7,5.7,0,0,1-1.328-4v-.137a6.436,6.436,0,0,1,.591-2.827,4.3,4.3,0,0,1,1.7-1.885,5.081,5.081,0,0,1,2.637-.659,4.573,4.573,0,0,1,3.271,1.143,4.053,4.053,0,0,1,1.211,3.1h-3.086a1.807,1.807,0,0,0-.4-1.26,1.382,1.382,0,0,0-1.074-.439q-1.279,0-1.494,1.631a11.507,11.507,0,0,0-.068,1.426,4.52,4.52,0,0,0,.381,2.207A1.319,1.319,0,0,0-33.828,28.656Zm5.508-3.037a6.236,6.236,0,0,1,.615-2.817,4.4,4.4,0,0,1,1.768-1.9,5.323,5.323,0,0,1,2.705-.664,4.858,4.858,0,0,1,3.74,1.47,5.64,5.64,0,0,1,1.367,4v.117A5.472,5.472,0,0,1-19.5,29.745a4.871,4.871,0,0,1-3.716,1.45,4.927,4.927,0,0,1-3.623-1.353,5.29,5.29,0,0,1-1.475-3.667Zm3.291.205a3.932,3.932,0,0,0,.459,2.148,1.529,1.529,0,0,0,1.357.684q1.758,0,1.8-2.705v-.332q0-2.842-1.816-2.842-1.65,0-1.787,2.451Zm11.377-5.391.107,1.24a3.583,3.583,0,0,1,3.018-1.436,3.015,3.015,0,0,1,2.466.986,4.7,4.7,0,0,1,.845,2.969V31h-3.3V24.33a1.783,1.783,0,0,0-.322-1.177,1.491,1.491,0,0,0-1.172-.376,1.569,1.569,0,0,0-1.436.762V31h-3.291V20.434Zm12.09-2.627v2.627H.176v2.285H-1.562v4.834a1.234,1.234,0,0,0,.215.83,1.152,1.152,0,0,0,.85.234,4.828,4.828,0,0,0,.82-.059v2.354a6.074,6.074,0,0,1-1.855.283,3.448,3.448,0,0,1-2.51-.8,3.282,3.282,0,0,1-.811-2.432V22.719H-6.2V20.434h1.348V17.807ZM4.941,31h-3.3V20.434h3.3Zm-3.5-13.291a1.469,1.469,0,0,1,.508-1.152,1.916,1.916,0,0,1,1.318-.449,1.916,1.916,0,0,1,1.318.449,1.561,1.561,0,0,1,0,2.3,1.916,1.916,0,0,1-1.318.449,1.916,1.916,0,0,1-1.318-.449A1.469,1.469,0,0,1,1.445,17.709ZM9.99,20.434l.107,1.24a3.583,3.583,0,0,1,3.018-1.436,3.015,3.015,0,0,1,2.466.986,4.7,4.7,0,0,1,.845,2.969V31h-3.3V24.33a1.783,1.783,0,0,0-.322-1.177,1.491,1.491,0,0,0-1.172-.376,1.569,1.569,0,0,0-1.436.762V31H6.9V20.434Zm14.551,9.424A3.393,3.393,0,0,1,21.719,31.2a3.328,3.328,0,0,1-2.632-1.011,4.251,4.251,0,0,1-.894-2.905V20.434h3.291V27.3A1.183,1.183,0,0,0,22.8,28.656a1.72,1.72,0,0,0,1.611-.811V20.434h3.311V31H24.639ZM35.479,31a3.716,3.716,0,0,1-.312-.947A3.06,3.06,0,0,1,32.627,31.2a3.749,3.749,0,0,1-2.539-.9,2.875,2.875,0,0,1-1.045-2.271,2.955,2.955,0,0,1,1.27-2.6A6.468,6.468,0,0,1,34,24.545H35.02v-.559q0-1.462-1.26-1.462a1.03,1.03,0,0,0-1.172,1.158H29.3a2.95,2.95,0,0,1,1.3-2.487,5.479,5.479,0,0,1,3.325-.956,4.8,4.8,0,0,1,3.193.986,3.429,3.429,0,0,1,1.2,2.705v4.678a4.79,4.79,0,0,0,.449,2.227V31Zm-2.061-2.148a1.836,1.836,0,0,0,1.021-.264,1.653,1.653,0,0,0,.581-.6V26.3h-.957q-1.719,0-1.719,1.543a.942.942,0,0,0,.3.728A1.1,1.1,0,0,0,33.418,28.852Z" transform="translate(800.5 716.5)" fill="#fff"/>
    <path id="Trazado_200754" data-name="Trazado 200754" d="M5.933-3.48,8.481-12.8h3.445L7.62,0H4.245L-.026-12.8H3.393ZM17.323.176a4.889,4.889,0,0,1-3.542-1.305,4.507,4.507,0,0,1-1.354-3.4v-.246a5.84,5.84,0,0,1,.541-2.575,3.955,3.955,0,0,1,1.578-1.727,4.763,4.763,0,0,1,2.461-.611,4.117,4.117,0,0,1,3.164,1.244,4.887,4.887,0,0,1,1.16,3.467v1.151H15.442a2.135,2.135,0,0,0,.694,1.257,2.066,2.066,0,0,0,1.389.457,2.662,2.662,0,0,0,2.2-.984l1.354,1.6A3.784,3.784,0,0,1,19.507-.277,5.3,5.3,0,0,1,17.323.176ZM16.989-7.4q-1.3,0-1.547,1.723h2.988v-.229a1.467,1.467,0,0,0-.36-1.1A1.434,1.434,0,0,0,16.989-7.4Zm11.285.571L27.3-6.9a1.752,1.752,0,0,0-1.793.879V0H22.544V-9.51h2.777l.1,1.222a2.294,2.294,0,0,1,2.083-1.4,2.888,2.888,0,0,1,.826.105ZM32.467,0H29.5V-9.51h2.971ZM29.32-11.962A1.322,1.322,0,0,1,29.777-13a1.724,1.724,0,0,1,1.187-.4,1.724,1.724,0,0,1,1.187.4,1.322,1.322,0,0,1,.457,1.037,1.322,1.322,0,0,1-.457,1.037,1.724,1.724,0,0,1-1.187.4,1.724,1.724,0,0,1-1.187-.4A1.322,1.322,0,0,1,29.32-11.962ZM34.98,0V-7.453H33.6V-9.51h1.38v-.316a3.631,3.631,0,0,1,1.248-2.909,4.987,4.987,0,0,1,3.243-.949,11.509,11.509,0,0,1,3.094.51l-.4,2.338-.492-.132a7.832,7.832,0,0,0-2.021-.255q-1.7,0-1.7,1.547v.167h1.863v2.057H37.951V0Zm8.947,0H40.948V-9.51h2.979Zm5.827-2.109a1.317,1.317,0,0,0,.967-.338,1.241,1.241,0,0,0,.334-.945h2.777A3.288,3.288,0,0,1,52.712-.826a4.168,4.168,0,0,1-2.887,1,4.22,4.22,0,0,1-3.27-1.3,5.125,5.125,0,0,1-1.2-3.6v-.123A5.792,5.792,0,0,1,45.892-7.4a3.872,3.872,0,0,1,1.534-1.7A4.573,4.573,0,0,1,49.8-9.686a4.116,4.116,0,0,1,2.944,1.028,3.647,3.647,0,0,1,1.09,2.786H51.056A1.626,1.626,0,0,0,50.7-7a1.244,1.244,0,0,0-.967-.4q-1.151,0-1.345,1.468a10.357,10.357,0,0,0-.062,1.283,4.068,4.068,0,0,0,.343,1.986A1.187,1.187,0,0,0,49.755-2.109ZM60.442,0a3.344,3.344,0,0,1-.281-.853A2.754,2.754,0,0,1,57.876.176a3.374,3.374,0,0,1-2.285-.813,2.588,2.588,0,0,1-.94-2.043,2.66,2.66,0,0,1,1.143-2.338,5.821,5.821,0,0,1,3.322-.791h.914v-.5q0-1.316-1.134-1.316a.927.927,0,0,0-1.055,1.042H54.879a2.655,2.655,0,0,1,1.173-2.239,4.931,4.931,0,0,1,2.993-.86,4.323,4.323,0,0,1,2.874.888A3.086,3.086,0,0,1,63-6.363v4.21a4.311,4.311,0,0,0,.4,2V0ZM58.588-1.934a1.652,1.652,0,0,0,.918-.237,1.487,1.487,0,0,0,.523-.536V-4.228h-.861q-1.547,0-1.547,1.389a.848.848,0,0,0,.272.655A.986.986,0,0,0,58.588-1.934Zm11.8-4.9-.976-.07a1.752,1.752,0,0,0-1.793.879V0H64.661V-9.51h2.777l.1,1.222a2.294,2.294,0,0,1,2.083-1.4,2.888,2.888,0,0,1,.826.105Z" transform="translate(765.5 885.5)" fill="#fff"/>
  </g>
</svg>
