<svg xmlns="http://www.w3.org/2000/svg" xmlns:xlink="http://www.w3.org/1999/xlink" width="530.599" height="332" viewBox="0 0 530.599 332">
  <defs>
    <clipPath id="clip-path">
      <rect id="Rectángulo_44386" data-name="Rectángulo 44386" width="530.599" height="284" fill="none"/>
    </clipPath>
    <clipPath id="clip-path-2">
      <rect id="Rectángulo_44385" data-name="Rectángulo 44385" width="505" height="284" fill="none"/>
    </clipPath>
    <clipPath id="clip-path-3">
      <rect id="Rectángulo_44369" data-name="Rectángulo 44369" width="284.399" height="43.817" transform="translate(96.109 210.245)" fill="none"/>
    </clipPath>
    <clipPath id="clip-path-4">
      <rect id="Rectángulo_44370" data-name="Rectángulo 44370" width="78.113" height="7.814" transform="translate(197.874 218.504)" fill="none"/>
    </clipPath>
    <clipPath id="clip-path-5">
      <rect id="Rectángulo_44371" data-name="Rectángulo 44371" width="40.614" height="3.347" transform="translate(216.976 228.304)" fill="none"/>
    </clipPath>
    <clipPath id="clip-path-6">
      <rect id="Rectángulo_44373" data-name="Rectángulo 44373" width="128.039" height="93.362" transform="translate(172.09 88.514)" fill="none"/>
    </clipPath>
    <clipPath id="clip-path-7">
      <rect id="Rectángulo_44372" data-name="Rectángulo 44372" width="128.038" height="93.362" transform="translate(172.09 88.514)" fill="none"/>
    </clipPath>
    <clipPath id="clip-path-8">
      <rect id="Rectángulo_44374" data-name="Rectángulo 44374" width="57.119" height="29.554" transform="translate(214.548 140.021)" fill="none"/>
    </clipPath>
    <clipPath id="clip-path-9">
      <rect id="Rectángulo_44375" data-name="Rectángulo 44375" width="0.133" height="0.512" transform="translate(271.534 140.409)" fill="none"/>
    </clipPath>
    <clipPath id="clip-path-10">
      <rect id="Rectángulo_44376" data-name="Rectángulo 44376" width="14.976" height="14.952" transform="translate(235.117 148.379)" fill="none"/>
    </clipPath>
    <clipPath id="clip-path-11">
      <rect id="Rectángulo_44377" data-name="Rectángulo 44377" width="0.982" height="2.307" transform="translate(270.552 140.921)" fill="none"/>
    </clipPath>
    <clipPath id="clip-path-12">
      <rect id="Rectángulo_44378" data-name="Rectángulo 44378" width="52.908" height="40.406" transform="translate(218.63 102.839)" fill="none"/>
    </clipPath>
    <clipPath id="clip-path-13">
      <rect id="Rectángulo_44379" data-name="Rectángulo 44379" width="9.601" height="14.952" transform="translate(240.492 148.379)" fill="none"/>
    </clipPath>
    <clipPath id="clip-path-14">
      <rect id="Rectángulo_44380" data-name="Rectángulo 44380" width="2.185" height="2.897" transform="translate(217.615 105.379)" fill="none"/>
    </clipPath>
    <clipPath id="clip-path-15">
      <rect id="Rectángulo_44381" data-name="Rectángulo 44381" width="10.454" height="14.236" transform="translate(242.693 104.86)" fill="none"/>
    </clipPath>
    <clipPath id="clip-path-16">
      <rect id="Rectángulo_44382" data-name="Rectángulo 44382" width="24.332" height="24.332" transform="translate(246.386 107.758)" fill="none"/>
    </clipPath>
    <clipPath id="clip-path-17">
      <rect id="Rectángulo_44383" data-name="Rectángulo 44383" width="5.013" height="9.646" transform="translate(272.657 114.079)" fill="none"/>
    </clipPath>
    <clipPath id="clip-path-18">
      <rect id="Rectángulo_44384" data-name="Rectángulo 44384" width="197.557" height="53.587" transform="translate(333.042 81)" fill="none"/>
    </clipPath>
  </defs>
  <g id="Grupo_143211" data-name="Grupo 143211" transform="translate(-843 -3146)">
    <g id="Grupo_141964" data-name="Grupo 141964" transform="translate(0 784)">
      <rect id="Rectángulo_44004" data-name="Rectángulo 44004" width="166" height="332" transform="translate(1206 2362)" fill="#4dd0e1"/>
      <g id="Grupo_141963" data-name="Grupo 141963" transform="translate(843 2386)">
        <g id="Grupo_141962" data-name="Grupo 141962" clip-path="url(#clip-path)">
          <rect id="Rectángulo_44368" data-name="Rectángulo 44368" width="505" height="284" fill="#eddcc3"/>
          <g id="Grupo_141961" data-name="Grupo 141961">
            <g id="Grupo_141960" data-name="Grupo 141960" clip-path="url(#clip-path-2)">
              <g id="Grupo_141914" data-name="Grupo 141914" opacity="0.12">
                <g id="Grupo_141913" data-name="Grupo 141913">
                  <g id="Grupo_141912" data-name="Grupo 141912" clip-path="url(#clip-path-3)">
                    <path id="Trazado_196144" data-name="Trazado 196144" d="M136.2,210.245c-17.44.866-45.071,25.281-39.323,33.4,9.633,13.6,95.2,10.2,135.686,9.635,49.695-.692,140.273,3.965,147.072-11.9,7.015-16.365-30.379-28.534-43.576-29.687-12.188-1.064-199.859-1.442-199.859-1.442" fill="#32323f"/>
                  </g>
                </g>
              </g>
              <path id="Trazado_196145" data-name="Trazado 196145" d="M330.39,208.711H144.68a4.02,4.02,0,0,1-4.02-4.019V75.775a4.02,4.02,0,0,1,4.02-4.02H330.39a4.019,4.019,0,0,1,4.019,4.02V204.692a4.019,4.019,0,0,1-4.019,4.019" fill="#303035"/>
              <path id="Trazado_196146" data-name="Trazado 196146" d="M326.551,198.488H148.377a4.019,4.019,0,0,1-4.019-4.019V79.242a4.019,4.019,0,0,1,4.019-4.02H326.551a4.019,4.019,0,0,1,4.018,4.02V194.469a4.019,4.019,0,0,1-4.018,4.019" fill="#1991bf"/>
              <path id="Trazado_196147" data-name="Trazado 196147" d="M113.585,227.855c3.567.081,249.117-1.195,249.391,1.115s1.484,9.707-5.653,9.964-226.013-.419-238.137-.51c-6.911-.052-7.248-10.606-5.6-10.569" fill="#48485b"/>
              <path id="Trazado_196148" data-name="Trazado 196148" d="M113.407,227.928C121.272,220.855,136.883,204,141.143,204c5.658,0,191.41-.1,193.314-.1,1.53,0,28.487,25.063,28.487,25.063Z" fill="#99999d"/>
              <path id="Trazado_196149" data-name="Trazado 196149" d="M151.852,207.24l-7.042,8.42a1.13,1.13,0,0,0,.867,1.855H331.51a1.13,1.13,0,0,0,.724-2l-10.4-8.669a1.134,1.134,0,0,0-.726-.263l-168.4.25a1.128,1.128,0,0,0-.865.4" fill="#2f2f44"/>
              <g id="Grupo_141917" data-name="Grupo 141917" opacity="0.37">
                <g id="Grupo_141916" data-name="Grupo 141916">
                  <g id="Grupo_141915" data-name="Grupo 141915" clip-path="url(#clip-path-4)">
                    <path id="Trazado_196150" data-name="Trazado 196150" d="M203.635,218.987l-5.761,7.114,78.113.218L271,218.5Z" fill="#48485b"/>
                  </g>
                </g>
              </g>
              <g id="Grupo_141920" data-name="Grupo 141920" opacity="0.91">
                <g id="Grupo_141919" data-name="Grupo 141919">
                  <g id="Grupo_141918" data-name="Grupo 141918" clip-path="url(#clip-path-5)">
                    <path id="Trazado_196151" data-name="Trazado 196151" d="M216.976,228.3c.38.9,1.447,3.153,3.915,3.266s32.4.075,33.672.075c2.152,0,3.027-3.179,3.027-3.179Z" fill="#c6c6ca"/>
                  </g>
                </g>
              </g>
              <g id="Grupo_141926" data-name="Grupo 141926" opacity="0.79">
                <g id="Grupo_141925" data-name="Grupo 141925">
                  <g id="Grupo_141924" data-name="Grupo 141924" clip-path="url(#clip-path-6)">
                    <g id="Grupo_141923" data-name="Grupo 141923" opacity="0.85">
                      <g id="Grupo_141922" data-name="Grupo 141922">
                        <g id="Grupo_141921" data-name="Grupo 141921" clip-path="url(#clip-path-7)">
                          <path id="Trazado_196152" data-name="Trazado 196152" d="M294.592,88.514H177.626a5.537,5.537,0,0,0-5.536,5.536v82.29a5.535,5.535,0,0,0,5.536,5.536H294.592a5.535,5.535,0,0,0,5.536-5.536V94.05a5.537,5.537,0,0,0-5.536-5.536" fill="#f4f4f4"/>
                        </g>
                      </g>
                    </g>
                    <path id="Trazado_196153" data-name="Trazado 196153" d="M300.129,94.051v5.626c-24.807-.148-108.556-.67-128.039-.75V94.051a5.536,5.536,0,0,1,5.536-5.537H294.592a5.537,5.537,0,0,1,5.537,5.537" fill="#0267a4"/>
                    <path id="Trazado_196154" data-name="Trazado 196154" d="M180.991,94.249a2.178,2.178,0,1,1-2.178-2.178,2.178,2.178,0,0,1,2.178,2.178" fill="#dedee0"/>
                    <path id="Trazado_196155" data-name="Trazado 196155" d="M187.31,94.249a2.178,2.178,0,1,1-2.178-2.178,2.178,2.178,0,0,1,2.178,2.178" fill="#dedee0"/>
                    <path id="Trazado_196156" data-name="Trazado 196156" d="M193.341,94.249a2.179,2.179,0,1,1-2.178-2.178,2.178,2.178,0,0,1,2.178,2.178" fill="#dedee0"/>
                  </g>
                </g>
              </g>
              <path id="Trazado_196157" data-name="Trazado 196157" d="M271.038,139.51c.7.5.661,1.529.032,2.915q-.158.345-.362.718C267.991,148.1,259.052,156.609,249,162.16c-11.19,6.18-27.044,8.485-32.91,7.621-1.26-.186-2.058-.519-2.251-.991-1.99-4.883,3.323-3.114,2.066-9.71-1.2-6.318-11.918-35.685,3.192-46.78a18.107,18.107,0,0,1,2.161-1.363,18.563,18.563,0,0,1,2.931-1.272,16.962,16.962,0,0,1,2.233-.581c18.285-3.446,35.414,24.811,37.3,28.071,2.064,3.565,4.2.133,7.315,2.355" fill="#f4ad00"/>
              <path id="Trazado_196158" data-name="Trazado 196158" d="M224.669,104.049a5.134,5.134,0,0,1,1.752,5.035,4.907,4.907,0,0,1-2.224,3.124,5.088,5.088,0,0,1-5.1.092,5.3,5.3,0,0,1-.833-.569,5.064,5.064,0,0,1-.73-7.121,4.933,4.933,0,0,1,1.1-.973,5.109,5.109,0,0,1,6.04.412" fill="#f4ad00"/>
              <path id="Trazado_196159" data-name="Trazado 196159" d="M217.609,130.533a14.979,14.979,0,0,0,.014,4.441,99.233,99.233,0,0,0,3.3,12.323" fill="none" stroke="#fff" stroke-linecap="round" stroke-linejoin="round" stroke-width="3"/>
              <path id="Trazado_196160" data-name="Trazado 196160" d="M221.868,118.541a8.776,8.776,0,0,0-2.893,5.324" fill="none" stroke="#fff" stroke-linecap="round" stroke-linejoin="round" stroke-width="3"/>
              <g id="Grupo_141929" data-name="Grupo 141929" opacity="0.28">
                <g id="Grupo_141928" data-name="Grupo 141928">
                  <g id="Grupo_141927" data-name="Grupo 141927" clip-path="url(#clip-path-8)">
                    <path id="Trazado_196161" data-name="Trazado 196161" d="M271.667,140.467c-1.849,6.918-12.111,15.863-22.667,21.692-11.19,6.18-28.586,8.083-34.452,7.219.484-3.858,9.39-10.25,20.778-16.336,1.766-.945,3.591-1.882,5.455-2.8q1.939-.956,3.859-1.863c12.16-5.746,23.281-9.736,27.027-7.912" fill="#bf3a16"/>
                  </g>
                </g>
              </g>
              <g id="Grupo_141932" data-name="Grupo 141932" opacity="0.14">
                <g id="Grupo_141931" data-name="Grupo 141931">
                  <g id="Grupo_141930" data-name="Grupo 141930" clip-path="url(#clip-path-9)">
                    <path id="Trazado_196162" data-name="Trazado 196162" d="M271.667,140.467c-.04.15-.084.3-.133.454a2.212,2.212,0,0,0,.005-.513c.043.019.086.038.128.059" fill="#e84e1b"/>
                  </g>
                </g>
              </g>
              <g id="Grupo_141935" data-name="Grupo 141935" opacity="0.51">
                <g id="Grupo_141934" data-name="Grupo 141934">
                  <g id="Grupo_141933" data-name="Grupo 141933" clip-path="url(#clip-path-10)">
                    <path id="Trazado_196163" data-name="Trazado 196163" d="M248.464,151.386c2.574,3.591,2.039,8.384-1.2,10.7a7.02,7.02,0,0,1-6.776.675,8.583,8.583,0,0,1-3.746-2.976,8.325,8.325,0,0,1-1.42-6.747c1.765-.945,3.591-1.881,5.454-2.8q1.282-.632,2.556-1.242.654-.313,1.3-.621a8.573,8.573,0,0,1,3.825,3.007" fill="#d82400"/>
                  </g>
                </g>
              </g>
              <g id="Grupo_141938" data-name="Grupo 141938" opacity="0.14">
                <g id="Grupo_141937" data-name="Grupo 141937">
                  <g id="Grupo_141936" data-name="Grupo 141936" clip-path="url(#clip-path-11)">
                    <path id="Trazado_196164" data-name="Trazado 196164" d="M270.552,143.228a14,14,0,0,0,.982-2.307,5.235,5.235,0,0,1-.464,1.5q-.158.345-.361.719l-.157.085" fill="#e84e1b"/>
                  </g>
                </g>
              </g>
              <g id="Grupo_141941" data-name="Grupo 141941" opacity="0.14">
                <g id="Grupo_141940" data-name="Grupo 141940">
                  <g id="Grupo_141939" data-name="Grupo 141939" clip-path="url(#clip-path-12)">
                    <path id="Trazado_196165" data-name="Trazado 196165" d="M271.038,139.51a1.212,1.212,0,0,1,.5.9c-2.523-1.094-8.09.215-15,2.836-9.534-6.116-14.376-24.1-18.752-28.395-4.049-3.975-10.481-3.022-13.593-2.641-1.729.21-2.436.246-1.149-.834a3.179,3.179,0,0,0,1.14-1.71c.569-2.5-2.91-5.183-5.559-6.027a5.167,5.167,0,0,1,7.792,5.446c18.285-3.446,35.414,24.811,37.3,28.071,2.064,3.565,4.2.133,7.315,2.355" fill="#e84e1b"/>
                  </g>
                </g>
              </g>
              <g id="Grupo_141944" data-name="Grupo 141944" opacity="0.42">
                <g id="Grupo_141943" data-name="Grupo 141943">
                  <g id="Grupo_141942" data-name="Grupo 141942" clip-path="url(#clip-path-13)">
                    <path id="Trazado_196166" data-name="Trazado 196166" d="M248.464,151.386c2.574,3.591,2.039,8.384-1.2,10.7a7.02,7.02,0,0,1-6.776.675c5.722-6.667,5.534-10.128,2.844-13.765q.654-.313,1.3-.621a8.573,8.573,0,0,1,3.825,3.007" fill="#d82400"/>
                  </g>
                </g>
              </g>
              <g id="Grupo_141947" data-name="Grupo 141947" opacity="0.79">
                <g id="Grupo_141946" data-name="Grupo 141946">
                  <g id="Grupo_141945" data-name="Grupo 141945" clip-path="url(#clip-path-14)">
                    <path id="Trazado_196167" data-name="Trazado 196167" d="M219.56,107.247c-.377.765-1.065,1.2-1.536.966s-.547-1.041-.17-1.806,1.065-1.2,1.536-.966.547,1.041.17,1.806" fill="#fff"/>
                  </g>
                </g>
              </g>
              <path id="Trazado_196168" data-name="Trazado 196168" d="M205.37,135.644a.963.963,0,0,1,.772,1.749c-2.128,1.231-4.278,1.852-4.825.778-.46-.9,1.766-1.833,4.053-2.527" fill="#fff"/>
              <path id="Trazado_196169" data-name="Trazado 196169" d="M213.189,115.1a.964.964,0,0,1-1.772.675c-2.112-3.463-3.439-7.627-1.643-8.392,1.524-.649,2.73,4.1,3.415,7.717" fill="#fff"/>
              <path id="Trazado_196170" data-name="Trazado 196170" d="M204.635,127.132a.963.963,0,0,1-.074,1.894c-4.012.585-8.364.171-8.362-1.784,0-1.658,4.845-.9,8.436-.11" fill="#fff"/>
              <path id="Trazado_196171" data-name="Trazado 196171" d="M204.156,119.684a.963.963,0,0,1-.867,1.717c-1.418-.665-2.367-1.494-2.055-2.273.265-.662,1.517-.216,2.922.556" fill="#fff"/>
              <path id="Trazado_196172" data-name="Trazado 196172" d="M257.911,139.121c-.505.153-1.384.233-1.653-.621-2.347-7.449-6.875-16.563-14.969-21.068-.526-.293-.321-.881.041-1.368.307-.415.722-.741.867-.7,3.176.993,14.4,9.787,16.6,23.22a2.4,2.4,0,0,1-.888.533" fill="#0a202b"/>
              <path id="Trazado_196173" data-name="Trazado 196173" d="M258.732,138.644c-2.374-8.633-8.7-18.27-16.872-23.1.308-.415.444-.536.589-.491,3.176.993,13.741,10.07,16.887,23.027.094.337-.257.463-.6.568" fill="#c96e00"/>
              <path id="Trazado_196174" data-name="Trazado 196174" d="M274.966,117.859a16.278,16.278,0,0,1-16.1,18.5c-.177,0-.352,0-.528-.007-.11,0-.22-.008-.33-.014h0a16.3,16.3,0,0,1-2.607-.348A50.638,50.638,0,0,0,253.266,131q-.036-.076-.075-.153l-.054-.108a36.589,36.589,0,0,0-5.576-8.269q-.491-.539-1.012-1.052c-.025-.026-.052-.052-.08-.078a25.411,25.411,0,0,0-2.611-2.24c-.379-.283-.766-.555-1.165-.815a16.186,16.186,0,0,1,.35-2c.04-.166.083-.332.127-.5.036-.127.072-.254.109-.38a16.325,16.325,0,0,1,6.824-9.025,16.03,16.03,0,0,1,1.8-1c.4-.191.818-.367,1.24-.523a16.259,16.259,0,0,1,21.819,13" fill="#f4ad00"/>
              <g id="Grupo_141950" data-name="Grupo 141950" opacity="0.78">
                <g id="Grupo_141949" data-name="Grupo 141949">
                  <g id="Grupo_141948" data-name="Grupo 141948" clip-path="url(#clip-path-15)">
                    <path id="Trazado_196175" data-name="Trazado 196175" d="M253.147,104.86c-.014.758-.051,1.559-.126,2.379-.059.652-.142,1.316-.256,1.981l-.16.089-.009.005-.149.084-.088.052c-.083.048-.163.1-.244.149-.043.027-.088.054-.131.082h0l-.089.06c-.1.061-.189.124-.281.189-.064.044-.128.089-.19.135l-.034.024c-.048.035-.1.071-.144.107l-.032.025q-.339.255-.656.534c-.07.06-.138.122-.207.184l-.068.062-.124.118-.01.009-.124.121-.054.053a.337.337,0,0,0-.032.033c-.013.012-.028.025-.041.039l-.124.129c-.083.086-.164.173-.243.262-.048.053-.1.106-.143.16-.031.036-.063.071-.093.107l-.07.085c-.07.081-.137.163-.2.248l-.057.071-.009.011-.054.071c-.059.076-.118.154-.174.232-.029.039-.055.077-.083.116q-.137.189-.264.386c-.016.022-.03.045-.045.068l-.1.151h0q-.144.225-.274.459-.036.06-.069.123c-.025.043-.049.088-.072.133-.011.019-.022.038-.031.057l-.081.155-.005.01-.011.023c-.023.044-.044.087-.066.131h0c-.012.023-.024.048-.034.072-.051.1-.1.205-.145.309l-.048.105-.057.132-.034.082c-.033.078-.065.157-.1.236a.14.14,0,0,0-.01.026c-.033.085-.065.169-.095.254a.355.355,0,0,0-.016.046c-.032.084-.06.168-.088.253a.488.488,0,0,0-.017.05c-.022.069-.045.138-.066.207s-.039.124-.057.186l-.045.161c-.055.2-.105.4-.148.594-.016.074-.032.148-.047.222s-.033.158-.047.238c-.005.025-.009.05-.013.076l-.024.136c-.007.044-.014.088-.02.132h0c-.014.091-.027.183-.038.275-.151.063-.3.124-.46.181a11.1,11.1,0,0,1-1.321.393c-.273.064-.555.12-.847.166-.379-.283-.766-.554-1.165-.814a16.2,16.2,0,0,1,.35-2c.04-.166.083-.331.128-.495q.052-.19.108-.381a16.332,16.332,0,0,1,6.824-9.025,16.024,16.024,0,0,1,1.8-1q.606-.288,1.24-.524" fill="#f4c83d"/>
                  </g>
                </g>
              </g>
              <g id="Grupo_141953" data-name="Grupo 141953" opacity="0.19">
                <g id="Grupo_141952" data-name="Grupo 141952">
                  <g id="Grupo_141951" data-name="Grupo 141951" clip-path="url(#clip-path-16)">
                    <path id="Trazado_196176" data-name="Trazado 196176" d="M270.6,118.256a12.172,12.172,0,0,1-7.891,13.1c-.071.026-.143.051-.215.074a12.229,12.229,0,0,1-5.246.588c-.115-.012-.231-.025-.345-.041q-.389-.052-.77-.131a12.045,12.045,0,0,1-2.944-1.005c-.017-.036-.035-.072-.053-.108a36.628,36.628,0,0,0-5.576-8.27c-.328-.358-.665-.71-1.012-1.051l-.08-.078a12.206,12.206,0,0,1-.041-2.451c.015-.177.035-.354.057-.53.011-.092.024-.183.039-.274h0c.006-.045.013-.089.02-.133s.015-.091.023-.136c0-.025.009-.05.014-.075.014-.08.029-.16.047-.239s.03-.148.046-.222c.043-.2.093-.4.148-.593.014-.054.03-.108.046-.161s.036-.124.057-.186.043-.139.066-.208a.35.35,0,0,1,.016-.049c.028-.085.057-.17.088-.254.005-.016.01-.03.016-.046.03-.084.062-.169.1-.253a.083.083,0,0,1,.01-.026c.03-.08.061-.158.1-.236l.033-.083c.035-.08.069-.158.105-.237.046-.1.094-.206.145-.309.032-.068.065-.136.1-.2s.084-.164.128-.244c.023-.046.047-.09.072-.134s.045-.083.069-.123c.087-.155.179-.308.274-.459.045-.074.093-.147.141-.22.085-.131.174-.26.264-.385l.083-.117c.057-.078.115-.155.174-.232.039-.051.08-.1.12-.153.065-.084.133-.167.2-.248.053-.064.108-.129.163-.191s.1-.108.143-.161c.08-.089.161-.176.243-.262q.082-.085.165-.168a.332.332,0,0,1,.033-.032c.058-.059.117-.117.177-.175l.01-.008c.063-.062.127-.121.192-.18s.137-.124.207-.185c.211-.186.43-.363.656-.534.059-.045.117-.089.177-.132l.033-.024c.064-.046.127-.091.191-.135.092-.065.185-.127.28-.188.073-.049.147-.1.221-.143s.162-.1.244-.149l.237-.136.009-.005q.24-.135.488-.259c.167-.084.338-.165.51-.242s.347-.149.523-.218a12.258,12.258,0,0,1,5.935-.74c.093.012.187.025.28.039s.168.025.252.04l.059.01c.067.012.134.024.2.038l.206.041.154.034a12.162,12.162,0,0,1,9.389,10.2" fill="#d39333"/>
                  </g>
                </g>
              </g>
              <path id="Trazado_196177" data-name="Trazado 196177" d="M266.313,110.585a12.095,12.095,0,0,0-18.74,8.028c-.019.107-.035.214-.049.32q-.06.435-.087.876a12.072,12.072,0,0,0,.091,2.432q.015.113.033.225-.492-.539-1.012-1.051a12.066,12.066,0,0,1-.07-2.485q.031-.41.09-.813c.017-.115.035-.229.055-.344a12.122,12.122,0,0,1,6.469-8.723q.25-.126.509-.242c.172-.077.346-.15.524-.218a12.157,12.157,0,0,1,5.934-.74c.094.012.187.024.28.038s.168.026.253.041l.058.01c.068.011.134.024.2.037s.138.028.206.042l.154.033a12.123,12.123,0,0,1,5.1,2.534" fill="#cc820a"/>
              <path id="Trazado_196178" data-name="Trazado 196178" d="M271.588,119.041a12.1,12.1,0,0,1-14.08,13.571c-.127-.021-.253-.046-.378-.072-.253-.053-.5-.113-.751-.182A12.1,12.1,0,0,1,253.266,131c-.024-.051-.05-.1-.076-.153-.017-.036-.035-.072-.053-.108a12.018,12.018,0,0,0,2.972,1.061c.257.055.517.1.778.141.114.017.229.031.344.044a12.168,12.168,0,0,0,5.265-.549c.072-.023.144-.048.214-.074a12.093,12.093,0,0,0,3.7-20.657q.178.121.351.25a12.052,12.052,0,0,1,4.823,8.089" fill="#f4c83d"/>
              <path id="Trazado_196179" data-name="Trazado 196179" d="M265.38,122.333a4.213,4.213,0,0,1-.108,2.431,4.455,4.455,0,0,1-1.532,2.037,7.364,7.364,0,0,1-2.844,1.284,6.884,6.884,0,0,1-3.6.033,4.638,4.638,0,0,1-1.9-1.131,3.5,3.5,0,0,1-1.03-1.681,1.27,1.27,0,0,1,.967-1.55,1.114,1.114,0,0,1,.826.105,2.307,2.307,0,0,1,.731.721,5.853,5.853,0,0,0,.842.977,2.41,2.41,0,0,0,1.047.53,3.281,3.281,0,0,0,1.545-.063,3.428,3.428,0,0,0,1.9-1.073,1.81,1.81,0,0,0,.436-1.649,1.588,1.588,0,0,0-.693-1.027,2.805,2.805,0,0,0-1.253-.4q-.726-.067-1.911-.057a13.477,13.477,0,0,1-2.714-.222,4.207,4.207,0,0,1-1.917-.9,3.433,3.433,0,0,1-1.078-1.881,3.574,3.574,0,0,1,.139-2.2,4.087,4.087,0,0,1,1.49-1.811,7.672,7.672,0,0,1,2.686-1.15,7.113,7.113,0,0,1,2.3-.211,4.832,4.832,0,0,1,1.76.475,3.665,3.665,0,0,1,1.17.893,2.633,2.633,0,0,1,.556,1.065,1.369,1.369,0,0,1-.14.994,1.171,1.171,0,0,1-.794.618,1.053,1.053,0,0,1-.8-.067,3.328,3.328,0,0,1-.737-.664,3.733,3.733,0,0,0-1.209-1.015,2.751,2.751,0,0,0-1.82-.033,3.058,3.058,0,0,0-1.651.9,1.442,1.442,0,0,0-.4,1.317,1.2,1.2,0,0,0,.4.668,1.965,1.965,0,0,0,.753.374,4.31,4.31,0,0,0,.892.15q.438.025,1.438.039a22.021,22.021,0,0,1,2.283.1,6.722,6.722,0,0,1,1.822.421,3.418,3.418,0,0,1,1.335.954,4,4,0,0,1,.8,1.7" fill="#cc820a"/>
              <path id="Trazado_196180" data-name="Trazado 196180" d="M261.922,129.628l-1.492.357a.486.486,0,0,1-.584-.359l-4.134-17.307a.484.484,0,0,1,.358-.584l1.492-.357a.484.484,0,0,1,.584.359l4.135,17.307a.485.485,0,0,1-.359.584" fill="#cc820a"/>
              <path id="Trazado_196181" data-name="Trazado 196181" d="M264.668,121.786a4.213,4.213,0,0,1-.108,2.431,4.454,4.454,0,0,1-1.532,2.037,7.364,7.364,0,0,1-2.844,1.284,6.884,6.884,0,0,1-3.6.033,4.638,4.638,0,0,1-1.905-1.131,3.5,3.5,0,0,1-1.03-1.681,1.27,1.27,0,0,1,.967-1.55,1.114,1.114,0,0,1,.826.105,2.308,2.308,0,0,1,.731.721,5.851,5.851,0,0,0,.842.977,2.41,2.41,0,0,0,1.047.53,3.281,3.281,0,0,0,1.545-.063,3.428,3.428,0,0,0,1.9-1.073,1.81,1.81,0,0,0,.436-1.649,1.588,1.588,0,0,0-.693-1.027,2.805,2.805,0,0,0-1.253-.4c-.484-.045-1.122-.065-1.91-.057a13.481,13.481,0,0,1-2.715-.222,4.207,4.207,0,0,1-1.917-.9,3.433,3.433,0,0,1-1.078-1.881,3.574,3.574,0,0,1,.139-2.2,4.087,4.087,0,0,1,1.49-1.811,7.671,7.671,0,0,1,2.686-1.15,7.113,7.113,0,0,1,2.3-.211,4.831,4.831,0,0,1,1.76.475,3.665,3.665,0,0,1,1.17.893,2.633,2.633,0,0,1,.556,1.065,1.369,1.369,0,0,1-.14.994,1.171,1.171,0,0,1-.794.618,1.053,1.053,0,0,1-.8-.067,3.328,3.328,0,0,1-.737-.664,3.733,3.733,0,0,0-1.209-1.015,2.751,2.751,0,0,0-1.82-.033,3.057,3.057,0,0,0-1.651.9,1.442,1.442,0,0,0-.4,1.317,1.2,1.2,0,0,0,.4.668,1.965,1.965,0,0,0,.753.374,4.311,4.311,0,0,0,.892.15q.438.025,1.438.039a22.023,22.023,0,0,1,2.283.1,6.723,6.723,0,0,1,1.822.421,2.716,2.716,0,0,1,1.126.927,4.335,4.335,0,0,1,1.01,1.723" fill="#f4c83d"/>
              <path id="Trazado_196182" data-name="Trazado 196182" d="M261.209,129.081l-1.492.357a.486.486,0,0,1-.584-.359L255,111.772a.484.484,0,0,1,.358-.584l1.492-.357a.484.484,0,0,1,.584.359l4.135,17.307a.485.485,0,0,1-.359.584" fill="#f4c83d"/>
              <g id="Grupo_141956" data-name="Grupo 141956" opacity="0.15">
                <g id="Grupo_141955" data-name="Grupo 141955">
                  <g id="Grupo_141954" data-name="Grupo 141954" clip-path="url(#clip-path-17)">
                    <path id="Trazado_196183" data-name="Trazado 196183" d="M274.957,114.079c-1.491,2.538-4.462,10.747.263,9.523s1.161-4.343,1.161-4.343l-.884-3.636Z" fill="#1f1f39"/>
                  </g>
                </g>
              </g>
              <path id="Trazado_196184" data-name="Trazado 196184" d="M341.67,84.351h0c-1.207-.3-2.4-.584-3.608-.84-.071-.015-.145-.033-.216-.047a11.914,11.914,0,0,0-4.8-.329c-1.825.361-9.238,2.834-12.878,5.91-5.337,7.191-19.735,16.937-24.224,20-5.081,3.465-17.1,14.085-20.72,14.557-3.008.524-1.9-3.243-1.359-5.114.516-1.943.779-3.7,1.917-5.433a66.835,66.835,0,0,1,10.109-12.131c5.375-5.247,6.56-11.988-1.862-13.486-6.017-1.289-15.491,6.2-23.86,15.7-.2.227-.4.457-.6.687q-1.078.038-2.119.156a21.422,21.422,0,0,0-4.083.875c-4,1.276-8.05,4.7-10.109,10.638-.36,1.265-.45-.533.477-3.948a43.7,43.7,0,0,1,6.318-13.278c8.974-12.867,14.5-26.944,20.246-27.695s13.261-5.327,28.337-9.245,13.442-2.408,38.385-5.342c26.688-.878,148.235,17.341,179.962,20.669l11.125,49.6c-23.86-9.527-156.731-33.935-186.434-41.908" fill="#efa88f"/>
              <path id="Trazado_196185" data-name="Trazado 196185" d="M342,85.389c.022.03.044.057.066.082a.623.623,0,0,0,.193.147l.042.018c.057.021.16.056.307.1a.366.366,0,0,0,.047.015l.207.067h0l.251.08h0c.067.02.139.042.214.067h0c.05.016.1.031.155.049h0l.528.164h0l1.078.331h0c.078.024.159.048.24.074h0c.082.025.165.049.25.076.044.015.089.028.135.041l2.4.727c.058.019.117.036.177.053l.336.1C363.048,91.944,495.069,119,529.228,130.013L515.523,71.8C491.3,69.333,371.407,53.966,359.2,53.607c-6.493-.192-10.4.016-10.77.733a14.52,14.52,0,0,0-.618,1.452c-1.9,5.026-5.5,18.527-6.121,25.53a14.372,14.372,0,0,0-.024,3.028h0c.005.035.011.071.017.106s.009.063.015.093.01.058.017.087a.116.116,0,0,0,.005.024c.008.041.017.082.027.121a1.792,1.792,0,0,0,.25.607" fill="#fff"/>
              <path id="Trazado_196186" data-name="Trazado 196186" d="M349.032,90.445h0c.051.024.15.064.295.118h0l.282.1c.045.015.09.032.138.05l.149.052.081.029.168.059.091.032.187.064.1.036.314.108h0l.225.077h0l.239.081.252.086c.11.037.224.077.342.116l.484.163c.1.034.2.067.3.1l.155.052.316.107.328.11.27.089c1.11.372,2.4.8,3.848,1.28.119.039.239.08.361.118l.557.186.375.123,1.178.388.4.132h0l.407.133.736.242.423.139,1.486.488.448.147h0c.151.049.3.1.454.149l.409.133.585.192h0l.594.194.6.2h0l.92.3q.993.326,2.029.664l.843.274c.283.092.568.186.857.279l.471.155.674.219h0q2.713.885,5.658,1.842l.738.24,1.5.486,2.289.744,1.555.5,1.111.36.939.306c14.588,4.731,127.441,26.444,144.4,31.887L515.421,71.46C483.256,68.018,360.214,52.3,359.4,53.306a2.416,2.416,0,0,0-.2.3,27.357,27.357,0,0,0-1.245,2.785h0a232.749,232.749,0,0,0-8,24.608c-.489,1.936-.877,3.7-1.119,5.162-.085.513-.151.991-.2,1.426h0c-.006.066-.013.131-.019.194-.013.128-.023.251-.03.37-.013.18-.022.349-.025.509,0,.108,0,.211,0,.309s.005.193.01.284c0,.035,0,.069.008.1s.006.078.01.116l.009.07c0,.025.006.049.011.073s.01.071.017.105a.385.385,0,0,0,.011.051c0,.024.01.047.015.069a.842.842,0,0,0,.381.6" fill="#0267a4"/>
              <g id="Grupo_141959" data-name="Grupo 141959" opacity="0.16">
                <g id="Grupo_141958" data-name="Grupo 141958">
                  <g id="Grupo_141957" data-name="Grupo 141957" clip-path="url(#clip-path-18)">
                    <path id="Trazado_196187" data-name="Trazado 196187" d="M333.042,83.134l.114-.021c.058-.011.114-.02.171-.028.036-.007.073-.012.11-.017l.121-.016.158-.018.131-.01c.044-.005.089-.007.133-.01.1-.007.2-.012.308-.013.077,0,.154,0,.231,0,.1,0,.2,0,.3.006s.169.008.254.014l.154.012c.448.036.909.1,1.4.188.129.023.261.048.395.074s.271.053.409.081l.42.088h0l.215.047h0l.443.1.7.153c.027.006.056.011.087.019l.135.03.178.041h0l.082.019.082.019c.055.012.113.027.173.041l.212.05.318.077.191.047.1.024.081.02c.062.014.124.03.188.046l.637.157h0c0,.036.01.071.016.106a.9.9,0,0,0,.016.093c0,.029.01.058.016.087l.005.024c.008.041.017.083.028.121a1.8,1.8,0,0,0,.249.607c.023.03.044.057.067.082a.608.608,0,0,0,.192.147.278.278,0,0,0,.043.019c.057.021.16.056.307.1l.046.014.208.068h0c.077.026.16.052.25.08h0l.215.067h0c.05.017.1.032.155.049h0l.528.163h0c.318.1.678.209,1.077.33h.005l.239.074h0c.082.026.165.052.25.076.044.015.09.029.135.041q1.055.322,2.4.727c.059.019.118.036.178.053l.335.1h0c-.007.066-.014.13-.02.194-.012.127-.023.25-.031.37-.012.178-.02.349-.025.509,0,.108,0,.211,0,.309s.005.193.01.284c0,.035.005.069.008.1s.007.078.011.116.005.048.009.07a.584.584,0,0,0,.01.073q.008.054.018.105c0,.018.006.035.01.051a.7.7,0,0,0,.016.069.841.841,0,0,0,.38.6c.052.025.152.064.295.119h0l.282.1.138.05.148.052.082.029.167.059.091.032.188.064.1.036.315.108h0l.225.077h0l.238.081.252.086c.111.037.225.075.342.116l.484.163.3.1.155.052.316.106.329.111.269.089c1.111.372,2.4.8,3.849,1.28.119.039.239.08.36.118l.557.186.376.123,1.178.388.4.132h0l.407.133.737.242.423.139,1.485.488.448.147h0l.454.149.409.133.584.192h0l.594.194.6.2h0l.92.3q.994.326,2.029.664l.844.274.856.279.471.154.674.22h0q2.713.885,5.658,1.842l.737.24,1.5.486,2.289.744,1.556.5,1.11.36.939.306c14.589,4.731,127.441,26.444,144.4,31.887l-8.366-27.92C492.954,101.338,368.6,81.039,349.953,81c-3.037-.006-5.8.1-8.26.322a30.476,30.476,0,0,0-8.651,1.812" fill="#1f1f39"/>
                  </g>
                </g>
              </g>
              <path id="Trazado_196188" data-name="Trazado 196188" d="M275.607,120.094c3.542-.448,4.084-1.972,4.855-6.719.347,4.53.889,6.258,4.464,6.861-3.161,1.212-4.272,1.652-4.958,6.861-.642-5.308-1.318-5.792-4.361-7" fill="#fff"/>
              <path id="Trazado_196189" data-name="Trazado 196189" d="M246.182,113.75c2.258-.377,2.557-1.294,2.9-4.118.366,2.661.768,3.663,3.081,3.9-1.989.815-2.688,1.111-2.963,4.206-.58-3.111-1.029-3.376-3.019-3.993" fill="#fff"/>
            </g>
          </g>
        </g>
      </g>
    </g>
  </g>
</svg>
