<svg xmlns="http://www.w3.org/2000/svg" xmlns:xlink="http://www.w3.org/1999/xlink" width="1012.318" height="1034.338" viewBox="0 0 1012.318 1034.338">
  <defs>
    <clipPath id="clip-path">
      <rect id="Rectángulo_44515" data-name="Rectángulo 44515" width="1012.318" height="1034.338" transform="translate(0 0.002)" fill="none"/>
    </clipPath>
  </defs>
  <g id="Grupo_143195" data-name="Grupo 143195" transform="translate(-294 -1584)">
    <g id="Grupo_142203" data-name="Grupo 142203" transform="translate(0 1)">
      <path id="Trazado_196483" data-name="Trazado 196483" d="M957.955,867.794l12.991,7.5,41.372-23.923L999.234,844.1Z" transform="translate(294 1582.998)" fill="#afafaf"/>
      <path id="Trazado_196484" data-name="Trazado 196484" d="M0,101.411l140.318,81.013L269.4,107.41,129.081,26.4Z" transform="translate(294 1582.998)" fill="#97b0c4"/>
      <path id="Trazado_196485" data-name="Trazado 196485" d="M140.166,236.183,269.247,161.17l.153-53.76L140.318,182.424Z" transform="translate(294 1582.998)" fill="#718493"/>
      <path id="Trazado_196486" data-name="Trazado 196486" d="M280.484,317.2l129.08-75.013L269.246,161.169,140.165,236.182Z" transform="translate(294 1582.998)" fill="#4dd0e1"/>
      <path id="Trazado_196487" data-name="Trazado 196487" d="M280.332,370.928l129.08-75.013.153-53.732L280.484,317.195Z" transform="translate(294 1582.998)" fill="#3da6b4"/>
      <path id="Trazado_196488" data-name="Trazado 196488" d="M420.5,505.687l129.08-75.013.153-53.746L420.651,451.94Z" transform="translate(294 1582.998)" fill="#cba124"/>
      <path id="Trazado_196489" data-name="Trazado 196489" d="M420.651,451.94l129.08-75.012L409.413,295.914,280.332,370.928Z" transform="translate(294 1582.998)" fill="#feca2e"/>
      <path id="Trazado_196490" data-name="Trazado 196490" d="M560.658,642.432,689.9,567.418V511.687L560.817,586.7Z" transform="translate(294 1582.998)" fill="#718493"/>
      <path id="Trazado_196491" data-name="Trazado 196491" d="M560.817,586.7,689.9,511.687,549.579,430.673,420.5,505.687Z" transform="translate(294 1582.998)" fill="#97b0c4"/>
      <path id="Trazado_196492" data-name="Trazado 196492" d="M841.177,858.265l-.1,91.435-41.372,23.885,106.653,60.755,105.958-183.506-42.161,24.342.1-91.924Z" transform="translate(294 1582.998)" fill="#091743"/>
      <g id="Grupo_142202" data-name="Grupo 142202" transform="translate(294 1582.998)">
        <g id="Grupo_142201" data-name="Grupo 142201" clip-path="url(#clip-path)">
          <path id="Trazado_196493" data-name="Trazado 196493" d="M202.876,51.082a.569.569,0,0,0,.288-.077l53.585-30.982a.577.577,0,1,0-.579-1L202.588,50.005a.577.577,0,0,0,.288,1.077" fill="#d1d3d4"/>
          <path id="Trazado_196494" data-name="Trazado 196494" d="M344.949,186.869a.576.576,0,0,0,.289-.078l53.583-30.981a.577.577,0,0,0-.578-1L344.66,185.792a.577.577,0,0,0,.289,1.077" fill="#d1d3d4"/>
          <path id="Trazado_196495" data-name="Trazado 196495" d="M485.485,321.132a.569.569,0,0,0,.288-.077l53.584-30.981a.578.578,0,0,0-.579-1L485.2,320.055a.577.577,0,0,0,.29,1.077" fill="#d1d3d4"/>
          <path id="Trazado_196496" data-name="Trazado 196496" d="M490.339,317.908a5.19,5.19,0,1,0-1.817,7.112,5.192,5.192,0,0,0,1.817-7.112" fill="#00d7e1"/>
          <path id="Trazado_196497" data-name="Trazado 196497" d="M350.173,183.645a5.19,5.19,0,1,0-1.817,7.111,5.191,5.191,0,0,0,1.817-7.111" fill="#00d2aa"/>
          <path id="Trazado_196498" data-name="Trazado 196498" d="M207.341,47.857a5.19,5.19,0,1,0-1.818,7.111,5.191,5.191,0,0,0,1.818-7.111" fill="#8cd26e"/>
          <path id="Trazado_196499" data-name="Trazado 196499" d="M460.073,592.112a.576.576,0,0,0-.289.078L406.2,623.171a.577.577,0,0,0,.578,1l53.583-30.981a.577.577,0,0,0-.289-1.077" fill="#d1d3d4"/>
          <path id="Trazado_196500" data-name="Trazado 196500" d="M455.609,595.337a5.19,5.19,0,1,0,1.818-7.111,5.19,5.19,0,0,0-1.818,7.111" fill="#0082d2"/>
          <path id="Trazado_196501" data-name="Trazado 196501" d="M599.3,727.672a.576.576,0,0,0-.289.078l-53.583,30.981a.577.577,0,0,0,.578,1l53.583-30.981a.577.577,0,0,0-.289-1.077" fill="#d1d3d4"/>
          <path id="Trazado_196502" data-name="Trazado 196502" d="M594.836,730.9a5.19,5.19,0,1,0,1.818-7.111,5.19,5.19,0,0,0-1.818,7.111" fill="#0082d2"/>
          <path id="Trazado_196503" data-name="Trazado 196503" d="M734.77,845.932a.576.576,0,0,0-.289.078L680.9,876.991a.577.577,0,0,0,.578,1l53.583-30.981a.577.577,0,0,0-.289-1.077" fill="#d1d3d4"/>
          <path id="Trazado_196504" data-name="Trazado 196504" d="M730.306,849.156a5.19,5.19,0,1,0,1.818-7.111,5.19,5.19,0,0,0-1.818,7.111" fill="#0082d2"/>
          <path id="Trazado_196505" data-name="Trazado 196505" d="M700.984,777.19l129.08-75.013.153-53.746L701.136,723.443Z" fill="#2e7d87"/>
          <path id="Trazado_196506" data-name="Trazado 196506" d="M701.136,723.443l129.08-75.012L689.9,567.417l-129.24,75.014Z" fill="#4dd0e1"/>
          <path id="Trazado_196507" data-name="Trazado 196507" d="M841.3,858.2l129.08-75.012L830.064,702.176,700.984,777.19Z" fill="#0f2771"/>
          <path id="Trazado_196508" data-name="Trazado 196508" d="M841.078,949.7l-13.085-7.275-41.278,23.7,12.991,7.5Z" fill="#afafaf"/>
          <path id="Trazado_196509" data-name="Trazado 196509" d="M.021,64.8V94.165L.1,64.85Z" fill="#d1d3d4"/>
          <path id="Trazado_196510" data-name="Trazado 196510" d="M700.984,777.19l.152-53.747L560.659,642.432l.158-55.733L420.5,505.687l.152-53.747L280.332,370.928l.063-22.228.036-12.346h0l.055-19.158L140.166,236.183l.152-53.759-140.3-81v14.952l127.264,73.476-.152,53.759,140.318,81.013-.057,19.934-.1,35.784,140.318,81.014-.152,53.758,140.318,81.013-.152,53.733,140.319,81.012-.152,53.746L828.11,865.63l-.116,76.795,13.084,7.274.065-91.5Z" fill="#afafaf"/>
          <path id="Trazado_196511" data-name="Trazado 196511" d="M508.161,524.873a4.347,4.347,0,0,1,1.67,1.657,1.879,1.879,0,0,1-.016,1.772,4.192,4.192,0,0,1-1.724,1.621,8.3,8.3,0,0,1-4.893,1,13.414,13.414,0,0,1-5.674-1.881l-.609-.352a8.487,8.487,0,0,1-2.621-2.143,2.4,2.4,0,0,1-.528-2.118,3.2,3.2,0,0,1,1.634-1.8,8.447,8.447,0,0,1,4.3-1.12,10.26,10.26,0,0,1,4.592,1.1l-2.563,1.48a4.647,4.647,0,0,0-2.107-.65,3.643,3.643,0,0,0-1.9.53c-.638.369-.832.8-.577,1.29a5.921,5.921,0,0,0,2.179,1.8l.871.5a11.052,11.052,0,0,0,3.244,1.379,3.288,3.288,0,0,0,2.323-.363q.883-.513.873-1.061t-1.034-1.171Z" fill="#0f2771"/>
          <path id="Trazado_196512" data-name="Trazado 196512" d="M508.461,524.132a5.953,5.953,0,0,1-1.978-1.675,1.841,1.841,0,0,1-.32-1.714,3.005,3.005,0,0,1,1.454-1.5,7.088,7.088,0,0,1,4.078-.885,10.162,10.162,0,0,1,4.488,1.408l.1.059q2.139,1.234,2.366,2.553t-1.53,2.335a7.08,7.08,0,0,1-3.889.893,9.844,9.844,0,0,1-4.282-1.2Zm2.645-1.322a6.592,6.592,0,0,0,2.2.875,2.406,2.406,0,0,0,1.61-.245q1.318-.762-.995-2.131l-.287-.166q-2.46-1.421-3.824-.635-1.236.715.783,2Z" fill="#0f2771"/>
          <path id="Trazado_196513" data-name="Trazado 196513" d="M516.9,519.28a5.589,5.589,0,0,1-2.613-2.447q-.438-1.192,1.02-2.033a4.672,4.672,0,0,1,2.751-.476l-4.634-2.676,2.475-1.428,12.99,7.5L526.671,519l-1.105-.495a1.378,1.378,0,0,1-.784,1.78,5.541,5.541,0,0,1-3.493.571,11.557,11.557,0,0,1-4.388-1.577m2.646-1.323q2.436,1.406,3.666.7.82-.474.377-1.135l-3.484-2.012a2.612,2.612,0,0,0-1.97.2q-1.143.66.894,1.945Z" fill="#0f2771"/>
          <path id="Trazado_196514" data-name="Trazado 196514" d="M518.764,510.274q-.609-.351-.617-.8c-.006-.3.193-.561.6-.8a2.658,2.658,0,0,1,1.378-.345,2.738,2.738,0,0,1,1.377.355c.407.235.612.5.619.8s-.195.561-.6.795a2.67,2.67,0,0,1-1.377.347,2.741,2.741,0,0,1-1.379-.357m14.132,5.132-2.476,1.429-9.15-5.283,2.475-1.429Z" fill="#0f2771"/>
          <path id="Trazado_196515" data-name="Trazado 196515" d="M534.962,514.214l-7.172-4.141-1.15.664-1.979-1.142,1.151-.664-.728-.42q-1.564-.9-1.629-1.862t1.378-1.792a7.009,7.009,0,0,1,1.336-.567l2.1,1.207a3.166,3.166,0,0,0-.684.307q-1.121.646,0,1.292l.7.4,1.546-.892,1.98,1.142-1.546.893,7.172,4.14Z" fill="#0f2771"/>
          <path id="Trazado_196516" data-name="Trazado 196516" d="M528.322,504.755q-.608-.351-.617-.8c-.006-.3.194-.561.6-.8a2.671,2.671,0,0,1,1.378-.346,2.742,2.742,0,0,1,1.378.356c.407.235.612.5.618.8s-.2.562-.6.8a2.666,2.666,0,0,1-1.378.346,2.741,2.741,0,0,1-1.379-.357m14.132,5.132-2.475,1.431-9.151-5.284,2.476-1.43Z" fill="#0f2771"/>
          <path id="Trazado_196517" data-name="Trazado 196517" d="M545.3,505.9c.346-.2.506-.417.479-.652s-.237-.464-.631-.686l2.315-1.337q1.506.87,1.536,1.966t-1.442,1.945a6.873,6.873,0,0,1-3.976.851,10.229,10.229,0,0,1-4.464-1.427l-.118-.068a6.26,6.26,0,0,1-2.006-1.67,1.827,1.827,0,0,1-.353-1.68,2.847,2.847,0,0,1,1.406-1.471,6.433,6.433,0,0,1,3.443-.846,7.454,7.454,0,0,1,3.589,1.023l-2.315,1.337a3.225,3.225,0,0,0-1.391-.457,2.035,2.035,0,0,0-1.185.246q-.961.554.291,1.462c.264.193.66.44,1.183.742a7.335,7.335,0,0,0,2.2.939,2.083,2.083,0,0,0,1.441-.217" fill="#0f2771"/>
          <path id="Trazado_196518" data-name="Trazado 196518" d="M556.231,501.934a6.822,6.822,0,0,1-1.054-.338q.308.963-.915,1.671a5.311,5.311,0,0,1-2.687.647,5.4,5.4,0,0,1-2.75-.683q-1.488-.859-1.3-1.848t2.007-2.038l.762-.44-.485-.28a2.119,2.119,0,0,0-2.211-.186q-.879.509.124,1.087l-2.468,1.425q-1.328-.766-1.176-1.807a2.9,2.9,0,0,1,1.666-1.918,6.493,6.493,0,0,1,3.248-.89,6.416,6.416,0,0,1,3.244.832l4.052,2.339a7.983,7.983,0,0,0,2.264.919l.145.083Zm-3.406-.182a1.018,1.018,0,0,0,.537-.574.671.671,0,0,0-.08-.55l-1.463-.844-.718.414q-1.289.744.048,1.516a1.737,1.737,0,0,0,.857.232,1.551,1.551,0,0,0,.819-.194" fill="#0f2771"/>
          <path id="Trazado_196519" data-name="Trazado 196519" d="M561.05,496.807q.52-.3.48-.652t-.63-.686l2.314-1.337q1.506.869,1.535,1.965t-1.441,1.946a6.866,6.866,0,0,1-3.977.85,10.2,10.2,0,0,1-4.463-1.427l-.119-.068a6.263,6.263,0,0,1-2.005-1.669,1.829,1.829,0,0,1-.354-1.681,2.849,2.849,0,0,1,1.407-1.471,6.438,6.438,0,0,1,3.442-.845,7.441,7.441,0,0,1,3.59,1.023l-2.314,1.337a3.237,3.237,0,0,0-1.392-.457,2.046,2.046,0,0,0-1.186.245q-.96.555.292,1.463a13.757,13.757,0,0,0,1.184.742,7.333,7.333,0,0,0,2.2.939,2.081,2.081,0,0,0,1.441-.217" fill="#0f2771"/>
          <path id="Trazado_196520" data-name="Trazado 196520" d="M555.993,488.78q-.609-.351-.617-.8c-.006-.3.194-.561.6-.8a2.661,2.661,0,0,1,1.378-.345,2.738,2.738,0,0,1,1.378.355q.609.353.618.8t-.6.8a2.665,2.665,0,0,1-1.377.347,2.743,2.743,0,0,1-1.379-.357m14.133,5.132-2.477,1.429-9.15-5.283,2.476-1.429Z" fill="#0f2771"/>
          <path id="Trazado_196521" data-name="Trazado 196521" d="M562.5,483.316l2.607-1.505.619,2.709-2.017,1.16Zm4.178,7.207a5.942,5.942,0,0,1-1.978-1.675,1.841,1.841,0,0,1-.32-1.714,3.009,3.009,0,0,1,1.454-1.5,7.1,7.1,0,0,1,4.077-.885,10.162,10.162,0,0,1,4.489,1.408l.1.059q2.139,1.234,2.366,2.554t-1.53,2.334a7.081,7.081,0,0,1-3.889.893,9.844,9.844,0,0,1-4.282-1.2Zm2.645-1.322a6.619,6.619,0,0,0,2.205.876,2.406,2.406,0,0,0,1.61-.246q1.319-.762-.995-2.131l-.287-.166q-2.46-1.42-3.824-.635-1.236.716.783,2Z" fill="#0f2771"/>
          <path id="Trazado_196522" data-name="Trazado 196522" d="M573.185,481.579l1.154.574q-.422-1.193,1.02-2.024a4.433,4.433,0,0,1,2.7-.575,8.229,8.229,0,0,1,3.205,1.119l5.895,3.4-2.475,1.429-5.777-3.334a3.086,3.086,0,0,0-1.26-.449,2.047,2.047,0,0,0-1.205.319q-.726.419-.417,1l6.462,3.73-2.469,1.425-9.15-5.283Z" fill="#0f2771"/>
          <path id="Trazado_196523" data-name="Trazado 196523" d="M594.165,481.253l-1.75,1.011-6.545-6.607-3.185-3.215,1.757-1.015,5.542,5.6Z" fill="#0f2771"/>
          <path id="Trazado_196524" data-name="Trazado 196524" d="M524.487,544.262l-12.314-7.11,3.435-1.983a8.512,8.512,0,0,1,3.282-1.04,11.865,11.865,0,0,1,3.849.188,12.464,12.464,0,0,1,3.665,1.376l.568.327a6.844,6.844,0,0,1,2.412,2.108,2.488,2.488,0,0,1,.353,2.217,3.62,3.62,0,0,1-1.742,1.89Zm-7.451-7.271,7.738,4.468.893-.517q1.107-.637.791-1.506a4.574,4.574,0,0,0-2.11-1.9l-.533-.308a8.8,8.8,0,0,0-3.282-1.21,4.147,4.147,0,0,0-2.634.476Z" fill="#0f2771"/>
          <path id="Trazado_196525" data-name="Trazado 196525" d="M538.073,536.612a7.75,7.75,0,0,1-4.207.978,9.219,9.219,0,0,1-4.4-1.235l-.236-.137a6.327,6.327,0,0,1-2.029-1.69,1.857,1.857,0,0,1-.346-1.719,2.975,2.975,0,0,1,1.462-1.523,6.684,6.684,0,0,1,3.834-.832,9.754,9.754,0,0,1,4.3,1.369l1.108.638-4.908,2.834a4.628,4.628,0,0,0,1.788.364,3.161,3.161,0,0,0,1.6-.414q1.173-.678.884-1.6l2.668.237a1.613,1.613,0,0,1-.137,1.431,3.539,3.539,0,0,1-1.385,1.3m-7.568-4.049q-1.085.627.369,1.7l2.49-1.438-.22-.127a2.932,2.932,0,0,0-1.362-.44,2.278,2.278,0,0,0-1.277.3" fill="#0f2771"/>
          <path id="Trazado_196526" data-name="Trazado 196526" d="M543.815,530.134a1.449,1.449,0,0,0-.914-.146,9.343,9.343,0,0,0-1.708.458,10.957,10.957,0,0,1-2.146.521,6.594,6.594,0,0,1-1.849-.011,4.51,4.51,0,0,1-1.576-.546q-1.26-.727-1.174-1.718t1.541-1.833a7.191,7.191,0,0,1,3.34-.981,5.61,5.61,0,0,1,3.109.7L539.962,528a1.978,1.978,0,0,0-2.1-.056.669.669,0,0,0-.4.521.574.574,0,0,0,.357.512,1.568,1.568,0,0,0,.939.17,5.739,5.739,0,0,0,1.418-.369,14.913,14.913,0,0,1,1.606-.507,5.655,5.655,0,0,1,4.332.437q1.254.724,1.076,1.734a3.051,3.051,0,0,1-1.708,1.893,6.837,6.837,0,0,1-2.239.805,7.692,7.692,0,0,1-2.4.055,5.413,5.413,0,0,1-1.978-.626l2.307-1.333a2.373,2.373,0,0,0,1.292.324,2.64,2.64,0,0,0,1.194-.352c.336-.194.51-.386.52-.574s-.11-.356-.364-.5" fill="#0f2771"/>
          <path id="Trazado_196527" data-name="Trazado 196527" d="M554.383,527a6.826,6.826,0,0,1-1.054-.338q.309.963-.915,1.671a5.31,5.31,0,0,1-2.687.647,5.4,5.4,0,0,1-2.75-.683q-1.486-.859-1.3-1.848t2.008-2.038l.762-.44-.485-.28a2.119,2.119,0,0,0-2.211-.186q-.879.508.123,1.087l-2.467,1.425q-1.327-.767-1.177-1.807a2.908,2.908,0,0,1,1.666-1.918,6.5,6.5,0,0,1,3.25-.89,6.418,6.418,0,0,1,3.243.832l4.051,2.339a7.977,7.977,0,0,0,2.265.919l.144.083Zm-3.406-.182a1.013,1.013,0,0,0,.538-.574.676.676,0,0,0-.081-.55l-1.463-.844-.717.414q-1.289.744.047,1.516a1.741,1.741,0,0,0,.858.232,1.55,1.55,0,0,0,.818-.194" fill="#0f2771"/>
          <path id="Trazado_196528" data-name="Trazado 196528" d="M556.1,518.419l-.882.431q-1.164.672-.647,1.35l5.793,3.346-2.469,1.425-9.15-5.283,2.314-1.337,1.256.632a1.111,1.111,0,0,1,.391-1.779,3.486,3.486,0,0,1,.79-.338Z" fill="#0f2771"/>
          <path id="Trazado_196529" data-name="Trazado 196529" d="M561.788,515.137l-.881.431q-1.165.672-.648,1.35l5.793,3.345-2.469,1.425-9.15-5.283,2.314-1.336L558,515.7a1.111,1.111,0,0,1,.391-1.779,3.605,3.605,0,0,1,.79-.339Z" fill="#0f2771"/>
          <path id="Trazado_196530" data-name="Trazado 196530" d="M564.013,516.059a5.974,5.974,0,0,1-1.978-1.675,1.844,1.844,0,0,1-.319-1.715,3.012,3.012,0,0,1,1.454-1.5,7.1,7.1,0,0,1,4.077-.885,10.161,10.161,0,0,1,4.489,1.407l.1.059q2.139,1.236,2.366,2.554t-1.531,2.334a7.059,7.059,0,0,1-3.889.893,9.829,9.829,0,0,1-4.281-1.194Zm2.646-1.322a6.614,6.614,0,0,0,2.205.875,2.4,2.4,0,0,0,1.61-.246q1.319-.761-.995-2.13l-.287-.166q-2.46-1.421-3.824-.635-1.236.715.783,2Z" fill="#0f2771"/>
          <path id="Trazado_196531" data-name="Trazado 196531" d="M580.012,512.2l-2.476,1.43-12.99-7.5,2.476-1.43Z" fill="#0f2771"/>
          <path id="Trazado_196532" data-name="Trazado 196532" d="M584.136,509.823l-2.477,1.43-12.99-7.5,2.477-1.43Z" fill="#0f2771"/>
          <path id="Trazado_196533" data-name="Trazado 196533" d="M580.684,506.434a5.956,5.956,0,0,1-1.979-1.675,1.843,1.843,0,0,1-.319-1.714,3,3,0,0,1,1.455-1.5,7.075,7.075,0,0,1,4.077-.885,10.161,10.161,0,0,1,4.488,1.407l.1.059q2.139,1.235,2.366,2.554t-1.531,2.334a7.067,7.067,0,0,1-3.888.893,9.817,9.817,0,0,1-4.282-1.195Zm2.646-1.322a6.614,6.614,0,0,0,2.2.876,2.406,2.406,0,0,0,1.61-.246q1.319-.762-.995-2.131l-.287-.166q-2.46-1.421-3.823-.634-1.238.715.782,2Z" fill="#0f2771"/>
          <path id="Trazado_196534" data-name="Trazado 196534" d="M397.623,389.824l-12.314-7.11,3.435-1.983a8.541,8.541,0,0,1,3.282-1.041,11.845,11.845,0,0,1,3.85.19,12.445,12.445,0,0,1,3.665,1.375l.567.327a6.835,6.835,0,0,1,2.412,2.108,2.487,2.487,0,0,1,.355,2.216,3.635,3.635,0,0,1-1.744,1.892Zm-7.451-7.272,7.738,4.469.895-.516q1.1-.641.789-1.506a4.566,4.566,0,0,0-2.109-1.9l-.532-.308a8.813,8.813,0,0,0-3.283-1.21,4.146,4.146,0,0,0-2.634.476Z" fill="#0f2771"/>
          <path id="Trazado_196535" data-name="Trazado 196535" d="M395.677,377.655q-.609-.352-.617-.8c-.006-.3.2-.561.6-.8a2.665,2.665,0,0,1,1.379-.347,2.736,2.736,0,0,1,1.377.357q.609.351.619.8t-.6.8a2.665,2.665,0,0,1-1.377.347,2.753,2.753,0,0,1-1.379-.356m14.133,5.131-2.476,1.429-9.151-5.283,2.476-1.429Z" fill="#0f2771"/>
          <path id="Trazado_196536" data-name="Trazado 196536" d="M412.908,378.029a1.444,1.444,0,0,0-.912-.146,9.326,9.326,0,0,0-1.71.458,10.943,10.943,0,0,1-2.146.521,6.522,6.522,0,0,1-1.849-.011,4.488,4.488,0,0,1-1.574-.546q-1.26-.726-1.176-1.718t1.542-1.833a7.2,7.2,0,0,1,3.34-.981,5.606,5.606,0,0,1,3.108.695l-2.475,1.43a1.976,1.976,0,0,0-2.1-.056.668.668,0,0,0-.4.52.575.575,0,0,0,.357.512,1.57,1.57,0,0,0,.939.17,5.712,5.712,0,0,0,1.419-.369,14.989,14.989,0,0,1,1.605-.507,5.653,5.653,0,0,1,4.333.438q1.252.723,1.075,1.733a3.044,3.044,0,0,1-1.707,1.893,6.841,6.841,0,0,1-2.24.8,7.66,7.66,0,0,1-2.395.055,5.408,5.408,0,0,1-1.977-.626l2.307-1.332a2.378,2.378,0,0,0,1.291.323,2.628,2.628,0,0,0,1.194-.352c.337-.194.511-.386.521-.574s-.111-.356-.365-.5" fill="#0f2771"/>
          <path id="Trazado_196537" data-name="Trazado 196537" d="M423.017,375.357a7.77,7.77,0,0,1-4.209.978,9.226,9.226,0,0,1-4.4-1.235l-.236-.137a6.31,6.31,0,0,1-2.028-1.691,1.861,1.861,0,0,1-.347-1.718,2.981,2.981,0,0,1,1.462-1.524,6.693,6.693,0,0,1,3.834-.831,9.756,9.756,0,0,1,4.3,1.368l1.109.639L417.6,374.04a4.635,4.635,0,0,0,1.788.364,3.163,3.163,0,0,0,1.6-.414q1.172-.678.884-1.6l2.667.237a1.6,1.6,0,0,1-.136,1.431,3.55,3.55,0,0,1-1.384,1.3m-7.569-4.049q-1.084.625.368,1.7l2.49-1.438-.218-.127a2.928,2.928,0,0,0-1.363-.44,2.27,2.27,0,0,0-1.277.3" fill="#0f2771"/>
          <path id="Trazado_196538" data-name="Trazado 196538" d="M420.618,361.624a2.231,2.231,0,0,1,1.15,1.226.9.9,0,0,1-.533,1.084,4.14,4.14,0,0,1-1.432.417,4.035,4.035,0,0,0-1.315.349.345.345,0,0,0-.213.338c.015.134.151.277.411.426l-1.454.743a2.244,2.244,0,0,1-1.137-1.219.886.886,0,0,1,.512-1.087,4.277,4.277,0,0,1,1.272-.374q.906-.162,1.105-.228a1.948,1.948,0,0,0,.377-.168.348.348,0,0,0,.215-.34c-.013-.138-.15-.283-.413-.434Zm-.323,4.542,1.156.574q-.424-1.192,1.02-2.025a4.429,4.429,0,0,1,2.7-.574,8.253,8.253,0,0,1,3.2,1.118l5.895,3.4-2.477,1.429-5.775-3.335a3.108,3.108,0,0,0-1.261-.449,2.056,2.056,0,0,0-1.2.319q-.726.42-.417,1l6.461,3.73-2.468,1.426-9.151-5.284Z" fill="#0f2771"/>
          <path id="Trazado_196539" data-name="Trazado 196539" d="M430.668,365.363a5.952,5.952,0,0,1-1.978-1.675,1.84,1.84,0,0,1-.319-1.714,3,3,0,0,1,1.453-1.5,7.1,7.1,0,0,1,4.078-.885,10.17,10.17,0,0,1,4.489,1.408l.1.059q2.139,1.234,2.366,2.554t-1.53,2.334a7.075,7.075,0,0,1-3.888.893,9.833,9.833,0,0,1-4.282-1.2Zm2.647-1.322a6.575,6.575,0,0,0,2.2.875,2.406,2.406,0,0,0,1.609-.245q1.318-.762-1-2.131l-.288-.166q-2.459-1.42-3.822-.635-1.238.715.782,2Z" fill="#0f2771"/>
          <path id="Trazado_196540" data-name="Trazado 196540" d="M257.488,252.4l-3.522,2.034,1.684,1.683-2.747,1.586-8.4-9.368,2.417-1.4,16.255,4.835-2.762,1.593Zm-5.2.355,2.293-1.323-5.421-1.8Z" fill="#0f2771"/>
          <path id="Trazado_196541" data-name="Trazado 196541" d="M256.6,245.006l1.155.574q-.423-1.192,1.02-2.025a4.43,4.43,0,0,1,2.7-.574,8.253,8.253,0,0,1,3.205,1.118l5.895,3.4-2.476,1.429-5.776-3.335a3.109,3.109,0,0,0-1.261-.449,2.052,2.052,0,0,0-1.2.319c-.485.28-.623.614-.418,1l6.462,3.73-2.468,1.426-9.151-5.284Z" fill="#0f2771"/>
          <path id="Trazado_196542" data-name="Trazado 196542" d="M262.487,237.174l2.608-1.506.619,2.709-2.019,1.161Zm13.92,6.963a6.824,6.824,0,0,1-1.054-.338q.308.963-.915,1.67a5.29,5.29,0,0,1-2.687.648,5.4,5.4,0,0,1-2.75-.683q-1.488-.86-1.3-1.848t2.007-2.038l.762-.44-.485-.28a2.119,2.119,0,0,0-2.211-.186q-.879.509.124,1.087l-2.468,1.425q-1.328-.767-1.176-1.808a2.91,2.91,0,0,1,1.666-1.918,6.5,6.5,0,0,1,3.249-.889,6.412,6.412,0,0,1,3.243.832l4.052,2.339a7.954,7.954,0,0,0,2.264.919l.145.083ZM273,243.955a1.01,1.01,0,0,0,.537-.574.671.671,0,0,0-.08-.55l-1.463-.844-.718.414q-1.289.744.048,1.516a1.737,1.737,0,0,0,.857.232,1.551,1.551,0,0,0,.819-.194" fill="#0f2771"/>
          <path id="Trazado_196543" data-name="Trazado 196543" d="M282.509,240.614l-2.477,1.43-12.99-7.5,2.477-1.43Z" fill="#0f2771"/>
          <path id="Trazado_196544" data-name="Trazado 196544" d="M272.5,233.1q-.607-.353-.617-.8c-.006-.3.2-.561.6-.795a2.677,2.677,0,0,1,1.379-.346,2.742,2.742,0,0,1,1.378.356q.609.351.618.8t-.6.8a2.671,2.671,0,0,1-1.378.346,2.743,2.743,0,0,1-1.379-.356m14.133,5.131-2.476,1.43-9.151-5.284,2.477-1.429Z" fill="#0f2771"/>
          <path id="Trazado_196545" data-name="Trazado 196545" d="M289.729,233.476a1.446,1.446,0,0,0-.913-.146,9.321,9.321,0,0,0-1.709.458,10.943,10.943,0,0,1-2.146.521,6.521,6.521,0,0,1-1.849-.011,4.488,4.488,0,0,1-1.574-.546q-1.26-.726-1.176-1.718T281.9,230.2a7.2,7.2,0,0,1,3.34-.981,5.606,5.606,0,0,1,3.108.695l-2.475,1.43a1.976,1.976,0,0,0-2.1-.056.666.666,0,0,0-.4.52.573.573,0,0,0,.357.512,1.569,1.569,0,0,0,.939.17,5.7,5.7,0,0,0,1.418-.369,15.076,15.076,0,0,1,1.606-.507,5.653,5.653,0,0,1,4.333.438q1.252.723,1.075,1.733a3.044,3.044,0,0,1-1.707,1.893,6.842,6.842,0,0,1-2.24.8,7.66,7.66,0,0,1-2.4.055,5.408,5.408,0,0,1-1.977-.626l2.307-1.332a2.378,2.378,0,0,0,1.291.323,2.628,2.628,0,0,0,1.194-.352c.336-.194.51-.386.521-.574s-.111-.356-.365-.5" fill="#0f2771"/>
          <path id="Trazado_196546" data-name="Trazado 196546" d="M284.3,226.286q-.607-.353-.616-.8c-.007-.3.194-.561.6-.795a2.674,2.674,0,0,1,1.379-.346,2.735,2.735,0,0,1,1.377.356q.61.351.619.8t-.6.8a2.662,2.662,0,0,1-1.377.346,2.745,2.745,0,0,1-1.379-.356m14.134,5.131-2.477,1.43-9.151-5.284,2.477-1.429Z" fill="#0f2771"/>
          <path id="Trazado_196547" data-name="Trazado 196547" d="M301.536,226.659a1.464,1.464,0,0,0-.912-.146,9.27,9.27,0,0,0-1.71.46,10.929,10.929,0,0,1-2.146.519,6.524,6.524,0,0,1-1.849-.009,4.527,4.527,0,0,1-1.574-.546q-1.26-.728-1.176-1.719t1.542-1.833a7.176,7.176,0,0,1,3.34-.981,5.615,5.615,0,0,1,3.108.695l-2.475,1.43a1.976,1.976,0,0,0-2.1-.056.667.667,0,0,0-.4.519.574.574,0,0,0,.357.513,1.563,1.563,0,0,0,.939.169,5.658,5.658,0,0,0,1.419-.368,14.551,14.551,0,0,1,1.6-.507,5.657,5.657,0,0,1,4.333.438q1.252.723,1.075,1.733a3.045,3.045,0,0,1-1.707,1.894,6.863,6.863,0,0,1-2.24.8,7.631,7.631,0,0,1-2.395.055,5.37,5.37,0,0,1-1.977-.627l2.307-1.331a2.369,2.369,0,0,0,1.291.323,2.639,2.639,0,0,0,1.194-.351c.337-.195.511-.386.521-.576s-.111-.355-.365-.5" fill="#0f2771"/>
          <path id="Trazado_196548" data-name="Trazado 196548" d="M86.414,133.1l-1.393.8,4.356,2.515-2.571,1.484L74.492,130.8l4.2-2.423a8.247,8.247,0,0,1,3.939-1.152,7.1,7.1,0,0,1,3.814.968,4.213,4.213,0,0,1,1.679,1.489,1.659,1.659,0,0,1-.041,1.6l7.2,1.585.127.074-2.754,1.589Zm-3.676-.515,1.627-.939c.487-.282.707-.58.656-.893s-.341-.624-.872-.931a3.654,3.654,0,0,0-1.624-.507,2.751,2.751,0,0,0-1.553.373l-1.625.939Z" fill="#0f2771"/>
          <path id="Trazado_196549" data-name="Trazado 196549" d="M100.482,130.206a7.78,7.78,0,0,1-4.209.979,9.248,9.248,0,0,1-4.4-1.235l-.236-.137a6.336,6.336,0,0,1-2.028-1.691,1.862,1.862,0,0,1-.347-1.718,2.974,2.974,0,0,1,1.462-1.524,6.669,6.669,0,0,1,3.834-.831,9.731,9.731,0,0,1,4.3,1.368l1.109.638-4.908,2.835a4.668,4.668,0,0,0,1.788.363,3.177,3.177,0,0,0,1.6-.414q1.172-.677.884-1.6l2.667.237a1.612,1.612,0,0,1-.136,1.432,3.555,3.555,0,0,1-1.384,1.3m-7.569-4.049q-1.084.627.368,1.7l2.49-1.437-.219-.128a2.933,2.933,0,0,0-1.362-.44,2.278,2.278,0,0,0-1.277.3" fill="#0f2771"/>
          <path id="Trazado_196550" data-name="Trazado 196550" d="M99.665,125.091a5.445,5.445,0,0,1-2.6-2.447q-.416-1.185,1.028-2.019a4.854,4.854,0,0,1,3.1-.461l-.805-.667,2.139-1.235,12.668,7.314L112.722,127l-4.279-2.47q.22.946-.871,1.577a5.56,5.56,0,0,1-3.494.567,11.644,11.644,0,0,1-4.413-1.588m2.647-1.323q2.46,1.42,3.69.711c.566-.327.71-.7.428-1.107l-3.62-2.089a2.5,2.5,0,0,0-1.885.248q-1.147.665.885,1.94Z" fill="#0f2771"/>
          <path id="Trazado_196551" data-name="Trazado 196551" d="M116.807,119.443q.372,1.122-.959,1.891a4.829,4.829,0,0,1-2.85.634,7.538,7.538,0,0,1-3.185-1.066l-5.929-3.422,2.468-1.426,5.946,3.433a2.043,2.043,0,0,0,2.164.108q.849-.491.507-1.1l-6.42-3.706,2.483-1.433,9.151,5.283-2.314,1.336Z" fill="#0f2771"/>
          <path id="Trazado_196552" data-name="Trazado 196552" d="M125.538,115.739a7.757,7.757,0,0,1-4.208.979,9.227,9.227,0,0,1-4.4-1.236l-.236-.137a6.3,6.3,0,0,1-2.028-1.69,1.86,1.86,0,0,1-.347-1.719,2.979,2.979,0,0,1,1.462-1.523,6.677,6.677,0,0,1,3.834-.831,9.747,9.747,0,0,1,4.3,1.368l1.108.639-4.907,2.833a4.611,4.611,0,0,0,1.787.365,3.178,3.178,0,0,0,1.6-.414q1.171-.678.884-1.605l2.667.238a1.61,1.61,0,0,1-.136,1.431,3.551,3.551,0,0,1-1.385,1.3m-7.569-4.048q-1.084.625.369,1.7l2.49-1.437-.219-.127a2.913,2.913,0,0,0-1.363-.44,2.264,2.264,0,0,0-1.277.3" fill="#0f2771"/>
          <path id="Trazado_196553" data-name="Trazado 196553" d="M127.924,106.579l-.881.431q-1.164.672-.648,1.35l5.793,3.345-2.469,1.425-9.15-5.283,2.314-1.336,1.256.632a1.111,1.111,0,0,1,.391-1.779,3.511,3.511,0,0,1,.79-.339Z" fill="#0f2771"/>
          <path id="Trazado_196554" data-name="Trazado 196554" d="M123.855,103.224q-.608-.351-.617-.8c-.006-.3.195-.561.6-.8a2.677,2.677,0,0,1,1.379-.346,2.742,2.742,0,0,1,1.378.357q.609.351.618.8t-.6.795a2.671,2.671,0,0,1-1.378.347,2.743,2.743,0,0,1-1.379-.357m14.133,5.132-2.476,1.429-9.151-5.283,2.477-1.429Z" fill="#0f2771"/>
          <path id="Trazado_196555" data-name="Trazado 196555" d="M132.689,100.848l1.155.574q-.4-1.2,1.021-2.025a4.381,4.381,0,0,1,3.406-.375q-.573-1.262.951-2.141,2.41-1.392,5.842.514l5.953,3.438-2.474,1.429-5.778-3.335a3.423,3.423,0,0,0-1.228-.473,1.688,1.688,0,0,0-1.069.247c-.488.282-.6.636-.338,1.064l.125.064,6.25,3.609-2.474,1.429-5.76-3.325a3.578,3.578,0,0,0-1.238-.487,1.678,1.678,0,0,0-1.076.25.693.693,0,0,0-.33,1.061l6.367,3.676-2.468,1.426-9.151-5.284Z" fill="#0f2771"/>
          <path id="Trazado_196556" data-name="Trazado 196556" d="M140.9,93.384q-.607-.351-.617-.8c-.006-.3.195-.561.6-.8a2.677,2.677,0,0,1,1.379-.346,2.742,2.742,0,0,1,1.378.357q.609.351.618.8t-.6.795a2.671,2.671,0,0,1-1.378.347,2.746,2.746,0,0,1-1.379-.357m14.133,5.132-2.475,1.429L143.4,94.662l2.476-1.429Z" fill="#0f2771"/>
          <path id="Trazado_196557" data-name="Trazado 196557" d="M160.554,95.522a7.762,7.762,0,0,1-4.207.979,9.217,9.217,0,0,1-4.4-1.236l-.237-.137a6.286,6.286,0,0,1-2.028-1.69,1.857,1.857,0,0,1-.346-1.719A2.975,2.975,0,0,1,150.8,90.2a6.674,6.674,0,0,1,3.833-.831,9.751,9.751,0,0,1,4.3,1.368l1.108.639-4.908,2.833a4.649,4.649,0,0,0,1.788.365,3.171,3.171,0,0,0,1.6-.414q1.171-.678.884-1.6l2.668.237a1.616,1.616,0,0,1-.137,1.432,3.537,3.537,0,0,1-1.385,1.3m-7.568-4.048q-1.084.625.369,1.7l2.49-1.437-.22-.127a2.91,2.91,0,0,0-1.362-.44,2.262,2.262,0,0,0-1.277.3" fill="#0f2771"/>
          <path id="Trazado_196558" data-name="Trazado 196558" d="M157.834,86.332l1.154.573q-.422-1.191,1.021-2.024a4.43,4.43,0,0,1,2.7-.574,8.247,8.247,0,0,1,3.205,1.118l5.895,3.4-2.476,1.43-5.777-3.335a3.1,3.1,0,0,0-1.26-.449,2.056,2.056,0,0,0-1.205.319q-.725.418-.417,1l6.462,3.73-2.469,1.425-9.15-5.283Z" fill="#0f2771"/>
          <path id="Trazado_196559" data-name="Trazado 196559" d="M164.626,79.783,166.9,81.1l1.305-.752,1.979,1.143-1.3.752,4.186,2.417a2.127,2.127,0,0,0,.88.322,1.523,1.523,0,0,0,.841-.251,3.616,3.616,0,0,0,.565-.384l2.038,1.177a4.023,4.023,0,0,1-1.147.945,4.73,4.73,0,0,1-2.575.686,5.891,5.891,0,0,1-2.715-.865l-4.541-2.622-1.011.584-1.979-1.143,1.011-.583-2.275-1.314Z" fill="#0f2771"/>
          <path id="Trazado_196560" data-name="Trazado 196560" d="M173.135,82.683a5.975,5.975,0,0,1-1.978-1.676,1.84,1.84,0,0,1-.319-1.714,3.007,3.007,0,0,1,1.453-1.5,7.092,7.092,0,0,1,4.078-.884,10.161,10.161,0,0,1,4.488,1.407l.1.059q2.141,1.234,2.367,2.554t-1.531,2.334a7.068,7.068,0,0,1-3.889.893,9.822,9.822,0,0,1-4.281-1.195Zm2.646-1.323a6.61,6.61,0,0,0,2.2.876,2.4,2.4,0,0,0,1.609-.246q1.318-.762-.994-2.131l-.287-.166q-2.461-1.42-3.824-.634-1.238.714.783,2Z" fill="#0f2771"/>
          <path id="Trazado_196561" data-name="Trazado 196561" d="M188.107,76.451a1.444,1.444,0,0,0-.912-.146,9.306,9.306,0,0,0-1.71.458,10.943,10.943,0,0,1-2.146.521,6.521,6.521,0,0,1-1.849-.011,4.487,4.487,0,0,1-1.574-.546q-1.26-.726-1.176-1.718t1.542-1.833a7.2,7.2,0,0,1,3.34-.981,5.606,5.606,0,0,1,3.108.695l-2.475,1.43a1.976,1.976,0,0,0-2.1-.056.668.668,0,0,0-.4.52.575.575,0,0,0,.357.512,1.57,1.57,0,0,0,.939.17,5.712,5.712,0,0,0,1.419-.369,14.99,14.99,0,0,1,1.605-.507,5.653,5.653,0,0,1,4.333.438q1.253.723,1.075,1.733a3.044,3.044,0,0,1-1.707,1.893,6.842,6.842,0,0,1-2.24.805,7.66,7.66,0,0,1-2.4.055,5.408,5.408,0,0,1-1.977-.626l2.307-1.332a2.378,2.378,0,0,0,1.291.323,2.628,2.628,0,0,0,1.194-.352c.337-.194.511-.386.521-.574s-.111-.356-.365-.5" fill="#0f2771"/>
          <path id="Trazado_196562" data-name="Trazado 196562" d="M652.185,659.468l4.178,2.412-2.571,1.485-12.314-7.11,4.256-2.456a7.908,7.908,0,0,1,2.685-.95,8.719,8.719,0,0,1,2.936.014,8.106,8.106,0,0,1,2.7.959q1.8,1.039,1.762,2.307t-1.986,2.392Zm-2.291-1.323,1.684-.973q.747-.43.709-.906c-.028-.316-.3-.627-.829-.93a4.1,4.1,0,0,0-1.781-.562,2.824,2.824,0,0,0-1.623.331l-1.713.989Z" fill="#0f2771"/>
          <path id="Trazado_196563" data-name="Trazado 196563" d="M661.664,651.232l-.881.431q-1.163.672-.646,1.35l5.793,3.345-2.469,1.426L654.31,652.5l2.313-1.337,1.258.631a1.109,1.109,0,0,1,.39-1.778,3.565,3.565,0,0,1,.791-.339Z" fill="#0f2771"/>
          <path id="Trazado_196564" data-name="Trazado 196564" d="M672.857,651.216q.375,1.122-.959,1.892a4.835,4.835,0,0,1-2.85.633,7.55,7.55,0,0,1-3.185-1.065l-5.928-3.423,2.467-1.426,5.947,3.434a2.044,2.044,0,0,0,2.164.107q.851-.49.506-1.1l-6.42-3.705,2.485-1.434,9.15,5.283-2.315,1.336Z" fill="#0f2771"/>
          <path id="Trazado_196565" data-name="Trazado 196565" d="M681.589,647.513a7.762,7.762,0,0,1-4.209.978,9.222,9.222,0,0,1-4.4-1.235l-.236-.137a6.323,6.323,0,0,1-2.028-1.69,1.863,1.863,0,0,1-.347-1.719,2.983,2.983,0,0,1,1.462-1.523,6.684,6.684,0,0,1,3.834-.832,9.746,9.746,0,0,1,4.3,1.369l1.108.638-4.907,2.834a4.628,4.628,0,0,0,1.787.364,3.167,3.167,0,0,0,1.6-.414q1.172-.678.883-1.6l2.668.237a1.613,1.613,0,0,1-.137,1.431,3.547,3.547,0,0,1-1.383,1.3m-7.57-4.049q-1.084.627.369,1.7l2.49-1.438-.22-.127a2.932,2.932,0,0,0-1.362-.44,2.279,2.279,0,0,0-1.277.3" fill="#0f2771"/>
          <path id="Trazado_196566" data-name="Trazado 196566" d="M688.609,638.068a5.6,5.6,0,0,1,2.655,2.462c.267.775-.084,1.445-1.061,2.009a4.9,4.9,0,0,1-3.057.486l.836.6-2.213,1.278-12.99-7.5,2.469-1.425,4.574,2.642q-.213-.921.877-1.551a5.534,5.534,0,0,1,3.51-.612,11.27,11.27,0,0,1,4.256,1.528Zm-2.656,1.324a7.052,7.052,0,0,0-2.184-.909,2.167,2.167,0,0,0-1.494.215c-.558.322-.7.686-.424,1.092l3.631,2.1a2.537,2.537,0,0,0,1.9-.257q.87-.5.127-1.2a9.738,9.738,0,0,0-1.555-1.033" fill="#0f2771"/>
          <path id="Trazado_196567" data-name="Trazado 196567" d="M698.66,637.461a6.741,6.741,0,0,1-1.054-.339q.31.965-.914,1.671a5.292,5.292,0,0,1-2.688.647,5.39,5.39,0,0,1-2.75-.682q-1.485-.859-1.3-1.849t2.008-2.037l.762-.441-.485-.279a2.117,2.117,0,0,0-2.211-.186q-.879.507.123,1.087l-2.466,1.425q-1.328-.767-1.178-1.808a2.916,2.916,0,0,1,1.666-1.918,6.524,6.524,0,0,1,3.25-.89,6.424,6.424,0,0,1,3.244.833l4.051,2.339a7.959,7.959,0,0,0,2.265.918l.143.084Zm-3.4-.183a1,1,0,0,0,.535-.573.667.667,0,0,0-.08-.55l-1.463-.845-.717.415q-1.289.744.047,1.516a1.763,1.763,0,0,0,.858.232,1.548,1.548,0,0,0,.82-.2" fill="#0f2771"/>
          <path id="Trazado_196568" data-name="Trazado 196568" d="M703.736,631.561a1.462,1.462,0,0,0-.914-.146,9.342,9.342,0,0,0-1.709.458,10.943,10.943,0,0,1-2.145.522,6.556,6.556,0,0,1-1.849-.012,4.51,4.51,0,0,1-1.576-.545q-1.26-.727-1.174-1.718t1.541-1.833a7.2,7.2,0,0,1,3.34-.982,5.616,5.616,0,0,1,3.109.7l-2.477,1.43a1.974,1.974,0,0,0-2.1-.056.667.667,0,0,0-.4.521.575.575,0,0,0,.357.512,1.569,1.569,0,0,0,.939.17,5.749,5.749,0,0,0,1.418-.37,15.406,15.406,0,0,1,1.606-.507,5.655,5.655,0,0,1,4.332.438q1.254.723,1.076,1.734a3.049,3.049,0,0,1-1.707,1.893,6.874,6.874,0,0,1-2.24.8,7.662,7.662,0,0,1-2.395.054,5.433,5.433,0,0,1-1.978-.625l2.306-1.333a2.4,2.4,0,0,0,1.293.324,2.644,2.644,0,0,0,1.194-.352c.336-.194.51-.386.521-.574s-.111-.357-.365-.5" fill="#0f2771"/>
          <path id="Trazado_196569" data-name="Trazado 196569" d="M712.752,624.716l-3.84-3.74,2.645-1.527,7.451,8.033.25.3q1.086,1.425-.656,2.43a5.58,5.58,0,0,1-1.186.49l-2.031-1.172.322-.186a1.357,1.357,0,0,0,.621-.559c.067-.173,0-.371-.215-.594l-.412-.465-12-3.747,2.637-1.523Z" fill="#0f2771"/>
          <path id="Trazado_196570" data-name="Trazado 196570" d="M669.51,672.929a5.581,5.581,0,0,1-2.614-2.446q-.437-1.192,1.02-2.034a4.675,4.675,0,0,1,2.752-.475l-4.635-2.676,2.475-1.429,12.99,7.5-2.219,1.281-1.1-.494a1.379,1.379,0,0,1-.784,1.78,5.547,5.547,0,0,1-3.492.571,11.549,11.549,0,0,1-4.388-1.578m2.646-1.322q2.434,1.406,3.666.7.82-.474.377-1.135l-3.484-2.012a2.614,2.614,0,0,0-1.971.2q-1.143.66.894,1.945Z" fill="#0f2771"/>
          <path id="Trazado_196571" data-name="Trazado 196571" d="M686.9,668.443a7.759,7.759,0,0,1-4.207.979,9.217,9.217,0,0,1-4.4-1.236l-.236-.137a6.321,6.321,0,0,1-2.03-1.69,1.856,1.856,0,0,1-.345-1.719,2.975,2.975,0,0,1,1.462-1.523,6.676,6.676,0,0,1,3.834-.831,9.752,9.752,0,0,1,4.3,1.368l1.108.639-4.909,2.833a4.658,4.658,0,0,0,1.789.365,3.166,3.166,0,0,0,1.6-.414c.783-.452,1.076-.987.885-1.605l2.668.237a1.616,1.616,0,0,1-.137,1.432,3.544,3.544,0,0,1-1.385,1.3m-7.568-4.048q-1.085.625.369,1.7l2.49-1.437-.22-.127a2.911,2.911,0,0,0-1.362-.44,2.262,2.262,0,0,0-1.277.3" fill="#0f2771"/>
          <path id="Trazado_196572" data-name="Trazado 196572" d="M692.646,661.965a1.45,1.45,0,0,0-.914-.146,9.348,9.348,0,0,0-1.709.458,10.928,10.928,0,0,1-2.145.521,6.519,6.519,0,0,1-1.849-.011,4.511,4.511,0,0,1-1.576-.546q-1.26-.726-1.174-1.718t1.541-1.833a7.2,7.2,0,0,1,3.34-.981,5.612,5.612,0,0,1,3.109.7l-2.477,1.429a1.974,1.974,0,0,0-2.1-.055.666.666,0,0,0-.4.52.573.573,0,0,0,.357.512,1.569,1.569,0,0,0,.939.17,5.738,5.738,0,0,0,1.418-.369,15.164,15.164,0,0,1,1.606-.507,5.651,5.651,0,0,1,4.332.438q1.254.723,1.076,1.733a3.053,3.053,0,0,1-1.707,1.893,6.851,6.851,0,0,1-2.24.8,7.662,7.662,0,0,1-2.4.055,5.413,5.413,0,0,1-1.978-.626L690,663.069a2.386,2.386,0,0,0,1.293.325,2.645,2.645,0,0,0,1.194-.353c.336-.194.51-.386.521-.574s-.111-.356-.365-.5" fill="#0f2771"/>
          <path id="Trazado_196573" data-name="Trazado 196573" d="M701.6,654.559A5.456,5.456,0,0,1,704.174,657q.439,1.215-.973,2.03a4.61,4.61,0,0,1-2.717.5l4.272,2.467-2.469,1.425-12.668-7.315,2.307-1.332.918.447q-.3-1,.853-1.665a5.549,5.549,0,0,1,3.526-.6,11.232,11.232,0,0,1,4.242,1.511Zm-2.645,1.322q-2.437-1.406-3.666-.7-.879.507-.445,1.1l3.6,2.08a2.586,2.586,0,0,0,1.947-.246q1.179-.681-1.134-2.059Z" fill="#0f2771"/>
          <path id="Trazado_196574" data-name="Trazado 196574" d="M709.8,655.03l-2.475,1.429-12.99-7.5,2.475-1.429Z" fill="#0f2771"/>
          <path id="Trazado_196575" data-name="Trazado 196575" d="M699.791,647.517q-.609-.351-.617-.8c-.006-.3.193-.561.6-.8a2.675,2.675,0,0,1,1.377-.346,2.753,2.753,0,0,1,1.378.357c.407.234.612.5.618.8s-.194.563-.6.8a2.665,2.665,0,0,1-1.377.347,2.744,2.744,0,0,1-1.379-.357m14.133,5.132-2.477,1.429-9.15-5.283,2.475-1.429Z" fill="#0f2771"/>
          <path id="Trazado_196576" data-name="Trazado 196576" d="M719.445,649.655a7.751,7.751,0,0,1-4.207.979,9.224,9.224,0,0,1-4.4-1.236l-.236-.137a6.3,6.3,0,0,1-2.028-1.69,1.863,1.863,0,0,1-.347-1.719,2.975,2.975,0,0,1,1.462-1.523,6.675,6.675,0,0,1,3.834-.831,9.743,9.743,0,0,1,4.3,1.368l1.108.639-4.907,2.833a4.6,4.6,0,0,0,1.787.365,3.178,3.178,0,0,0,1.6-.414q1.172-.678.883-1.6l2.668.238a1.613,1.613,0,0,1-.137,1.431,3.538,3.538,0,0,1-1.385,1.3m-7.568-4.048q-1.085.625.369,1.7l2.49-1.437-.22-.127a2.909,2.909,0,0,0-1.362-.44,2.262,2.262,0,0,0-1.277.3" fill="#0f2771"/>
          <path id="Trazado_196577" data-name="Trazado 196577" d="M718.678,644.543a7.184,7.184,0,0,1-2.059-1.643,1.937,1.937,0,0,1-.51-1.606,2.123,2.123,0,0,1,1.143-1.328,4.776,4.776,0,0,1,2.9-.561l-.709-.508,2.243-1.294,8.8,5.083a3.936,3.936,0,0,1,1.613,1.494,1.618,1.618,0,0,1-.039,1.6,4.24,4.24,0,0,1-1.66,1.511,7.026,7.026,0,0,1-2.07.755,7.365,7.365,0,0,1-2.238.149l-.641-1.563a4.571,4.571,0,0,0,2.754-.507q1.641-.946-.3-2.07l-.289-.166q.2.933-.889,1.558a5.9,5.9,0,0,1-3.625.614,10.817,10.817,0,0,1-4.322-1.464Zm2.652-1.326a6.386,6.386,0,0,0,2.146.816,2.5,2.5,0,0,0,1.682-.213q.8-.461.547-1.03l-3.848-2.22a2.631,2.631,0,0,0-1.777.3.681.681,0,0,0-.352.989,4.05,4.05,0,0,0,1.6,1.356" fill="#0f2771"/>
          <path id="Trazado_196578" data-name="Trazado 196578" d="M735.969,638.778q.375,1.122-.959,1.892a4.828,4.828,0,0,1-2.85.633,7.522,7.522,0,0,1-3.185-1.065l-5.928-3.423,2.467-1.425,5.947,3.433a2.044,2.044,0,0,0,2.164.107q.851-.489.506-1.1l-6.42-3.706,2.485-1.434,9.15,5.283-2.315,1.336Z" fill="#0f2771"/>
          <path id="Trazado_196579" data-name="Trazado 196579" d="M744.7,635.075a7.76,7.76,0,0,1-4.207.979,9.235,9.235,0,0,1-4.4-1.236l-.236-.137a6.3,6.3,0,0,1-2.028-1.69,1.858,1.858,0,0,1-.347-1.719,2.975,2.975,0,0,1,1.462-1.523,6.675,6.675,0,0,1,3.834-.831,9.75,9.75,0,0,1,4.3,1.368l1.108.639-4.907,2.833a4.6,4.6,0,0,0,1.787.365,3.177,3.177,0,0,0,1.6-.414q1.172-.678.883-1.6l2.668.237a1.616,1.616,0,0,1-.137,1.432,3.538,3.538,0,0,1-1.385,1.3m-7.568-4.048q-1.084.625.369,1.7l2.49-1.437-.22-.127a2.909,2.909,0,0,0-1.362-.44,2.263,2.263,0,0,0-1.277.3" fill="#0f2771"/>
          <path id="Trazado_196580" data-name="Trazado 196580" d="M781.369,803.174l10.947,3.572-6.193-6.316,3.383-1.954,12.314,7.109-2.578,1.488-2.875-1.66-5.638-3.542,6.184,6.548-1.7.981-11.356-3.571L790,809.088l2.875,1.66-2.57,1.485-12.315-7.11Z" fill="#fff"/>
          <path id="Trazado_196581" data-name="Trazado 196581" d="M807.8,802.13a6.832,6.832,0,0,1-1.055-.338q.309.963-.914,1.671a5.3,5.3,0,0,1-2.687.647,5.379,5.379,0,0,1-2.751-.683q-1.486-.858-1.3-1.848t2.007-2.037l.762-.441-.485-.28a2.119,2.119,0,0,0-2.211-.185q-.879.507.125,1.086l-2.468,1.425q-1.328-.765-1.176-1.807a2.905,2.905,0,0,1,1.666-1.918,6.511,6.511,0,0,1,3.248-.89,6.428,6.428,0,0,1,3.244.832l4.051,2.34a7.969,7.969,0,0,0,2.265.918l.144.083Zm-3.406-.182a1.023,1.023,0,0,0,.537-.573.679.679,0,0,0-.08-.55l-1.463-.845-.719.415q-1.288.744.048,1.516a1.758,1.758,0,0,0,.857.232,1.544,1.544,0,0,0,.82-.2" fill="#fff"/>
          <path id="Trazado_196582" data-name="Trazado 196582" d="M804.418,793.519l1.154.573q-.422-1.191,1.02-2.024a4.425,4.425,0,0,1,2.7-.574,8.209,8.209,0,0,1,3.205,1.118l5.9,3.4-2.475,1.43-5.777-3.335a3.085,3.085,0,0,0-1.26-.449,2.054,2.054,0,0,0-1.205.319q-.726.418-.417,1l6.462,3.73-2.469,1.425-9.15-5.283Z" fill="#fff"/>
          <path id="Trazado_196583" data-name="Trazado 196583" d="M811.21,786.97l2.274,1.313,1.3-.752,1.979,1.142-1.3.753,4.186,2.417a2.141,2.141,0,0,0,.88.322,1.522,1.522,0,0,0,.841-.251,3.687,3.687,0,0,0,.565-.384l2.037,1.176a4.023,4.023,0,0,1-1.146.946,4.733,4.733,0,0,1-2.576.686,5.891,5.891,0,0,1-2.714-.865L813,790.851l-1.012.584-1.978-1.143,1.011-.584-2.275-1.313Z" fill="#fff"/>
          <path id="Trazado_196584" data-name="Trazado 196584" d="M828.914,790.139a7.762,7.762,0,0,1-4.209.978,9.226,9.226,0,0,1-4.4-1.235l-.236-.137a6.312,6.312,0,0,1-2.028-1.691,1.862,1.862,0,0,1-.347-1.719,2.983,2.983,0,0,1,1.462-1.523,6.685,6.685,0,0,1,3.834-.831,9.756,9.756,0,0,1,4.3,1.368l1.109.639-4.908,2.833a4.615,4.615,0,0,0,1.788.365,3.166,3.166,0,0,0,1.6-.414q1.172-.678.884-1.6l2.667.238a1.61,1.61,0,0,1-.136,1.431,3.549,3.549,0,0,1-1.384,1.3m-7.569-4.049q-1.084.625.368,1.7l2.49-1.438-.219-.127a2.933,2.933,0,0,0-1.362-.44,2.27,2.27,0,0,0-1.277.3" fill="#fff"/>
          <path id="Trazado_196585" data-name="Trazado 196585" d="M826.192,780.947l1.155.573q-.423-1.191,1.02-2.023a4.431,4.431,0,0,1,2.7-.575,8.253,8.253,0,0,1,3.205,1.118l5.895,3.4-2.476,1.429-5.776-3.335a3.125,3.125,0,0,0-1.26-.449,2.047,2.047,0,0,0-1.205.32c-.485.279-.623.613-.418,1l6.462,3.73-2.468,1.426-9.151-5.283Z" fill="#fff"/>
          <path id="Trazado_196586" data-name="Trazado 196586" d="M830.008,776.02q-.609-.351-.617-.8c-.006-.3.193-.561.6-.8a2.654,2.654,0,0,1,1.377-.345,2.738,2.738,0,0,1,1.378.355c.407.234.612.5.618.8s-.2.561-.6.8a2.67,2.67,0,0,1-1.377.347,2.741,2.741,0,0,1-1.379-.357m14.132,5.132-2.476,1.429-9.15-5.284,2.475-1.428Z" fill="#fff"/>
          <path id="Trazado_196587" data-name="Trazado 196587" d="M838.841,773.644l1.155.573q-.4-1.2,1.02-2.023a4.387,4.387,0,0,1,3.408-.376q-.574-1.262.95-2.141,2.41-1.392,5.841.515l5.955,3.437-2.476,1.429-5.776-3.335a3.462,3.462,0,0,0-1.228-.473,1.684,1.684,0,0,0-1.069.247q-.732.423-.339,1.064l.126.064,6.25,3.609-2.476,1.429-5.759-3.325a3.569,3.569,0,0,0-1.238-.487,1.675,1.675,0,0,0-1.075.25.694.694,0,0,0-.332,1.061l6.369,3.676-2.469,1.426-9.15-5.283Z" fill="#fff"/>
          <path id="Trazado_196588" data-name="Trazado 196588" d="M847.051,766.18q-.609-.351-.617-.8c-.006-.3.194-.56.6-.795a2.672,2.672,0,0,1,1.379-.346,2.748,2.748,0,0,1,1.377.356q.609.351.619.8t-.6.8a2.655,2.655,0,0,1-1.377.346,2.732,2.732,0,0,1-1.379-.356m14.133,5.131-2.477,1.43-9.15-5.284,2.476-1.429Z" fill="#fff"/>
          <path id="Trazado_196589" data-name="Trazado 196589" d="M866.707,768.318a7.771,7.771,0,0,1-4.209.979,9.227,9.227,0,0,1-4.4-1.236l-.236-.137a6.31,6.31,0,0,1-2.028-1.69,1.863,1.863,0,0,1-.347-1.719,2.983,2.983,0,0,1,1.462-1.523,6.677,6.677,0,0,1,3.834-.831,9.744,9.744,0,0,1,4.3,1.368l1.109.639L861.291,767a4.656,4.656,0,0,0,1.788.365,3.175,3.175,0,0,0,1.6-.414q1.171-.678.884-1.605l2.667.237a1.606,1.606,0,0,1-.136,1.432,3.555,3.555,0,0,1-1.384,1.3m-7.569-4.048q-1.085.625.368,1.7l2.49-1.437-.218-.127a2.918,2.918,0,0,0-1.363-.44,2.262,2.262,0,0,0-1.277.3" fill="#fff"/>
          <path id="Trazado_196590" data-name="Trazado 196590" d="M863.984,759.128l1.156.573q-.425-1.191,1.02-2.024a4.422,4.422,0,0,1,2.7-.574,8.251,8.251,0,0,1,3.205,1.118l5.9,3.4-2.477,1.43-5.775-3.335a3.109,3.109,0,0,0-1.261-.449,2.056,2.056,0,0,0-1.205.319q-.726.418-.417,1l6.461,3.73-2.468,1.425-9.151-5.283Z" fill="#fff"/>
          <path id="Trazado_196591" data-name="Trazado 196591" d="M870.777,752.579l2.275,1.313,1.3-.752,1.98,1.142-1.3.753,4.186,2.417a2.122,2.122,0,0,0,.88.322,1.516,1.516,0,0,0,.84-.251,3.709,3.709,0,0,0,.566-.383l2.038,1.175a4.026,4.026,0,0,1-1.147.946,4.734,4.734,0,0,1-2.576.686,5.905,5.905,0,0,1-2.714-.864l-4.542-2.623-1.01.584-1.978-1.143,1.01-.584-2.276-1.312Z" fill="#fff"/>
          <path id="Trazado_196592" data-name="Trazado 196592" d="M879.287,755.479a5.942,5.942,0,0,1-1.978-1.676,1.837,1.837,0,0,1-.319-1.714,3,3,0,0,1,1.454-1.5,7.083,7.083,0,0,1,4.077-.884,10.148,10.148,0,0,1,4.488,1.407l.1.059q2.139,1.236,2.366,2.554t-1.53,2.334a7.072,7.072,0,0,1-3.889.893,9.836,9.836,0,0,1-4.281-1.2Zm2.646-1.323a6.619,6.619,0,0,0,2.205.876,2.4,2.4,0,0,0,1.609-.246q1.32-.762-.995-2.131l-.287-.166q-2.46-1.421-3.823-.635-1.238.715.782,2Z" fill="#fff"/>
          <text id="Requerimientos_Determinar_el_problema_el_alcance_y_el_plan_de_desarrollo." data-name="Requerimientos
Determinar el problema, el alcance y el plan de desarrollo." transform="translate(284.789 -0.888)" fill="#12263f" font-size="19.319" font-family="Roboto-Black, Roboto" font-weight="800"><tspan fill="#000"><tspan x="0" y="20">Requerimien</tspan><tspan y="20" letter-spacing="-0.014em">t</tspan><tspan y="20">os</tspan></tspan><tspan font-size="16" font-family="Roboto-Regular, Roboto" font-weight="400"><tspan x="0" y="44">Determinar el problema, el </tspan><tspan x="0" y="68">alcance y el plan de desarrollo.</tspan></tspan></text>
        </g>
      </g>
      <text id="Análisis_Investigar_sobre_los_problemas_y_lo_que_se_requiere_para_la_solución_responde_el_Qué." data-name="Análisis
Investigar sobre los problemas y lo que se requiere para la solución, responde el Qué." transform="translate(717.959 1713.95)" fill="#12263f" font-size="19.319" font-family="Roboto-Black, Roboto" font-weight="800"><tspan fill="#000"><tspan x="0" y="20" letter-spacing="-0.023em">A</tspan><tspan y="20">nálisis</tspan></tspan><tspan font-size="16" font-family="Roboto-Regular, Roboto" font-weight="400"><tspan x="0" y="44">Investigar sobre los problemas </tspan><tspan x="0" y="68">y lo que se requiere para la </tspan><tspan x="0" y="92">solución, responde el </tspan><tspan y="92" font-family="Roboto-Italic, Roboto" font-style="italic">Qué</tspan><tspan y="92">.</tspan></tspan></text>
      <text id="Diseño_Diseñar_la_solución_se_define_el_Cómo." data-name="Diseño
Diseñar la solución, se define el Cómo." transform="translate(857.13 1845.79)" fill="#12263f" font-size="19.319" font-family="Roboto-Black, Roboto" font-weight="800"><tspan fill="#000"><tspan x="0" y="20">Diseño</tspan></tspan><tspan font-size="16" font-family="Roboto-Regular, Roboto" font-weight="400"><tspan x="0" y="44">Diseñar la solución, se define </tspan><tspan x="0" y="68">el </tspan><tspan y="68" font-family="Roboto-Italic, Roboto" font-style="italic">Cómo</tspan><tspan y="68">.</tspan></tspan></text>
      <text id="Codificación_Desarrollo_Programación_del_diseño" data-name="Codificación / Desarrollo
Programación del diseño" transform="translate(470.045 2220.37)" fill="#12263f" font-size="19.319" font-family="Roboto-Black, Roboto" font-weight="800"><tspan fill="#000"><tspan x="0" y="0">Codificación / Desar</tspan><tspan y="0" letter-spacing="-0.017em">r</tspan><tspan y="0">ollo</tspan></tspan><tspan font-size="16" font-family="Roboto-Regular, Roboto" font-weight="400"><tspan x="0" y="24">Programación del diseño</tspan></tspan></text>
      <text id="Pruebas_y_despliegue_El_testeo_para_asegurar_que_los_requerimientos_están_satisfechos" data-name="Pruebas y despliegue
El testeo para asegurar que los requerimientos están satisfechos" transform="translate(629.926 2339.57)" fill="#12263f" font-size="19.319" font-family="Roboto-Black, Roboto" font-weight="800"><tspan fill="#000"><tspan x="0" y="20">Pruebas y despliegue</tspan></tspan><tspan font-size="16" font-family="Roboto-Regular, Roboto" font-weight="400"><tspan x="0" y="44">El testeo para asegurar que los </tspan><tspan x="0" y="68">requerimientos están </tspan><tspan x="0" y="92">satisfechos</tspan></tspan></text>
      <text id="Mantenimiento_Arreglar_o_mejorar_las_soluciones_referenciado_al_usuario_o_cambio" data-name="Mantenimiento
Arreglar o mejorar las soluciones referenciado al usuario o cambio" transform="translate(825.988 2456.27)" fill="#12263f" font-size="19.319" font-family="Roboto-Black, Roboto" font-weight="800"><tspan fill="#000"><tspan x="0" y="20">Mantenimien</tspan><tspan y="20" letter-spacing="-0.014em">t</tspan><tspan y="20">o</tspan></tspan><tspan font-size="16" font-family="Roboto-Regular, Roboto" font-weight="400"><tspan x="0" y="44">Arreglar o mejorar las </tspan><tspan x="0" y="68">soluciones referenciado al </tspan><tspan x="0" y="92">usuario o cambio</tspan></tspan></text>
    </g>
  </g>
</svg>
