<svg xmlns="http://www.w3.org/2000/svg" xmlns:xlink="http://www.w3.org/1999/xlink" width="404" height="332" viewBox="0 0 404 332">
  <defs>
    <clipPath id="clip-path">
      <rect id="Rectángulo_44335" data-name="Rectángulo 44335" width="380" height="284" fill="none"/>
    </clipPath>
  </defs>
  <g id="Grupo_143204" data-name="Grupo 143204" transform="translate(-968 -7072.668)">
    <g id="Grupo_141856" data-name="Grupo 141856" transform="translate(0 541.338)">
      <rect id="Rectángulo_44009" data-name="Rectángulo 44009" width="166" height="332" transform="translate(1206 6531.33)" fill="#4dd0e1"/>
      <g id="Grupo_141855" data-name="Grupo 141855" transform="translate(968 6555)">
        <rect id="Rectángulo_44332" data-name="Rectángulo 44332" width="380" height="284" fill="#fff"/>
        <g id="Grupo_141854" data-name="Grupo 141854">
          <g id="Grupo_141853" data-name="Grupo 141853" clip-path="url(#clip-path)">
            <path id="Trazado_195898" data-name="Trazado 195898" d="M79.435,120.9h0c-12.811-.74-25.949-1.962-37.194-7.313S21.947,97.827,22.549,86.2c.543-10.5,9.63-20.383,21-22.842s23.988,2.73,29.158,12C74,60.337,87.23,46.491,103.542,43.087s34.3,3.927,41.922,17.085c2.742,4.733,5.4,10.885,11.356,11.283,3.316.222,6.385-1.57,9.427-2.883,14.186-6.122,32.727-1.174,40.47,10.8C242.084,134.06,104.124,122.325,79.435,120.9" fill="#e4f8fb"/>
            <path id="Trazado_195899" data-name="Trazado 195899" d="M65.528,239.77h0c-9.275-2.277-18.724-4.951-26.228-10.39S26.583,215.1,28.6,206.671c1.82-7.611,9.808-13.612,18.466-13.87s17.185,5.247,19.713,12.729c2.979-10.817,14.536-19.157,26.934-19.439s24.568,7.52,28.365,18.182c1.365,3.835,2.479,8.7,6.781,9.795,2.4.612,4.886-.284,7.29-.833,11.211-2.558,24.109,3.574,28.154,13.385,18.474,44.814-80.9,17.538-98.773,13.15" fill="#2e7d87"/>
            <path id="Trazado_195900" data-name="Trazado 195900" d="M209.09,131.793h0c-12.963-1.851-26.283-4.412-37.935-12.752S149.771,95.27,149.7,78.7c-.064-14.966,8.523-28.516,19.85-31.324s24.351,5.388,30.1,18.945c.426-21.374,12.959-40.33,29.21-44.18s34.818,7.736,43.273,27c3.04,6.931,6.082,15.883,12.109,16.821,3.357.522,6.348-1.848,9.339-3.534,13.949-7.864,32.934.353,41.441,17.935,38.854,80.31-100.955,54.991-125.936,51.423" fill="#3da6b4"/>
            <path id="Trazado_195901" data-name="Trazado 195901" d="M48,114.761c-15.669,4-21.016,36.028-11.943,71.524s29.131,61.025,44.8,57.02,21.016-36.028,11.942-71.524S63.668,110.756,48,114.761" fill="#0c1f5a"/>
            <line id="Línea_387" data-name="Línea 387" x2="33.088" y2="125.917" transform="translate(47.769 117.387)" fill="none" stroke="#e4f8fb" stroke-linecap="round" stroke-linejoin="round" stroke-width="1"/>
            <line id="Línea_388" data-name="Línea 388" x2="18.355" y2="10.716" transform="translate(59.624 222.698)" fill="none" stroke="#e4f8fb" stroke-linecap="round" stroke-linejoin="round" stroke-width="1"/>
            <line id="Línea_389" data-name="Línea 389" x1="10.716" y2="18.355" transform="translate(77.979 215.059)" fill="none" stroke="#e4f8fb" stroke-linecap="round" stroke-linejoin="round" stroke-width="1"/>
            <line id="Línea_390" data-name="Línea 390" x2="18.355" y2="10.716" transform="translate(55.09 204.343)" fill="none" stroke="#e4f8fb" stroke-linecap="round" stroke-linejoin="round" stroke-width="1"/>
            <line id="Línea_391" data-name="Línea 391" x1="10.716" y2="18.355" transform="translate(73.444 196.704)" fill="none" stroke="#e4f8fb" stroke-linecap="round" stroke-linejoin="round" stroke-width="1"/>
            <line id="Línea_392" data-name="Línea 392" x2="18.355" y2="10.716" transform="translate(50.461 185.988)" fill="none" stroke="#e4f8fb" stroke-linecap="round" stroke-linejoin="round" stroke-width="1"/>
            <line id="Línea_393" data-name="Línea 393" x1="10.716" y2="18.355" transform="translate(68.816 178.349)" fill="none" stroke="#e4f8fb" stroke-linecap="round" stroke-linejoin="round" stroke-width="1"/>
            <line id="Línea_394" data-name="Línea 394" x2="18.355" y2="10.716" transform="translate(45.891 168.317)" fill="none" stroke="#e4f8fb" stroke-linecap="round" stroke-linejoin="round" stroke-width="1"/>
            <line id="Línea_395" data-name="Línea 395" x1="10.716" y2="18.355" transform="translate(64.246 160.678)" fill="none" stroke="#e4f8fb" stroke-linecap="round" stroke-linejoin="round" stroke-width="1"/>
            <line id="Línea_396" data-name="Línea 396" x2="18.355" y2="10.716" transform="translate(40.533 149.639)" fill="none" stroke="#e4f8fb" stroke-linecap="round" stroke-linejoin="round" stroke-width="1"/>
            <line id="Línea_397" data-name="Línea 397" x1="10.716" y2="18.355" transform="translate(58.888 142)" fill="none" stroke="#e4f8fb" stroke-linecap="round" stroke-linejoin="round" stroke-width="1"/>
            <path id="Trazado_195902" data-name="Trazado 195902" d="M318.591,89.117c17.81,2.635,27.409,37.477,21.44,77.821s-25.244,70.916-43.054,68.281-27.408-37.476-21.44-77.821,25.244-70.916,43.054-68.281" fill="#0c1f5a"/>
            <line id="Línea_398" data-name="Línea 398" x1="21.64" y2="146.581" transform="translate(296.991 89.294)" fill="none" stroke="#e4f8fb" stroke-linecap="round" stroke-linejoin="round" stroke-width="1"/>
            <line id="Línea_399" data-name="Línea 399" x1="19.419" y2="14.423" transform="translate(299.007 209.904)" fill="none" stroke="#e4f8fb" stroke-linecap="round" stroke-linejoin="round" stroke-width="1"/>
            <line id="Línea_400" data-name="Línea 400" x2="14.423" y2="19.419" transform="translate(284.584 204.908)" fill="none" stroke="#e4f8fb" stroke-linecap="round" stroke-linejoin="round" stroke-width="1"/>
            <line id="Línea_401" data-name="Línea 401" x1="19.419" y2="14.423" transform="translate(301.834 188.573)" fill="none" stroke="#e4f8fb" stroke-linecap="round" stroke-linejoin="round" stroke-width="1"/>
            <line id="Línea_402" data-name="Línea 402" x2="14.423" y2="19.419" transform="translate(287.412 183.577)" fill="none" stroke="#e4f8fb" stroke-linecap="round" stroke-linejoin="round" stroke-width="1"/>
            <line id="Línea_403" data-name="Línea 403" x1="19.419" y2="14.423" transform="translate(304.769 167.231)" fill="none" stroke="#e4f8fb" stroke-linecap="round" stroke-linejoin="round" stroke-width="1"/>
            <line id="Línea_404" data-name="Línea 404" x2="14.423" y2="19.419" transform="translate(290.346 162.235)" fill="none" stroke="#e4f8fb" stroke-linecap="round" stroke-linejoin="round" stroke-width="1"/>
            <line id="Línea_405" data-name="Línea 405" x1="19.419" y2="14.423" transform="translate(307.722 146.669)" fill="none" stroke="#e4f8fb" stroke-linecap="round" stroke-linejoin="round" stroke-width="1"/>
            <line id="Línea_406" data-name="Línea 406" x2="14.423" y2="19.419" transform="translate(293.3 141.673)" fill="none" stroke="#e4f8fb" stroke-linecap="round" stroke-linejoin="round" stroke-width="1"/>
            <line id="Línea_407" data-name="Línea 407" x1="19.419" y2="14.423" transform="translate(311.441 124.869)" fill="none" stroke="#e4f8fb" stroke-linecap="round" stroke-linejoin="round" stroke-width="1"/>
            <line id="Línea_408" data-name="Línea 408" x2="14.423" y2="19.419" transform="translate(297.019 119.873)" fill="none" stroke="#e4f8fb" stroke-linecap="round" stroke-linejoin="round" stroke-width="1"/>
            <path id="Trazado_195903" data-name="Trazado 195903" d="M197.515,261.535h13.46A52.828,52.828,0,0,0,263.8,208.707V179.615a2.243,2.243,0,0,0-1.936-2.27,2.159,2.159,0,0,0-2.38,2.147v29.023a48.7,48.7,0,0,1-48.7,48.7H197.515a13.807,13.807,0,0,1-13.806-13.807V71.449a2.244,2.244,0,0,0-1.936-2.271,2.16,2.16,0,0,0-2.381,2.147V243.412a18.123,18.123,0,0,0,18.123,18.123" fill="#fff2ec"/>
            <path id="Trazado_195904" data-name="Trazado 195904" d="M130.375,101.867H183.6a7.138,7.138,0,0,0,7.138-7.138v-.777a7.138,7.138,0,0,0-7.138-7.138H130.375a7.138,7.138,0,0,0-7.138,7.138v.777a7.138,7.138,0,0,0,7.138,7.138" fill="#78dbf9"/>
            <path id="Trazado_195905" data-name="Trazado 195905" d="M114.318,123.669H183.6a7.138,7.138,0,0,0,7.138-7.138v-.777a7.138,7.138,0,0,0-7.138-7.138H114.318a7.138,7.138,0,0,0-7.138,7.138v.777a7.138,7.138,0,0,0,7.138,7.138" fill="#ffedb6"/>
            <path id="Trazado_195906" data-name="Trazado 195906" d="M114.318,222.556H183.6a7.138,7.138,0,0,0,7.138-7.138v-.777A7.138,7.138,0,0,0,183.6,207.5H114.318a7.138,7.138,0,0,0-7.138,7.138v.777a7.138,7.138,0,0,0,7.138,7.138" fill="#fff2ec"/>
            <path id="Trazado_195907" data-name="Trazado 195907" d="M138.4,145.47H183.6a7.138,7.138,0,0,0,7.138-7.138v-.777a7.138,7.138,0,0,0-7.138-7.138H138.4a7.138,7.138,0,0,0-7.138,7.138v.777a7.138,7.138,0,0,0,7.138,7.138" fill="#ffedb6"/>
            <path id="Trazado_195908" data-name="Trazado 195908" d="M130.375,167.272H183.6a7.138,7.138,0,0,0,7.138-7.138v-.777a7.138,7.138,0,0,0-7.138-7.138H130.375a7.138,7.138,0,0,0-7.138,7.138v.777a7.138,7.138,0,0,0,7.138,7.138" fill="#a0bad8"/>
            <path id="Trazado_195909" data-name="Trazado 195909" d="M130.375,189.074H183.6a7.138,7.138,0,0,0,7.138-7.138v-.777a7.138,7.138,0,0,0-7.138-7.138H130.375a7.138,7.138,0,0,0-7.138,7.138v.777a7.138,7.138,0,0,0,7.138,7.138" fill="#2c4e78"/>
            <path id="Trazado_195910" data-name="Trazado 195910" d="M130.375,242.754H183.6a7.138,7.138,0,0,0,7.138-7.138v-.777A7.138,7.138,0,0,0,183.6,227.7H130.375a7.138,7.138,0,0,0-7.138,7.138v.777a7.138,7.138,0,0,0,7.138,7.138" fill="#fff2ec"/>
            <path id="Trazado_195911" data-name="Trazado 195911" d="M181.551,49.833H153.6a27.955,27.955,0,0,0,41.922,24.208Z" fill="#fff2ec"/>
            <path id="Trazado_195912" data-name="Trazado 195912" d="M181.551,21.886V49.833H153.6a27.947,27.947,0,0,1,27.947-27.947" fill="#ffedb6"/>
            <path id="Trazado_195913" data-name="Trazado 195913" d="M181.551,49.833V21.886a27.816,27.816,0,0,1,15.493,4.684Z" fill="#78dbf9"/>
            <path id="Trazado_195914" data-name="Trazado 195914" d="M177.115,159.746a4.435,4.435,0,1,1,4.436,4.436,4.436,4.436,0,0,1-4.436-4.436" fill="#fff"/>
            <path id="Trazado_195915" data-name="Trazado 195915" d="M177.115,181.635a4.435,4.435,0,1,1,4.436,4.437,4.436,4.436,0,0,1-4.436-4.437" fill="#fff"/>
            <path id="Trazado_195916" data-name="Trazado 195916" d="M177.115,116.142a4.435,4.435,0,1,1,4.436,4.436,4.436,4.436,0,0,1-4.436-4.436" fill="#fff"/>
            <path id="Trazado_195917" data-name="Trazado 195917" d="M209.5,49.833A27.92,27.92,0,0,0,197.044,26.57L181.551,49.833Z" fill="#a0bad8"/>
            <path id="Trazado_195918" data-name="Trazado 195918" d="M195.526,74.041A27.935,27.935,0,0,0,209.5,49.833H181.551Z" fill="#2c4e78"/>
            <path id="Trazado_195919" data-name="Trazado 195919" d="M359.444,178.956c6.271,6.806-5.3,27.664-25.835,46.588s-42.272,28.747-48.542,21.942,5.3-27.664,25.834-46.588,42.272-28.748,48.543-21.942" fill="#2e7d87"/>
            <line id="Línea_409" data-name="Línea 409" x1="69.66" y2="65.401" transform="translate(286.523 181.352)" fill="none" stroke="#e4f8fb" stroke-linecap="round" stroke-linejoin="round" stroke-width="1"/>
            <line id="Línea_410" data-name="Línea 410" x1="0.492" y2="15.591" transform="translate(291.896 225.845)" fill="none" stroke="#e4f8fb" stroke-linecap="round" stroke-linejoin="round" stroke-width="1"/>
            <line id="Línea_411" data-name="Línea 411" x1="15.591" y1="0.492" transform="translate(291.897 241.436)" fill="none" stroke="#e4f8fb" stroke-linecap="round" stroke-linejoin="round" stroke-width="1"/>
            <line id="Línea_412" data-name="Línea 412" x1="0.492" y2="15.591" transform="translate(302.152 216.498)" fill="none" stroke="#e4f8fb" stroke-linecap="round" stroke-linejoin="round" stroke-width="1"/>
            <line id="Línea_413" data-name="Línea 413" x1="15.591" y1="0.492" transform="translate(302.152 232.088)" fill="none" stroke="#e4f8fb" stroke-linecap="round" stroke-linejoin="round" stroke-width="1"/>
            <line id="Línea_414" data-name="Línea 414" x1="0.492" y2="15.591" transform="translate(312.374 207.09)" fill="none" stroke="#e4f8fb" stroke-linecap="round" stroke-linejoin="round" stroke-width="1"/>
            <line id="Línea_415" data-name="Línea 415" x1="15.591" y1="0.492" transform="translate(312.374 222.68)" fill="none" stroke="#e4f8fb" stroke-linecap="round" stroke-linejoin="round" stroke-width="1"/>
            <line id="Línea_416" data-name="Línea 416" x1="0.492" y2="15.591" transform="translate(322.176 197.959)" fill="none" stroke="#e4f8fb" stroke-linecap="round" stroke-linejoin="round" stroke-width="1"/>
            <line id="Línea_417" data-name="Línea 417" x1="15.591" y1="0.492" transform="translate(322.176 213.55)" fill="none" stroke="#e4f8fb" stroke-linecap="round" stroke-linejoin="round" stroke-width="1"/>
            <line id="Línea_418" data-name="Línea 418" x1="0.492" y2="15.591" transform="translate(332.352 187.967)" fill="none" stroke="#e4f8fb" stroke-linecap="round" stroke-linejoin="round" stroke-width="1"/>
            <line id="Línea_419" data-name="Línea 419" x1="15.591" y1="0.492" transform="translate(332.352 203.558)" fill="none" stroke="#e4f8fb" stroke-linecap="round" stroke-linejoin="round" stroke-width="1"/>
            <path id="Trazado_195920" data-name="Trazado 195920" d="M143.2,219.833l15.376,4.7a22.9,22.9,0,0,1,5.615,1.022c5.283,1.615,9.072,4.535,8.465,6.522s-5.382,2.288-10.665.673a21.686,21.686,0,0,1-5.979-2.787l-14.549-4.448Z" fill="#ffd4d0"/>
            <path id="Trazado_195921" data-name="Trazado 195921" d="M152.226,220.345l-3.181,9.2L119.71,220.83a12.9,12.9,0,0,1-8.986-14.113l4.54-32.586s11.5,1.1,7.606,30.446c-.354,2.664,2.375,5.277,4.827,6.376Z" fill="#98791b"/>
            <path id="Trazado_195922" data-name="Trazado 195922" d="M115.264,174.131l4.037,60.194s-27.844,3.973-41.52-.67l5.734-58.423,8.442-3.67,7.318,14.681,7.18-14.681Z" fill="#ffc900"/>
            <path id="Trazado_195923" data-name="Trazado 195923" d="M106.455,171.562l-7.18,14.682-7.318-14.682,7.157-2.207Z" fill="#baf3f3"/>
            <path id="Trazado_195924" data-name="Trazado 195924" d="M106.455,171.562l-2.019-4.221-5.322,2.014,4.641,7.727Z" fill="#64cfff"/>
            <path id="Trazado_195925" data-name="Trazado 195925" d="M99.115,169.355l-3.854-2.014-3.3,4.221,2.751,5.52Z" fill="#64cfff"/>
            <path id="Trazado_195926" data-name="Trazado 195926" d="M104.436,167.341v-2.763s3.487,2.56,8.626,0c0,0,6.239-3.11,3.853-18.158,0,0-4.761-9.089-13.95-6.33a14.238,14.238,0,0,0-9.51,16.812,21.787,21.787,0,0,0,2.08,5.667s.825,3.367-.275,4.772l3.854,2.014Z" fill="#efb6af"/>
            <path id="Trazado_195927" data-name="Trazado 195927" d="M113.042,147.64a9.139,9.139,0,0,0-5.421,1.9c-1.44,1.317-1.948,3.811-.587,5.208l-2.706-.049c.789-.77.026-2.3-1.07-2.424a2.579,2.579,0,0,0-2.485,1.806,8.5,8.5,0,0,0-.287,3.274,6.168,6.168,0,0,1-.53,3.224,3.443,3.443,0,0,1-5.191.712,29.239,29.239,0,0,1-3.891-10.628,13.831,13.831,0,0,1,2.862-10.684,14.5,14.5,0,0,1,8.321-4.373,43.153,43.153,0,0,1,9.549-.381c4.214.144,10.5.915,11.074,6.3.532,5.011-6.155,5.789-9.638,6.117" fill="#004783"/>
            <path id="Trazado_195928" data-name="Trazado 195928" d="M119.3,234.325v4.588L77.781,238v-4.34Z" fill="#87b8d2"/>
            <rect id="Rectángulo_44333" data-name="Rectángulo 44333" width="2.211" height="4.513" transform="translate(112.682 234.254)" fill="#003e59"/>
            <rect id="Rectángulo_44334" data-name="Rectángulo 44334" width="2.135" height="4.347" transform="translate(84.605 233.799)" fill="#003e59"/>
            <path id="Trazado_195929" data-name="Trazado 195929" d="M119.3,238.913,108.84,345.17h-7.524l-4.132-86.437L82.8,346.822l-7.356-.184L77.781,238Z" fill="#007779"/>
            <path id="Trazado_195930" data-name="Trazado 195930" d="M89.76,235.7l10.815,11.9a22.98,22.98,0,0,1,4.3,3.748c3.716,4.088,5.482,8.534,3.944,9.932s-5.8-.783-9.511-4.871a21.668,21.668,0,0,1-3.716-5.451L85.363,239.7Z" fill="#efb6af"/>
            <path id="Trazado_195931" data-name="Trazado 195931" d="M83.515,175.232s-11.195,2.753-12.846,16.15v32.666s-.035.413-.043,1.138c-.074,6.2,8.067,12.935,12.133,17.617l9.529,8.406,8.8-6.253L82.23,222.213Z" fill="#cba124"/>
            <path id="Trazado_195932" data-name="Trazado 195932" d="M268.619,236.738l-1.148,59.434,0,48.157s5.76,3.863,9.7-.512l13.544-111.694s-1.76,6.061-22.1,4.615" fill="#004b83"/>
            <path id="Trazado_195933" data-name="Trazado 195933" d="M291.779,234.788s14.4,12.522,3.216,33.315l21.351,80.1s-4.363,4.434-7.956,1.96L279.383,278.7a144.785,144.785,0,0,1-10.045-41.465l-.13-1.445s17.153,6.319,22.571-1" fill="#006093"/>
            <path id="Trazado_195934" data-name="Trazado 195934" d="M269.929,194.616l-4.675,28.571c-.386,1.659-3.732,3.47-5.372,3.928l-20.94,5.84-12.929,2.618a2.194,2.194,0,0,0-.867,3.919c2.93,2.132,10.568,4.456,16.575-1.375l27.222-3.129c4.663-2.22,4.168-5.854,4.754-8.063l9.665-35.169Z" fill="#ffb4a4"/>
            <path id="Trazado_195935" data-name="Trazado 195935" d="M265.57,173.348c-.693,2.64,2.8,4.733,2.812,7.463.011,3.322-4.967,5.04-4.875,8.361.082,2.925,4.153,4.761,3.786,7.664-.1.821-.574,1.652-.289,2.43a2.436,2.436,0,0,0,1.021,1.093,13.877,13.877,0,0,0,14.469.088,21.165,21.165,0,0,1,4.2-2.368c2.17-.688,4.528-.147,6.792-.386a9.993,9.993,0,0,0,7.125-4.278,2.609,2.609,0,0,0,.475-1.045c.19-1.248-1.11-2.131-2.073-2.947a7.975,7.975,0,0,1-2.78-5.924c-.031-3.162,1.8-5.995,2.834-8.983,1.123-3.25,1.2-7.141-.927-9.842-1.46-1.851-3.723-2.873-5.444-4.485a20.135,20.135,0,0,1-3.616-5.16,13.129,13.129,0,0,0-1.861-2.8c-2.257-2.378-5.885-2.688-9.163-2.744a19.512,19.512,0,0,0-5.461.455,7.171,7.171,0,0,0-4.388,3.08c-1.971,3.373,0,7.453-.366,11.067a24.234,24.234,0,0,0-.4,4.617c.155,2.032-1.4,2.833-1.871,4.644" fill="#af403a"/>
            <path id="Trazado_195936" data-name="Trazado 195936" d="M284.326,151.341c-3.942-1.771-10.556-3.6-15.324.984a11.514,11.514,0,0,0-3.391,8.7c.152,4.705,1.784,12.159,10.423,13.283a14.868,14.868,0,0,1-1.235,7.536,5.637,5.637,0,0,0,3.537,3.293c2.481.578,6.432.339,7.5-2.865A28.807,28.807,0,0,1,284,175.432a11.7,11.7,0,0,1,2.481-7.886c1.373-1.814,3.02-5.213,2.168-10.537a7.5,7.5,0,0,0-4.32-5.668" fill="#ffb4a4"/>
            <path id="Trazado_195937" data-name="Trazado 195937" d="M278.659,161.614a3.492,3.492,0,0,0,1.788-.108,10.284,10.284,0,0,0,1.457-.922,3.887,3.887,0,0,1,5.163,1.323,2.38,2.38,0,0,1,.349,1.612c-.279,1.463-2.13,1.9-3.24,2.893a4.587,4.587,0,0,0-1.171,4.338,11.382,11.382,0,0,0,2.1,4.172c1.065,1.487,2.282,3.149,1.984,4.954-.211,1.282-1.177,2.553-.684,3.754.642,1.562,2.974,1.35,4.309,2.383,1.145.888,1.341,2.5,1.8,3.874,1.582,4.772,6.995,7.344,12.021,7.44,3,.057,6.3-.763,8.019-3.228a6.724,6.724,0,0,0-.247-7.6,8.287,8.287,0,0,0-7.1-3.177c-1.649.094-3.566.544-4.752-.605a3.648,3.648,0,0,1-.814-2.993,8.69,8.69,0,0,1,1.555-4.192,45.129,45.129,0,0,0,2.919-3.663c.767-1.363.886-3.313-.326-4.3-1.048-.854-2.61-.639-3.831-1.221a3.238,3.238,0,0,1-1.731-3.453c.3-1.482,1.607-2.576,2.028-4.028a3.723,3.723,0,0,0-3.178-4.541c-1.023-.069-2.071.3-3.062.039a3.838,3.838,0,0,1-2.409-2.947c-.325-1.292-.32-2.654-.7-3.93a6.941,6.941,0,0,0-9.047-4.173c-.875.384-1.663.955-2.559,1.286-4.045,1.491-8.426-2.3-12.646-1.415a7.144,7.144,0,0,0-4.822,4.082,11.517,11.517,0,0,0-.75,6.419,6.5,6.5,0,0,0,.843,2.628,4.107,4.107,0,0,0,3.738,1.838c.872-.7,1.878-2.927,2.877-3.218,1.2-.351,2.136,1.541,2.893,2.339,1.961,2.067,4.332,3.905,7.227,4.337" fill="#e85750"/>
            <path id="Trazado_195938" data-name="Trazado 195938" d="M265.9,197.567l8.963-15.989a4.137,4.137,0,0,0,1.662,2.273c2.062,1.3,5.642.362,8.483-2.713a39.367,39.367,0,0,1,8.453,6c2.42,2.294,4.117,4.3,4.117,4.3-4.068,8.182,2.679,60.122,2.679,60.122-10.827,10.661-34.736,2.17-34.736,2.17l4.257-37.806c.116-9.651-2.4-10.81-2.4-10.81a5.81,5.81,0,0,1-1.473-7.554" fill="#00bdc2"/>
            <path id="Trazado_195939" data-name="Trazado 195939" d="M302.557,208.115s2.143-15.766-7.251-17.452c0,0-9.247.1-6.251,17.584,0,0,10.4,3.609,13.5-.132" fill="#75e1e4"/>
            <path id="Trazado_195940" data-name="Trazado 195940" d="M301.575,208.941s.6,15.815-1.572,21.027a6.059,6.059,0,0,1-6.837,3.276l-21.374-9.949-8.375-2.544a3.1,3.1,0,0,1-1.795-4.25l1.23-2.73s-8.166-4.121-8.217-5.6c0,0-1.313-1.826,5.064.39l8.112,3.674,6.6,5.77,17.894,5.569-.468-14.45s6.423,1.429,9.733-.188" fill="#ffc3b4"/>
            <path id="Trazado_195941" data-name="Trazado 195941" d="M194.014,223.2,176.374,337.99l14.826,1.287,20.854-91.7,13.849,91.2,13.549-.407-4.09-118.134Z" fill="#0f2771"/>
            <path id="Trazado_195942" data-name="Trazado 195942" d="M198.885,154.741s-6.417-.051-4.888,9.591c0,0,1.246,13.63.665,15.565,0,0-2.126,4.872-6.088,7.3,0,0,1.025,8.729,8.348,10.745,0,0,4.18-3.975,4.325-8.628l-.57-12.144s-6.071-19.2-1.792-22.429" fill="#cba124"/>
            <path id="Trazado_195943" data-name="Trazado 195943" d="M190.647,183.26a6.477,6.477,0,0,0-2.073,3.936s.962,7.351,7.479,10.648a2.36,2.36,0,0,0,3.036-.838,6.707,6.707,0,0,0,1.028-4.5,14.979,14.979,0,0,1-7.448-8.648,1.255,1.255,0,0,0-2.022-.593" fill="#cba124"/>
            <path id="Trazado_195944" data-name="Trazado 195944" d="M188.574,187.2l-4.751,2.954a2.1,2.1,0,0,1-2.642-.355L169.77,177.482l-2.427-9.882-3.261-4.941a.532.532,0,0,0-.951.117c-.252.816.132,3.329,1.554,5.645-5.78-9.418-7.881-7.133-8.581-7.054-4.686.526,3.566,14.5,3.566,14.5l7.491,6.554,10.776,18.126a5.472,5.472,0,0,0,7.48,1.92l9.249-5.442s-4.447-1.934-6.092-9.833" fill="#ffb089"/>
            <path id="Trazado_195945" data-name="Trazado 195945" d="M216.6,151.049s12.248,4.5,14.082,6.087c0,0,9.03,12.449,5.268,67.768,0,0-19.505,10.358-42.174-1.713,0,0,8.519-18.421,5.28-44.212,0,0-4.5-20.908-.172-24.238l2.984-1.545Z" fill="#ffc900"/>
            <path id="Trazado_195946" data-name="Trazado 195946" d="M218.824,128.89c.5,3.967.036,8.7-3.7,12.015l1.478,10.143c-1.065,4.29-4.838,7.038-8.525,6.693-4.034-.379-6.076-4.286-6.206-4.545a4.877,4.877,0,0,0,1.555-5.189,1.033,1.033,0,0,0-.782-.758c-1.649-.387-6.2-2.728-6.163-16.769a10.471,10.471,0,0,1,1.313-5.091,11.783,11.783,0,0,1,8.466-6.3,11.189,11.189,0,0,1,12.566,9.8" fill="#efb6af"/>
            <path id="Trazado_195947" data-name="Trazado 195947" d="M212.366,135.028s1.618,5.961-4.9,6.911c0,0-5.592-4.117-9.48.231a47.138,47.138,0,0,0,.005,6.325,4.349,4.349,0,0,0,3.264,3.927c2.229.551,5.922.529,11.7-1.858a4.091,4.091,0,0,0,2.483-3.118,16.922,16.922,0,0,0-.18-5.6l-.986-6.98Z" fill="#d94b42"/>
            <path id="Trazado_195948" data-name="Trazado 195948" d="M206.285,143.2c-.028-.076-3.631-3.61-6.913-.036a.531.531,0,0,0-.056.661c.269.371,1.078.8,3.45.6,0,0,3.88-.252,3.519-1.22" fill="#efb6af"/>
            <path id="Trazado_195949" data-name="Trazado 195949" d="M207.966,124.4c-3.012,1.775-12.324,6.52-17.048.5a2.572,2.572,0,0,1-.436-2.382,5.352,5.352,0,0,1,5.352-3.962s7.827.031,12.173-1.36a10.914,10.914,0,0,1,13.062,6.972s4.631,10.342-3.927,17.217a1.084,1.084,0,0,1-1.811-.6c-.117-.753,1.324-3.682,2.3-5.856a3.712,3.712,0,0,0,.085-2.952,2.815,2.815,0,0,0-.707-1.036,1.6,1.6,0,0,0-2.539.693,6.72,6.72,0,0,0-.178,3.387l-1.868.291c-.637-1.755-3.509-6.551-3.555-10.413a.6.6,0,0,0-.907-.5" fill="#d94b42"/>
            <path id="Trazado_195950" data-name="Trazado 195950" d="M218.335,200.114l-23.513,2.6-13.674,2.824s-8.174,3.774-8.364,5.11c0,0-.944,1.445,4.722-1.048l6.156-.9a17.374,17.374,0,0,0,1.933,3.31,1.555,1.555,0,0,0,1.934.382l8.08-4.278s26.551,2.182,33.3,1.059c0,0-5.75-7.646-10.574-9.057" fill="#ffb089"/>
            <path id="Trazado_195951" data-name="Trazado 195951" d="M236.88,161.411s-4.474-6.952-9.6-4.191a11.524,11.524,0,0,0-6.132,10.337c.085,10.651,2.812,23.517-1.451,28.419,0,0,7.039,6.005,14.047,6.71,0,0,8.221-33.606,3.135-41.275" fill="#cba124"/>
            <path id="Trazado_195952" data-name="Trazado 195952" d="M233.746,202.686s1.556,3.091-1.521,6.077a2.715,2.715,0,0,1-4.038-.324c-2.018-2.632-5.738-6.937-9.3-8.16a2,2,0,0,1-1.39-2.178,3.49,3.49,0,0,1,2.719-2.815,25.615,25.615,0,0,0,13.534,7.4" fill="#cba124"/>
            <path id="Trazado_195953" data-name="Trazado 195953" d="M155.818,161.193l.746-.168a2.59,2.59,0,0,1,2.712,1.067l3.371,4.943a2.508,2.508,0,0,1,.192,2.492l-3.09,6.482s-5.113-8.789-5.307-12.993a1.774,1.774,0,0,1,1.376-1.823" fill="#ffc5a5"/>
          </g>
        </g>
      </g>
    </g>
  </g>
</svg>
