<svg xmlns="http://www.w3.org/2000/svg" xmlns:xlink="http://www.w3.org/1999/xlink" width="190" height="110.6" viewBox="0 0 190 110.6">
  <defs>
    <clipPath id="clip-path">
      <rect id="Rectángulo_44909" data-name="Rectángulo 44909" width="124.673" height="110.6" fill="none"/>
    </clipPath>
  </defs>
  <g id="Grupo_143171" data-name="Grupo 143171" transform="translate(-180 -2940)">
    <g id="Grupo_143078" data-name="Grupo 143078" transform="translate(0 110)">
      <g id="Grupo_141633" data-name="Grupo 141633" transform="translate(-105 2436.5)">
        <rect id="Rectángulo_41430" data-name="Rectángulo 41430" width="85" height="28" rx="14" transform="translate(390 404.5)" fill="#feca2e" opacity="0.2"/>
        <rect id="Rectángulo_41431" data-name="Rectángulo 41431" width="85" height="28" rx="14" transform="translate(285 465.5)" fill="#4dd0e1" opacity="0.2"/>
      </g>
      <g id="Grupo_143077" data-name="Grupo 143077" transform="translate(213 2830)">
        <g id="Grupo_143076" data-name="Grupo 143076" clip-path="url(#clip-path)">
          <path id="Trazado_197209" data-name="Trazado 197209" d="M23.356,262.047a2.842,2.842,0,0,0-1.825-.794c-5.7-.06-11.4-.034-17.1-.04a3.044,3.044,0,0,1-1.284-.085c.281,2.429.212,4.872.333,7.312.109,2.192.228,4.381.274,6.574.251,0,.536.045.783.045q18.3,0,36.606,0h1.7c-2.207-1.032-4.083-1.847-5.9-2.773a50.815,50.815,0,0,1-13.588-10.237" transform="translate(-2.083 -172.766)" fill="#fff"/>
          <path id="Trazado_197210" data-name="Trazado 197210" d="M105.57,105.267H2.514c-.422,0-.952.149-1.243-.049-.527-.358-1.25-.919-1.26-1.408s.692-1.077,1.206-1.452c.28-.2.818-.064,1.24-.064q18.3,0,36.606,0h1.7c-2.207-1.032-4.083-1.847-5.9-2.773A50.822,50.822,0,0,1,21.273,89.282a2.844,2.844,0,0,0-1.825-.795c-5.7-.06-11.4-.033-17.1-.039-.462,0-1.054.11-1.355-.126A2.385,2.385,0,0,1,0,86.827c0-.431.652-.945,1.121-1.269.261-.18.738-.056,1.118-.056,5.189,0,10.379,0,15.857,0-8.07-10.99-11.677-23.071-10.107-36.5,1.567-13.4,7.435-24.73,18.017-33.023C45.183.955,65.452.757,86.258,12.679A17.6,17.6,0,0,1,120.74,16.6,16.97,16.97,0,0,1,116.4,29.061a17.712,17.712,0,0,1-11.906,6A50.289,50.289,0,0,1,98.1,85.388h7.485a31.438,31.438,0,0,1,.039-3.527,2.225,2.225,0,0,1,.862-1.6,2.073,2.073,0,0,1,1.781.385q7.837,6.62,15.58,13.35c1.106.955,1.1,1.8,0,2.744-5.176,4.47-10.355,8.938-15.577,13.354a2.058,2.058,0,0,1-1.775.43,2.486,2.486,0,0,1-.888-1.721,29.616,29.616,0,0,1-.039-3.534M72.1,85.343a2.183,2.183,0,0,0,.419.151c7.009,0,14.018.02,21.027-.024a1.95,1.95,0,0,0,1.317-.719q17.28-22.48,6.8-48.846a1.619,1.619,0,0,0-1.46-1.113,17.475,17.475,0,0,1-14.456-17.58,1.676,1.676,0,0,0-.885-1.622,47.455,47.455,0,0,0-51.87-1.125C15.843,25.356,7.666,44.546,11.612,64.644c4.1,20.9,23.68,37.367,44.963,37.573,16.423.159,32.848.05,49.273.06,2.378,0,2.624.239,2.682,2.568.007.282.051.564.1,1.1l12.29-10.6L108.594,84.785c-.058.431-.093.59-.1.75-.1,2.858-.126,2.884-2.97,2.884q-23.433,0-46.867-.014a40.8,40.8,0,0,1-5.174-.325A33.617,33.617,0,1,1,63.673,21.633c24.556,4.052,36.3,33.035,21.482,53.031A34.443,34.443,0,0,1,72.1,85.343M88.771,54.77A30.708,30.708,0,1,0,58.094,85.5,30.724,30.724,0,0,0,88.771,54.77m14.445-22.615A14.6,14.6,0,1,0,88.631,17.58a14.58,14.58,0,0,0,14.585,14.575" transform="translate(0 0)" fill="#0f2771"/>
          <path id="Trazado_197211" data-name="Trazado 197211" d="M92.895,99.615a34.444,34.444,0,0,0,13.053-10.679c14.814-20,3.075-48.979-21.482-53.03a33.616,33.616,0,1,0-10.189,66.446,40.732,40.732,0,0,0,5.174.325q23.433.037,46.867.014c2.843,0,2.87-.026,2.97-2.884.005-.16.041-.318.1-.75l12.328,10.561-12.29,10.6c-.051-.535-.095-.816-.1-1.1-.058-2.329-.3-2.566-2.682-2.568-16.424-.01-32.85.1-49.273-.061-21.284-.206-40.86-16.671-44.963-37.573-3.946-20.1,4.231-39.287,21.382-50.179a47.454,47.454,0,0,1,51.87,1.125,1.676,1.676,0,0,1,.885,1.622A17.475,17.475,0,0,0,121,49.064a1.62,1.62,0,0,1,1.46,1.113q10.512,26.368-6.8,48.846a1.952,1.952,0,0,1-1.317.719c-7.009.043-14.018.028-21.027.023a2.176,2.176,0,0,1-.419-.15" transform="translate(-20.793 -14.272)" fill="#fff"/>
          <path id="Trazado_197212" data-name="Trazado 197212" d="M276.508,37.916A14.6,14.6,0,1,1,291.1,23.368a14.622,14.622,0,0,1-14.593,14.548m-2.817-12.275c-.686-.768-1.222-1.421-1.815-2.016a1.472,1.472,0,1,0-2.084,2.059c.878.908,1.763,1.811,2.669,2.691a1.586,1.586,0,0,0,2.61-.025q3.986-3.966,7.944-7.96c.06-.06.118-.12.177-.181a1.441,1.441,0,0,0,.131-2.226c-.736-.745-1.526-.536-2.215.159-2.4,2.421-4.794,4.846-7.417,7.5" transform="translate(-173.292 -5.761)" fill="#4dd0e1"/>
          <path id="Trazado_197213" data-name="Trazado 197213" d="M108.5,92.167c1.184.711,2.3,1.311,3.333,2.024a2.237,2.237,0,0,0,2.057.144c2.435-.552,3.3-2.122,3.627-4.4.271-1.882.635-2.038,2.531-2.039,1.858,0,3.717.038,5.573-.014a1.7,1.7,0,0,1,2,1.619c.006.042.026.082.029.123.194,2.543,1.334,4.316,3.987,4.789a2.549,2.549,0,0,0,1.464-.107,27.485,27.485,0,0,0,2.717-1.615,1.622,1.622,0,0,1,2.27.258q2.222,2.257,4.479,4.478a1.6,1.6,0,0,1,.283,2.261c-.117.175-.217.361-.327.542-1.818,2.993-1.832,3-.358,6.2a1.557,1.557,0,0,0,.891.719c1.089.325,2.211.538,3.314.82a1.535,1.535,0,0,1,1.283,1.638q-.016,3.294,0,6.588a1.512,1.512,0,0,1-1.256,1.649c-.246.06-.487.139-.733.2-3.558.851-3.57.847-4.7,4.248a1.435,1.435,0,0,0,.168,1.014c.553.995,1.166,1.957,1.766,2.925a1.523,1.523,0,0,1-.232,2.066q-2.321,2.336-4.657,4.659a1.554,1.554,0,0,1-2.172.2c-.175-.118-.356-.226-.537-.336-3-1.812-3.007-1.826-6.213-.338a1.579,1.579,0,0,0-.718.893,29.85,29.85,0,0,0-.763,3.067,1.7,1.7,0,0,1-1.83,1.554q-3.167.012-6.333,0a1.6,1.6,0,0,1-1.787-1.426c-.035-.207-.118-.4-.169-.609-.841-3.452-.836-3.466-4.141-4.646a1.591,1.591,0,0,0-1.138.153c-.965.517-1.894,1.105-2.819,1.693a1.578,1.578,0,0,1-2.175-.2q-2.336-2.322-4.667-4.648a1.509,1.509,0,0,1-.255-2.059,3.792,3.792,0,0,1,.336-.535c1.649-1.85,2.04-3.834.57-5.96a3.054,3.054,0,0,0-1.275-1.133,22.261,22.261,0,0,0-3.058-.781,1.509,1.509,0,0,1-1.3-1.616c-.016-2.2-.007-4.392,0-6.587a1.581,1.581,0,0,1,1.388-1.691c.247-.053.493-.111.738-.172,3.445-.848,3.457-.844,4.575-4.227a1.44,1.44,0,0,0-.17-1.017c-.533-.958-1.114-1.891-1.714-2.808a1.6,1.6,0,0,1,.237-2.266c1.535-1.51,3.039-3.053,4.592-4.544a6.372,6.372,0,0,1,1.294-.75m28.194,38.042a25.238,25.238,0,0,1,2.179-2.238c.922-.744,1-1.427.235-2.29-1.575-1.783-1.369-3.45-.514-5.706,1.041-2.744,2.375-4.338,5.311-4.545.293-.021.756-.627.78-.985.247-3.664.226-3.665-3.31-4.607a.586.586,0,0,1-.238-.079c-.523-.476-1.215-.87-1.521-1.461-.672-1.3-1.089-2.733-1.724-4.057a2.079,2.079,0,0,1,.083-2.248c.638-.985,1.221-2.006,1.737-2.862l-3.3-3.325c-.893.539-1.883,1.1-2.835,1.722a2.13,2.13,0,0,1-2.359.057,30.657,30.657,0,0,0-3.837-1.6,2.193,2.193,0,0,1-1.668-1.831,14.431,14.431,0,0,0-.669-2.565,1.319,1.319,0,0,0-.878-.764c-1.255-.088-2.519-.036-3.846-.036-.3,1.223-.607,2.356-.847,3.5a2.1,2.1,0,0,1-1.532,1.656,38.862,38.862,0,0,0-4.071,1.695,2.009,2.009,0,0,1-2.233-.117c-.974-.645-1.99-1.226-2.974-1.827l-3.236,3.238a6.976,6.976,0,0,0,.63,1.074c1.591,1.873,1.47,3.59.553,5.952-1.069,2.754-2.471,4.268-5.35,4.517a1.087,1.087,0,0,0-.732.752c-.078,1.3-.035,2.6-.035,3.931a8.279,8.279,0,0,0,1.282.352c2.392.249,3.621,1.408,4.6,3.8,1.1,2.684,1.4,4.766-.58,6.97a1,1,0,0,0-.064.96c.89,1.05,1.858,2.034,2.77,3.009a24.957,24.957,0,0,1,3.2-1.893,3.561,3.561,0,0,1,2.221-.08c1.36.415,2.627,1.125,3.974,1.59a2.129,2.129,0,0,1,1.616,1.72c.226,1.144.551,2.268.834,3.406,1.526,0,3.188.44,4.3-.151.771-.409.7-2.279,1.182-3.421a3.1,3.1,0,0,1,1.363-1.43c1.308-.664,2.737-1.086,4.053-1.736a2.171,2.171,0,0,1,2.365.08c.956.616,1.943,1.183,3.084,1.872" transform="translate(-64.542 -58.142)" fill="#0f2771"/>
          <path id="Trazado_197214" data-name="Trazado 197214" d="M287.966,42.857c2.623-2.653,5.018-5.078,7.417-7.5.689-.7,1.479-.9,2.215-.159a1.441,1.441,0,0,1-.131,2.226c-.059.06-.117.121-.177.181q-3.97,3.981-7.944,7.96a1.586,1.586,0,0,1-2.61.025c-.906-.88-1.791-1.783-2.669-2.691a1.472,1.472,0,1,1,2.084-2.059c.593.6,1.129,1.249,1.815,2.016" transform="translate(-187.567 -22.977)" fill="#0f2771"/>
          <path id="Trazado_197215" data-name="Trazado 197215" d="M142.408,135.866c-1.141-.689-2.127-1.256-3.083-1.872a2.172,2.172,0,0,0-2.366-.08c-1.316.65-2.745,1.073-4.054,1.736a3.106,3.106,0,0,0-1.363,1.43c-.483,1.141-.41,3.012-1.182,3.421-1.115.591-2.776.151-4.3.151-.283-1.138-.608-2.262-.834-3.406a2.129,2.129,0,0,0-1.617-1.72c-1.347-.465-2.614-1.176-3.974-1.59a3.561,3.561,0,0,0-2.221.08,24.988,24.988,0,0,0-3.2,1.893c-.913-.975-1.881-1.959-2.771-3.009a1,1,0,0,1,.064-.96c1.976-2.2,1.683-4.285.579-6.969-.982-2.389-2.21-3.547-4.6-3.8a8.311,8.311,0,0,1-1.282-.352c0-1.327-.043-2.633.035-3.931a1.088,1.088,0,0,1,.732-.752c2.879-.249,4.28-1.763,5.35-4.518.917-2.362,1.038-4.079-.553-5.952a6.992,6.992,0,0,1-.63-1.074l3.236-3.238c.984.6,2,1.182,2.974,1.827a2.01,2.01,0,0,0,2.233.117,38.806,38.806,0,0,1,4.072-1.695,2.1,2.1,0,0,0,1.531-1.656c.24-1.147.548-2.281.847-3.5,1.326,0,2.591-.052,3.846.036a1.322,1.322,0,0,1,.878.765,14.465,14.465,0,0,1,.668,2.565,2.195,2.195,0,0,0,1.668,1.831,30.677,30.677,0,0,1,3.837,1.6,2.129,2.129,0,0,0,2.359-.057c.952-.621,1.941-1.183,2.835-1.722l3.3,3.325c-.516.856-1.1,1.877-1.737,2.862a2.078,2.078,0,0,0-.083,2.247c.635,1.324,1.052,2.755,1.725,4.057.3.592,1,.985,1.521,1.461a.58.58,0,0,0,.238.079c3.536.941,3.557.943,3.31,4.607-.024.359-.487.965-.78.986-2.936.207-4.271,1.8-5.311,4.545-.855,2.256-1.061,3.923.513,5.706.763.863.687,1.546-.235,2.29a25.15,25.15,0,0,0-2.18,2.238m-14.092-27.46a10.188,10.188,0,1,0,10.22,10.093,10.242,10.242,0,0,0-10.22-10.093" transform="translate(-70.259 -63.799)" fill="#fff"/>
          <path id="Trazado_197216" data-name="Trazado 197216" d="M151.662,131.822a10.188,10.188,0,1,1-10.182,10.137,10.222,10.222,0,0,1,10.182-10.137m0,17.411a7.236,7.236,0,1,0-7.2-7.238,7.209,7.209,0,0,0,7.2,7.238" transform="translate(-93.605 -87.215)" fill="#0f2771"/>
        </g>
      </g>
    </g>
  </g>
</svg>
