<svg xmlns="http://www.w3.org/2000/svg" width="80" height="75" viewBox="0 0 80 75">
  <g id="Grupo_143175" data-name="Grupo 143175" transform="translate(-312 -4611)">
    <g id="_20-manual" data-name="20-manual" transform="translate(312 4611)">
      <path id="Trazado_194456" data-name="Trazado 194456" d="M70.75,12V64.5a5,5,0,0,1-5,5H32v-5H60.75V57.037Q62.606,57,64.5,57V7h1.25A5,5,0,0,1,70.75,12Z" transform="translate(8 -0.75)" fill="#4dd0e1"/>
      <path id="Trazado_194457" data-name="Trazado 194457" d="M60.75,58.037C49.75,58.3,39.862,59.887,32,65.5v-55C40.75,4.25,52,3,64.5,3V58Q62.606,58,60.75,58.037Z" transform="translate(8 -1.75)" fill="#e8e8e8"/>
      <path id="Trazado_194458" data-name="Trazado 194458" d="M60.75,47.03v7.462H32C39.862,48.88,49.75,47.293,60.75,47.03Z" transform="translate(8 9.257)" fill="#609ea6"/>
      <path id="Trazado_194459" data-name="Trazado 194459" d="M39.75,64.5v5H6a5,5,0,0,1-5-5V12A5,5,0,0,1,6,7H7.25V57q1.894,0,3.75.037V64.5Z" transform="translate(0.25 -0.75)" fill="#5ce0bf"/>
      <path id="Trazado_194460" data-name="Trazado 194460" d="M9.75,58.037Q7.894,58,6,58V3c12.5,0,23.75,1.25,32.5,7.5v55C30.637,59.887,20.75,58.3,9.75,58.037Z" transform="translate(1.5 -1.75)" fill="#fff"/>
      <path id="Trazado_194461" data-name="Trazado 194461" d="M37.75,54.492H9V47.03C20,47.293,29.887,48.88,37.75,54.492Z" transform="translate(2.25 9.257)" fill="#609ea6"/>
      <path id="Trazado_194462" data-name="Trazado 194462" d="M69,49.5v5H64.962a10.955,10.955,0,0,1-1.45,3.475l2.862,2.862-3.538,3.538-2.862-2.863a10.955,10.955,0,0,1-3.475,1.45V67h-5V62.962a10.955,10.955,0,0,1-3.475-1.45l-2.862,2.862-3.538-3.538,2.862-2.863a10.955,10.955,0,0,1-1.45-3.475H39v-5h4.037a10.955,10.955,0,0,1,1.45-3.475l-2.863-2.862,3.538-3.537,2.862,2.862a10.955,10.955,0,0,1,3.475-1.45V37h5v4.037a10.955,10.955,0,0,1,3.475,1.45l2.862-2.863,3.538,3.537-2.863,2.862a10.955,10.955,0,0,1,1.45,3.475ZM60.25,52A6.25,6.25,0,1,0,54,58.25,6.25,6.25,0,0,0,60.25,52Z" transform="translate(9.75 6.75)" fill="#feca2e"/>
      <path id="Trazado_194463" data-name="Trazado 194463" d="M10.956,39.5c8.509.375,14.541,1.5,19.562,3.65l.985-2.3C26.192,38.579,19.886,37.39,11.066,37Z" transform="translate(2.739 6.75)"/>
      <path id="Trazado_194464" data-name="Trazado 194464" d="M10.956,34.5c8.509.375,14.541,1.5,19.562,3.65l.985-2.3C26.192,33.579,19.886,32.39,11.066,32Z" transform="translate(2.739 5.5)"/>
      <path id="Trazado_194465" data-name="Trazado 194465" d="M10.956,29.5c8.509.375,14.541,1.5,19.562,3.65l.985-2.3C26.192,28.579,19.886,27.39,11.066,27Z" transform="translate(2.739 4.25)"/>
      <path id="Trazado_194466" data-name="Trazado 194466" d="M10.956,24.5c8.509.375,14.541,1.5,19.562,3.65l.985-2.3C26.192,23.579,19.886,22.39,11.066,22Z" transform="translate(2.739 3)"/>
      <path id="Trazado_194467" data-name="Trazado 194467" d="M10.956,19.5c8.509.375,14.541,1.5,19.562,3.65l.985-2.3C26.192,18.579,19.886,17.39,11.066,17Z" transform="translate(2.739 1.75)"/>
      <path id="Trazado_194468" data-name="Trazado 194468" d="M31.5,15.851C26.192,13.579,19.886,12.39,11.066,12l-.11,2.5c8.509.375,14.541,1.5,19.562,3.65Z" transform="translate(2.739 0.5)"/>
      <path id="Trazado_194469" data-name="Trazado 194469" d="M37.591,38.149C42.612,36,48.645,34.875,57.153,34.5l-.11-2.5c-8.824.389-15.125,1.577-20.437,3.85Z" transform="translate(9.151 5.5)"/>
      <path id="Trazado_194470" data-name="Trazado 194470" d="M37.591,33.149C42.612,31,48.645,29.875,57.153,29.5l-.11-2.5c-8.824.389-15.125,1.577-20.437,3.85Z" transform="translate(9.151 4.25)"/>
      <path id="Trazado_194471" data-name="Trazado 194471" d="M37.591,28.149C42.612,26,48.645,24.875,57.153,24.5l-.11-2.5c-8.824.389-15.125,1.577-20.437,3.85Z" transform="translate(9.151 3)"/>
      <path id="Trazado_194472" data-name="Trazado 194472" d="M37.591,23.149C42.612,21,48.645,19.875,57.153,19.5l-.11-2.5c-8.824.389-15.125,1.577-20.437,3.85Z" transform="translate(9.151 1.75)"/>
      <path id="Trazado_194473" data-name="Trazado 194473" d="M57.043,12c-8.824.389-15.125,1.577-20.437,3.85l.985,2.3C42.612,16,48.645,14.875,57.153,14.5Z" transform="translate(9.151 0.5)"/>
      <path id="Trazado_194474" data-name="Trazado 194474" d="M73.75,7V3.25A1.25,1.25,0,0,0,72.5,2C61.16,2,49.4,2.89,40,9.229,30.6,2.89,18.84,2,7.5,2A1.25,1.25,0,0,0,6.25,3.25V7A6.257,6.257,0,0,0,0,13.25v52.5A6.257,6.257,0,0,0,6.25,72H47.5V69.5H41.25V66.415a32.281,32.281,0,0,1,5.493-3.009l-.985-2.3a35,35,0,0,0-4.507,2.364V11.417c8.534-5.829,19.389-6.846,30-6.917v40h2.5V9.5a3.75,3.75,0,0,1,3.75,3.75v35H80v-35A6.258,6.258,0,0,0,73.75,7ZM12.5,59.577c8.1.26,16.159,1.33,23.056,4.923H12.5ZM8.75,4.5c10.611.067,21.466,1.085,30,6.914V63.44c-8.829-5.4-19.546-6.37-30-6.44Zm-2.5,65A3.75,3.75,0,0,1,2.5,65.75V13.25A3.75,3.75,0,0,1,6.25,9.5V58.25A1.25,1.25,0,0,0,7.5,59.5q1.25,0,2.5.019V65.75A1.25,1.25,0,0,0,11.25,67h27.5v2.5Z" transform="translate(0 -2)"/>
      <path id="Trazado_194475" data-name="Trazado 194475" d="M69.25,48.5H66.167a12.232,12.232,0,0,0-.841-2.024l2.181-2.181a1.25,1.25,0,0,0,0-1.767l-3.535-3.535a1.25,1.25,0,0,0-1.768,0l-2.181,2.181A12.323,12.323,0,0,0,58,40.332V37.25A1.25,1.25,0,0,0,56.75,36h-5a1.25,1.25,0,0,0-1.25,1.25v3.082a12.323,12.323,0,0,0-2.024.841l-2.181-2.181a1.25,1.25,0,0,0-1.768,0l-3.535,3.535a1.25,1.25,0,0,0,0,1.767l2.181,2.181a12.233,12.233,0,0,0-.841,2.024H39.25A1.25,1.25,0,0,0,38,49.75v5A1.25,1.25,0,0,0,39.25,56h3.082a12.233,12.233,0,0,0,.841,2.024L40.993,60.2a1.25,1.25,0,0,0,0,1.767l3.535,3.535a1.25,1.25,0,0,0,1.768,0l2.181-2.181a12.232,12.232,0,0,0,2.024.841V67.25a1.25,1.25,0,0,0,1.25,1.25h5A1.25,1.25,0,0,0,58,67.25V64.167a12.232,12.232,0,0,0,2.024-.841L62.2,65.507a1.25,1.25,0,0,0,1.768,0l3.535-3.535a1.25,1.25,0,0,0,0-1.767l-2.181-2.181A12.232,12.232,0,0,0,66.167,56H69.25a1.25,1.25,0,0,0,1.25-1.25v-5A1.25,1.25,0,0,0,69.25,48.5ZM68,53.5H65.212a1.25,1.25,0,0,0-1.219.972,9.955,9.955,0,0,1-1.284,3.093,1.25,1.25,0,0,0,.173,1.55l1.974,1.974-1.768,1.768-1.974-1.974a1.25,1.25,0,0,0-1.55-.173A9.955,9.955,0,0,1,56.472,62a1.25,1.25,0,0,0-.972,1.213V66H53V63.212a1.25,1.25,0,0,0-.972-1.219,9.955,9.955,0,0,1-3.093-1.284,1.25,1.25,0,0,0-1.55.173l-1.974,1.974-1.768-1.768,1.974-1.974a1.25,1.25,0,0,0,.173-1.55,9.955,9.955,0,0,1-1.284-3.093,1.25,1.25,0,0,0-1.219-.972H40.5V51h2.787a1.25,1.25,0,0,0,1.219-.972,9.955,9.955,0,0,1,1.284-3.093,1.25,1.25,0,0,0-.173-1.55l-1.974-1.974,1.768-1.768,1.974,1.974a1.25,1.25,0,0,0,1.549.174,9.985,9.985,0,0,1,3.094-1.285A1.25,1.25,0,0,0,53,41.287V38.5h2.5v2.787a1.25,1.25,0,0,0,.972,1.219,9.985,9.985,0,0,1,3.094,1.285,1.25,1.25,0,0,0,1.549-.174l1.974-1.974,1.767,1.768-1.974,1.974a1.25,1.25,0,0,0-.173,1.55A9.955,9.955,0,0,1,64,50.027,1.25,1.25,0,0,0,65.212,51H68Z" transform="translate(9.5 6.5)"/>
      <path id="Trazado_194476" data-name="Trazado 194476" d="M52.5,43A7.5,7.5,0,1,0,60,50.5,7.5,7.5,0,0,0,52.5,43Zm0,12.5a5,5,0,1,1,5-5A5,5,0,0,1,52.5,55.5Z" transform="translate(11.25 8.25)"/>
    </g>
  </g>
</svg>
