<svg xmlns="http://www.w3.org/2000/svg" width="397.666" height="229.024" viewBox="0 0 397.666 229.024">
  <g id="Grupo_143192" data-name="Grupo 143192" transform="translate(-862.667 -10153.203)">
    <g id="Grupo_143155" data-name="Grupo 143155" transform="translate(-157.333 -832.797)">
      <g id="Grupo_141039" data-name="Grupo 141039" transform="translate(1020 11018.767)">
        <rect id="Rectángulo_41430" data-name="Rectángulo 41430" width="131.212" height="43.223" rx="14" transform="translate(266.454 0)" fill="#feca2e" opacity="0.2"/>
        <rect id="Rectángulo_41431" data-name="Rectángulo 41431" width="131.212" height="43.223" rx="14" transform="translate(0 119.308)" fill="#4dd0e1" opacity="0.2"/>
      </g>
      <g id="Grupo_141158" data-name="Grupo 141158" transform="translate(1054.255 10986)">
        <g id="Layer_1" transform="translate(0 0)">
          <g id="Grupo_141143" data-name="Grupo 141143" transform="translate(210.029 0)">
            <path id="Trazado_195170" data-name="Trazado 195170" d="M2051.5,301.906a35.942,35.942,0,1,0,43.688-25.982A35.984,35.984,0,0,0,2051.5,301.906Zm8.877,1.041h0a27.107,27.107,0,0,1,33.769-18.146h0A27.107,27.107,0,0,1,2112.3,318.57h0a27.107,27.107,0,0,1-33.769,18.146h0a27.107,27.107,0,0,1-18.146-33.769Z" transform="translate(-2026.597 -251.063)" fill="#feca2e"/>
            <path id="Trazado_195171" data-name="Trazado 195171" d="M1862.482,138.163c.169.859.946,1.159,2.863,1.918,3.429,1.36,6.861,2.721,10.239,4.2a2.384,2.384,0,0,1,1.13,1.665c.391,3.59.565,7.205.992,10.79a1.958,1.958,0,0,1-.974,2.329c-3.991,2.507-7.912,5.127-11.816,7.678.976,4.186,5.892,13.594,8.52,16.225,4.14-1.741,8.4-3.457,12.579-5.337a2.271,2.271,0,0,1,3.052.565,94.772,94.772,0,0,0,8.033,6.705c1.123.857,1.721,1.528,1.358,3.072-.943,4-1.643,8.059-2.519,12.078-.235,1.08-.03,1.755,1.036,2.086q7.526,2.329,15.053,4.65c1.233.381,1.423-.633,1.731-1.359,1.559-3.676,3.138-7.345,4.571-11.069a2.583,2.583,0,0,1,2.78-1.907c4.02-.125,8.033-.514,12.357-.821,2.558,3.884,5.382,8.171,8.285,12.578a53.808,53.808,0,0,0,16.045-8.64c-1.968-4.73-3.937-9.461-5.673-13.629,2.977-3.771,5.811-7.2,8.438-10.786a2.029,2.029,0,0,1,2.5-.957c3.958.87,7.944,1.616,11.908,2.458.857.182,1.486.215,1.925-.721a51.5,51.5,0,0,0,4.731-14.8,1.619,1.619,0,0,0-1.214-2.018c-3.857-1.593-7.683-3.259-11.546-4.837a1.882,1.882,0,0,1-1.413-1.921c-.295-3.96-.761-7.912-1.327-11.843a1.6,1.6,0,0,1,.881-1.86c3.938-2.593,7.858-5.216,11.883-7.9a57.751,57.751,0,0,0-8.38-15.954l-14.2,5.911-11.611-9.63c.709-3.541,1.556-7.612,2.334-11.7.638-3.353,1.119-2.912-2.249-4.326a5.694,5.694,0,0,1-.889-.584l-9.039-2.72a11.175,11.175,0,0,1-2.106-.261c-1.725-.547-2.7-.154-3.384,1.693-1.432,3.85-3.106,7.611-4.771,11.369a2.182,2.182,0,0,1-1.475,1.074c-3.525.446-7.1.588-10.588,1.216a2.67,2.67,0,0,1-3.267-1.489c-2.388-3.774-4.932-7.45-7.665-11.537l-16.008,8.406c.419,1.062.65,1.678.9,2.284,1.557,3.741,3.081,7.5,4.7,11.207a2.036,2.036,0,0,1-.495,2.5c-2.479,2.945-4.769,6.052-7.228,9.015a2.409,2.409,0,0,1-1.922.679c-3.275-.569-6.517-1.318-9.78-1.953-2.64-.513-3.623-.694-4.458.168l-4.826,16.039Zm23.671-.37a37.215,37.215,0,1,1,4.083,28.189A36.971,36.971,0,0,1,1886.153,137.793Z" transform="translate(-1862.48 -87.264)" fill="#feca2e"/>
          </g>
          <path id="Trazado_195172" data-name="Trazado 195172" d="M210.857,375.733c.555.432,1.183.206,2.748-.341,2.8-.978,5.6-1.954,8.426-2.833a1.916,1.916,0,0,1,1.561.418c2.125,1.975,4.131,4.079,6.275,6.031a1.573,1.573,0,0,1,.633,1.926c-1.105,3.62-2.108,7.272-3.139,10.874,2.794,2.029,10.724,5.158,13.7,5.373,1.6-3.234,3.281-6.514,4.832-9.853a1.823,1.823,0,0,1,2.15-1.261,75.671,75.671,0,0,0,8.4-.152c1.132-.07,1.849.024,2.439,1.152,1.531,2.925,3.239,5.758,4.82,8.658.424.78.9,1.082,1.726.722q5.793-2.542,11.584-5.089c.95-.417.532-1.132.337-1.736-.986-3.052-1.956-6.11-3.043-9.125a2.075,2.075,0,0,1,.685-2.619c2.376-2.191,4.608-4.535,7.072-6.994l11.644,3.282a43.234,43.234,0,0,0,5.2-13.681L288.3,355.191c-.175-3.855-.257-7.428-.547-10.985a1.629,1.629,0,0,1,1.012-1.893c2.861-1.552,5.673-3.195,8.524-4.768.617-.339,1.016-.651.79-1.45a41.394,41.394,0,0,0-4.909-11.477,1.3,1.3,0,0,0-1.8-.586c-3.18,1.06-6.38,2.059-9.554,3.133a1.51,1.51,0,0,1-1.868-.424c-2.26-2.249-4.621-4.4-7.032-6.494a1.285,1.285,0,0,1-.443-1.593c1.028-3.646,2.029-7.3,3.064-11.042a46.388,46.388,0,0,0-13.476-5.282l-5.517,11.056-12.114.256c-1.43-2.523-3.057-5.44-4.732-8.331-1.375-2.372-.851-2.357-3.639-1.445a4.538,4.538,0,0,1-.847.113l-6.918,3.1a8.972,8.972,0,0,1-1.416.949c-1.335.575-1.718,1.323-1.165,2.806,1.154,3.09,2.115,6.254,3.08,9.411a1.755,1.755,0,0,1-.331,1.427c-1.906,2.125-4,4.089-5.79,6.3a2.144,2.144,0,0,1-2.767.813c-3.434-1.036-6.912-1.931-10.719-2.977-1.791,4.564-3.536,9.016-5.3,13.519.813.425,1.276.677,1.749.913,2.913,1.452,5.811,2.932,8.748,4.332a1.635,1.635,0,0,1,1.016,1.78c.043,3.092.285,6.181.349,9.273a1.931,1.931,0,0,1-.81,1.422c-2.287,1.375-4.65,2.625-6.966,3.956-1.873,1.076-2.566,1.483-2.62,2.446l5.5,12.277Zm14.18-12.668a29.886,29.886,0,1,1,17.3,14.972,29.695,29.695,0,0,1-17.3-14.972Z" transform="translate(-203.89 -275.096)" fill="#4dd0e1"/>
          <path id="Trazado_195173" data-name="Trazado 195173" d="M531.937,194.106l1.137-2.087L532,189.9a.327.327,0,0,1,.351-.469l2.33.439,1.682-1.677a.326.326,0,0,1,.553.19l.3,2.359,2.11,1.087a.328.328,0,0,1-.009.586l-2.143,1.018-.379,2.348a.325.325,0,0,1-.558.172l-1.628-1.73-2.344.365a.326.326,0,0,1-.336-.48Z" transform="translate(-490.36 -175.328)" fill="#f7cc7f"/>
          <path id="Trazado_195174" data-name="Trazado 195174" d="M1511.592,272.907l.971-1.577-.78-.317a.333.333,0,0,1-.184-.434h0a.333.333,0,0,1,.435-.184l.9.365.867-1.416-.833-.338a.333.333,0,0,1-.183-.434h0a.333.333,0,0,1,.434-.184l.952.386,1.008-1.621a.333.333,0,0,1,.408-.133l.146.06a.334.334,0,0,1,.16.482l-.937,1.53,1.38.56,1.008-1.621a.333.333,0,0,1,.407-.133l.159.065a.333.333,0,0,1,.159.482l-.937,1.53.78.317a.332.332,0,0,1,.184.434h0a.333.333,0,0,1-.434.184l-.9-.365-.855,1.421.833.338a.333.333,0,0,1,.184.434h0a.333.333,0,0,1-.435.184l-.952-.386-1.029,1.672a.335.335,0,0,1-.409.134l-.17-.068a.333.333,0,0,1-.158-.484l.971-1.577-1.38-.56-1.029,1.672a.334.334,0,0,1-.409.134l-.17-.068a.332.332,0,0,1-.158-.484Zm3.518-1.264.867-1.416-1.38-.56-.867,1.416Z" transform="translate(-1345.955 -244.237)" fill="#07345a"/>
          <path id="Trazado_195175" data-name="Trazado 195175" d="M1453.664,409.007l-1.314,6.985c.11.355.451.446,1.294.681,1.508.419,3.018.84,4.51,1.312a1.012,1.012,0,0,1,.551.652c.327,1.5.562,3.015.9,4.508a.83.83,0,0,1-.307,1.027c-1.571,1.238-3.108,2.52-4.64,3.771a21.894,21.894,0,0,0,4.326,6.462c1.669-.922,3.387-1.837,5.068-2.819a.964.964,0,0,1,1.313.1,40.112,40.112,0,0,0,3.693,2.468c.513.311.8.567.711,1.235-.218,1.731-.331,3.475-.519,5.21-.051.466.066.742.532.833q3.28.644,6.561,1.284c.538.1.572-.331.67-.651.493-1.621.993-3.24,1.431-4.877a1.1,1.1,0,0,1,1.087-.929c1.69-.234,3.367-.579,5.178-.9l4.062,4.935a22.861,22.861,0,0,0,6.382-4.369l-3.007-5.5c1.086-1.725,2.127-3.3,3.074-4.931a.861.861,0,0,1,1.01-.517c1.71.189,3.425.324,5.136.5.37.038.637.024.78-.391a21.837,21.837,0,0,0,1.329-6.459.687.687,0,0,0-.6-.8c-1.7-.5-3.389-1.03-5.089-1.521a.8.8,0,0,1-.682-.747c-.3-1.658-.677-3.3-1.093-4.937a.677.677,0,0,1,.289-.824c1.545-1.271,3.081-2.555,4.659-3.867a24.481,24.481,0,0,0-4.255-6.354l-5.727,3.134-5.334-3.541c.141-1.526.314-3.282.458-5.041.119-1.444.341-1.279-1.143-1.725a2.453,2.453,0,0,1-.4-.206l-3.937-.741a4.841,4.841,0,0,1-.9-.015c-.752-.153-1.145.056-1.351.866-.431,1.689-.967,3.352-1.5,5.012a.927.927,0,0,1-.574.519c-1.468.347-2.969.567-4.413.99a1.134,1.134,0,0,1-1.446-.481c-1.178-1.485-2.417-2.921-3.753-4.523L1460.3,398.1c.224.429.349.679.484.923.826,1.508,1.637,3.024,2.49,4.517a.864.864,0,0,1-.1,1.079c-.913,1.355-1.74,2.768-2.644,4.129a1.017,1.017,0,0,1-.78.372c-1.407-.092-2.809-.263-4.214-.384-1.137-.1-1.56-.13-1.874.271Zm12.985,5.88a11.5,11.5,0,0,1,13.432-9.178h0a11.5,11.5,0,0,1,9.178,13.432h0a11.5,11.5,0,0,1-13.432,9.178h0a11.5,11.5,0,0,1-9.178-13.432Z" transform="translate(-1294.256 -352.889)" fill="#4dd0e1"/>
          <path id="Trazado_195176" data-name="Trazado 195176" d="M1102.08,209.351l4.135.5-1.764-3.21Z" transform="translate(-988.341 -191.523)" fill="#355389"/>
          <path id="Trazado_195177" data-name="Trazado 195177" d="M1221.974,492.151a2.891,2.891,0,0,0,2.4,2.908,2.833,2.833,0,0,0,3.085-1.93c.937-2.508-1.808-4.486-3.3-2.969-1.389,1.417-.95,3.522.55,3.523.566,0,1.476-.475,1.116-1.16a.229.229,0,0,0-.393,0c-.182.31-.167.322-.253.39a.773.773,0,0,1-.491.142c-1.527-.027-.512-3.522,1.289-2.674a2.014,2.014,0,0,1,.937,2.571,2.3,2.3,0,0,1-2.241,1.611,2.634,2.634,0,0,1-2.331-2.411.188.188,0,0,0-.375,0h0Z" transform="translate(-1093.045 -438.678)" fill="#4dd0e1"/>
          <path id="Trazado_195178" data-name="Trazado 195178" d="M1807.119,89.147l1.236.531s2.064-.461,2.3-.848.366-1.368.654-1.369a.882.882,0,0,1,.913.828c.057.5-.781,1.846-.68,2.007a7.13,7.13,0,0,0,1.282.656,1,1,0,0,1,.591.85h0a.534.534,0,0,1-.386.55l-.376.106.086.384a.533.533,0,0,1-.4.637l-.29.068.072.236a.533.533,0,0,1-.409.68l-.252.048,0,.066a.533.533,0,0,1-.444.566l-.251.041-3.294-1.414a2.472,2.472,0,0,1-.818-.571l-1.076-.69a.28.28,0,0,1-.1-.348l1.278-2.871a.275.275,0,0,1,.362-.142Z" transform="translate(-1602.643 -87.435)" fill="#4dd0e1"/>
          <path id="Trazado_195179" data-name="Trazado 195179" d="M1339.111,566.08h22.348a4.142,4.142,0,0,1,4.141,4.141v7.322a4.142,4.142,0,0,1-4.141,4.141h-22.348a4.142,4.142,0,0,1-4.141-4.141v-7.322A4.142,4.142,0,0,1,1339.111,566.08Z" transform="translate(-1191.74 -505.447)" fill="#0f2771"/>
          <path id="Trazado_195180" data-name="Trazado 195180" d="M1147.11,1780.81l-23.67,10.91v2.417h84.294v-2.417l-23.882-10.91Z" transform="translate(-1006.996 -1566.354)" fill="#466eb6"/>
          <rect id="Rectángulo_44050" data-name="Rectángulo 44050" width="36.757" height="46.781" transform="translate(140.114 167.695)" fill="#466eb6"/>
          <path id="Trazado_195181" data-name="Trazado 195181" d="M797.951,737.258V631.766a9.076,9.076,0,0,0-9.076-9.076H584.335a9.076,9.076,0,0,0-9.075,9.076V737.258Z" transform="translate(-528.233 -554.888)" fill="#466eb6"/>
          <rect id="Rectángulo_44051" data-name="Rectángulo 44051" width="84.295" height="2.416" transform="translate(116.444 225.366)" fill="#184655" opacity="0.3"/>
          <rect id="Rectángulo_44052" data-name="Rectángulo 44052" width="36.742" height="5.489" transform="translate(140.114 208.966)" fill="#184655" opacity="0.3"/>
          <path id="Trazado_195182" data-name="Trazado 195182" d="M575.26,1527.43v16.9c0,3.516,2.324,6.367,5.192,6.367H792.76c2.867,0,5.192-2.851,5.192-6.367v-16.9Z" transform="translate(-528.233 -1345.06)" fill="#0f2771"/>
          <circle id="Elipse_5144" data-name="Elipse 5144" cx="2.068" cy="2.068" r="2.068" transform="translate(156.301 66.415) rotate(-79.1)" fill="#184655"/>
          <path id="Trazado_195183" data-name="Trazado 195183" d="M828.685,764.275V663.646a4.865,4.865,0,0,0-4.949-4.776H621.369a4.865,4.865,0,0,0-4.949,4.776v100.63H828.685Z" transform="translate(-564.181 -586.487)" fill="#cce6ff"/>
          <rect id="Rectángulo_44053" data-name="Rectángulo 44053" width="127.582" height="89.024" transform="translate(61.56 80.507)" fill="#e9ffff"/>
          <rect id="Rectángulo_44054" data-name="Rectángulo 44054" width="127.582" height="10.423" transform="translate(61.56 80.507)" fill="#0f2771"/>
          <rect id="Rectángulo_44055" data-name="Rectángulo 44055" width="8.708" height="67.407" transform="translate(234.546 102.778)" fill="#bddcf6" opacity="0.6"/>
          <rect id="Rectángulo_44056" data-name="Rectángulo 44056" width="8.708" height="46.846" transform="translate(222.385 123.34)" fill="#bddcf6" opacity="0.6"/>
          <rect id="Rectángulo_44057" data-name="Rectángulo 44057" width="8.708" height="52.803" transform="translate(246.883 117.383)" fill="#bddcf6" opacity="0.6"/>
          <rect id="Rectángulo_44058" data-name="Rectángulo 44058" width="8.708" height="54.879" transform="translate(210.223 115.307)" fill="#bddcf6" opacity="0.6"/>
          <rect id="Rectángulo_44059" data-name="Rectángulo 44059" width="8.708" height="38.607" transform="translate(198.06 131.578)" fill="#bddcf6" opacity="0.6"/>
          <g id="Grupo_141144" data-name="Grupo 141144" transform="translate(198.06 118.315)">
            <rect id="Rectángulo_44060" data-name="Rectángulo 44060" width="8.708" height="51.872" transform="translate(36.486)" fill="#bddcf6" opacity="0.3"/>
            <rect id="Rectángulo_44061" data-name="Rectángulo 44061" width="8.708" height="36.049" transform="translate(24.325 15.821)" fill="#bddcf6" opacity="0.3"/>
            <rect id="Rectángulo_44062" data-name="Rectángulo 44062" width="8.708" height="40.633" transform="translate(48.823 11.239)" fill="#bddcf6" opacity="0.3"/>
            <rect id="Rectángulo_44063" data-name="Rectángulo 44063" width="8.708" height="42.231" transform="translate(12.163 9.64)" fill="#bddcf6" opacity="0.3"/>
            <rect id="Rectángulo_44064" data-name="Rectángulo 44064" width="8.708" height="29.71" transform="translate(0 22.162)" fill="#bddcf6" opacity="0.3"/>
          </g>
          <rect id="Rectángulo_44065" data-name="Rectángulo 44065" width="117.758" height="15.115" transform="translate(65.963 95.222)" fill="#bddcf6" opacity="0.6"/>
          <rect id="Rectángulo_44066" data-name="Rectángulo 44066" width="75.794" height="3.874" transform="translate(107.928 114.629)" fill="#bddcf6" opacity="0.6"/>
          <rect id="Rectángulo_44067" data-name="Rectángulo 44067" width="37.287" height="44.706" transform="translate(65.963 114.629)" fill="#0f2771"/>
          <rect id="Rectángulo_44068" data-name="Rectángulo 44068" width="75.794" height="3.874" transform="translate(107.928 122.795)" fill="#bddcf6" opacity="0.6"/>
          <rect id="Rectángulo_44069" data-name="Rectángulo 44069" width="75.794" height="3.874" transform="translate(107.928 147.294)" fill="#bddcf6" opacity="0.6"/>
          <rect id="Rectángulo_44070" data-name="Rectángulo 44070" width="75.794" height="3.874" transform="translate(107.928 155.461)" fill="#bddcf6" opacity="0.6"/>
          <path id="Trazado_195184" data-name="Trazado 195184" d="M291.2,1118.2l70.791-.128a1.925,1.925,0,0,1,1.929,1.921l.168,93.28a1.925,1.925,0,0,1-1.921,1.929l-70.791.128a1.925,1.925,0,0,1-1.929-1.921l-.168-93.28A1.925,1.925,0,0,1,291.2,1118.2Z" transform="translate(-278.467 -987.538)" fill="#feca2e"/>
          <rect id="Rectángulo_44071" data-name="Rectángulo 44071" width="66.87" height="91.174" transform="translate(14.692 133.37) rotate(-0.1)" fill="#fff"/>
          <path id="Trazado_195185" data-name="Trazado 195185" d="M494.542,1103.091a.742.742,0,0,0-.743-.741l-28.078.05a.742.742,0,0,0-.741.744l.005,2.919,29.562-.053Z" transform="translate(-431.918 -973.808)" fill="#13375b"/>
          <path id="Trazado_195186" data-name="Trazado 195186" d="M551.151,1074.53a4.428,4.428,0,1,0,4.436,4.421A4.429,4.429,0,0,0,551.151,1074.53Zm.013,7.267a2.84,2.84,0,1,1,2.835-2.845A2.841,2.841,0,0,1,551.163,1081.8Z" transform="translate(-503.316 -949.511)" fill="#13375b"/>
          <g id="Grupo_141145" data-name="Grupo 141145" transform="translate(33.067 128.592)">
            <path id="Trazado_195187" data-name="Trazado 195187" d="M494.122,1102.8a.742.742,0,0,1,.455.684l.005,2.919-29.562.053a3.661,3.661,0,0,0,3.667,3.655l22.242-.041a3.661,3.661,0,0,0,3.654-3.667l0-2.919a.742.742,0,0,0-.455-.684Z" transform="translate(-465.02 -1102.794)" fill="#355389"/>
            <path id="Trazado_195188" data-name="Trazado 195188" d="M466.585,1102.75h0a.741.741,0,0,0-.615.328A.739.739,0,0,1,466.585,1102.75Z" transform="translate(-465.85 -1102.75)" fill="#bddcf6"/>
            <path id="Trazado_195189" data-name="Trazado 195189" d="M465.24,1105.963a.687.687,0,0,1,.056-.133A.687.687,0,0,0,465.24,1105.963Z" transform="translate(-465.212 -1105.44)" fill="#bddcf6"/>
          </g>
          <path id="Trazado_195190" data-name="Trazado 195190" d="M721.794,1286.336l-9.506.018-.018-9.506,9.506-.018Zm-9.119-.372,8.729-.015-.015-8.729-8.729.015Z" transform="translate(-647.893 -1126.194)" fill="#184655"/>
          <path id="Trazado_195191" data-name="Trazado 195191" d="M722.024,1411.246l-9.506.018-.018-9.506,9.506-.018Zm-9.119-.372,8.729-.015-.015-8.729-8.729.015Z" transform="translate(-648.094 -1235.286)" fill="#184655"/>
          <path id="Trazado_195192" data-name="Trazado 195192" d="M722.244,1536.156l-9.506.018-.018-9.506,9.506-.018Zm-9.119-.372,8.729-.015-.015-8.729-8.729.015Z" transform="translate(-648.286 -1344.379)" fill="#184655"/>
          <path id="Trazado_195193" data-name="Trazado 195193" d="M722.474,1661.066l-9.506.018-.018-9.506,9.506-.017Zm-9.119-.372,8.729-.016-.015-8.729-8.729.015Z" transform="translate(-648.487 -1453.471)" fill="#184655"/>
          <rect id="Rectángulo_44072" data-name="Rectángulo 44072" width="40.683" height="1.368" transform="translate(19.705 150.931) rotate(-0.1)" fill="#bddcf6"/>
          <rect id="Rectángulo_44073" data-name="Rectángulo 44073" width="40.683" height="1.368" transform="translate(19.712 154.805) rotate(-0.1)" fill="#bddcf6"/>
          <rect id="Rectángulo_44074" data-name="Rectángulo 44074" width="40.683" height="1.368" transform="translate(19.718 158.68) rotate(-0.1)" fill="#bddcf6"/>
          <rect id="Rectángulo_44075" data-name="Rectángulo 44075" width="40.683" height="1.368" transform="translate(19.733 167.288) rotate(-0.1)" fill="#bddcf6"/>
          <rect id="Rectángulo_44076" data-name="Rectángulo 44076" width="40.683" height="1.368" transform="translate(19.74 171.163) rotate(-0.1)" fill="#bddcf6"/>
          <rect id="Rectángulo_44077" data-name="Rectángulo 44077" width="40.683" height="1.368" transform="translate(19.747 175.038) rotate(-0.1)" fill="#bddcf6"/>
          <rect id="Rectángulo_44078" data-name="Rectángulo 44078" width="40.683" height="1.368" transform="translate(19.761 182.787) rotate(-0.1)" fill="#bddcf6"/>
          <rect id="Rectángulo_44079" data-name="Rectángulo 44079" width="40.683" height="1.368" transform="translate(19.767 186.661) rotate(-0.1)" fill="#bddcf6"/>
          <rect id="Rectángulo_44080" data-name="Rectángulo 44080" width="40.683" height="1.368" transform="translate(19.774 190.536) rotate(-0.1)" fill="#bddcf6"/>
          <rect id="Rectángulo_44081" data-name="Rectángulo 44081" width="40.683" height="1.368" transform="translate(19.788 198.285) rotate(-0.1)" fill="#bddcf6"/>
          <rect id="Rectángulo_44082" data-name="Rectángulo 44082" width="40.683" height="1.368" transform="translate(19.794 202.16) rotate(-0.1)" fill="#bddcf6"/>
          <rect id="Rectángulo_44083" data-name="Rectángulo 44083" width="40.683" height="1.368" transform="translate(19.801 206.035) rotate(-0.1)" fill="#bddcf6"/>
          <rect id="Rectángulo_44084" data-name="Rectángulo 44084" width="46.935" height="1.368" transform="translate(19.819 216.052) rotate(-0.1)" fill="#bddcf6"/>
          <rect id="Rectángulo_44085" data-name="Rectángulo 44085" width="56.19" height="1.368" transform="translate(19.825 219.368) rotate(-0.1)" fill="#bddcf6"/>
          <path id="Trazado_195194" data-name="Trazado 195194" d="M729.222,1274.442l-2.952-5.065,1.056-.615,1.713,2.94,2.8-6.712,1.128.471Z" transform="translate(-660.12 -1115.853)" fill="#4dd0e1"/>
          <path id="Trazado_195195" data-name="Trazado 195195" d="M729.452,1400.99l-2.952-5.064,1.056-.616,1.713,2.939,2.8-6.71,1.128.47Z" transform="translate(-660.321 -1226.378)" fill="#4dd0e1"/>
          <path id="Trazado_195196" data-name="Trazado 195196" d="M729.892,1648.4l-2.952-5.065,1.056-.615,1.713,2.939,2.8-6.71,1.13.47Z" transform="translate(-660.706 -1442.458)" fill="#4dd0e1"/>
          <path id="Trazado_195197" data-name="Trazado 195197" d="M730.937,1539.39l-.852-.86-2.429,2.407-2.438-2.4-.848.863,2.427,2.387-2.419,2.4.851.858,2.43-2.407,2.438,2.4.847-.862-2.426-2.387Z" transform="translate(-658.461 -1354.754)" fill="#4dd0e1"/>
          <path id="Trazado_195198" data-name="Trazado 195198" d="M327.626,1618.92a17.479,17.479,0,0,0-6.776,1.368l0,2.229a15.5,15.5,0,0,1,15.173,26.962l3.337-.006c.239-.215.475-.438.7-.669a17.519,17.519,0,0,0-12.443-29.884Z" transform="translate(-306.039 -1424.964)" fill="#bddcf6" opacity="0.3"/>
          <path id="Trazado_195199" data-name="Trazado 195199" d="M327.695,1656.421a12.7,12.7,0,0,0-6.775,1.964l0,1.213a11.759,11.759,0,1,1,.035,19.208l0,1.213a12.768,12.768,0,1,0,6.737-23.6Z" transform="translate(-306.1 -1457.716)" fill="#bddcf6" opacity="0.3"/>
          <g id="Grupo_141146" data-name="Grupo 141146" transform="translate(32.116 141.4)">
            <path id="Trazado_195200" data-name="Trazado 195200" d="M459.326,1209.574v-4.555H457.51v-.4h4.2v.4H459.9v4.555h-.572Z" transform="translate(-457.51 -1204.527)" fill="#184655"/>
            <path id="Trazado_195201" data-name="Trazado 195201" d="M502.2,1209.175v.4H498.56v-4.954h3.514v.4h-2.947v1.735h2.134v.4h-2.134v2.022Z" transform="translate(-493.362 -1204.527)" fill="#184655"/>
            <path id="Trazado_195202" data-name="Trazado 195202" d="M531.91,1207.847l.493-.164a1.837,1.837,0,0,0,.636.783,1.7,1.7,0,0,0,.951.253,1.548,1.548,0,0,0,.935-.265.831.831,0,0,0,.355-.7.751.751,0,0,0-.232-.567,2.119,2.119,0,0,0-.788-.406q-.3-.1-.8-.234a4.989,4.989,0,0,1-.641-.2,1.746,1.746,0,0,1-.629-.442.9.9,0,0,1-.186-.58,1.149,1.149,0,0,1,.469-.97,2.1,2.1,0,0,1,1.289-.353,2.274,2.274,0,0,1,1.2.29,1.821,1.821,0,0,1,.723.889l-.481.124a1.62,1.62,0,0,0-.586-.684,1.664,1.664,0,0,0-.885-.221,1.322,1.322,0,0,0-.827.238.738.738,0,0,0-.317.619.646.646,0,0,0,.205.485,1.511,1.511,0,0,0,.636.322c.11.033.271.08.481.137a6.8,6.8,0,0,1,1.165.391,1.715,1.715,0,0,1,.607.484,1.04,1.04,0,0,1,.189.622,1.234,1.234,0,0,1-.508,1.035,2.219,2.219,0,0,1-1.374.385,2.424,2.424,0,0,1-1.283-.308,2.086,2.086,0,0,1-.8-.961Z" transform="translate(-522.489 -1203.986)" fill="#184655"/>
            <path id="Trazado_195203" data-name="Trazado 195203" d="M569.236,1209.574v-4.555H567.42v-.4h4.2v.4h-1.816v4.555h-.572Z" transform="translate(-553.502 -1204.527)" fill="#184655"/>
            <path id="Trazado_195204" data-name="Trazado 195204" d="M609.19,1209.574v-4.954h.567v4.954Z" transform="translate(-589.983 -1204.527)" fill="#184655"/>
            <path id="Trazado_195205" data-name="Trazado 195205" d="M627.9,1204.978v4.6h-.551v-4.954h.924l2.939,4.18v-4.18h.551v4.954h-.605Z" transform="translate(-605.843 -1204.527)" fill="#184655"/>
            <path id="Trazado_195206" data-name="Trazado 195206" d="M675.482,1208.38a1.947,1.947,0,0,1-.726.491,2.668,2.668,0,0,1-.974.162,2.222,2.222,0,0,1-1.736-.658,3.319,3.319,0,0,1,.013-3.814,2.583,2.583,0,0,1,3.043-.317,2.071,2.071,0,0,1,.729,1.118l-.534.09a1.786,1.786,0,0,0-.57-.884,1.517,1.517,0,0,0-.951-.285,1.556,1.556,0,0,0-1.28.555,2.428,2.428,0,0,0-.452,1.573,2.568,2.568,0,0,0,.459,1.657,1.657,1.657,0,0,0,1.361.56,1.752,1.752,0,0,0,1.094-.317,1,1,0,0,0,.414-.836v-.529h-1.525v-.372h2.139v2.362h-.5v-.556Z" transform="translate(-644.359 -1203.89)" fill="#184655"/>
          </g>
          <g id="Grupo_141152" data-name="Grupo 141152" transform="translate(77.923 15.363)">
            <g id="Grupo_141149" data-name="Grupo 141149" transform="translate(30.077 4.868)">
              <g id="Grupo_141147" data-name="Grupo 141147" transform="translate(23.765)">
                <path id="Trazado_195207" data-name="Trazado 195207" d="M1262.69,262.757l-1.29,5.032,3.95-2.219,11.8-4.35-8.693-.241s-4.508.541-4.771.727A10.815,10.815,0,0,0,1262.69,262.757Z" transform="translate(-1259.251 -259.213)" fill="#50bfa5"/>
                <path id="Trazado_195208" data-name="Trazado 195208" d="M1244.43,247.03l17.9,2.007-14.456,1.536Z" transform="translate(-1244.43 -247.03)" fill="#96d9c9"/>
                <path id="Trazado_195209" data-name="Trazado 195209" d="M1282.906,270.247l-4.236-4.323,13.56-3.044Z" transform="translate(-1274.334 -260.873)" fill="#96d9c9"/>
              </g>
              <g id="Grupo_141148" data-name="Grupo 141148" transform="translate(0 5.039)">
                <path id="Trazado_195210" data-name="Trazado 195210" d="M1056.846,307.1a11.353,11.353,0,0,1,.377-1.194c.137-.361.294-.722.467-1.073l.38.187c-.167.338-.319.686-.451,1.035a11.177,11.177,0,0,0-.363,1.15c-.029.113-.057.227-.082.341l-.414-.092c.026-.12.056-.239.085-.354Zm2.335-4.609a16.091,16.091,0,0,1,1.9-2.012l.282.317a15.7,15.7,0,0,0-1.853,1.959Zm13.452.756c-.023-.018-.046-.037-.067-.056l.276-.322.056.047a.242.242,0,0,0,.041.019,1.955,1.955,0,0,0,1.186-.005,1.793,1.793,0,0,0,.774-.691l.356.23a2.245,2.245,0,0,1-.957.848,2.365,2.365,0,0,1-1.509.015.546.546,0,0,1-.155-.084Zm-9.358-4.456a22.024,22.024,0,0,1,2.395-1.378l.189.38a21.577,21.577,0,0,0-2.349,1.351Zm8.069.97a5.116,5.116,0,0,1,.3-1.218,5.944,5.944,0,0,1,.292-.652l.376.2a5.99,5.99,0,0,0-.272.607,4.716,4.716,0,0,0-.276,1.118,3.954,3.954,0,0,0-.011.8l-.423.037A4.377,4.377,0,0,1,1071.344,299.761Zm2.279-1.9-.051-.032.224-.36.055.034a4.267,4.267,0,0,1,1.737,2.153l-.4.137a3.836,3.836,0,0,0-1.565-1.932Zm-5.269-1.208a9.607,9.607,0,0,1,1.815-.195c.349.025.669.06.975.105l-.063.419c-.3-.044-.6-.077-.942-.1a8.738,8.738,0,0,0-1.71.19l-.075-.418Zm5.307-.962a9.5,9.5,0,0,1,2.307-1.569l.185.382a9.048,9.048,0,0,0-2.2,1.5l-.287-.311Z" transform="translate(-1056.76 -293.195)" fill="#bddcf6"/>
                <path id="Trazado_195211" data-name="Trazado 195211" d="M1229.562,287.336a8.122,8.122,0,0,1,1.36-.091l.008-.424a8.556,8.556,0,0,0-1.43.1l.063.419Z" transform="translate(-1207.626 -286.819)" fill="#bddcf6"/>
              </g>
            </g>
            <g id="Grupo_141151" data-name="Grupo 141151">
              <path id="Trazado_195212" data-name="Trazado 195212" d="M963.993,340.72c.256.01.955.244,1.978,2.178,1.307,2.469,3.216,9.928,3.216,9.928l-5.7,2.122-.732-1.556-1.205-11.986s2.373-.689,2.444-.686Z" transform="translate(-943.53 -323.988)" fill="#a34b3d"/>
              <path id="Trazado_195213" data-name="Trazado 195213" d="M851.619,332.23a34.788,34.788,0,0,1,7.534,1.076s1.375,11.819-1.238,20.8c-.585,2.01.484,8.334.484,8.334l-16.889-.223s2-15.287,1.247-17.755-.771-11.074-.771-11.074.115-.018,3.8-.653a38.235,38.235,0,0,1,5.839-.5Z" transform="translate(-838.691 -316.573)" fill="#b75742"/>
              <path id="Trazado_195214" data-name="Trazado 195214" d="M872.7,744.01s.373,4.313,1.061,5.507-.037,3.224-.072,3.5-1.446.676-3.687.438-2.206-.756-2.025-1.592,1.374-1.911,1.446-2.707a20.777,20.777,0,0,0-.688-3.662Z" transform="translate(-861.739 -676.209)" fill="#f7a491"/>
              <path id="Trazado_195215" data-name="Trazado 195215" d="M854.508,540.858s11.659-.647,14.262.929-1.85,9.315-1.85,9.315-8.112-.373-24,.543c-3.762.218-4.088-9.811-3.384-10.641S854.508,540.858,854.508,540.858Z" transform="translate(-836.705 -498.552)" fill="#e0973f"/>
              <path id="Trazado_195216" data-name="Trazado 195216" d="M868.776,793.557c-2.308-.246-2.022-1.38-1.836-2.241a7.62,7.62,0,0,1,1.174-1.775,3.847,3.847,0,0,0,1.545.751c1.041.308,2.468-.3,3.377-.682a11.133,11.133,0,0,1,.309,2.977c-.037.287-2.259,1.216-4.567.97Z" transform="translate(-860.794 -715.973)" fill="#dd513a"/>
              <path id="Trazado_195217" data-name="Trazado 195217" d="M831.406,549.993c.466,3.524,2.772,21.071,2.772,21.071l-5.351.664s-6.581-22.9-6.243-26.405,2.8-3.8,2.8-3.8S830.174,540.663,831.406,549.993Z" transform="translate(-822.15 -499.346)" fill="#feca2e"/>
              <path id="Trazado_195218" data-name="Trazado 195218" d="M825.659,351.606c1.579-.593,2.352,13.636,2.564,19.492a68.92,68.92,0,0,0,8.884-.089c.571-.043,1.887-.525,2.454-.6a5.712,5.712,0,0,1,1.4-.066,26.339,26.339,0,0,1,3.27,1.471c.309.324,1.145,1.142,1,1.5s-1.608-.985-1.608-.985l-.717-.4c.893.871,2.595,2.02,2.349,2.438s-1.774-.757-2.868-1.551c.938.847,2.1,2.364,1.836,2.6-.242.213-1.568-1.544-2.985-2.049-.526-.187-1.049.332-1.463.394a2.971,2.971,0,0,1-1.07.06l-1.535-.436c-.523.047-.536.357-1.064.469-.613.13-1.618.267-2.4.458-4.494,1.1-5.993,1.608-7.37,1.607-4.169,0-4.41-22.909-.677-24.309Z" transform="translate(-822.547 -333.48)" fill="#f7a491"/>
              <path id="Trazado_195219" data-name="Trazado 195219" d="M819.361,355.8c-.3-6-.252-13.392,3.11-14.654,1.327-.5,3.666,2.495,3.246,14.775A25.3,25.3,0,0,1,819.361,355.8Z" transform="translate(-819.246 -324.315)" fill="#a34b3d"/>
              <path id="Trazado_195220" data-name="Trazado 195220" d="M997.2,776.1a2.915,2.915,0,0,0-.164,2.509c.607,1.145,3.8,2.828,4.13,3.448a1.5,1.5,0,0,1,.2,1.06L991.89,780.8l.726-2.856.886-1.973,3.694.135Z" transform="translate(-970.028 -704.122)" fill="#f7a491"/>
              <path id="Trazado_195221" data-name="Trazado 195221" d="M994.969,792.833s-2.663.461-3.719-.381-.985-1-1.375-.852c-.251.093-.632,1.231-.873,2.031a.778.778,0,0,0,.56.979l9.866,2.438c.75.144,1.245-.324.741-.924a8.822,8.822,0,0,0-1.018-.947,34.249,34.249,0,0,0-4.183-2.343Z" transform="translate(-967.477 -717.731)" fill="#dd513a"/>
              <path id="Trazado_195222" data-name="Trazado 195222" d="M1001.377,545.27c.754-1.585,2.468-3.651,5.483-2.407,2.877,1.187,3.648,4.1,2.74,7.086s-6.883,20.533-7.09,22.947l-4.77.032s.867-13.9,1.08-17.253A32.546,32.546,0,0,1,1001.377,545.27Z" transform="translate(-975.137 -500.201)" fill="#feca2e"/>
              <path id="Trazado_195223" data-name="Trazado 195223" d="M873.434,436.851H857.488a1.041,1.041,0,0,0-.962.647l-4.909,12.016h-8.791a.446.446,0,0,0-.446.446h0a.445.445,0,0,0,.446.446h25.02a1.746,1.746,0,0,0,1.593-1.035l4.944-11.051a1.043,1.043,0,0,0-.948-1.47Z" transform="translate(-839.45 -407.945)" fill="#184655"/>
              <path id="Trazado_195224" data-name="Trazado 195224" d="M1007.884,484.1a.878.878,0,1,1-.658-1.149.94.94,0,0,1,.658,1.149Z" transform="translate(-982.486 -448.192)" fill="#fff"/>
              <g id="Grupo_141150" data-name="Grupo 141150" transform="translate(7.843)">
                <path id="Trazado_195225" data-name="Trazado 195225" d="M890.057,209.81a12.317,12.317,0,0,1-1.411-.565,7.1,7.1,0,0,0-1.608-.607,3.881,3.881,0,0,0-3.263.87c-1.052,1.141-2.92.206-2.544,6.182.427,6.765,4.188,6.021,4.279,5.907s3.354-4.327,3.354-4.327,1.141,2.5,1.141,2.4,5.825-7.921.053-9.865Z" transform="translate(-881.181 -208.588)" fill="#0e2e35"/>
                <path id="Trazado_195226" data-name="Trazado 195226" d="M902.073,289.035l.324,2.417s.727,3.482-.209,4.154-3.979-4.252-3.979-4.252l.322-6.124,3.542,3.806Z" transform="translate(-896.053 -275.525)" fill="#f7a491"/>
                <path id="Trazado_195227" data-name="Trazado 195227" d="M899.94,287.2a6.93,6.93,0,0,0,3.921,3.871l-.275-2.049-3.542-3.807Z" transform="translate(-897.565 -275.516)" fill="#4dd0e1"/>
                <path id="Trazado_195228" data-name="Trazado 195228" d="M899.013,232.306a3.222,3.222,0,0,1,3.712,3.259,24.627,24.627,0,0,1-.271,3.1c-.43,2.79-2.335,5.246-3.594,5.027a6.049,6.049,0,0,1-3.869-6.6C895.335,234.645,896.931,232.642,899.013,232.306Z" transform="translate(-893.185 -229.267)" fill="#f7a491"/>
                <path id="Trazado_195229" data-name="Trazado 195229" d="M889.72,265.332a.938.938,0,1,1-.713-1.269A1.038,1.038,0,0,1,889.72,265.332Z" transform="translate(-887.039 -257.029)" fill="#f7a491"/>
                <path id="Trazado_195230" data-name="Trazado 195230" d="M893.41,229.913s1.522.379,2.087-.6,2.584-3.091,5.151-2.215-2.259-2.13-2.464-2.13-2.669-.018-2.669-.018-1.9,1.563-1.968,1.735-.617,2.044-.617,2.044Z" transform="translate(-891.442 -222.878)" fill="#0e2e35"/>
              </g>
              <path id="Trazado_195231" data-name="Trazado 195231" d="M918.628,296.39l2.769.529a1.233,1.233,0,0,1-1.489.846C918.415,297.525,918.628,296.39,918.628,296.39Z" transform="translate(-906.034 -285.272)" fill="#fff"/>
            </g>
          </g>
          <g id="Grupo_141153" data-name="Grupo 141153" transform="translate(116.701 124.023)">
            <path id="Trazado_195232" data-name="Trazado 195232" d="M1153.413,1801.97s-.506,3.536-1.379,4.677a9.021,9.021,0,0,0-1.177,1.559,4.614,4.614,0,0,0,.158,3.565c.206.453-.014.452.456.6a2.889,2.889,0,0,0,3.472-1.639,8.362,8.362,0,0,0,.681-3.013,10.977,10.977,0,0,1,1.141-4.843l-3.353-.9Z" transform="translate(-1147.384 -1708.857)" fill="#f7a491"/>
            <path id="Trazado_195233" data-name="Trazado 195233" d="M1289.564,1814.731a33.616,33.616,0,0,1,.06,5.282c-.135.694-.893,2.122-.546,2.775a1.741,1.741,0,0,0,.745.815l9,.146c.49.007.166-.309-.229-.6a18.148,18.148,0,0,0-3.238-1.8c-.134-.066-.626-.38-.8-.489a6.2,6.2,0,0,1-1.288-1.145c-.647-.724-.7-4.235-.7-4.235l-3-.748Z" transform="translate(-1268.282 -1720.002)" fill="#f7a491"/>
            <path id="Trazado_195234" data-name="Trazado 195234" d="M1289.8,1389.39s1.133,6.472.39,10.716-4.318,43.575-4.318,43.575l-3.971.225s-.832-16.43-.684-18.715a35.67,35.67,0,0,1,1.327-6.108l-.4-13.266,5.011-17.427,2.641,1Z" transform="translate(-1261.481 -1347.65)" fill="#4dd0e1"/>
            <path id="Trazado_195235" data-name="Trazado 195235" d="M1180.3,1375.409s-3.127,4.733-3.871,8.65.546,15.954-.885,21.087c-.775,2.778-3.713,7.07-4.16,10.659s-2.2,13-2.2,13l3.969.792,9.224-23.489,7.236-21.23,1.854-10.934-11.167,1.469Z" transform="translate(-1163.654 -1335.03)" fill="#4dd0e1"/>
            <path id="Trazado_195236" data-name="Trazado 195236" d="M1153.1,1852.948a4.427,4.427,0,0,1-4.351-1.828,4.826,4.826,0,0,0-.414,3.576c.356.781,1.4.759,2.216.789a2.138,2.138,0,0,0,1.967-1.211,7.239,7.239,0,0,0,.581-1.326Z" transform="translate(-1145.275 -1751.784)" fill="#feca2e"/>
            <path id="Trazado_195237" data-name="Trazado 195237" d="M1294.421,1861.722a8.112,8.112,0,0,1-5.126-.2,4.176,4.176,0,0,0-.412,2.155c.219.641.529.787.805.793,2.176.057,7.968.135,9.627.157a.273.273,0,0,0,.21-.448c-.411-.494-4.926-2.346-5.1-2.455Z" transform="translate(-1268.147 -1760.867)" fill="#feca2e"/>
            <path id="Trazado_195238" data-name="Trazado 195238" d="M1322.864,1267.966c.166-.354-1.583-.833-1.64-1.213s2.288-.166,2.406-.482c.217-.583-2.554-.393-2.471-.668s2.93-.612,2.679-1.123-2.916.657-2.958.324,2.576-.865,2.6-1.584c.015-.385-4.36,1.474-4.818,1.217s.724-1.951.37-2.256-1.891,3.235-2.167,3.338-6.281,1.919-8.322,2.22c-.172-.692-1.707-4.5-1.855-5.148-1.2.679-2.726-.138-3.953.466.618,2.178,2,9.352,2.558,9.675,1.687.984,10.565-3.707,12.032-4.536s2.219-.434,3.176-.646,2.193.77,2.359.418Z" transform="translate(-1280.293 -1237.406)" fill="#f38b80"/>
            <path id="Trazado_195239" data-name="Trazado 195239" d="M1152.251,1076.1c.447-2.03.884-4.072-.294-6.3a5.726,5.726,0,0,0-4.505-3.07c-5.4-.641-4.246,4.4-11.794,5.492a16.949,16.949,0,0,0-6.482,1.831c-3.536,2.106-4.87,5.485-2.526,10.989,5.743,13.479,19.482,1.767,21.578-.618,2.079-2.365,3.737-7.017,4.024-8.323Z" transform="translate(-1125.475 -1066.667)" fill="#0e2e35"/>
            <path id="Trazado_195240" data-name="Trazado 195240" d="M1237.175,1191.72a7.835,7.835,0,0,0-4.359,2.084c-1.631,1.774,2.636,16.036,2.933,18.294s-2.837,8.508-2.837,8.508,10.648,2.117,13.417.289c0,0,.243-17.454-.053-19.067s-2.768-8.173-3.361-8.818-5.742-1.291-5.742-1.291Z" transform="translate(-1218.9 -1175.884)" fill="#feca2e"/>
            <path id="Trazado_195241" data-name="Trazado 195241" d="M1270.2,1147.671s-.021.122-.06.328a31.084,31.084,0,0,1-1.37,5.173c-.578,1.091,1.978,4.568,4.44,4.144.732-.127-.619-3.2-.554-3.52.124-.622.292-1.472.466-2.342.1-.491.2-.989.289-1.456.263-1.329.477-2.417.477-2.417Z" transform="translate(-1250.553 -1137.334)" fill="#f7a491"/>
            <path id="Trazado_195242" data-name="Trazado 195242" d="M1279.391,1147.989c.038-.206.059-.328.059-.328l3.688-.091s-.215,1.088-.477,2.417c-.092.465-.19.96-.287,1.449a3.453,3.453,0,0,1-1.76-.882,4.654,4.654,0,0,1-1.333-1.979C1279.325,1148.343,1279.363,1148.142,1279.391,1147.989Z" transform="translate(-1259.803 -1137.325)" fill="#dd513a"/>
            <path id="Trazado_195243" data-name="Trazado 195243" d="M1271.888,1079.086a4.357,4.357,0,0,0-2.593,1.615c-1.089,1.406-2.263,5.754.443,8.118s5.379-.312,5.777-3.149.317-6.686-3.625-6.583Z" transform="translate(-1250.022 -1077.511)" fill="#f7a491"/>
            <path id="Trazado_195244" data-name="Trazado 195244" d="M1323.016,1115.476c-.171.684-.619,1.146-1,1.032s-.553-.761-.382-1.445.619-1.146,1-1.032S1323.186,1114.792,1323.016,1115.476Z" transform="translate(-1296.735 -1108.018)" fill="#f7a491"/>
            <path id="Trazado_195245" data-name="Trazado 195245" d="M1262.554,1078.7s-3.535,4.057-5.195,4.248-1.879,2.388-1.879,2.388.594-5.063,2.238-6.039,4.836-.6,4.836-.6Z" transform="translate(-1239.017 -1077.111)" fill="#0e2e35"/>
            <path id="Trazado_195246" data-name="Trazado 195246" d="M1262.622,1112.475c.135.734-.137,1.408-.607,1.5s-.961-.421-1.1-1.155.137-1.408.607-1.5S1262.487,1111.741,1262.622,1112.475Z" transform="translate(-1243.738 -1105.656)" fill="#f7a491"/>
            <path id="Trazado_195247" data-name="Trazado 195247" d="M.628,0h15.4a.628.628,0,0,1,.628.628v11.54a.628.628,0,0,1-.628.628H.628A.628.628,0,0,1,0,12.168V.628A.628.628,0,0,1,.628,0Z" transform="translate(15.795 43.786) rotate(-81.68)" fill="#184655"/>
            <path id="Trazado_195248" data-name="Trazado 195248" d="M1306.377,1283.161a.127.127,0,0,0-.108-.144l-4.762-.7a.127.127,0,0,0-.145.108l-.072.5,5.015.733Z" transform="translate(-1279.026 -1255.011)" fill="#13375b"/>
            <path id="Trazado_195249" data-name="Trazado 195249" d="M1316.505,1280.274a.759.759,0,1,0,.641.861A.759.759,0,0,0,1316.505,1280.274Zm-.18,1.233a.487.487,0,1,1,.552-.412A.486.486,0,0,1,1316.325,1281.507Z" transform="translate(-1291.555 -1253.218)" fill="#13375b"/>
            <path id="Trazado_195250" data-name="Trazado 195250" d="M1306.27,1287.21a.127.127,0,0,1,.06.128l-.072.5-5.015-.733a.627.627,0,0,0,.531.712l3.772.552a.627.627,0,0,0,.712-.531l.072-.5A.129.129,0,0,0,1306.27,1287.21Z" transform="translate(-1278.979 -1259.186)" fill="#355389"/>
            <path id="Trazado_195251" data-name="Trazado 195251" d="M1295.7,1142.094l-2.569-.014a1.125,1.125,0,0,0,1.184,1.016c1.378.047,1.385-1,1.385-1Z" transform="translate(-1271.9 -1132.53)" fill="#fff"/>
            <path id="Trazado_195252" data-name="Trazado 195252" d="M1210.807,1313.88l4.137.423s-.067,3.512,0,3.915c0,0,7.075,1.961,10.032,2.493,0,0,1.346-.763,1.891-1.005a13.123,13.123,0,0,1,2.332-.549c.324-.042.213.313-.064.437a2.7,2.7,0,0,0-1.2.878,2.261,2.261,0,0,0,.893-.073c.309-.138.734-.429.742-.58s.077-.516.179-.5c.025.005.061.125.095.25s.068.24.1.361c.052.215.111.529.135.671a9.7,9.7,0,0,1-.172,1.528c-.051.576-.216.833-.519.98a7.565,7.565,0,0,1-1.778.359,11.963,11.963,0,0,1-3.266-.323c-.565-.063-9.573-.957-9.573-.957s-3.581-.516-3.819-1.132-.142-7.178-.142-7.178Z" transform="translate(-1199.985 -1282.575)" fill="#f7a491"/>
            <path id="Trazado_195253" data-name="Trazado 195253" d="M1212.656,1203.68s-1.306.619-2.454,3.294c-1.09,2.541-1.412,15.225-1.412,15.225l4.329-.722,2.2-5.914a10.848,10.848,0,0,0-1.121-10.786c-.609-.833-1.17-1.337-1.541-1.1Z" transform="translate(-1198.239 -1186.276)" fill="#feca2e"/>
          </g>
          <rect id="Rectángulo_44086" data-name="Rectángulo 44086" width="18.37" height="18.37" transform="translate(199.363 80.498)" fill="#bddcf6" opacity="0.6"/>
          <rect id="Rectángulo_44087" data-name="Rectángulo 44087" width="35.837" height="2.496" transform="translate(220.983 80.498)" fill="#bddcf6" opacity="0.6"/>
          <rect id="Rectángulo_44088" data-name="Rectángulo 44088" width="24.184" height="2.496" transform="translate(220.983 85.788)" fill="#bddcf6" opacity="0.6"/>
          <rect id="Rectángulo_44089" data-name="Rectángulo 44089" width="32.19" height="2.496" transform="translate(220.983 91.08)" fill="#bddcf6" opacity="0.6"/>
          <g id="Grupo_141157" data-name="Grupo 141157" transform="translate(195.053 85.692)">
            <path id="Trazado_195254" data-name="Trazado 195254" d="M2166.673,1203.876c-.751-.61-6.559,1.937-6.485,2.825s-4.053,9.486-4.053,9.486l-7.129-5.684h0c-.064-.2-.739-2.415-.771-2.81-.034-.415-1.24-1.141-1.8-1.035s.479.809.548.937c.186.351-.532.483-.532.483s-2.037-.653-2.079-1.318-1.436,1.162-1.273,1.417,3.486,2.929,3.966,3.51c0,0,9.223,10.542,9.878,10.818.577.242,2.631-3.391,4.571-5.8s7.509-10.918,5.162-12.826Z" transform="translate(-2092.575 -1148.088)" fill="#f7a491"/>
            <path id="Trazado_195255" data-name="Trazado 195255" d="M2471.1,1792.828s1.267,1.236,1.3,1.69.113,5.315-.405,5.77-2.037.775-1.549,1.286c.37.387,3.21.3,5.093.2.55-.03,1.238-4.416,1.457-5.059.316-.936,1.085-3.044.8-3.7a5.479,5.479,0,0,0-1.754-1.58,8.608,8.608,0,0,1-1.942-2.069l-2.992,3.461Z" transform="translate(-2378.395 -1659.522)" fill="#f48c7f"/>
            <path id="Trazado_195256" data-name="Trazado 195256" d="M2339.749,1838.94s1.135,3.2,1.136,3.211c.085.508.417,1.761.417,2.222,0,1.734-7.817-1.471-6.065-2.24a1.855,1.855,0,0,0,.708-1.214,4.064,4.064,0,0,0-.658-2.049l4.464.069Z" transform="translate(-2260.171 -1702.754)" fill="#f7a491"/>
            <g id="Grupo_141154" data-name="Grupo 141154" transform="translate(65.209 76.53)">
              <path id="Trazado_195257" data-name="Trazado 195257" d="M2261.267,1368.32s-.57,5.743-.57,5.829c0,9.291-1.841,27.437-1.492,29.185.855,4.26,10.051,25.994,10.051,25.994l4.97-.594-5.335-26.262,1.241-10.232,3.372-20.7-12.239-3.217Z" transform="translate(-2259.161 -1368.32)" fill="#50bfa5"/>
              <path id="Trazado_195258" data-name="Trazado 195258" d="M2302.392,1379.051l.943,5.444,2.552,22.4,9.718,21.895s-1.367,3.186-3.384,3.633l-15.466-22.48-9.606-28.764.337-6.391,14.907,4.26Z" transform="translate(-2283.605 -1373.971)" fill="#96d9c9"/>
            </g>
            <path id="Trazado_195259" data-name="Trazado 195259" d="M2260.131,1156.661l6.891.7s.317-5.65.317-8.345c0-3.27-.279-7.481-.674-7.39a6.012,6.012,0,0,0-3.49,2.087c-3.074,4.224-3.045,12.945-3.045,12.945Z" transform="translate(-2194.799 -1093.805)" fill="#b75742"/>
            <path id="Trazado_195260" data-name="Trazado 195260" d="M2267.613,1146.938c-.144,1-2.793,28.1-2.793,28.1,12.549,6.061,19.473,1.08,19.473,1.08s-.411-19.031.081-21.622c.325-1.713.732-13.1-.378-13.422a27.72,27.72,0,0,0-4.84-1.028c-1.521-.158-7.427-.25-8.483.1a13.46,13.46,0,0,0-3.058,6.788Z" transform="translate(-2198.895 -1092.3)" fill="#4dd0e1"/>
            <path id="Trazado_195261" data-name="Trazado 195261" d="M2472.476,1805.45s-2.921,8.223-4.064,8.621c-.3.1-1.76.372-2.035,1.017a2.787,2.787,0,0,0,0,.842h6.087s.77-3.623,1.074-5.216c0,0,1.612-3.89,1.432-4.243s-2.5-1.021-2.5-1.021Z" transform="translate(-2374.897 -1673.566)" fill="#4dd0e1"/>
            <path id="Trazado_195262" data-name="Trazado 195262" d="M2299.954,1867.358l-.9-2.828a7.771,7.771,0,0,1-2.82.662c-.939-.133-2.776-.662-2.776-.662-3.752,1.235-6.825,1.835-6.267,2.828h12.757Z" transform="translate(-2218.38 -1725.164)" fill="#4dd0e1"/>
            <path id="Trazado_195263" data-name="Trazado 195263" d="M2246.7,1302.88a1.632,1.632,0,0,1-.19-.141c.223-2.655.182-5.229-.651-6.1.021-.042.2-.429.392-.831.967.747,1.425,2.731,1.245,5.953a5.55,5.55,0,0,1-.127.667c-.28.308-.535.506-.67.449Z" transform="translate(-2182.335 -1228.462)" fill="#f7a491"/>
            <path id="Trazado_195264" data-name="Trazado 195264" d="M2331.98,1097.451l.81,5.331s-2.955,6.348-4.717,5.8c-1.479-.462-.57-6.078-.57-6.078a15.39,15.39,0,0,0,.565-4.526C2327.826,1096.466,2331.98,1097.451,2331.98,1097.451Z" transform="translate(-2253.398 -1054.946)" fill="#f7a491"/>
            <path id="Trazado_195265" data-name="Trazado 195265" d="M2333.154,1097.976c-.241-1.509,3.913-.524,3.913-.524l.067.442a2.431,2.431,0,0,1-.451.744,5.467,5.467,0,0,1-3.633,1.644A8.243,8.243,0,0,0,2333.154,1097.976Z" transform="translate(-2258.485 -1054.946)" fill="#f47458"/>
            <g id="Grupo_141155" data-name="Grupo 141155" transform="translate(72.169 30.548)">
              <path id="Trazado_195266" data-name="Trazado 195266" d="M2321.221,1028.585c.117-.043.941,6.072-.622,7.755s-4.61,2.232-5.7.908c-1.208-1.465-1.147-8.037,1.282-9.768S2321.221,1028.585,2321.221,1028.585Z" transform="translate(-2314.127 -1024.169)" fill="#f7a491"/>
              <path id="Trazado_195267" data-name="Trazado 195267" d="M2323.083,1005.241a6.746,6.746,0,0,1,3.543,2.021c.854.1,2.013.572,3.21,2.554a4.958,4.958,0,0,1-1.329,6.463,3.867,3.867,0,0,0-1.69,2.856l-.271-.792a4.44,4.44,0,0,1-.215-1.865,3.667,3.667,0,0,1,.277-1.121c.412-.885-.885-1.473-1.25-2.21-.279-.567-.293-1.864-.735-2.8l-.527-.715a3.351,3.351,0,0,0-2.406-.679c-1.19.267-1.018-4.2,1.391-3.713Z" transform="translate(-2320.105 -1005.202)" fill="#0e2e35"/>
              <path id="Trazado_195268" data-name="Trazado 195268" d="M2356.248,1067.326c-.012.746.326,1.356.757,1.364s.79-.591.8-1.337-.327-1.356-.757-1.364S2356.26,1066.581,2356.248,1067.326Z" transform="translate(-2350.913 -1058.292)" fill="#f7a491"/>
            </g>
            <path id="Trazado_195269" data-name="Trazado 195269" d="M2319.946,1089.322l-2.357-.122a1.031,1.031,0,0,0,1.042.981C2319.893,1090.283,2319.946,1089.322,2319.946,1089.322Z" transform="translate(-2244.982 -1048.015)" fill="#fff"/>
            <g id="Grupo_141156" data-name="Grupo 141156" transform="translate(0 0)">
              <path id="Trazado_195270" data-name="Trazado 195270" d="M2172.112,1188.179q.83-.851,1.55-1.749l10.286,10.044c.632.618.414,1.865-.486,2.787s-2.144,1.169-2.776.552l-10.286-10.044c.585-.494,1.157-1.025,1.71-1.592Z" transform="translate(-2116.431 -1132.933)" fill="#0e2e35"/>
              <ellipse id="Elipse_5145" data-name="Elipse 5145" cx="25.944" cy="26.105" rx="25.944" ry="26.105" transform="translate(0 37.124) rotate(-45.68)" fill="#c5ddf9" opacity="0.6"/>
              <path id="Trazado_195271" data-name="Trazado 195271" d="M1874.588,940.948a25.919,25.919,0,0,1-16.518,8.084l-28.14-28.6c.005-.054.01-.108.015-.162a26.1,26.1,0,0,1,8.184-16.377Z" transform="translate(-1819.075 -886.171)" fill="#fff"/>
              <path id="Trazado_195272" data-name="Trazado 195272" d="M1946.646,848.94l26.024,26.452c-.013.8-.06,1.607-.147,2.419a26.167,26.167,0,0,1-3.268,10.163l-35.145-35.723a25.706,25.706,0,0,1,12.536-3.31Z" transform="translate(-1910.063 -838.18)" fill="#fff"/>
              <path id="Trazado_195273" data-name="Trazado 195273" d="M1811.439,872.758a29.33,29.33,0,1,0-.622-41.6A29.422,29.422,0,0,0,1811.439,872.758Zm2.365-2.422a25.944,25.944,0,1,1,36.8-.322A26.025,26.025,0,0,1,1813.8,870.336Z" transform="translate(-1795.126 -814.962)" fill="#184655"/>
              <path id="Trazado_195274" data-name="Trazado 195274" d="M1825,883.791a27.55,27.55,0,1,0-.584-39.078A27.635,27.635,0,0,0,1825,883.791Zm1.122-1.148a25.944,25.944,0,1,1,36.8-.322A26.025,26.025,0,0,1,1826.123,882.642Z" transform="translate(-1807.444 -827.268)" fill="#4dd0e1" opacity="0.5"/>
              <path id="Trazado_195275" data-name="Trazado 195275" d="M2275.425,1289.66l1.6-1.658a4.167,4.167,0,0,0-.108-5.892l-29.7-28.791a4.167,4.167,0,0,0-5.892.107l-1.6,1.658a4.167,4.167,0,0,0,.108,5.892l29.7,28.791A4.167,4.167,0,0,0,2275.425,1289.66Z" transform="translate(-2175.961 -1190.332)" fill="#184655"/>
            </g>
            <path id="Trazado_195276" data-name="Trazado 195276" d="M2429.394,1219.013a.708.708,0,0,0,0-.175c-.184-1.877-1.743-17.637-2.005-18.307-.237-.605-7.226-10.6-7.226-10.6l-3.435,4.68,6.721,8.965c.151.57,2.575,11.209,2.575,11.209s.5,1.939.72,3.1c-.1.28-.2.544-.29.761a6.959,6.959,0,0,1-.724,1.164,8.067,8.067,0,0,0-.858,1.518c-.071.274-.2.842-.272,1.185s-.173.743-.189.929a1.762,1.762,0,0,1-.217.5.3.3,0,0,0,.355.433c.244-.081.434-.4.552-.594.33-.556.506-1.572.589-1.517s.372,1.776.418,1.97a21.182,21.182,0,0,0,.59,2.561c.2.366.456.3.524.076.06-.2-.217-2.995-.217-2.995s-.034-.357.122-.245.412,2.651.521,3.024.356.568.567.27c.256-.363-.184-3.058-.184-3.058s-.05-.338.095-.308.325,2.2.438,2.383a.285.285,0,0,0,.532-.058,13.308,13.308,0,0,0-.253-2.769s.02-.192.11-.128.376,1.9.563,2.068a.2.2,0,0,0,.288,0c.344-.234-.182-1.979-.177-2.846a21.38,21.38,0,0,1-.277-2.876c.008-.065.029-.224.042-.324Z" transform="translate(-2331.568 -1135.99)" fill="#f8a492"/>
            <path id="Trazado_195277" data-name="Trazado 195277" d="M2404.592,1160.72l-5.971,4.008a64.778,64.778,0,0,0-5.171-6.79c-2.263-2.234.824-9.074,2.282-8.687,3.26.866,8.859,11.469,8.859,11.469Z" transform="translate(-2310.535 -1100.448)" fill="#4dd0e1"/>
          </g>
          <rect id="Rectángulo_44090" data-name="Rectángulo 44090" width="296.414" height="1.589" transform="translate(4.613 227.436)" fill="#0e2e35"/>
        </g>
      </g>
    </g>
  </g>
</svg>
