<svg xmlns="http://www.w3.org/2000/svg" width="190" height="100" viewBox="0 0 190 100">
  <g id="Grupo_143193" data-name="Grupo 143193" transform="translate(-180 -386)">
    <g id="Grupo_141634" data-name="Grupo 141634" transform="translate(-105 -0.5)">
      <g id="Grupo_141633" data-name="Grupo 141633" transform="translate(0 -7)">
        <rect id="Rect치ngulo_41430" data-name="Rect치ngulo 41430" width="85" height="28" rx="14" transform="translate(390 404.5)" fill="#feca2e" opacity="0.2"/>
        <rect id="Rect치ngulo_41431" data-name="Rect치ngulo 41431" width="85" height="28" rx="14" transform="translate(285 465.5)" fill="#4dd0e1" opacity="0.2"/>
      </g>
      <g id="Grupo_141632" data-name="Grupo 141632" transform="translate(1197.556 -199.51)">
        <path id="Trazado_195357" data-name="Trazado 195357" d="M-755.342,684a3.184,3.184,0,0,1-3.372,2.012q-20.984-.051-41.969-.02c-2.5,0-3.374-.863-3.378-3.34q-.009-5.973,0-11.945v-1.276h-15.023V651.306h-2.51c-3.178,0-6.356.012-9.533,0-2.162-.012-3.135-1-3.141-3.155-.01-3.689,0-7.378,0-11.068v-1.335h-14.494v-18.16h-1.312q-7.068,0-14.136,0c-2.4,0-3.338-.926-3.339-3.3q0-12.492,0-24.985c0-2.389.912-3.289,3.33-3.29q21.041,0,42.079,0c2.407,0,3.307.892,3.308,3.3q.009,12.492,0,24.984c0,2.386-.924,3.287-3.331,3.288q-11.288,0-22.574,0h-1.264V632.9h11.733v-1.139c0-3-.01-5.991,0-8.986.01-2.07.945-3.038,3-3.04q21.369-.017,42.737,0c1.991,0,2.955.988,2.958,2.978q.016,12.765,0,25.532c0,2.1-1.027,3.059-3.241,3.061q-13.1.011-26.189,0h-1.333v15.345h12.271v-1.176q0-3.781,0-7.561c0-2.656.836-3.5,3.454-3.5q20.931,0,41.86-.017a3.266,3.266,0,0,1,3.406,1.986Zm-66.037-68.9V588.559h-43.689v1.262c0,7.994.021,15.99-.025,23.984-.006,1.081.326,1.314,1.356,1.312q20.534-.051,41.069-.023Zm63.493,68.375c.021-.439.056-.829.056-1.22,0-8.031-.017-16.063.026-24.094.005-1.02-.291-1.272-1.285-1.269q-20.645.047-41.288.024c-.385,0-.769.04-1.124.06v26.5Zm-30.239-34.753V622.289h-43.589v26.427Z" fill="#0f2771"/>
        <path id="Trazado_195358" data-name="Trazado 195358" d="M-821.379,615.094h-1.289q-20.535,0-41.069.023c-1.03,0-1.362-.231-1.356-1.312.046-7.994.025-15.99.025-23.984v-1.262h43.689Z" fill="#fff"/>
        <path id="Trazado_195359" data-name="Trazado 195359" d="M-757.886,683.469H-801.5v-26.5c.355-.02.739-.06,1.124-.06q20.643-.006,41.288-.024c.994,0,1.29.249,1.285,1.269-.043,8.031-.023,16.063-.026,24.094C-757.83,682.64-757.865,683.03-757.886,683.469Z" fill="#fff"/>
        <path id="Trazado_195360" data-name="Trazado 195360" d="M-788.125,648.716h-43.589V622.289h43.589Z" fill="#fff"/>
      </g>
    </g>
  </g>
</svg>
