<svg xmlns="http://www.w3.org/2000/svg" xmlns:xlink="http://www.w3.org/1999/xlink" width="404" height="332" viewBox="0 0 404 332">
  <defs>
    <clipPath id="clip-path">
      <rect id="Rectángulo_44331" data-name="Rectángulo 44331" width="380" height="284" fill="none"/>
    </clipPath>
    <clipPath id="clip-path-3">
      <rect id="Rectángulo_44270" data-name="Rectángulo 44270" width="9.192" height="71.149" transform="translate(274.82 128.487)" fill="none"/>
    </clipPath>
    <clipPath id="clip-path-4">
      <rect id="Rectángulo_44272" data-name="Rectángulo 44272" width="9.192" height="49.446" transform="translate(261.983 150.19)" fill="none"/>
    </clipPath>
    <clipPath id="clip-path-5">
      <rect id="Rectángulo_44274" data-name="Rectángulo 44274" width="9.192" height="55.735" transform="translate(287.842 143.902)" fill="none"/>
    </clipPath>
    <clipPath id="clip-path-6">
      <rect id="Rectángulo_44276" data-name="Rectángulo 44276" width="9.192" height="57.925" transform="translate(249.146 141.711)" fill="none"/>
    </clipPath>
    <clipPath id="clip-path-7">
      <rect id="Rectángulo_44278" data-name="Rectángulo 44278" width="9.192" height="40.751" transform="translate(236.309 158.885)" fill="none"/>
    </clipPath>
    <clipPath id="clip-path-8">
      <rect id="Rectángulo_44280" data-name="Rectángulo 44280" width="9.192" height="54.752" transform="translate(274.82 144.885)" fill="none"/>
    </clipPath>
    <clipPath id="clip-path-9">
      <rect id="Rectángulo_44282" data-name="Rectángulo 44282" width="9.192" height="38.05" transform="translate(261.983 161.586)" fill="none"/>
    </clipPath>
    <clipPath id="clip-path-10">
      <rect id="Rectángulo_44284" data-name="Rectángulo 44284" width="9.192" height="42.888" transform="translate(287.842 156.748)" fill="none"/>
    </clipPath>
    <clipPath id="clip-path-11">
      <rect id="Rectángulo_44286" data-name="Rectángulo 44286" width="9.192" height="44.575" transform="translate(249.146 155.061)" fill="none"/>
    </clipPath>
    <clipPath id="clip-path-12">
      <rect id="Rectángulo_44288" data-name="Rectángulo 44288" width="9.192" height="31.359" transform="translate(236.309 168.277)" fill="none"/>
    </clipPath>
    <clipPath id="clip-path-13">
      <rect id="Rectángulo_44290" data-name="Rectángulo 44290" width="124.296" height="15.953" transform="translate(96.877 120.511)" fill="none"/>
    </clipPath>
    <clipPath id="clip-path-14">
      <rect id="Rectángulo_44292" data-name="Rectángulo 44292" width="80.001" height="4.089" transform="translate(141.172 140.995)" fill="none"/>
    </clipPath>
    <clipPath id="clip-path-15">
      <rect id="Rectángulo_44295" data-name="Rectángulo 44295" width="80.001" height="4.089" transform="translate(141.172 149.615)" fill="none"/>
    </clipPath>
    <clipPath id="clip-path-16">
      <rect id="Rectángulo_44297" data-name="Rectángulo 44297" width="80.001" height="4.089" transform="translate(141.172 175.474)" fill="none"/>
    </clipPath>
    <clipPath id="clip-path-17">
      <rect id="Rectángulo_44299" data-name="Rectángulo 44299" width="80.001" height="4.089" transform="translate(141.172 184.094)" fill="none"/>
    </clipPath>
    <clipPath id="clip-path-18">
      <rect id="Rectángulo_44315" data-name="Rectángulo 44315" width="25.677" height="32.255" transform="translate(42.885 224.726)" fill="none"/>
    </clipPath>
    <clipPath id="clip-path-19">
      <rect id="Rectángulo_44316" data-name="Rectángulo 44316" width="20.653" height="26.957" transform="translate(42.895 229.739)" fill="none"/>
    </clipPath>
    <clipPath id="clip-path-20">
      <rect id="Rectángulo_44319" data-name="Rectángulo 44319" width="19.39" height="19.389" transform="translate(237.683 104.969)" fill="none"/>
    </clipPath>
    <clipPath id="clip-path-21">
      <rect id="Rectángulo_44321" data-name="Rectángulo 44321" width="37.826" height="2.634" transform="translate(260.503 104.969)" fill="none"/>
    </clipPath>
    <clipPath id="clip-path-22">
      <rect id="Rectángulo_44323" data-name="Rectángulo 44323" width="25.528" height="2.634" transform="translate(260.503 110.554)" fill="none"/>
    </clipPath>
    <clipPath id="clip-path-23">
      <rect id="Rectángulo_44325" data-name="Rectángulo 44325" width="33.978" height="2.634" transform="translate(260.503 116.139)" fill="none"/>
    </clipPath>
    <clipPath id="clip-path-24">
      <rect id="Rectángulo_44326" data-name="Rectángulo 44326" width="54.943" height="54.935" transform="translate(244.512 121.84)" fill="none"/>
    </clipPath>
    <clipPath id="clip-path-25">
      <rect id="Rectángulo_44327" data-name="Rectángulo 44327" width="47.138" height="47.649" transform="translate(244.59 129.154)" fill="none"/>
    </clipPath>
    <clipPath id="clip-path-26">
      <rect id="Rectángulo_44328" data-name="Rectángulo 44328" width="40.701" height="41.2" transform="translate(258.516 121.809)" fill="none"/>
    </clipPath>
  </defs>
  <g id="Grupo_143203" data-name="Grupo 143203" transform="translate(-968 -6541.668)">
    <g id="Grupo_141851" data-name="Grupo 141851" transform="translate(0 541.338)">
      <rect id="Rectángulo_44004" data-name="Rectángulo 44004" width="166" height="332" transform="translate(1206 6000.33)" fill="#4dd0e1"/>
      <g id="Grupo_141850" data-name="Grupo 141850" transform="translate(968 6024)">
        <g id="Grupo_141849" data-name="Grupo 141849" clip-path="url(#clip-path)">
          <rect id="Rectángulo_44263" data-name="Rectángulo 44263" width="380" height="284" fill="#fff"/>
          <g id="Grupo_141848" data-name="Grupo 141848">
            <g id="Grupo_141847" data-name="Grupo 141847" clip-path="url(#clip-path)">
              <path id="Trazado_195789" data-name="Trazado 195789" d="M275.232,73.669a37.938,37.938,0,1,0,46.113-27.425,37.981,37.981,0,0,0-46.113,27.425m9.37,1.1h0a28.612,28.612,0,1,1,19.154,35.643A28.613,28.613,0,0,1,284.6,74.768" fill="#feca2e"/>
              <path id="Trazado_195790" data-name="Trazado 195790" d="M248.943,73.728c.179.906,1,1.222,3.023,2.025,3.62,1.436,7.242,2.872,10.808,4.433a2.514,2.514,0,0,1,1.192,1.758c.413,3.79.6,7.606,1.047,11.39a2.067,2.067,0,0,1-1.029,2.458c-4.212,2.647-8.351,5.412-12.471,8.1,1.03,4.418,6.219,14.349,8.993,17.126,4.37-1.839,8.862-3.65,13.277-5.634a2.4,2.4,0,0,1,3.222.6,99.62,99.62,0,0,0,8.48,7.078c1.185.9,1.816,1.613,1.432,3.243-.995,4.223-1.734,8.506-2.658,12.748-.249,1.14-.032,1.853,1.093,2.2q7.944,2.459,15.888,4.909c1.3.4,1.5-.668,1.828-1.435,1.645-3.88,3.312-7.753,4.825-11.684a2.725,2.725,0,0,1,2.934-2.012c4.244-.133,8.479-.543,13.044-.866l8.744,13.277a56.821,56.821,0,0,0,16.937-9.12c-2.078-4.992-4.156-9.986-5.988-14.386,3.142-3.981,6.134-7.6,8.906-11.386a2.142,2.142,0,0,1,2.634-1.011c4.179.918,8.385,1.705,12.57,2.594.9.192,1.568.227,2.032-.761A54.34,54.34,0,0,0,374.7,93.747a1.708,1.708,0,0,0-1.282-2.13c-4.071-1.681-8.109-3.441-12.187-5.1a1.986,1.986,0,0,1-1.491-2.028c-.311-4.179-.8-8.351-1.4-12.5a1.687,1.687,0,0,1,.93-1.964c4.156-2.738,8.293-5.506,12.543-8.334a60.98,60.98,0,0,0-8.846-16.84l-14.993,6.239L335.718,40.92c.748-3.737,1.642-8.035,2.464-12.348.674-3.539,1.181-3.073-2.375-4.566a5.963,5.963,0,0,1-.938-.616l-9.541-2.871a11.784,11.784,0,0,1-2.223-.275c-1.82-.577-2.846-.163-3.571,1.787-1.512,4.063-3.278,8.034-5.036,12a2.3,2.3,0,0,1-1.557,1.133c-3.721.471-7.493.621-11.176,1.284-1.8.325-2.559-.168-3.448-1.572-2.522-3.984-5.207-7.864-8.091-12.179l-16.9,8.872c.443,1.121.687,1.771.953,2.411,1.644,3.948,3.252,7.912,4.966,11.829a2.15,2.15,0,0,1-.522,2.643c-2.617,3.109-5.034,6.387-7.63,9.515a2.542,2.542,0,0,1-2.028.716c-3.456-.6-6.879-1.392-10.324-2.061-2.787-.542-3.824-.733-4.706.177Zm24.986-.39a39.283,39.283,0,1,1,4.31,29.754,39.024,39.024,0,0,1-4.31-29.754" fill="#feca2e"/>
              <path id="Trazado_195791" data-name="Trazado 195791" d="M34.606,126.227c.585.456,1.249.217,2.9-.36,2.953-1.031,5.907-2.062,8.894-2.989a2.022,2.022,0,0,1,1.648.44c2.242,2.085,4.359,4.305,6.622,6.366a1.66,1.66,0,0,1,.668,2.034c-1.166,3.822-2.226,7.676-3.313,11.477,2.949,2.141,11.32,5.443,14.464,5.671,1.687-3.413,3.463-6.875,5.1-10.4a1.924,1.924,0,0,1,2.269-1.332,80.065,80.065,0,0,0,8.87-.16c1.2-.074,1.952.025,2.575,1.216,1.616,3.088,3.419,6.077,5.087,9.139.449.823.955,1.141,1.822.761q6.116-2.682,12.228-5.371c1-.44.561-1.2.355-1.832-1.04-3.221-2.064-6.449-3.212-9.632a2.189,2.189,0,0,1,.724-2.764c2.507-2.312,4.863-4.787,7.465-7.382l12.29,3.465a45.637,45.637,0,0,0,5.49-14.442l-11.2-5.588c-.184-4.069-.272-7.841-.578-11.6a1.721,1.721,0,0,1,1.069-2c3.019-1.639,5.988-3.372,9-5.033.651-.358,1.072-.686.834-1.53a43.669,43.669,0,0,0-5.182-12.114,1.374,1.374,0,0,0-1.9-.619c-3.356,1.119-6.733,2.174-10.084,3.307a1.594,1.594,0,0,1-1.971-.448c-2.386-2.374-4.878-4.648-7.422-6.854a1.353,1.353,0,0,1-.467-1.681c1.084-3.848,2.141-7.7,3.234-11.655A48.936,48.936,0,0,0,88.66,48.747L82.837,60.418l-12.786.27c-1.51-2.663-3.227-5.743-5-8.793-1.451-2.5-.9-2.488-3.842-1.525a4.776,4.776,0,0,1-.894.119l-7.3,3.273a9.5,9.5,0,0,1-1.494,1c-1.409.607-1.814,1.4-1.229,2.963,1.218,3.261,2.232,6.6,3.25,9.934a1.853,1.853,0,0,1-.349,1.506c-2.013,2.242-4.225,4.316-6.112,6.655a2.262,2.262,0,0,1-2.92.858c-3.626-1.094-7.3-2.038-11.316-3.142l-5.6,14.27c.858.448,1.348.715,1.846.963,3.074,1.533,6.134,3.1,9.234,4.572a1.727,1.727,0,0,1,1.072,1.88c.046,3.264.3,6.524.369,9.788a2.042,2.042,0,0,1-.855,1.5c-2.415,1.452-4.909,2.77-7.352,4.175-1.977,1.136-2.708,1.565-2.765,2.582Zm14.967-13.372a31.551,31.551,0,1,1,18.259,15.8,31.341,31.341,0,0,1-18.259-15.8" fill="#4dd0e1"/>
              <path id="Trazado_195792" data-name="Trazado 195792" d="M71.138,39.824l1.2-2.2-1.129-2.24a.345.345,0,0,1,.37-.495l2.46.464,1.776-1.769a.344.344,0,0,1,.584.2l.32,2.49,2.226,1.147a.345.345,0,0,1-.009.618l-2.262,1.075-.4,2.478a.344.344,0,0,1-.59.182l-1.718-1.825-2.473.384a.345.345,0,0,1-.355-.506" fill="#f7cc7f"/>
              <path id="Trazado_195793" data-name="Trazado 195793" d="M202.086,50.264l1.025-1.664-.823-.334a.352.352,0,1,1,.264-.652L203.5,48l.916-1.494-.878-.357a.352.352,0,0,1,.264-.652l1.005.408,1.064-1.712a.352.352,0,0,1,.431-.14l.153.062a.352.352,0,0,1,.168.51l-.989,1.615,1.456.591,1.064-1.712a.353.353,0,0,1,.431-.14l.168.068a.353.353,0,0,1,.168.51l-.99,1.615.823.333a.352.352,0,0,1-.265.653l-.948-.385-.9,1.5.878.356a.352.352,0,1,1-.264.652l-1.005-.407-1.087,1.765a.35.35,0,0,1-.431.141l-.18-.072a.353.353,0,0,1-.167-.511l1.024-1.664-1.457-.591-1.086,1.765a.353.353,0,0,1-.432.142l-.179-.073a.352.352,0,0,1-.168-.511m3.713-1.333.916-1.494-1.457-.591-.916,1.494Z" fill="#07345a"/>
              <path id="Trazado_195794" data-name="Trazado 195794" d="M195.512,79.237l-1.387,7.373c.116.374.476.471,1.366.718,1.592.443,3.185.886,4.76,1.384a1.069,1.069,0,0,1,.583.688c.344,1.581.593,3.183.954,4.759a.877.877,0,0,1-.323,1.084c-1.659,1.307-3.28,2.66-4.9,3.981a23.129,23.129,0,0,0,4.566,6.821c1.761-.972,3.575-1.939,5.349-2.975a1.017,1.017,0,0,1,1.386.107,42.342,42.342,0,0,0,3.9,2.6c.541.329.839.6.75,1.3-.229,1.827-.348,3.668-.547,5.5-.054.492.07.784.56.88l6.926,1.356c.567.111.6-.35.706-.688.519-1.711,1.049-3.42,1.51-5.147a1.158,1.158,0,0,1,1.148-.982c1.784-.247,3.553-.611,5.464-.952l4.288,5.208a24.077,24.077,0,0,0,6.736-4.611l-3.174-5.8c1.146-1.821,2.246-3.484,3.245-5.205a.909.909,0,0,1,1.066-.545c1.8.2,3.615.342,5.421.529.39.04.672.025.823-.413a23.039,23.039,0,0,0,1.4-6.819.725.725,0,0,0-.637-.841c-1.793-.526-3.576-1.086-5.372-1.605a.842.842,0,0,1-.72-.788c-.32-1.75-.715-3.488-1.154-5.212a.716.716,0,0,1,.3-.871c1.63-1.342,3.251-2.7,4.917-4.081a25.846,25.846,0,0,0-4.491-6.708L234.892,72.6l-5.629-3.737c.147-1.611.331-3.465.483-5.321.125-1.524.361-1.351-1.207-1.82a2.539,2.539,0,0,1-.424-.218l-4.155-.782a5.01,5.01,0,0,1-.95-.016c-.794-.161-1.208.059-1.427.915-.454,1.782-1.021,3.537-1.584,5.29a.982.982,0,0,1-.606.549c-1.549.366-3.134.6-4.658,1.044a1.194,1.194,0,0,1-1.526-.508c-1.243-1.567-2.551-3.083-3.962-4.774l-6.731,4.5c.237.453.369.717.511.975.871,1.592,1.728,3.192,2.628,4.767a.913.913,0,0,1-.1,1.139c-.964,1.43-1.836,2.922-2.79,4.359a1.081,1.081,0,0,1-.824.393c-1.486-.1-2.965-.277-4.449-.405-1.2-.1-1.647-.137-1.978.287m13.706,6.206a12.142,12.142,0,0,1,23.865,4.49h0a12.142,12.142,0,1,1-23.865-4.491Z" fill="#3da6b4"/>
              <path id="Trazado_195795" data-name="Trazado 195795" d="M147.306,38.82l4.365.527-1.863-3.389Z" fill="#355389"/>
              <path id="Trazado_195796" data-name="Trazado 195796" d="M163.34,76.445a3.05,3.05,0,0,0,2.538,3.069,2.992,2.992,0,0,0,3.257-2.037c.988-2.647-1.909-4.736-3.48-3.134-1.467,1.5-1,3.718.58,3.719.6,0,1.559-.5,1.178-1.225a.242.242,0,0,0-.415,0c-.192.327-.177.339-.268.412a.809.809,0,0,1-.518.15c-1.612-.028-.54-3.717,1.36-2.823a2.126,2.126,0,0,1,.989,2.713,2.429,2.429,0,0,1-2.366,1.7,2.78,2.78,0,0,1-2.46-2.545.2.2,0,0,0-.4,0" fill="#3da6b4"/>
              <path id="Trazado_195797" data-name="Trazado 195797" d="M243.08,21.809l1.3.56s2.179-.486,2.423-.895.386-1.444.69-1.445a.931.931,0,0,1,.963.875c.06.526-.824,1.949-.717,2.119a7.547,7.547,0,0,0,1.353.691,1.056,1.056,0,0,1,.625.9h0a.562.562,0,0,1-.408.578l-.4.112.091.406a.562.562,0,0,1-.42.672l-.306.072.076.248a.561.561,0,0,1-.431.718l-.266.051.005.07a.562.562,0,0,1-.469.6l-.264.044-3.476-1.493a2.6,2.6,0,0,1-.863-.6l-1.136-.728a.294.294,0,0,1-.11-.367l1.35-3.031a.292.292,0,0,1,.382-.15" fill="#4dd0e1"/>
              <path id="Trazado_195798" data-name="Trazado 195798" d="M206.393,84H182.8a4.371,4.371,0,0,0-4.371,4.371V96.1a4.371,4.371,0,0,0,4.371,4.371h23.589a4.371,4.371,0,0,0,4.371-4.371V88.372A4.371,4.371,0,0,0,206.393,84" fill="#abb3cd"/>
              <path id="Trazado_195799" data-name="Trazado 195799" d="M175.144,246.365,150.16,257.881v2.55h88.975v-2.55l-25.209-11.516Z" fill="#718493"/>
              <rect id="Rectángulo_44264" data-name="Rectángulo 44264" width="38.798" height="49.379" transform="translate(175.144 197.007)" fill="#718493"/>
              <path id="Trazado_195800" data-name="Trazado 195800" d="M311.945,212.5V101.148a9.58,9.58,0,0,0-9.58-9.58H86.469a9.58,9.58,0,0,0-9.579,9.58V212.5Z" fill="#718493"/>
              <rect id="Rectángulo_44265" data-name="Rectángulo 44265" width="88.975" height="2.551" transform="translate(150.161 257.88)" fill="#091743"/>
              <rect id="Rectángulo_44266" data-name="Rectángulo 44266" width="38.782" height="5.794" transform="translate(175.144 240.57)" fill="#091743"/>
              <path id="Trazado_195801" data-name="Trazado 195801" d="M76.89,212.5V230.34c0,3.712,2.453,6.721,5.48,6.721h224.1c3.026,0,5.479-3.009,5.479-6.721V212.5Z" fill="#abb3cd"/>
              <path id="Trazado_195802" data-name="Trazado 195802" d="M196.97,88.376a2.183,2.183,0,1,1-2.182-2.182,2.182,2.182,0,0,1,2.182,2.182" fill="#091743"/>
              <path id="Trazado_195803" data-name="Trazado 195803" d="M306.443,207.661V101.445a5.135,5.135,0,0,0-5.224-5.041H87.615a5.134,5.134,0,0,0-5.223,5.041V207.661Z" fill="#cce6ff"/>
              <rect id="Rectángulo_44267" data-name="Rectángulo 44267" width="134.665" height="93.966" transform="translate(92.231 104.979)" fill="#e9ffff"/>
              <rect id="Rectángulo_44268" data-name="Rectángulo 44268" width="134.665" height="11.002" transform="translate(92.231 104.978)" fill="#abb3cd"/>
              <g id="Grupo_141777" data-name="Grupo 141777" opacity="0.6">
                <g id="Grupo_141776" data-name="Grupo 141776">
                  <g id="Grupo_141775" data-name="Grupo 141775" clip-path="url(#clip-path-3)">
                    <rect id="Rectángulo_44269" data-name="Rectángulo 44269" width="9.192" height="71.149" transform="translate(274.82 128.487)" fill="#9bc1f9"/>
                  </g>
                </g>
              </g>
              <g id="Grupo_141780" data-name="Grupo 141780" opacity="0.6">
                <g id="Grupo_141779" data-name="Grupo 141779">
                  <g id="Grupo_141778" data-name="Grupo 141778" clip-path="url(#clip-path-4)">
                    <rect id="Rectángulo_44271" data-name="Rectángulo 44271" width="9.192" height="49.447" transform="translate(261.983 150.189)" fill="#9bc1f9"/>
                  </g>
                </g>
              </g>
              <g id="Grupo_141783" data-name="Grupo 141783" opacity="0.6">
                <g id="Grupo_141782" data-name="Grupo 141782">
                  <g id="Grupo_141781" data-name="Grupo 141781" clip-path="url(#clip-path-5)">
                    <rect id="Rectángulo_44273" data-name="Rectángulo 44273" width="9.192" height="55.734" transform="translate(287.842 143.902)" fill="#9bc1f9"/>
                  </g>
                </g>
              </g>
              <g id="Grupo_141786" data-name="Grupo 141786" opacity="0.6">
                <g id="Grupo_141785" data-name="Grupo 141785">
                  <g id="Grupo_141784" data-name="Grupo 141784" clip-path="url(#clip-path-6)">
                    <rect id="Rectángulo_44275" data-name="Rectángulo 44275" width="9.192" height="57.926" transform="translate(249.146 141.71)" fill="#9bc1f9"/>
                  </g>
                </g>
              </g>
              <g id="Grupo_141789" data-name="Grupo 141789" opacity="0.6">
                <g id="Grupo_141788" data-name="Grupo 141788">
                  <g id="Grupo_141787" data-name="Grupo 141787" clip-path="url(#clip-path-7)">
                    <rect id="Rectángulo_44277" data-name="Rectángulo 44277" width="9.192" height="40.751" transform="translate(236.309 158.885)" fill="#9bc1f9"/>
                  </g>
                </g>
              </g>
              <g id="Grupo_141792" data-name="Grupo 141792" opacity="0.3" style="mix-blend-mode: multiply;isolation: isolate">
                <g id="Grupo_141791" data-name="Grupo 141791">
                  <g id="Grupo_141790" data-name="Grupo 141790" clip-path="url(#clip-path-8)">
                    <rect id="Rectángulo_44279" data-name="Rectángulo 44279" width="9.192" height="54.751" transform="translate(274.82 144.885)" fill="#9bc1f9"/>
                  </g>
                </g>
              </g>
              <g id="Grupo_141795" data-name="Grupo 141795" opacity="0.3" style="mix-blend-mode: multiply;isolation: isolate">
                <g id="Grupo_141794" data-name="Grupo 141794">
                  <g id="Grupo_141793" data-name="Grupo 141793" clip-path="url(#clip-path-9)">
                    <rect id="Rectángulo_44281" data-name="Rectángulo 44281" width="9.192" height="38.051" transform="translate(261.983 161.585)" fill="#9bc1f9"/>
                  </g>
                </g>
              </g>
              <g id="Grupo_141798" data-name="Grupo 141798" opacity="0.3" style="mix-blend-mode: multiply;isolation: isolate">
                <g id="Grupo_141797" data-name="Grupo 141797">
                  <g id="Grupo_141796" data-name="Grupo 141796" clip-path="url(#clip-path-10)">
                    <rect id="Rectángulo_44283" data-name="Rectángulo 44283" width="9.192" height="42.889" transform="translate(287.842 156.747)" fill="#9bc1f9"/>
                  </g>
                </g>
              </g>
              <g id="Grupo_141801" data-name="Grupo 141801" opacity="0.3" style="mix-blend-mode: multiply;isolation: isolate">
                <g id="Grupo_141800" data-name="Grupo 141800">
                  <g id="Grupo_141799" data-name="Grupo 141799" clip-path="url(#clip-path-11)">
                    <rect id="Rectángulo_44285" data-name="Rectángulo 44285" width="9.192" height="44.576" transform="translate(249.146 155.06)" fill="#9bc1f9"/>
                  </g>
                </g>
              </g>
              <g id="Grupo_141804" data-name="Grupo 141804" opacity="0.3" style="mix-blend-mode: multiply;isolation: isolate">
                <g id="Grupo_141803" data-name="Grupo 141803">
                  <g id="Grupo_141802" data-name="Grupo 141802" clip-path="url(#clip-path-12)">
                    <rect id="Rectángulo_44287" data-name="Rectángulo 44287" width="9.192" height="31.359" transform="translate(236.309 168.277)" fill="#9bc1f9"/>
                  </g>
                </g>
              </g>
              <g id="Grupo_141807" data-name="Grupo 141807" opacity="0.6">
                <g id="Grupo_141806" data-name="Grupo 141806">
                  <g id="Grupo_141805" data-name="Grupo 141805" clip-path="url(#clip-path-13)">
                    <rect id="Rectángulo_44289" data-name="Rectángulo 44289" width="124.296" height="15.954" transform="translate(96.877 120.51)" fill="#9bc1f9"/>
                  </g>
                </g>
              </g>
              <g id="Grupo_141810" data-name="Grupo 141810" opacity="0.6">
                <g id="Grupo_141809" data-name="Grupo 141809">
                  <g id="Grupo_141808" data-name="Grupo 141808" clip-path="url(#clip-path-14)">
                    <rect id="Rectángulo_44291" data-name="Rectángulo 44291" width="80.002" height="4.089" transform="translate(141.171 140.995)" fill="#9bc1f9"/>
                  </g>
                </g>
              </g>
              <rect id="Rectángulo_44293" data-name="Rectángulo 44293" width="39.356" height="47.188" transform="translate(96.878 140.995)" fill="#abb3cd"/>
              <g id="Grupo_141813" data-name="Grupo 141813" opacity="0.6">
                <g id="Grupo_141812" data-name="Grupo 141812">
                  <g id="Grupo_141811" data-name="Grupo 141811" clip-path="url(#clip-path-15)">
                    <rect id="Rectángulo_44294" data-name="Rectángulo 44294" width="80.002" height="4.089" transform="translate(141.171 149.615)" fill="#9bc1f9"/>
                  </g>
                </g>
              </g>
              <g id="Grupo_141816" data-name="Grupo 141816" opacity="0.6">
                <g id="Grupo_141815" data-name="Grupo 141815">
                  <g id="Grupo_141814" data-name="Grupo 141814" clip-path="url(#clip-path-16)">
                    <rect id="Rectángulo_44296" data-name="Rectángulo 44296" width="80.002" height="4.089" transform="translate(141.171 175.474)" fill="#9bc1f9"/>
                  </g>
                </g>
              </g>
              <g id="Grupo_141819" data-name="Grupo 141819" opacity="0.6">
                <g id="Grupo_141818" data-name="Grupo 141818">
                  <g id="Grupo_141817" data-name="Grupo 141817" clip-path="url(#clip-path-17)">
                    <rect id="Rectángulo_44298" data-name="Rectángulo 44298" width="80.002" height="4.089" transform="translate(141.171 184.094)" fill="#9bc1f9"/>
                  </g>
                </g>
              </g>
              <path id="Trazado_195804" data-name="Trazado 195804" d="M40.693,157.916l74.721-.135a2.033,2.033,0,0,1,2.036,2.029l.177,98.459A2.032,2.032,0,0,1,115.6,260.3l-74.721.134a2.032,2.032,0,0,1-2.036-2.028l-.177-98.459a2.032,2.032,0,0,1,2.028-2.036" fill="#feca2e"/>
              <rect id="Rectángulo_44300" data-name="Rectángulo 44300" width="70.583" height="96.236" transform="translate(42.767 160.773) rotate(-0.103)" fill="#fff"/>
              <path id="Trazado_195805" data-name="Trazado 195805" d="M93.353,156.462a.783.783,0,0,0-.785-.782l-29.637.053a.784.784,0,0,0-.782.785l.006,3.08,31.2-.056Z" fill="#13375b"/>
              <path id="Trazado_195806" data-name="Trazado 195806" d="M77.743,151.962a4.674,4.674,0,1,0,4.683,4.665,4.673,4.673,0,0,0-4.683-4.665m.014,7.671a3,3,0,1,1,2.992-3,3,3,0,0,1-2.992,3" fill="#13375b"/>
              <path id="Trazado_195807" data-name="Trazado 195807" d="M92.873,155.741a.786.786,0,0,1,.48.721l.006,3.081-31.2.056a3.863,3.863,0,0,0,3.871,3.857l23.475-.042a3.865,3.865,0,0,0,3.858-3.871l-.006-3.081a.786.786,0,0,0-.48-.721" fill="#355389"/>
              <path id="Trazado_195808" data-name="Trazado 195808" d="M62.932,155.733h0a.782.782,0,0,0-.649.347.782.782,0,0,1,.649-.347" fill="#9bc1f9"/>
              <path id="Trazado_195809" data-name="Trazado 195809" d="M62.184,156.285a.793.793,0,0,1,.059-.141.793.793,0,0,0-.059.141" fill="#9bc1f9"/>
              <path id="Trazado_195810" data-name="Trazado 195810" d="M105.256,189.036l-10.033.018-.018-10.034L105.238,179Zm-9.624-.393,9.214-.017-.017-9.213-9.214.016Z" fill="#091743"/>
              <path id="Trazado_195811" data-name="Trazado 195811" d="M105.286,205.731l-10.033.018-.018-10.034,10.033-.018Zm-9.624-.393,9.214-.017-.017-9.213-9.214.016Z" fill="#091743"/>
              <path id="Trazado_195812" data-name="Trazado 195812" d="M105.316,222.427l-10.033.018-.018-10.034,10.033-.018Zm-9.624-.393,9.214-.017-.017-9.213-9.214.016Z" fill="#091743"/>
              <path id="Trazado_195813" data-name="Trazado 195813" d="M105.346,239.122l-10.033.018-.018-10.034,10.033-.018Zm-9.624-.393,9.214-.017-.017-9.213-9.214.016Z" fill="#091743"/>
              <rect id="Rectángulo_44301" data-name="Rectángulo 44301" width="42.942" height="1.444" transform="matrix(1, -0.002, 0.002, 1, 48.06, 179.309)" fill="#9bc1f9"/>
              <rect id="Rectángulo_44302" data-name="Rectángulo 44302" width="42.942" height="1.444" transform="matrix(1, -0.002, 0.002, 1, 48.067, 183.399)" fill="#9bc1f9"/>
              <rect id="Rectángulo_44303" data-name="Rectángulo 44303" width="42.942" height="1.444" transform="translate(48.074 187.489) rotate(-0.103)" fill="#9bc1f9"/>
              <rect id="Rectángulo_44304" data-name="Rectángulo 44304" width="42.942" height="1.444" transform="matrix(1, -0.002, 0.002, 1, 48.091, 196.576)" fill="#9bc1f9"/>
              <rect id="Rectángulo_44305" data-name="Rectángulo 44305" width="42.942" height="1.444" transform="matrix(1, -0.002, 0.002, 1, 48.098, 200.665)" fill="#9bc1f9"/>
              <rect id="Rectángulo_44306" data-name="Rectángulo 44306" width="42.942" height="1.444" transform="matrix(1, -0.002, 0.002, 1, 48.105, 204.755)" fill="#9bc1f9"/>
              <rect id="Rectángulo_44307" data-name="Rectángulo 44307" width="42.942" height="1.444" transform="translate(48.12 212.935) rotate(-0.103)" fill="#9bc1f9"/>
              <rect id="Rectángulo_44308" data-name="Rectángulo 44308" width="42.942" height="1.444" transform="translate(48.128 217.024) rotate(-0.103)" fill="#9bc1f9"/>
              <rect id="Rectángulo_44309" data-name="Rectángulo 44309" width="42.942" height="1.444" transform="translate(48.135 221.114) rotate(-0.103)" fill="#9bc1f9"/>
              <rect id="Rectángulo_44310" data-name="Rectángulo 44310" width="42.942" height="1.444" transform="translate(48.15 229.294) rotate(-0.103)" fill="#9bc1f9"/>
              <rect id="Rectángulo_44311" data-name="Rectángulo 44311" width="42.942" height="1.444" transform="translate(48.157 233.383) rotate(-0.103)" fill="#9bc1f9"/>
              <rect id="Rectángulo_44312" data-name="Rectángulo 44312" width="42.942" height="1.444" transform="translate(48.164 237.473) rotate(-0.103)" fill="#9bc1f9"/>
              <rect id="Rectángulo_44313" data-name="Rectángulo 44313" width="49.54" height="1.444" transform="matrix(1, -0.002, 0.002, 1, 48.183, 248.047)" fill="#9bc1f9"/>
              <rect id="Rectángulo_44314" data-name="Rectángulo 44314" width="59.31" height="1.444" transform="translate(48.19 251.546) rotate(-0.103)" fill="#9bc1f9"/>
              <path id="Trazado_195814" data-name="Trazado 195814" d="M100.19,187.4l-3.116-5.346,1.115-.65L100,184.5l2.952-7.083,1.192.5Z" fill="#3da6b4"/>
              <path id="Trazado_195815" data-name="Trazado 195815" d="M100.22,204.31,97.1,198.964l1.115-.65,1.809,3.1,2.952-7.083,1.192.5Z" fill="#3da6b4"/>
              <path id="Trazado_195816" data-name="Trazado 195816" d="M100.28,237.379l-3.116-5.346,1.115-.65,1.809,3.1,2.952-7.083,1.192.5Z" fill="#3da6b4"/>
              <path id="Trazado_195817" data-name="Trazado 195817" d="M103.752,214.888l-.9-.907-2.563,2.541-2.573-2.532-.9.91,2.562,2.521L96.83,219.95l.9.907,2.564-2.541,2.573,2.532.895-.91-2.561-2.521Z" fill="#3da6b4"/>
              <g id="Grupo_141822" data-name="Grupo 141822" opacity="0.3" style="mix-blend-mode: multiply;isolation: isolate">
                <g id="Grupo_141821" data-name="Grupo 141821">
                  <g id="Grupo_141820" data-name="Grupo 141820" clip-path="url(#clip-path-18)">
                    <path id="Trazado_195818" data-name="Trazado 195818" d="M50.037,224.726a18.465,18.465,0,0,0-7.152,1.443l0,2.352A16.356,16.356,0,0,1,58.9,256.981l3.522-.007q.38-.34.743-.7a18.492,18.492,0,0,0-13.132-31.543" fill="#9bc1f9"/>
                  </g>
                </g>
              </g>
              <g id="Grupo_141825" data-name="Grupo 141825" opacity="0.3" style="mix-blend-mode: multiply;isolation: isolate">
                <g id="Grupo_141824" data-name="Grupo 141824">
                  <g id="Grupo_141823" data-name="Grupo 141823" clip-path="url(#clip-path-19)">
                    <path id="Trazado_195819" data-name="Trazado 195819" d="M50.046,229.739a13.4,13.4,0,0,0-7.151,2.074l0,1.28a12.412,12.412,0,1,1,.037,20.274l0,1.281a13.477,13.477,0,1,0,7.11-24.909" fill="#9bc1f9"/>
                  </g>
                </g>
              </g>
              <path id="Trazado_195820" data-name="Trazado 195820" d="M63.068,174.579v-4.808H61.152v-.42h4.436v.42H63.672v4.808Z" fill="#091743"/>
              <path id="Trazado_195821" data-name="Trazado 195821" d="M70.483,174.158v.421H66.638V169.35h3.709v.421h-3.11V171.6h2.252v.421H67.237v2.135Z" fill="#091743"/>
              <path id="Trazado_195822" data-name="Trazado 195822" d="M71.1,173.327l.521-.173a1.93,1.93,0,0,0,.671.825,1.8,1.8,0,0,0,1,.267,1.613,1.613,0,0,0,.987-.279.875.875,0,0,0,.374-.735.8.8,0,0,0-.245-.6,2.254,2.254,0,0,0-.832-.429c-.212-.069-.495-.151-.846-.248a5.248,5.248,0,0,1-.676-.215,1.834,1.834,0,0,1-.665-.467.953.953,0,0,1-.2-.611,1.212,1.212,0,0,1,.495-1.024,2.215,2.215,0,0,1,1.36-.373,2.4,2.4,0,0,1,1.271.306,1.916,1.916,0,0,1,.763.939l-.507.13a1.709,1.709,0,0,0-.619-.721,1.754,1.754,0,0,0-.934-.233,1.419,1.419,0,0,0-.873.251.781.781,0,0,0-.335.654.684.684,0,0,0,.217.512,1.583,1.583,0,0,0,.672.34q.174.053.507.145a6.964,6.964,0,0,1,1.229.413,1.817,1.817,0,0,1,.641.511,1.094,1.094,0,0,1,.2.656,1.3,1.3,0,0,1-.536,1.092,2.342,2.342,0,0,1-1.45.407,2.566,2.566,0,0,1-1.354-.325,2.205,2.205,0,0,1-.842-1.015" fill="#091743"/>
              <path id="Trazado_195823" data-name="Trazado 195823" d="M77.759,174.579v-4.808H75.843v-.42h4.436v.42H78.363v4.808Z" fill="#091743"/>
              <rect id="Rectángulo_44317" data-name="Rectángulo 44317" width="0.599" height="5.228" transform="translate(81.425 169.35)" fill="#091743"/>
              <path id="Trazado_195824" data-name="Trazado 195824" d="M84.435,169.729v4.85h-.582V169.35h.976l3.1,4.412V169.35h.582v5.228h-.638Z" fill="#091743"/>
              <path id="Trazado_195825" data-name="Trazado 195825" d="M94,173.992a2.045,2.045,0,0,1-.766.518,2.836,2.836,0,0,1-1.028.171,2.349,2.349,0,0,1-1.833-.694,3.5,3.5,0,0,1,.013-4.027,2.726,2.726,0,0,1,3.211-.334,2.189,2.189,0,0,1,.77,1.181l-.564.1a1.883,1.883,0,0,0-.6-.934,1.6,1.6,0,0,0-1-.3,1.645,1.645,0,0,0-1.352.585,2.562,2.562,0,0,0-.477,1.659,2.713,2.713,0,0,0,.483,1.75,1.75,1.75,0,0,0,1.437.591,1.855,1.855,0,0,0,1.155-.334,1.056,1.056,0,0,0,.438-.882v-.559h-1.61v-.392h2.257v2.492H94Z" fill="#091743"/>
              <path id="Trazado_195826" data-name="Trazado 195826" d="M169.962,45.1,168.6,50.408l4.169-2.341,12.452-4.592-9.176-.255s-4.759.571-5.036.767a11.413,11.413,0,0,0-1.047,1.109" fill="#50bfa5"/>
              <path id="Trazado_195827" data-name="Trazado 195827" d="M166.333,41.356l18.889,2.119L169.963,45.1Z" fill="#96d9c9"/>
              <path id="Trazado_195828" data-name="Trazado 195828" d="M175.38,51.252l-4.47-4.563,14.312-3.214Z" fill="#96d9c9"/>
              <path id="Trazado_195829" data-name="Trazado 195829" d="M141.339,61.353a11.939,11.939,0,0,1,.4-1.26c.144-.381.31-.762.493-1.133l.4.2c-.176.357-.336.724-.475,1.092a11.834,11.834,0,0,0-.384,1.213c-.03.12-.059.24-.086.361l-.437-.1c.029-.127.059-.253.09-.374m2.464-4.865a17.059,17.059,0,0,1,2.009-2.124l.3.333a16.525,16.525,0,0,0-1.956,2.069Zm14.2.8-.071-.059.291-.34.058.048a.178.178,0,0,0,.043.02,2.067,2.067,0,0,0,1.253-.006,1.894,1.894,0,0,0,.816-.729l.376.243a2.365,2.365,0,0,1-1.01.9,2.49,2.49,0,0,1-1.593.016.573.573,0,0,1-.163-.088m-9.877-4.7a23.27,23.27,0,0,1,2.527-1.455l.2.4a23.072,23.072,0,0,0-2.479,1.427Zm8.516,1.024a5.44,5.44,0,0,1,.318-1.285,6.521,6.521,0,0,1,.308-.689l.4.206a5.921,5.921,0,0,0-.287.641,4.96,4.96,0,0,0-.292,1.179,4.143,4.143,0,0,0-.012.841l-.446.039a4.606,4.606,0,0,1,.013-.932m2.406-2.008-.053-.033.237-.38.057.036a4.5,4.5,0,0,1,1.835,2.273l-.424.143a4.051,4.051,0,0,0-1.652-2.039m-5.562-1.276a10.286,10.286,0,0,1,1.915-.206c.369.026.706.063,1.03.112l-.067.442c-.312-.047-.637-.082-.995-.108a9.266,9.266,0,0,0-1.8.2Zm5.6-1.016a10.043,10.043,0,0,1,2.435-1.656l.195.4a9.571,9.571,0,0,0-2.327,1.581Z" fill="#9bc1f9"/>
              <path id="Trazado_195830" data-name="Trazado 195830" d="M164.4,47.221a8.647,8.647,0,0,1,1.435-.1l.008-.447a9.117,9.117,0,0,0-1.51.1Z" fill="#9bc1f9"/>
              <path id="Trazado_195831" data-name="Trazado 195831" d="M131.1,53.88c.269.011,1.008.258,2.088,2.3,1.379,2.606,3.394,10.479,3.394,10.479L130.567,68.9l-.773-1.643L128.521,54.6s2.505-.728,2.58-.725" fill="#718493"/>
              <path id="Trazado_195832" data-name="Trazado 195832" d="M123.148,52.745A36.751,36.751,0,0,1,131.1,53.88s1.451,12.475-1.307,21.954c-.617,2.122.511,8.8.511,8.8l-17.827-.235s2.112-16.135,1.316-18.741-.814-11.69-.814-11.69.122-.019,4-.69a40.412,40.412,0,0,1,6.163-.529" fill="#97b0c4"/>
              <path id="Trazado_195833" data-name="Trazado 195833" d="M121.071,107.783s.394,4.552,1.119,5.813-.038,3.4-.076,3.7-1.526.714-3.893.461-2.328-.8-2.137-1.681,1.45-2.015,1.527-2.857a21.98,21.98,0,0,0-.725-3.865Z" fill="#f7a491"/>
              <path id="Trazado_195834" data-name="Trazado 195834" d="M128.294,80.873s12.306-.683,15.054.981-1.952,9.832-1.952,9.832-8.563-.395-25.336.573c-3.971.23-4.314-10.356-3.571-11.231s15.805-.155,15.805-.155" fill="#e0973f"/>
              <path id="Trazado_195835" data-name="Trazado 195835" d="M117.926,118.109c-2.437-.26-2.135-1.457-1.939-2.365a8.032,8.032,0,0,1,1.239-1.874,4.063,4.063,0,0,0,1.63.792c1.1.325,2.6-.318,3.565-.72a11.774,11.774,0,0,1,.326,3.143c-.04.3-2.384,1.284-4.821,1.024" fill="#091743"/>
              <path id="Trazado_195836" data-name="Trazado 195836" d="M119.271,89.677c.492,3.72,2.926,22.241,2.926,22.241l-5.648.7s-6.946-24.174-6.59-27.871,2.956-4.009,2.956-4.009,5.055-.909,6.356,8.939" fill="#feca2e"/>
              <path id="Trazado_195837" data-name="Trazado 195837" d="M112.786,55.351c1.667-.625,2.482,14.393,2.707,20.574a72.649,72.649,0,0,0,9.377-.094c.6-.045,1.992-.554,2.591-.632a5.954,5.954,0,0,1,1.473-.07,27.781,27.781,0,0,1,3.45,1.553c.327.343,1.209,1.206,1.06,1.579s-1.7-1.04-1.7-1.04l-.757-.425c.942.921,2.739,2.132,2.48,2.574s-1.873-.8-3.028-1.638c.991.895,2.222,2.5,1.938,2.746-.255.224-1.655-1.63-3.151-2.164-.554-.2-1.107.35-1.543.417a3.155,3.155,0,0,1-1.13.063l-1.62-.46c-.552.05-.566.377-1.123.5-.647.138-1.708.283-2.532.484-4.744,1.159-6.327,1.7-7.779,1.7-4.4,0-4.655-24.181-.716-25.659" fill="#f7a491"/>
              <path id="Trazado_195838" data-name="Trazado 195838" d="M109.623,69.451c-.312-6.332-.267-14.136,3.283-15.468,1.4-.525,3.869,2.634,3.425,15.6a26.69,26.69,0,0,1-6.708-.129" fill="#718493"/>
              <path id="Trazado_195839" data-name="Trazado 195839" d="M138.178,112.2a3.075,3.075,0,0,0-.174,2.648c.642,1.208,4.01,2.985,4.361,3.64a1.59,1.59,0,0,1,.213,1.118l-10-2.451.766-3.015.935-2.083Z" fill="#f7a491"/>
              <path id="Trazado_195840" data-name="Trazado 195840" d="M138.52,115.49s-2.811.488-3.926-.4-1.04-1.053-1.451-.9c-.264.1-.667,1.3-.92,2.144a.823.823,0,0,0,.591,1.034l10.413,2.572c.791.153,1.314-.341.782-.975a9.346,9.346,0,0,0-1.075-1,36.041,36.041,0,0,0-4.414-2.474" fill="#091743"/>
              <path id="Trazado_195841" data-name="Trazado 195841" d="M137.2,83.79c.795-1.674,2.6-3.854,5.788-2.541,3.036,1.252,3.851,4.329,2.893,7.48s-7.264,21.674-7.484,24.22l-5.035.034s.915-14.667,1.139-18.212a34.322,34.322,0,0,1,2.7-10.981" fill="#feca2e"/>
              <path id="Trazado_195842" data-name="Trazado 195842" d="M145.372,66.73H128.541a1.1,1.1,0,0,0-1.016.683L122.343,80.1h-9.279a.471.471,0,0,0,0,.942h26.409a1.843,1.843,0,0,0,1.682-1.092l5.218-11.664a1.1,1.1,0,0,0-1-1.552" fill="#091743"/>
              <path id="Trazado_195843" data-name="Trazado 195843" d="M136.31,74.115a.927.927,0,1,1-.694-1.212.99.99,0,0,1,.694,1.212" fill="#fff"/>
              <path id="Trazado_195844" data-name="Trazado 195844" d="M127.148,37.509a13.018,13.018,0,0,1-1.489-.6,7.481,7.481,0,0,0-1.7-.64,4.094,4.094,0,0,0-3.444.918c-1.11,1.2-3.083.218-2.685,6.526.449,7.139,4.419,6.356,4.516,6.235s3.54-4.568,3.54-4.568,1.2,2.634,1.2,2.538,6.149-8.361.056-10.413" fill="#0e2e35"/>
              <path id="Trazado_195845" data-name="Trazado 195845" d="M124.134,50.479l.343,2.551s.767,3.675-.22,4.384-4.2-4.489-4.2-4.489l.339-6.464Z" fill="#f7a491"/>
              <path id="Trazado_195846" data-name="Trazado 195846" d="M120.287,48.556a7.321,7.321,0,0,0,4.138,4.086l-.29-2.163L120.4,46.461Z" fill="#3da6b4"/>
              <path id="Trazado_195847" data-name="Trazado 195847" d="M123.932,39.427a3.4,3.4,0,0,1,3.918,3.44,25.937,25.937,0,0,1-.287,3.272c-.455,2.945-2.464,5.538-3.793,5.307s-4.671-2.772-4.082-6.963c.363-2.587,2.048-4.7,4.244-5.056" fill="#f7a491"/>
              <path id="Trazado_195848" data-name="Trazado 195848" d="M120.609,44.983a.99.99,0,1,1-.753-1.339,1.1,1.1,0,0,1,.753,1.339" fill="#f7a491"/>
              <path id="Trazado_195849" data-name="Trazado 195849" d="M119.856,43.644s1.606.4,2.2-.634,2.728-3.263,5.438-2.338-2.385-2.248-2.6-2.248-2.817-.018-2.817-.018-2.006,1.649-2.078,1.831-.65,2.157-.65,2.157Z" fill="#0e2e35"/>
              <path id="Trazado_195850" data-name="Trazado 195850" d="M122.795,47.955l2.923.559a1.3,1.3,0,0,1-1.572.892c-1.575-.254-1.351-1.451-1.351-1.451" fill="#fff"/>
              <path id="Trazado_195851" data-name="Trazado 195851" d="M156.8,249.193s-.535,3.732-1.455,4.936a9.523,9.523,0,0,0-1.244,1.646,4.865,4.865,0,0,0,.168,3.762c.218.478-.016.477.481.631a3.048,3.048,0,0,0,3.665-1.73,8.839,8.839,0,0,0,.719-3.18,11.564,11.564,0,0,1,1.205-5.111Z" fill="#f7a491"/>
              <path id="Trazado_195852" data-name="Trazado 195852" d="M172.9,250.9a35.414,35.414,0,0,1,.062,5.575c-.143.732-.943,2.24-.576,2.929a1.846,1.846,0,0,0,.786.861l9.5.154c.517.009.175-.326-.242-.635a19.178,19.178,0,0,0-3.417-1.9c-.142-.069-.661-.4-.848-.516a6.6,6.6,0,0,1-1.359-1.207c-.683-.764-.742-4.47-.742-4.47Z" fill="#f7a491"/>
              <path id="Trazado_195853" data-name="Trazado 195853" d="M180.325,194.968s1.2,6.832.411,11.311-4.557,45.994-4.557,45.994l-4.192.238s-.878-17.342-.721-19.754a37.556,37.556,0,0,1,1.4-6.447l-.417-14,5.289-18.394Z" fill="#2e7d87"/>
              <path id="Trazado_195854" data-name="Trazado 195854" d="M168.007,193.532s-3.3,5-4.086,9.13.577,16.84-.935,22.258c-.818,2.933-3.919,7.462-4.391,11.252s-2.321,13.717-2.321,13.717l4.19.835,9.736-24.793,7.637-22.408,1.957-11.541Z" fill="#3da6b4"/>
              <path id="Trazado_195855" data-name="Trazado 195855" d="M158.7,257.692a4.673,4.673,0,0,1-4.593-1.93,5.092,5.092,0,0,0-.436,3.775c.375.824,1.474.8,2.339.833a2.257,2.257,0,0,0,2.076-1.278,7.665,7.665,0,0,0,.614-1.4" fill="#feca2e"/>
              <path id="Trazado_195856" data-name="Trazado 195856" d="M178.165,257.366a8.552,8.552,0,0,1-5.411-.214,4.42,4.42,0,0,0-.435,2.275c.231.677.56.83.85.838,2.3.06,8.409.143,10.16.166a.288.288,0,0,0,.222-.473c-.434-.522-5.2-2.477-5.386-2.592" fill="#feca2e"/>
              <path id="Trazado_195857" data-name="Trazado 195857" d="M195.368,183.168c.175-.372-1.671-.879-1.731-1.28s2.416-.175,2.54-.509c.229-.616-2.7-.415-2.608-.7s3.092-.646,2.827-1.187-3.077.695-3.122.342,2.719-.913,2.75-1.673c.016-.406-4.6,1.557-5.087,1.285s.765-2.06.391-2.383-2,3.415-2.288,3.524-6.629,2.025-8.785,2.342c-.181-.729-1.8-4.745-1.958-5.433-1.265.716-2.877-.146-4.172.493.652,2.3,2.115,9.87,2.7,10.211,1.781,1.038,11.152-3.911,12.7-4.788s2.342-.458,3.352-.681,2.315.813,2.49.441" fill="#f38b80"/>
              <path id="Trazado_195858" data-name="Trazado 195858" d="M178.694,160.863c.471-2.143.933-4.3-.31-6.653a6.042,6.042,0,0,0-4.755-3.239c-5.7-.677-4.482,4.645-12.45,5.8a17.891,17.891,0,0,0-6.842,1.933c-3.733,2.224-5.141,5.79-2.666,11.6,6.061,14.227,20.563,1.864,22.775-.652,2.2-2.5,3.945-7.407,4.248-8.786" fill="#0e2e35"/>
              <path id="Trazado_195859" data-name="Trazado 195859" d="M169.723,167.625a8.276,8.276,0,0,0-4.6,2.2c-1.722,1.872,2.784,16.927,3.1,19.31s-2.993,8.981-2.993,8.981,11.239,2.234,14.161.3c0,0,.257-18.423-.056-20.125s-2.922-8.627-3.547-9.308-6.06-1.362-6.06-1.362" fill="#feca2e"/>
              <path id="Trazado_195860" data-name="Trazado 195860" d="M171.171,161.822s-.023.128-.063.346a32.863,32.863,0,0,1-1.446,5.46c-.61,1.151,2.088,4.821,4.686,4.373.773-.133-.654-3.372-.585-3.715.131-.657.309-1.553.491-2.472.1-.518.207-1.044.3-1.537l.505-2.552Z" fill="#f7a491"/>
              <path id="Trazado_195861" data-name="Trazado 195861" d="M171.108,162.167c.04-.218.063-.346.063-.346l3.892-.1-.5,2.551c-.1.491-.2,1.014-.3,1.529a3.649,3.649,0,0,1-1.859-.93,4.894,4.894,0,0,1-1.407-2.089c.048-.245.088-.457.118-.619" fill="#3da6b4"/>
              <path id="Trazado_195862" data-name="Trazado 195862" d="M173.512,152.572a4.593,4.593,0,0,0-2.737,1.7c-1.15,1.485-2.389,6.074.467,8.57s5.679-.33,6.1-3.324.334-7.058-3.827-6.95" fill="#f7a491"/>
              <path id="Trazado_195863" data-name="Trazado 195863" d="M178.172,158.782c-.18.722-.653,1.21-1.057,1.089s-.584-.8-.4-1.525.653-1.21,1.057-1.089.584.8.4,1.525" fill="#f7a491"/>
              <path id="Trazado_195864" data-name="Trazado 195864" d="M175.275,152.585s-3.73,4.282-5.483,4.484-1.984,2.521-1.984,2.521.627-5.344,2.363-6.375,5.1-.63,5.1-.63" fill="#0e2e35"/>
              <path id="Trazado_195865" data-name="Trazado 195865" d="M170.365,158.109c.143.775-.144,1.486-.641,1.588s-1.014-.445-1.156-1.22.144-1.485.64-1.587,1.014.444,1.157,1.219" fill="#f7a491"/>
              <path id="Trazado_195866" data-name="Trazado 195866" d="M170.312,179.842l12.053,1.763a.663.663,0,0,1,.56.752l-2.353,16.08a.662.662,0,0,1-.751.56l-12.053-1.763a.663.663,0,0,1-.56-.752l2.352-16.08a.663.663,0,0,1,.752-.56" fill="#091743"/>
              <path id="Trazado_195867" data-name="Trazado 195867" d="M179.3,180.625a.134.134,0,0,0-.114-.152l-5.027-.736a.134.134,0,0,0-.152.114l-.077.522,5.294.775Z" fill="#13375b"/>
              <path id="Trazado_195868" data-name="Trazado 195868" d="M176.767,179.469a.8.8,0,1,0,.677.909.8.8,0,0,0-.677-.909m-.19,1.3a.514.514,0,1,1,.583-.434.514.514,0,0,1-.583.434" fill="#13375b"/>
              <path id="Trazado_195869" data-name="Trazado 195869" d="M179.239,180.49a.133.133,0,0,1,.063.134l-.076.523-5.294-.774a.662.662,0,0,0,.56.751l3.982.583a.663.663,0,0,0,.752-.56l.076-.523a.133.133,0,0,0-.063-.134" fill="#355389"/>
              <path id="Trazado_195870" data-name="Trazado 195870" d="M175.554,161.005l-2.712-.014a1.185,1.185,0,0,0,1.249,1.071c1.455.05,1.463-1.057,1.463-1.057" fill="#fff"/>
              <path id="Trazado_195871" data-name="Trazado 195871" d="M161.856,183.954l4.367.446s-.071,3.707,0,4.133c0,0,7.468,2.07,10.589,2.632,0,0,1.421-.806,2-1.062a13.9,13.9,0,0,1,2.462-.58c.342-.045.225.329-.068.46a2.84,2.84,0,0,0-1.268.927,2.377,2.377,0,0,0,.942-.078c.326-.145.776-.453.783-.613s.081-.544.188-.523c.027.005.064.132.1.264s.071.254.1.38c.055.228.118.56.142.709a10.33,10.33,0,0,1-.181,1.613c-.054.608-.228.879-.549,1.034a7.887,7.887,0,0,1-1.877.379,12.62,12.62,0,0,1-3.447-.34c-.6-.067-10.1-1.01-10.1-1.01s-3.78-.545-4.031-1.2-.15-7.576-.15-7.576" fill="#f7a491"/>
              <path id="Trazado_195872" data-name="Trazado 195872" d="M165.65,169.281s-1.378.654-2.59,3.477c-1.151,2.682-1.49,16.07-1.49,16.07l4.568-.762,2.322-6.242a11.451,11.451,0,0,0-1.183-11.385c-.643-.88-1.236-1.411-1.627-1.158" fill="#feca2e"/>
              <g id="Grupo_141828" data-name="Grupo 141828" opacity="0.6">
                <g id="Grupo_141827" data-name="Grupo 141827">
                  <g id="Grupo_141826" data-name="Grupo 141826" clip-path="url(#clip-path-20)">
                    <rect id="Rectángulo_44318" data-name="Rectángulo 44318" width="19.39" height="19.39" transform="translate(237.683 104.968)" fill="#9bc1f9"/>
                  </g>
                </g>
              </g>
              <g id="Grupo_141831" data-name="Grupo 141831" opacity="0.6">
                <g id="Grupo_141830" data-name="Grupo 141830">
                  <g id="Grupo_141829" data-name="Grupo 141829" clip-path="url(#clip-path-21)">
                    <rect id="Rectángulo_44320" data-name="Rectángulo 44320" width="37.826" height="2.635" transform="translate(260.503 104.968)" fill="#9bc1f9"/>
                  </g>
                </g>
              </g>
              <g id="Grupo_141834" data-name="Grupo 141834" opacity="0.6">
                <g id="Grupo_141833" data-name="Grupo 141833">
                  <g id="Grupo_141832" data-name="Grupo 141832" clip-path="url(#clip-path-22)">
                    <rect id="Rectángulo_44322" data-name="Rectángulo 44322" width="25.527" height="2.635" transform="translate(260.504 110.553)" fill="#9bc1f9"/>
                  </g>
                </g>
              </g>
              <g id="Grupo_141837" data-name="Grupo 141837" opacity="0.6">
                <g id="Grupo_141836" data-name="Grupo 141836">
                  <g id="Grupo_141835" data-name="Grupo 141835" clip-path="url(#clip-path-23)">
                    <rect id="Rectángulo_44324" data-name="Rectángulo 44324" width="33.977" height="2.635" transform="translate(260.504 116.138)" fill="#9bc1f9"/>
                  </g>
                </g>
              </g>
              <path id="Trazado_195873" data-name="Trazado 195873" d="M311.346,169.337c-.793-.644-6.922,2.045-6.844,2.981s-4.277,10.013-4.277,10.013l-7.526-6,0,0c-.066-.218-.78-2.551-.815-2.969-.036-.438-1.308-1.2-1.9-1.091s.505.854.577.99c.2.37-.561.509-.561.509s-2.149-.689-2.2-1.391-1.515,1.227-1.343,1.5,3.68,3.092,4.186,3.706c0,0,9.734,11.128,10.428,11.419.608.255,2.776-3.58,4.824-6.125s7.925-11.525,5.448-13.539" fill="#f7a491"/>
              <path id="Trazado_195874" data-name="Trazado 195874" d="M330.986,251.159s1.338,1.305,1.368,1.784.118,5.61-.428,6.09-2.15.818-1.634,1.357c.39.407,3.388.32,5.375.211.58-.032,1.308-4.66,1.538-5.341.333-.988,1.145-3.213.841-3.9a5.768,5.768,0,0,0-1.851-1.669,9.11,9.11,0,0,1-2.051-2.184Z" fill="#f48c7f"/>
              <path id="Trazado_195875" data-name="Trazado 195875" d="M317.13,254.2s1.2,3.382,1.2,3.391c.089.536.439,1.859.439,2.347,0,1.828-8.251-1.554-6.4-2.364a1.958,1.958,0,0,0,.747-1.284,4.28,4.28,0,0,0-.7-2.161Z" fill="#f7a491"/>
              <path id="Trazado_195876" data-name="Trazado 195876" d="M304.186,191.23s-.6,6.062-.6,6.152c0,9.806-1.943,28.961-1.574,30.8.9,4.5,10.608,27.436,10.608,27.436l5.246-.627-5.631-27.72,1.311-10.8,3.56-21.852Z" fill="#2e7d87"/>
              <path id="Trazado_195877" data-name="Trazado 195877" d="M321.792,196.592l.995,5.745,2.693,23.647,10.257,23.11s-1.443,3.363-3.571,3.836L315.842,229.2,305.7,198.84l.356-6.745Z" fill="#3da6b4"/>
              <path id="Trazado_195878" data-name="Trazado 195878" d="M302.094,176.8l7.275.743s.333-5.964.333-8.809c0-3.451-.294-7.9-.711-7.8a6.349,6.349,0,0,0-3.683,2.2c-3.245,4.459-3.214,13.664-3.214,13.664" fill="#091743"/>
              <path id="Trazado_195879" data-name="Trazado 195879" d="M305.667,168.122c-.152,1.052-2.949,29.659-2.949,29.659,13.246,6.4,20.554,1.14,20.554,1.14s-.433-20.088.086-22.823c.344-1.809.772-13.829-.4-14.166a29.332,29.332,0,0,0-5.109-1.086c-1.605-.166-7.839-.263-8.954.112a14.2,14.2,0,0,0-3.228,7.164" fill="#abb3cd"/>
              <path id="Trazado_195880" data-name="Trazado 195880" d="M336.13,249.658s-3.083,8.68-4.289,9.1c-.321.111-1.858.394-2.149,1.074a2.957,2.957,0,0,0,0,.889h6.426s.813-3.825,1.134-5.505c0,0,1.7-4.106,1.512-4.479s-2.634-1.078-2.634-1.078" fill="#3da6b4"/>
              <path id="Trazado_195881" data-name="Trazado 195881" d="M319.238,260.539l-.945-2.985a8.2,8.2,0,0,1-2.977.7,30.056,30.056,0,0,1-2.929-.7c-3.96,1.3-7.2,1.936-6.615,2.985Z" fill="#3da6b4"/>
              <path id="Trazado_195882" data-name="Trazado 195882" d="M301.073,189a1.757,1.757,0,0,1-.2-.148c.236-2.8.193-5.519-.687-6.437.022-.044.214-.453.415-.876,1.019.788,1.5,2.883,1.313,6.283a5.792,5.792,0,0,1-.134.7c-.3.325-.564.534-.707.474" fill="#f7a491"/>
              <path id="Trazado_195883" data-name="Trazado 195883" d="M316.079,155.317l.854,5.627s-3.118,6.7-4.979,6.119c-1.562-.487-.6-6.416-.6-6.416a16.246,16.246,0,0,0,.6-4.777c-.256-1.593,4.13-.553,4.13-.553" fill="#f7a491"/>
              <path id="Trazado_195884" data-name="Trazado 195884" d="M311.948,155.87c-.255-1.593,4.13-.553,4.13-.553l.071.466a2.589,2.589,0,0,1-.475.785,5.777,5.777,0,0,1-3.835,1.735,8.692,8.692,0,0,0,.109-2.433" fill="#f47458"/>
              <path id="Trazado_195885" data-name="Trazado 195885" d="M316.8,147.356c.124-.045.994,6.409-.657,8.185s-4.865,2.357-6.019.958c-1.275-1.547-1.211-8.483,1.355-10.31s5.321,1.167,5.321,1.167" fill="#f7a491"/>
              <path id="Trazado_195886" data-name="Trazado 195886" d="M312.454,142.736a7.122,7.122,0,0,1,3.74,2.133c.9.106,2.124.6,3.388,2.7a5.234,5.234,0,0,1-1.4,6.823,4.076,4.076,0,0,0-1.784,3.014l-.286-.836a4.664,4.664,0,0,1-.226-1.968,3.861,3.861,0,0,1,.292-1.183c.436-.934-.934-1.555-1.318-2.332-.3-.6-.31-1.967-.776-2.957l-.557-.755a3.535,3.535,0,0,0-2.539-.717c-1.256.282-1.076-4.437,1.469-3.918" fill="#0e2e35"/>
              <path id="Trazado_195887" data-name="Trazado 195887" d="M314.941,152.232c-.013.787.345,1.432.8,1.44s.833-.624.846-1.412-.344-1.432-.8-1.44-.834.625-.847,1.412" fill="#f7a491"/>
              <path id="Trazado_195888" data-name="Trazado 195888" d="M312.261,154.051l-2.487-.129a1.088,1.088,0,0,0,1.1,1.036c1.332.108,1.387-.907,1.387-.907" fill="#fff"/>
              <path id="Trazado_195889" data-name="Trazado 195889" d="M291.906,168.765q.876-.9,1.636-1.846l10.858,10.6c.667.651.437,1.969-.514,2.942s-2.262,1.235-2.929.583l-10.857-10.6c.618-.522,1.222-1.082,1.806-1.68" fill="#0e2e35"/>
              <g id="Grupo_141840" data-name="Grupo 141840" opacity="0.6">
                <g id="Grupo_141839" data-name="Grupo 141839">
                  <g id="Grupo_141838" data-name="Grupo 141838" clip-path="url(#clip-path-24)">
                    <path id="Trazado_195890" data-name="Trazado 195890" d="M252.851,168.9a27.385,27.385,0,1,0-.58-38.843,27.47,27.47,0,0,0,.58,38.843" fill="#c5ddf9"/>
                  </g>
                </g>
              </g>
              <g id="Grupo_141843" data-name="Grupo 141843" style="mix-blend-mode: soft-light;isolation: isolate">
                <g id="Grupo_141842" data-name="Grupo 141842">
                  <g id="Grupo_141841" data-name="Grupo 141841" clip-path="url(#clip-path-25)">
                    <path id="Trazado_195891" data-name="Trazado 195891" d="M291.728,168.269a27.361,27.361,0,0,1-17.435,8.533l-29.7-30.191c.006-.057.01-.114.016-.171a27.55,27.55,0,0,1,8.639-17.287Z" fill="#fff"/>
                  </g>
                </g>
              </g>
              <g id="Grupo_141846" data-name="Grupo 141846" style="mix-blend-mode: soft-light;isolation: isolate">
                <g id="Grupo_141845" data-name="Grupo 141845">
                  <g id="Grupo_141844" data-name="Grupo 141844" clip-path="url(#clip-path-26)">
                    <path id="Trazado_195892" data-name="Trazado 195892" d="M271.749,121.809l27.469,27.92c-.014.845-.064,1.7-.155,2.553a27.612,27.612,0,0,1-3.45,10.727l-37.1-37.706a27.12,27.12,0,0,1,13.233-3.494" fill="#fff"/>
                  </g>
                </g>
              </g>
              <path id="Trazado_195893" data-name="Trazado 195893" d="M250.354,171.456a30.959,30.959,0,1,0-.656-43.913,31.055,31.055,0,0,0,.656,43.913m2.5-2.557a27.385,27.385,0,1,1,38.846-.339,27.469,27.469,0,0,1-38.846.339" fill="#091743"/>
              <path id="Trazado_195894" data-name="Trazado 195894" d="M251.666,170.112a29.08,29.08,0,1,0-.616-41.248,29.17,29.17,0,0,0,.616,41.248m1.185-1.213a27.385,27.385,0,1,1,38.846-.339,27.469,27.469,0,0,1-38.846.339" fill="#4dd0e1"/>
              <path id="Trazado_195895" data-name="Trazado 195895" d="M338.12,215.294l1.687-1.75a4.4,4.4,0,0,0-.113-6.22l-31.346-30.39a4.4,4.4,0,0,0-6.22.114l-1.687,1.75a4.4,4.4,0,0,0,.114,6.22l31.345,30.39a4.4,4.4,0,0,0,6.22-.114" fill="#091743"/>
              <path id="Trazado_195896" data-name="Trazado 195896" d="M336.391,198.085a.81.81,0,0,0,0-.184c-.2-1.981-1.84-18.617-2.117-19.324-.25-.639-7.627-11.19-7.627-11.19l-3.626,4.94,7.1,9.464c.159.6,2.718,11.831,2.718,11.831s.525,2.047.76,3.273c-.107.3-.212.575-.3.8a7.391,7.391,0,0,1-.765,1.228,8.455,8.455,0,0,0-.906,1.6c-.075.289-.21.89-.287,1.252s-.182.784-.2.981a1.863,1.863,0,0,1-.229.527.317.317,0,0,0,.374.457c.258-.086.458-.419.582-.627.349-.587.535-1.659.622-1.6s.393,1.875.441,2.08a22.534,22.534,0,0,0,.623,2.7c.207.385.481.321.554.079.062-.208-.229-3.161-.229-3.161s-.036-.377.129-.26.434,2.8.549,3.192.376.6.6.285c.27-.384-.195-3.228-.195-3.228s-.052-.357.1-.324.344,2.318.463,2.516a.3.3,0,0,0,.562-.061,14.078,14.078,0,0,0-.268-2.923s.021-.2.117-.135.4,2,.594,2.183a.21.21,0,0,0,.3,0c.361-.247-.193-2.089-.188-3a22.59,22.59,0,0,1-.292-3.036c.008-.068.03-.236.044-.342" fill="#f8a492"/>
              <path id="Trazado_195897" data-name="Trazado 195897" d="M332.413,174.069l-6.3,4.231a68.5,68.5,0,0,0-5.458-7.167c-2.388-2.357.87-9.578,2.409-9.169,3.442.913,9.351,12.1,9.351,12.1" fill="#091743"/>
              <rect id="Rectángulo_44329" data-name="Rectángulo 44329" width="313.57" height="1.871" transform="translate(31.812 260.023)" fill="#0e2e35"/>
            </g>
          </g>
        </g>
      </g>
    </g>
  </g>
</svg>
