<svg xmlns="http://www.w3.org/2000/svg" xmlns:xlink="http://www.w3.org/1999/xlink" width="295" height="232" viewBox="0 0 295 232">
  <defs>
    <clipPath id="clip-path">
      <rect id="Rectángulo_44336" data-name="Rectángulo 44336" width="209.994" height="210" fill="none"/>
    </clipPath>
  </defs>
  <g id="Grupo_143205" data-name="Grupo 143205" transform="translate(-285 -7485.34)">
    <g id="Grupo_141860" data-name="Grupo 141860" transform="translate(0 514.34)">
      <rect id="Rectángulo_41430" data-name="Rectángulo 41430" width="131.974" height="43.474" rx="14" transform="translate(448.026 6971)" fill="#feca2e" opacity="0.2"/>
      <rect id="Rectángulo_41431" data-name="Rectángulo 41431" width="131.974" height="43.474" rx="14" transform="translate(285 7149)" fill="#4dd0e1" opacity="0.2"/>
      <g id="Grupo_141859" data-name="Grupo 141859" transform="translate(322 6993)">
        <g id="Grupo_141858" data-name="Grupo 141858" clip-path="url(#clip-path)">
          <path id="Trazado_195954" data-name="Trazado 195954" d="M82.429,0c4.4,1.406,7.547,4.022,8.387,8.805A15.429,15.429,0,0,1,91,11.455q.017,19.986.005,39.974C91,58.7,86.7,63.016,79.394,63.021c-22.068.015-44.137-.1-66.2.071C6.668,63.143,2.084,60.975,0,54.55V8.613A11.733,11.733,0,0,1,8.612,0ZM45.307,56.011q17.018,0,34.034-.006c3.518-.005,4.672-1.177,4.674-4.69q.012-19.786,0-39.575c0-3.618-1.156-4.751-4.816-4.752q-33.726,0-67.453,0c-3.633,0-4.758,1.134-4.759,4.788q-.006,19.583,0,39.165c0,4.062,1.005,5.066,5.106,5.068q16.606.008,33.214,0" fill="#091743"/>
          <path id="Trazado_195955" data-name="Trazado 195955" d="M8.612,0A11.733,11.733,0,0,0,0,8.613V0Z" fill="#fff"/>
          <path id="Trazado_195956" data-name="Trazado 195956" d="M104.865,136.529q-16.8,0-33.6,0c-7.537,0-11.779-4.262-11.782-11.821q-.006-19.776,0-39.552c0-7.409,4.282-11.681,11.709-11.683q33.808-.011,67.618,0c7.411,0,11.678,4.287,11.681,11.713q.009,19.878,0,39.757c-.005,7.26-4.33,11.579-11.608,11.585q-17.007.015-34.015,0m.119-56.065q-16.916,0-33.831.005c-3.5,0-4.682,1.191-4.684,4.686q-.009,19.788,0,39.577c0,3.63,1.158,4.8,4.783,4.8q33.729.008,67.457,0c3.619,0,4.789-1.177,4.79-4.794q.009-19.686,0-39.373c0-3.769-1.122-4.894-4.89-4.9q-16.813-.011-33.626,0" fill="#091743"/>
          <path id="Trazado_195957" data-name="Trazado 195957" d="M164.451,210q-17.021,0-34.039,0c-7.128-.006-11.445-4.349-11.449-11.528q-.016-20,0-39.989c.005-7.156,4.319-11.494,11.5-11.5q34.036-.028,68.075,0c7.159.007,11.427,4.354,11.431,11.547q.014,20,0,39.989c0,7.166-4.313,11.475-11.479,11.48q-17.019.014-34.036,0m-.209-6.987q17.016,0,34.033,0c3.523,0,4.7-1.163,4.7-4.644q.01-19.788,0-39.575c0-3.666-1.1-4.8-4.754-4.8q-33.728-.012-67.454,0c-3.682,0-4.819,1.131-4.82,4.746q-.009,19.787,0,39.575c0,3.514,1.178,4.694,4.664,4.7q16.813.009,33.625,0" fill="#091743"/>
          <path id="Trazado_195958" data-name="Trazado 195958" d="M181.912,111.846V105c-4.507,0-8.929.131-13.336-.061a14.705,14.705,0,0,1-5.682-1.342,10.139,10.139,0,0,1-5.162-11.251,10.264,10.264,0,0,1,9.683-8.263c6.42-.106,12.847-.164,19.263.024,8.762.257,16.023,7.9,16.273,16.942.1,3.545.016,7.1.016,10.759.661.131,1.241.221,1.809.362a6.524,6.524,0,0,1,3.479,10.808c-3.642,4.069-7.51,7.944-11.409,11.771a6.088,6.088,0,0,1-8.7.022c-3.911-3.815-7.676-7.78-11.461-11.723-3.066-3.194-2.243-10.411,5.232-11.2m.908,7.3,9.446,9.293c3.06-2.813,6.279-5.768,9.487-8.735.124-.114.153-.331.292-.652-.423-.03-.742-.066-1.062-.074-4.157-.1-4.986-.949-4.988-5.107,0-4.1.054-8.194-.018-12.289a10.414,10.414,0,0,0-10.519-10.545c-5.665-.059-11.332-.025-17,0a4.6,4.6,0,0,0-1.973.37A3.2,3.2,0,0,0,164.56,95.1a3.436,3.436,0,0,0,3.68,2.9c4.437.022,8.875-.012,13.312.017,4.518.028,7.375,2.892,7.443,7.45.037,2.457.008,4.916.008,7.373,0,5.419-.4,5.836-5.858,6.155a.979.979,0,0,0-.325.15" fill="#091743"/>
          <path id="Trazado_195959" data-name="Trazado 195959" d="M122.393,38.422v-6.9c-4.679,0-9.24.071-13.8-.017A10.506,10.506,0,0,1,98.02,20.185c.291-4.909,4.432-9.393,9.34-9.534,6.891-.2,13.807-.3,20.685.07,8.466.458,15.212,8.159,15.433,17.07.086,3.475.014,6.955.014,10.557.747.133,1.4.2,2.034.369a6.583,6.583,0,0,1,3.222,10.8c-3.616,4-7.42,7.837-11.26,11.626a6.25,6.25,0,0,1-9.03-.017c-3.741-3.695-7.379-7.495-11.022-11.288a6.429,6.429,0,0,1-1.55-6.826c.995-3.016,3.321-4.356,6.507-4.585m20.37,7.733-.305-.569c-.316-.025-.632-.063-.948-.071-4.126-.1-5-.989-5-5.124,0-4.1.058-8.193-.02-12.287-.107-5.567-4.083-10.233-9.281-10.442-6.269-.252-12.555-.139-18.832-.081a3.4,3.4,0,0,0-3.335,4.008c.329,1.83,1.782,2.917,4.1,2.935,4.368.033,8.737-.024,13.1.023,4.139.044,7.058,2.721,7.229,6.788.146,3.476.1,6.963.015,10.442-.061,2.412-1.479,3.655-3.962,3.73-.764.023-1.529,0-2.385,0l9.826,9.622c3.155-2.892,6.477-5.935,9.8-8.978" fill="#091743"/>
          <path id="Trazado_195960" data-name="Trazado 195960" d="M45.308,56.011q-16.608,0-33.215,0c-4.1,0-5.105-1.006-5.106-5.068q0-19.583,0-39.165c0-3.654,1.127-4.788,4.759-4.788q33.727-.006,67.454,0c3.66,0,4.813,1.134,4.815,4.752q.011,19.788,0,39.575c0,3.513-1.156,4.685-4.674,4.69q-17.018.024-34.034.006m.025-28.055v.009H64.576c.546,0,1.092.014,1.637-.008,2.258-.089,3.771-1.484,3.771-3.462a3.54,3.54,0,0,0-3.764-3.5c-3.82-.067-7.642-.023-11.464-.023q-14.432,0-28.864.013a8.06,8.06,0,0,0-2.61.316A3.207,3.207,0,0,0,21.055,25a3.364,3.364,0,0,0,3.6,2.946c6.892.037,13.784.014,20.675.014m-6.91,14.015c4.369,0,8.738.037,13.1-.029a6.244,6.244,0,0,0,2.918-.647,3.068,3.068,0,0,0,1.348-3.748c-.552-1.96-2.071-2.576-3.934-2.577-8.874-.006-17.748-.019-26.621.006-2.6.007-4.2,1.368-4.246,3.454-.048,2.16,1.577,3.519,4.324,3.534,4.369.024,8.737.007,13.106.007" fill="#feca2e"/>
          <path id="Trazado_195961" data-name="Trazado 195961" d="M104.984,80.464q16.813,0,33.626,0c3.769,0,4.889,1.127,4.89,4.9q.006,19.688,0,39.373c0,3.617-1.172,4.793-4.791,4.794q-33.728.009-67.457,0c-3.625,0-4.782-1.168-4.783-4.8q-.008-19.79,0-39.578c0-3.495,1.184-4.684,4.683-4.687q16.916-.015,33.831,0m.037,21.021v-.01c6.891,0,13.783.034,20.673-.019a3.481,3.481,0,0,0,3.786-3.448c.008-1.963-1.479-3.362-3.757-3.522-.408-.029-.819-.014-1.228-.014q-19.548,0-39.1.009a8.891,8.891,0,0,0-2.427.241,3.292,3.292,0,0,0-1.516,5.526,5.776,5.776,0,0,0,3.506,1.184c6.685.11,13.372.053,20.059.053m-7.072,7.029c-4.437,0-8.874-.027-13.31.01-2.585.022-4.181,1.423-4.153,3.511s1.624,3.426,4.219,3.482c1.705.037,3.412.009,5.119.009,7.03,0,14.061-.01,21.091.007,1.728,0,3.3-.279,4.172-1.984,1.227-2.407-.458-4.954-3.419-5.007-4.572-.082-9.146-.022-13.719-.028" fill="#ffedb6"/>
          <path id="Trazado_195962" data-name="Trazado 195962" d="M164.242,203.011q-16.812,0-33.625,0c-3.486,0-4.661-1.182-4.663-4.7q-.011-19.788,0-39.576c0-3.615,1.139-4.745,4.821-4.746q33.726-.012,67.453,0c3.649,0,4.753,1.132,4.754,4.8q.006,19.788,0,39.576c0,3.481-1.181,4.642-4.7,4.643q-17.018.009-34.034,0m.265-34.98c-6.892,0-13.783-.025-20.674.015-2.309.013-3.8,1.4-3.846,3.375s1.432,3.418,3.683,3.6c.34.027.682.014,1.023.014q19.754,0,39.506-.011a8,8,0,0,0,2.417-.29,3.158,3.158,0,0,0,2.316-3.452,3.214,3.214,0,0,0-2.937-3.169,14.469,14.469,0,0,0-2.042-.081q-9.723-.008-19.446,0m-7.035,14c-4.438,0-8.876-.016-13.313.006-2.592.013-4.184,1.363-4.176,3.466s1.621,3.506,4.182,3.513q13.314.035,26.627,0c2.566-.007,4.172-1.414,4.176-3.519s-1.589-3.447-4.183-3.46c-4.437-.022-8.875-.006-13.313-.006" fill="#bddcf6"/>
          <path id="Trazado_195963" data-name="Trazado 195963" d="M182.82,119.147a.979.979,0,0,1,.325-.15c5.46-.319,5.858-.736,5.858-6.155,0-2.457.029-4.916-.008-7.373-.068-4.558-2.925-7.422-7.443-7.45-4.437-.029-8.875.005-13.312-.017a3.436,3.436,0,0,1-3.68-2.9,3.2,3.2,0,0,1,1.928-3.692,4.6,4.6,0,0,1,1.973-.37c5.665-.027,11.332-.061,17,0a10.414,10.414,0,0,1,10.519,10.545c.072,4.1.015,8.192.018,12.289,0,4.158.831,5,4.988,5.107.32.008.639.044,1.062.074-.139.321-.168.538-.292.652-3.208,2.967-6.427,5.922-9.487,8.735l-9.446-9.293" fill="#abb3cd"/>
          <path id="Trazado_195964" data-name="Trazado 195964" d="M142.763,46.155c-3.321,3.043-6.643,6.086-9.8,8.978l-9.826-9.622c.856,0,1.621.019,2.385,0,2.483-.075,3.9-1.318,3.962-3.73.086-3.479.131-6.966-.015-10.442-.171-4.067-3.09-6.744-7.229-6.788-4.367-.047-8.736.01-13.1-.023-2.313-.018-3.766-1.1-4.1-2.935a3.4,3.4,0,0,1,3.335-4.008c6.277-.058,12.563-.171,18.832.081,5.2.209,9.174,4.875,9.281,10.442.078,4.094.017,8.191.02,12.287,0,4.135.873,5.024,5,5.124.316.008.632.046.948.071l.305.569" fill="#abb3cd"/>
          <path id="Trazado_195965" data-name="Trazado 195965" d="M45.333,27.957c-6.892,0-13.784.023-20.675-.014A3.364,3.364,0,0,1,21.055,25a3.206,3.206,0,0,1,2.227-3.7,8.06,8.06,0,0,1,2.61-.317q14.432-.03,28.864-.012c3.821,0,7.643-.044,11.463.023a3.541,3.541,0,0,1,3.765,3.5c0,1.979-1.514,3.374-3.771,3.463-.545.021-1.092.008-1.637.008H45.333Z" fill="#091743"/>
          <path id="Trazado_195966" data-name="Trazado 195966" d="M38.423,41.971c-4.369,0-8.737.018-13.106-.007-2.747-.015-4.372-1.374-4.324-3.534.046-2.086,1.649-3.446,4.246-3.454,8.873-.025,17.747-.012,26.621-.006,1.863,0,3.382.617,3.934,2.578a3.067,3.067,0,0,1-1.348,3.747,6.257,6.257,0,0,1-2.918.648c-4.367.066-8.736.028-13.1.028" fill="#091743"/>
          <path id="Trazado_195967" data-name="Trazado 195967" d="M105.021,101.485c-6.687,0-13.374.057-20.059-.053a5.776,5.776,0,0,1-3.506-1.184,3.292,3.292,0,0,1,1.516-5.526,8.891,8.891,0,0,1,2.427-.241q19.548-.021,39.1-.009c.409,0,.82-.015,1.228.014,2.278.159,3.765,1.559,3.757,3.522a3.481,3.481,0,0,1-3.786,3.448c-6.89.053-13.782.019-20.673.019Z" fill="#091743"/>
          <path id="Trazado_195968" data-name="Trazado 195968" d="M97.949,108.517c4.573,0,9.147-.057,13.719.025,2.961.053,4.646,2.6,3.419,5.007-.868,1.7-2.444,1.988-4.172,1.984-7.03-.017-14.061-.007-21.091-.007-1.707,0-3.414.028-5.119-.009-2.6-.056-4.191-1.395-4.219-3.482s1.568-3.489,4.153-3.511c4.436-.037,8.873-.01,13.31-.007" fill="#091743"/>
          <path id="Trazado_195969" data-name="Trazado 195969" d="M164.507,168.028q9.723,0,19.446,0a14.622,14.622,0,0,1,2.042.082,3.215,3.215,0,0,1,2.937,3.17,3.157,3.157,0,0,1-2.316,3.451,8,8,0,0,1-2.417.29q-19.752.024-39.505.011c-.342,0-.684.013-1.024-.014-2.251-.179-3.731-1.629-3.683-3.6s1.537-3.362,3.846-3.375c6.891-.039,13.783-.014,20.674-.018" fill="#091743"/>
          <path id="Trazado_195970" data-name="Trazado 195970" d="M157.472,182.034c4.438,0,8.876-.016,13.313.006,2.594.013,4.188,1.36,4.183,3.46s-1.61,3.512-4.176,3.519q-13.314.035-26.627,0c-2.561-.006-4.174-1.413-4.182-3.513s1.584-3.453,4.176-3.466c4.437-.022,8.875-.006,13.313-.006" fill="#091743"/>
        </g>
      </g>
    </g>
  </g>
</svg>
