<svg xmlns="http://www.w3.org/2000/svg" xmlns:xlink="http://www.w3.org/1999/xlink" width="80" height="71.581" viewBox="0 0 80 71.581">
  <defs>
    <clipPath id="clip-path">
      <rect id="Rectángulo_44918" data-name="Rectángulo 44918" width="80" height="71.581" transform="translate(0 0)" fill="none"/>
    </clipPath>
  </defs>
  <g id="Grupo_143214" data-name="Grupo 143214" transform="translate(-312 -5400.997)">
    <g id="Grupo_143110" data-name="Grupo 143110" transform="translate(312 5400.998)">
      <g id="Grupo_143109" data-name="Grupo 143109" clip-path="url(#clip-path)">
        <path id="Trazado_197224" data-name="Trazado 197224" d="M6.533,3.134a3.147,3.147,0,0,0-3.406,3.41q-.011,10.038,0,20.076A3.127,3.127,0,0,0,6.481,30q11.835.013,23.669-.009a1.045,1.045,0,0,0,.78-.308,20.93,20.93,0,0,1,8.894-8.071l-2.9-5.6c-.631,1.312-1.211,2.52-1.793,3.727-.237.492-.481.981-.718,1.472a1.537,1.537,0,0,1-1.4.968,1.567,1.567,0,0,1-1.492-.949q-1.632-3.151-3.267-6.3c-.264-.508-.539-1.01-.785-1.527a1.6,1.6,0,0,1,.608-2.276,1.562,1.562,0,0,1,2.147.832c.836,1.558,1.631,3.137,2.445,4.707.059.114.132.221.256.426.628-1.3,1.224-2.535,1.819-3.771.192-.4.39-.793.573-1.2a1.613,1.613,0,0,1,3.078-.068c.724,1.411,1.458,2.817,2.188,4.225.12.23.243.458.418.788.15-.27.275-.47.377-.681.713-1.475,1.409-2.957,2.135-4.426a1.518,1.518,0,0,1,1.695-.97,1.411,1.411,0,0,1,1.28,1.367,2.811,2.811,0,0,1-.323,1.256c-1.047,2.233-2.125,4.451-3.268,6.83a21.29,21.29,0,0,1,8.437-.538c-.176-.353-.283-.576-.4-.8C49.99,17.261,49,15.43,48.1,13.555a2.237,2.237,0,0,1-.184-1.61A2.011,2.011,0,0,1,49.193,11a1.427,1.427,0,0,1,1.555.936c.75,1.427,1.483,2.863,2.225,4.294.128.246.269.486.477.859l1.4-2.884c.306-.632.627-1.257.912-1.9.324-.729.74-1.343,1.634-1.347s1.3.627,1.656,1.33c.679,1.347,1.379,2.683,2.074,4.021.115.222.248.435.443.774.712-1.478,1.369-2.851,2.036-4.22a9.068,9.068,0,0,1,.66-1.235,1.473,1.473,0,0,1,1.931-.5,1.523,1.523,0,0,1,.767,1.852,3.989,3.989,0,0,1-.235.577c-1.18,2.461-2.37,4.918-3.539,7.385a1.748,1.748,0,0,1-1.548,1.235,1.722,1.722,0,0,1-1.6-1.162c-.72-1.413-1.455-2.819-2.186-4.227-.117-.225-.245-.444-.414-.751l-2.252,4.683c1.336.689,2.66,1.289,3.9,2.03A19.2,19.2,0,0,1,65.7,29.367a1.172,1.172,0,0,0,1.172.654c2.187-.037,4.374-.009,6.562-.017a3.157,3.157,0,0,0,3.439-3.455q.009-9.882,0-19.764c0-2.44-1.205-3.652-3.635-3.652q-23.123,0-46.244,0a4.873,4.873,0,0,1-1.16-.1,1.486,1.486,0,0,1-1.129-1.4c-.711-.042-1.42-.128-2.134-.124-.444,0-.888.022-1.333.045a1.549,1.549,0,0,1-3.1.082c-1.312,0-2.624-.042-3.935-.1,0,.02,0,.039,0,.06a1.621,1.621,0,0,1-1.813,1.531c-1.953.013-3.906,0-5.859.006m8.349,8.821a1.572,1.572,0,0,1,1.462-1,1.6,1.6,0,0,1,1.472.985c.131.255.264.507.4.761.74,1.425,1.481,2.85,2.3,4.416.762-1.586,1.459-3.045,2.165-4.5a6.972,6.972,0,0,1,.566-1.019,1.452,1.452,0,0,1,1.8-.514,1.477,1.477,0,0,1,.93,1.624,2.928,2.928,0,0,1-.264.809c-1.184,2.486-2.382,4.967-3.565,7.454a1.729,1.729,0,0,1-1.568,1.208A1.746,1.746,0,0,1,18.98,21c-.82-1.614-1.661-3.216-2.573-4.976-.776,1.608-1.488,3.067-2.185,4.533-.374.785-.7,1.624-1.767,1.627s-1.4-.837-1.8-1.606c-1.213-2.357-2.439-4.707-3.648-7.067a1.629,1.629,0,0,1,.141-2.085,1.566,1.566,0,0,1,2.576.568c.777,1.441,1.514,2.9,2.27,4.355.117.225.244.446.413.754.855-1.779,1.661-3.462,2.473-5.143" fill="#feca2e"/>
        <path id="Trazado_197225" data-name="Trazado 197225" d="M61.256,55.817a1.222,1.222,0,0,0,.145.217q5.823,5.832,11.656,11.654a2.164,2.164,0,0,0,3.746-.927,2.2,2.2,0,0,0-.723-2.185q-2.16-2.148-4.307-4.31a4.537,4.537,0,0,1-.6-.712,1.481,1.481,0,0,1,.186-1.866,1.582,1.582,0,0,1,.36-.28A12.8,12.8,0,0,0,69.963,56a1.548,1.548,0,0,1-2.756-.964A1.539,1.539,0,0,1,67.653,54c-.862-.821-1.7-1.665-2.531-2.518a25.956,25.956,0,0,1-3.866,4.337" fill="#4dd0e1"/>
        <path id="Trazado_197226" data-name="Trazado 197226" d="M0,5.476A7,7,0,0,1,2.252,1.484,6.377,6.377,0,0,1,6.353.013c2-.021,4.01-.014,6.014,0C13.49.017,14.225.668,14.2,1.6a1.621,1.621,0,0,1-1.813,1.531c-1.953.013-3.906,0-5.859.006a3.147,3.147,0,0,0-3.406,3.41q-.011,10.038,0,20.076A3.127,3.127,0,0,0,6.481,30q11.835.013,23.669-.009a1.045,1.045,0,0,0,.78-.308,20.93,20.93,0,0,1,8.894-8.071l-2.9-5.6c-.631,1.312-1.211,2.52-1.793,3.727-.237.492-.481.981-.718,1.472a1.537,1.537,0,0,1-1.4.968,1.567,1.567,0,0,1-1.492-.949q-1.632-3.151-3.267-6.3c-.264-.508-.539-1.01-.785-1.526a1.6,1.6,0,0,1,.608-2.277,1.563,1.563,0,0,1,2.147.832c.836,1.558,1.631,3.138,2.445,4.707.059.114.132.221.256.427.627-1.3,1.224-2.536,1.819-3.772.192-.4.39-.793.572-1.2a1.614,1.614,0,0,1,3.079-.068c.724,1.411,1.458,2.817,2.188,4.225.12.23.243.458.418.788.15-.27.275-.47.377-.681.713-1.475,1.409-2.957,2.135-4.426a1.518,1.518,0,0,1,1.695-.97,1.412,1.412,0,0,1,1.28,1.367,2.824,2.824,0,0,1-.323,1.256c-1.047,2.233-2.125,4.451-3.268,6.83a21.29,21.29,0,0,1,8.437-.538c-.176-.353-.283-.576-.4-.8C49.99,17.261,49,15.43,48.1,13.555a2.237,2.237,0,0,1-.184-1.61A2.011,2.011,0,0,1,49.193,11a1.43,1.43,0,0,1,1.555.936c.75,1.427,1.483,2.863,2.225,4.294.128.246.269.486.477.859l1.4-2.884c.306-.632.627-1.257.912-1.9.324-.728.74-1.343,1.634-1.347s1.3.627,1.656,1.33c.679,1.347,1.379,2.683,2.074,4.021.115.222.248.435.443.774.712-1.478,1.369-2.851,2.036-4.22a9.068,9.068,0,0,1,.66-1.235,1.474,1.474,0,0,1,1.931-.5,1.523,1.523,0,0,1,.767,1.852,3.943,3.943,0,0,1-.235.577c-1.18,2.461-2.371,4.918-3.539,7.385a1.751,1.751,0,0,1-1.548,1.236,1.724,1.724,0,0,1-1.6-1.163c-.72-1.413-1.455-2.819-2.186-4.226-.117-.225-.245-.445-.414-.751-.787,1.635-1.526,3.173-2.252,4.682,1.336.69,2.66,1.289,3.9,2.031A19.194,19.194,0,0,1,65.7,29.367a1.172,1.172,0,0,0,1.172.654c2.187-.037,4.374-.009,6.561-.017a3.157,3.157,0,0,0,3.44-3.455q.007-9.882,0-19.764c0-2.44-1.205-3.652-3.635-3.652q-23.123,0-46.244,0a4.926,4.926,0,0,1-1.16-.1,1.477,1.477,0,0,1-1.126-1.5A1.464,1.464,0,0,1,25.831.1a3.584,3.584,0,0,1,.926-.094q23.279-.006,46.557,0A6.288,6.288,0,0,1,79.993,6.65q.014,9.919,0,19.841a6.293,6.293,0,0,1-6.682,6.639c-1.872,0-3.745,0-5.683,0,2.61,8.907.505,16.447-6.372,22.686a1.222,1.222,0,0,0,.145.217q5.823,5.832,11.656,11.654a2.165,2.165,0,0,0,3.747-.927,2.2,2.2,0,0,0-.724-2.185q-2.16-2.148-4.307-4.31a4.537,4.537,0,0,1-.6-.712,1.521,1.521,0,0,1,2.111-2.091,3.249,3.249,0,0,1,.541.446c1.494,1.488,3.006,2.959,4.471,4.476,2.71,2.808,2.07,7-1.335,8.637a5.009,5.009,0,0,1-5.5-.608,11.8,11.8,0,0,1-1.2-1.111Q64.666,63.729,59.1,58.141a.823.823,0,0,0-1.173-.21A20.293,20.293,0,0,1,29.049,46.02a19.949,19.949,0,0,1,.013-12.066c.077-.244.14-.493.232-.823h-.909c-6.953,0-13.906-.09-20.856.036-3.724.068-6.68-1.5-7.529-5.5ZM65.619,40.034A17.184,17.184,0,1,0,48.387,57.189,17.239,17.239,0,0,0,65.619,40.034"/>
        <path id="Trazado_197227" data-name="Trazado 197227" d="M12.409,17.1c.855-1.778,1.661-3.462,2.473-5.143a1.572,1.572,0,0,1,1.462-1,1.594,1.594,0,0,1,1.471.985c.131.254.265.507.4.761.741,1.425,1.482,2.85,2.3,4.416.763-1.587,1.46-3.046,2.166-4.5a6.78,6.78,0,0,1,.566-1.019,1.45,1.45,0,0,1,1.8-.515,1.476,1.476,0,0,1,.929,1.624,2.893,2.893,0,0,1-.263.809c-1.184,2.487-2.382,4.967-3.566,7.454a1.727,1.727,0,0,1-1.567,1.209A1.748,1.748,0,0,1,18.979,21c-.819-1.613-1.661-3.216-2.572-4.975-.776,1.607-1.489,3.066-2.186,4.532-.373.786-.7,1.625-1.767,1.628s-1.4-.838-1.8-1.607c-1.214-2.357-2.439-4.707-3.648-7.066a1.629,1.629,0,0,1,.141-2.086,1.566,1.566,0,0,1,2.576.568c.776,1.441,1.514,2.9,2.27,4.355.117.226.244.446.413.754"/>
        <path id="Trazado_197228" data-name="Trazado 197228" d="M70.307,55.061a1.557,1.557,0,0,1-1.559,1.52,1.574,1.574,0,0,1-1.541-1.545,1.55,1.55,0,0,1,3.1.025"/>
        <path id="Trazado_197229" data-name="Trazado 197229" d="M19.649.021a1.608,1.608,0,0,1,1.587,1.513,1.55,1.55,0,0,1-3.1.073A1.6,1.6,0,0,1,19.649.021"/>
        <path id="Trazado_197230" data-name="Trazado 197230" d="M65.619,40.035A17.184,17.184,0,1,1,48.445,22.822,17.238,17.238,0,0,1,65.619,40.035m-3.437.01A13.747,13.747,0,1,0,48.436,53.753,13.793,13.793,0,0,0,62.182,40.045" fill="#fff"/>
        <path id="Trazado_197231" data-name="Trazado 197231" d="M62.182,40.044A13.747,13.747,0,1,1,48.514,26.258,13.794,13.794,0,0,1,62.182,40.044m-3.125-.007a10.622,10.622,0,1,0-10.673,10.59,10.657,10.657,0,0,0,10.673-10.59"/>
        <path id="Trazado_197232" data-name="Trazado 197232" d="M59.057,40.037A10.622,10.622,0,1,1,48.448,29.383,10.657,10.657,0,0,1,59.057,40.037m-3.6-.161a7.057,7.057,0,0,0-6.5-6.86A1.658,1.658,0,0,0,46.9,34.4c-.1.914.577,1.588,1.712,1.709a3.9,3.9,0,0,1,3.556,2.8,11.616,11.616,0,0,1,.2,1.227,1.583,1.583,0,0,0,1.673,1.409,1.6,1.6,0,0,0,1.422-1.671" fill="#bddcf6"/>
        <path id="Trazado_197233" data-name="Trazado 197233" d="M55.457,39.876a1.6,1.6,0,0,1-1.422,1.671,1.583,1.583,0,0,1-1.673-1.409,11.616,11.616,0,0,0-.2-1.227,3.9,3.9,0,0,0-3.556-2.8c-1.135-.121-1.81-.8-1.712-1.709a1.658,1.658,0,0,1,2.065-1.384,7.057,7.057,0,0,1,6.5,6.86"/>
      </g>
    </g>
  </g>
</svg>
