<svg xmlns="http://www.w3.org/2000/svg" xmlns:xlink="http://www.w3.org/1999/xlink" width="529" height="332" viewBox="0 0 529 332">
  <defs>
    <clipPath id="clip-path">
      <rect id="Rectángulo_44367" data-name="Rectángulo 44367" width="505" height="284" fill="none"/>
    </clipPath>
    <clipPath id="clip-path-3">
      <rect id="Rectángulo_44365" data-name="Rectángulo 44365" width="505" height="246.18" transform="translate(0 34.634)" fill="none"/>
    </clipPath>
  </defs>
  <g id="Grupo_143210" data-name="Grupo 143210" transform="translate(-843 -2544)">
    <g id="Grupo_141910" data-name="Grupo 141910" transform="translate(0 784)">
      <rect id="Rectángulo_43999" data-name="Rectángulo 43999" width="166" height="332" transform="translate(1206 1760)" fill="#4dd0e1"/>
      <g id="Grupo_141909" data-name="Grupo 141909" transform="translate(843 1784)">
        <g id="Grupo_141908" data-name="Grupo 141908" clip-path="url(#clip-path)">
          <rect id="Rectángulo_44364" data-name="Rectángulo 44364" width="505" height="284" fill="#ffedb6"/>
          <g id="Grupo_141907" data-name="Grupo 141907">
            <g id="Grupo_141906" data-name="Grupo 141906" clip-path="url(#clip-path)">
              <g id="Grupo_141905" data-name="Grupo 141905" opacity="0.35">
                <g id="Grupo_141904" data-name="Grupo 141904">
                  <g id="Grupo_141903" data-name="Grupo 141903" clip-path="url(#clip-path-3)">
                    <path id="Trazado_196082" data-name="Trazado 196082" d="M25.032,279.968S-17.272,227.51,8.11,177.591s73.61-38.074,141.3-88.839C231.579,27.123,289.28,23.736,362.621,50.678c41.459,15.23,48.228,77.84,114.222,116.76,59.494,35.086,11,94.762-20.306,104.069s-52.457,9.307-52.457,9.307Z" fill="#bddcf6"/>
                  </g>
                </g>
              </g>
              <path id="Trazado_196083" data-name="Trazado 196083" d="M276.9,167.188c-10.559,21.434-23.8,80-27.408,83.214s-24.471,15.645-28.082,21.663-2.005,4.011-.4,4.413,92.268.8,92.268.8S302.846,215.1,301.642,214.7s-24.744-47.51-24.744-47.51" fill="#feca2e"/>
              <path id="Trazado_196084" data-name="Trazado 196084" d="M261.885,276.99c16.651.116,34.223.208,43.9.255l-13.244-79.2c-7.064-13.694-15.639-30.855-15.639-30.855-1.331,2.7-2.705,6-4.1,9.693-1.373,59.487,7.2,76.16.759,86.76-5.021,8.27-9.605,11.971-11.675,13.349" fill="#cba124"/>
              <path id="Trazado_196085" data-name="Trazado 196085" d="M450.132,281.25H14.774a3.359,3.359,0,0,1,0-6.717H450.132a3.359,3.359,0,0,1,0,6.717" fill="#0f2771"/>
              <path id="Trazado_196086" data-name="Trazado 196086" d="M332.5,141.318c15.059,13.9,48.577,27.082,48.577,27.082s5.093,47.053,1.618,73.7-1.544,32.047-1.544,32.047H312.035s-9.276-12.872-26.256-52.9c-10.811-25.483-8.881-54.056-8.881-54.056l42.087-18.92Z" fill="#feca2e"/>
              <path id="Trazado_196087" data-name="Trazado 196087" d="M312.035,274.143H381.15s-1.93-5.406,1.544-32.048c2.862-21.938-.086-57.714-1.216-69.664l-6.286-2.694c-15.78,4.547-24.873,28.084-27.548,51.085-1.789,15.39-27.287,30.541-43.965,38.882,5.479,10.445,8.356,14.439,8.356,14.439" fill="#cba124"/>
              <path id="Trazado_196088" data-name="Trazado 196088" d="M295.091,93.022c-8.331,18.556,1.668,35.745,1.365,35.02s12.61-31.329,12.61-31.329Z" fill="#0f2771"/>
              <path id="Trazado_196089" data-name="Trazado 196089" d="M326.662,106.743l10.566,38.621a3.494,3.494,0,0,1-.668,3.128c-2.479,3.053-6.007,9.333-13.126,11.347a17.621,17.621,0,0,1-4.469.5,3.016,3.016,0,0,1-2.977-2.441l-7.08-36.631Z" fill="#f09959"/>
              <path id="Trazado_196090" data-name="Trazado 196090" d="M324.644,109.971l-3.862,1.584-11.874,9.715,6.374,32.475c10.808-6.738,12.384-11.287,9.362-43.774" fill="#e38540"/>
              <path id="Trazado_196091" data-name="Trazado 196091" d="M326.274,123.827c-2.339,12.706-11.846,21.3-21.234,19.193s-13.868-10.329-12.765-26.816c.864-12.935,7.243-27,16.632-24.89s19.706,19.809,17.367,32.513" fill="#f09959"/>
              <path id="Trazado_196092" data-name="Trazado 196092" d="M381.076,168.4c13.984,3.158,16.582,31.56,21.129,61.515.523,3.448,3.21,32.63,3.21,32.63a8.933,8.933,0,0,1-5.082,8.024c-4.57,2.285-6.419,4.012-32.9,4.279-25.43.257-58.217-.8-58.217-.8s-.29-9.462,2.318-14.086c3.922-6.954,44.131-16.939,47.875-17.474.535-7.489-3.692-34.585,2.14-52.957,4.011-12.637,8.324-19.257,13.728-20.987a10.844,10.844,0,0,1,5.8-.142" fill="#feca2e"/>
              <path id="Trazado_196093" data-name="Trazado 196093" d="M323.6,274.622c12.537.189,29.741.368,43.838.226,26.478-.267,28.327-1.994,32.9-4.279,5.349-2.675,5.617-7.222,5.617-7.222s-2.7-31.052-3.209-34.5c-2.943-20.059-6.121-43.013-13.52-54.093a151.288,151.288,0,0,1,8.2,44.929,44.762,44.762,0,0,1-1.366,12.374c-1.2,3.945-4.279,6.419-9.094,5.082-9.628-2.675-21.664,2.942-21.664,2.942s9.094-3.21,17.652-.268,26.211,22.467,6.954,29.688c-5.893,2.21-41.188,4.012-66.3,5.123" fill="#cba124"/>
              <path id="Trazado_196094" data-name="Trazado 196094" d="M313.677,260.851a13.259,13.259,0,0,1,10.877-6.062c7.31,0,6.776,11.946,5.706,15.869s-5.35,4.1-5.35,4.1l-15.691-.713Z" fill="#96cfe0"/>
              <path id="Trazado_196095" data-name="Trazado 196095" d="M297.77,277.482H198.854a2.721,2.721,0,0,1-2.713-2.712v-.78a2.72,2.72,0,0,1,2.713-2.712H297.77a2.719,2.719,0,0,1,2.712,2.712v.78a2.72,2.72,0,0,1-2.712,2.712" fill="#4dd0e1"/>
              <path id="Trazado_196096" data-name="Trazado 196096" d="M311.715,261.565c-15.334-5.527-19.357-3.447-22.823-4.458-8.559-2.5-10.7-.356-16.226,14.8-1.1,3.02,2.14,3.209,5.349,3.209s7.133-6.24,8.381-6.954a17.451,17.451,0,0,1,4.636-1.07s-1.07,0-2.675,3.21-3.566,4.458-1.07,4.458,2.853-4.1,7.489-3.21,2.853,3.21,14.443,3.031,20.336,0,20.149-6.954c-.179-6.6.551-9.9-5.706-11.055-4.815-.891-11.947,4.993-11.947,4.993" fill="#f09959"/>
              <path id="Trazado_196097" data-name="Trazado 196097" d="M311.916,261.565c10.253-1.159,7.244,11.612,6.174,12.682s5.708.376,5.708.376a12.38,12.38,0,0,0,.51-11.008,10,10,0,0,0-8.024-6.151l-4.546,2.5Z" fill="#a86b48"/>
              <path id="Trazado_196098" data-name="Trazado 196098" d="M322.621,260.453c-.132,1.583-2.822,2.65-6.008,2.384s-5.66-1.765-5.528-3.348,2.822-2.65,6.007-2.384,5.661,1.765,5.529,3.348" fill="#0f2771"/>
              <path id="Trazado_196099" data-name="Trazado 196099" d="M321.806,259.666c-.118,1.414-2.521,2.368-5.367,2.13s-5.057-1.577-4.94-2.991,2.522-2.368,5.368-2.13,5.058,1.577,4.939,2.991" fill="#3e6bab"/>
              <path id="Trazado_196100" data-name="Trazado 196100" d="M320.028,259.01c-.085,1.018-1.815,1.7-3.864,1.533s-3.64-1.135-3.555-2.153,1.814-1.7,3.863-1.533,3.641,1.135,3.556,2.153" fill="#f0ceb4"/>
              <path id="Trazado_196101" data-name="Trazado 196101" d="M195.237,257.888H95.592a10.9,10.9,0,0,1-10.683-9.022l-13-71.737a10.969,10.969,0,0,1,10.683-13h99.645a10.9,10.9,0,0,1,10.683,9.022l13,71.737a10.969,10.969,0,0,1-10.683,13" fill="#2e7d87"/>
              <path id="Trazado_196102" data-name="Trazado 196102" d="M199.892,245.156,186.629,174.9a11.009,11.009,0,0,0-10.9-8.836H74.462a11.186,11.186,0,0,0-2.543,9.367l13.453,73.241a11.243,11.243,0,0,0,11.058,9.212h92.559a10.876,10.876,0,0,0,10.9-12.732" fill="#3da6b4"/>
              <path id="Trazado_196103" data-name="Trazado 196103" d="M175.865,267.495H156.949c-3.374,0-6.109-3-6.109-6.711V226.2c0-5.9-4.352-10.681-9.722-10.681h-9.882c-5.369,0-9.722,4.782-9.722,10.681v38.732c0,6.623,4.907,11.981,10.937,11.939l51.625-.354c0-4.982-3.676-9.021-8.211-9.021" fill="#2e7d87"/>
              <path id="Trazado_196104" data-name="Trazado 196104" d="M122.266,226.975v38.139a11.755,11.755,0,0,0,10.9,11.722l50.384-.315c0-.825-3.977-2.329-8.883-2.329H154.206a6.607,6.607,0,0,1-6.608-6.608V226.975a10.517,10.517,0,0,0-10.518-10.517h-4.3a10.516,10.516,0,0,0-10.517,10.517" fill="#4dd0e1"/>
              <path id="Trazado_196105" data-name="Trazado 196105" d="M227.726,263.1c7.614-4.23,16.92-2.82,20.3,1.41s3.948,7.05-3.666,7.05-22.842.564-25.38.282,8.742-8.742,8.742-8.742" fill="#f09959"/>
              <path id="Trazado_196106" data-name="Trazado 196106" d="M239.006,260.562c8.178-1.974,13.766,2.785,20.586,7.332,5.922,3.948,7.112,7.786.564,4.512-9.588-4.794-15.228-5.358-15.228-5.358Z" fill="#f09959"/>
              <path id="Trazado_196107" data-name="Trazado 196107" d="M231.557,263.074c-4.13,0-7.735-1.317-10.651-1.074s-12.147,9.718-10.689,10.446a3.381,3.381,0,0,0,.34.146,4.975,4.975,0,0,0,5.9-2.07c1.307-2.1,3.432-4.537,5.906-3.663a26.276,26.276,0,0,0,8.464,1.317Z" fill="#f09959"/>
              <path id="Trazado_196108" data-name="Trazado 196108" d="M229.136,273.252c-4.23-1.692,2.538-15.792,4.794-15.792s10.716,6.768,10.716,6.768-1.99,1.123-8.742-1.128c-1.692-.564-3.1,9.024-5.076,10.152s-1.692,0-1.692,0" fill="#f7a96f"/>
              <path id="Trazado_196109" data-name="Trazado 196109" d="M292.268,123.629c-.393,15.527,4.9,18.152,8.6,20.261s19.64-1.375,21.98-5.215c5.986-9.824.948-18.985,2.286-18.847s2.563,3.963,6.055,8.927c.325.462,2.594,3.53,2.712,2.509,1.621-13.9,8.861-18.221,7.137-32.284-1.271-10.367-7.852-9.544-7.852-9.544s-4.245-8.675-17.46-7.69c-8.854.66-16.748,4.11-25.875,6.459s10.8,23.037,22.637,15.479,5.993,9.09,7.861,10.381.9.172,1.756,8.691-9.963,14.082-13.064,14.811c-9.914,2.332-11.572.7-13.743-3.037-1.885-3.24-3.028-10.9-3.028-10.9" fill="#0f2771"/>
              <path id="Trazado_196110" data-name="Trazado 196110" d="M333.307,118.821c-1.137,3.913-3.917,6.441-6.208,5.646s-2.36-3.974-2.09-8.524c.243-4.1,3.917-6.441,6.208-5.646s3.227,4.611,2.09,8.524" fill="#f09959"/>
              <path id="Trazado_196111" data-name="Trazado 196111" d="M116.651,108.315H32.007a1.668,1.668,0,0,1-1.668-1.668V70.223a1.668,1.668,0,0,1,1.668-1.668h84.644a1.668,1.668,0,0,1,1.668,1.668v36.424a1.668,1.668,0,0,1-1.668,1.668" fill="#b7e1ff"/>
              <path id="Trazado_196112" data-name="Trazado 196112" d="M114.566,106.449H34.092a1.347,1.347,0,0,1-1.347-1.347V80.348A1.347,1.347,0,0,1,34.092,79h80.474a1.348,1.348,0,0,1,1.348,1.347V105.1a1.348,1.348,0,0,1-1.348,1.347" fill="#fff"/>
              <path id="Trazado_196113" data-name="Trazado 196113" d="M36.666,74.583H34.713a.747.747,0,0,1-.747-.747V72.228a.746.746,0,0,1,.747-.747h1.953a.747.747,0,0,1,.747.747v1.608a.748.748,0,0,1-.747.747" fill="#fff"/>
              <path id="Trazado_196114" data-name="Trazado 196114" d="M42.932,74.583H40.979a.748.748,0,0,1-.747-.747V72.228a.747.747,0,0,1,.747-.747h1.953a.746.746,0,0,1,.747.747v1.608a.747.747,0,0,1-.747.747" fill="#fff"/>
              <path id="Trazado_196115" data-name="Trazado 196115" d="M49.2,74.583H47.246a.747.747,0,0,1-.747-.747V72.228a.746.746,0,0,1,.747-.747H49.2a.747.747,0,0,1,.747.747v1.608a.748.748,0,0,1-.747.747" fill="#fff"/>
              <path id="Trazado_196116" data-name="Trazado 196116" d="M112.529,85.017H68.537a1.316,1.316,0,1,1,0-2.632h43.992a1.316,1.316,0,1,1,0,2.632" fill="#b7e1ff"/>
              <path id="Trazado_196117" data-name="Trazado 196117" d="M79.441,105.321H35.449a1.316,1.316,0,1,1,0-2.632H79.441a1.316,1.316,0,1,1,0,2.632" fill="#b7e1ff"/>
              <path id="Trazado_196118" data-name="Trazado 196118" d="M87.545,105.321H82.993a.451.451,0,0,1-.45-.45v-1.732a.452.452,0,0,1,.45-.45h4.552a.451.451,0,0,1,.45.45v1.732a.451.451,0,0,1-.45.45" fill="#b7e1ff"/>
              <path id="Trazado_196119" data-name="Trazado 196119" d="M94.407,105.321H89.855a.451.451,0,0,1-.45-.45v-1.732a.452.452,0,0,1,.45-.45h4.552a.452.452,0,0,1,.45.45v1.732a.451.451,0,0,1-.45.45" fill="#b7e1ff"/>
              <path id="Trazado_196120" data-name="Trazado 196120" d="M112.952,90.751H40.1a.893.893,0,1,1,0-1.786h72.85a.893.893,0,0,1,0,1.786" fill="#b7e1ff"/>
              <path id="Trazado_196121" data-name="Trazado 196121" d="M112.952,94.605H40.1a.893.893,0,1,1,0-1.786h72.85a.893.893,0,0,1,0,1.786" fill="#b7e1ff"/>
              <path id="Trazado_196122" data-name="Trazado 196122" d="M136.531,136.232H51.887a1.668,1.668,0,0,1-1.668-1.668V98.14a1.668,1.668,0,0,1,1.668-1.668h84.644A1.668,1.668,0,0,1,138.2,98.14v36.424a1.668,1.668,0,0,1-1.668,1.668" fill="#9ec8ff"/>
              <path id="Trazado_196123" data-name="Trazado 196123" d="M134.446,134.366H53.972a1.347,1.347,0,0,1-1.347-1.347V108.265a1.347,1.347,0,0,1,1.347-1.347h80.474a1.348,1.348,0,0,1,1.348,1.347v24.754a1.348,1.348,0,0,1-1.348,1.347" fill="#fff"/>
              <path id="Trazado_196124" data-name="Trazado 196124" d="M56.546,102.5H54.593a.747.747,0,0,1-.747-.747v-1.608a.747.747,0,0,1,.747-.747h1.953a.747.747,0,0,1,.747.747v1.608a.747.747,0,0,1-.747.747" fill="#fff"/>
              <path id="Trazado_196125" data-name="Trazado 196125" d="M62.813,102.5H60.86a.746.746,0,0,1-.747-.747v-1.608a.746.746,0,0,1,.747-.747h1.953a.747.747,0,0,1,.747.747v1.608a.747.747,0,0,1-.747.747" fill="#fff"/>
              <path id="Trazado_196126" data-name="Trazado 196126" d="M69.079,102.5H67.126a.747.747,0,0,1-.747-.747v-1.608a.747.747,0,0,1,.747-.747h1.953a.747.747,0,0,1,.747.747v1.608a.747.747,0,0,1-.747.747" fill="#fff"/>
              <path id="Trazado_196127" data-name="Trazado 196127" d="M132.41,112.934H88.417a1.316,1.316,0,1,1,0-2.632H132.41a1.316,1.316,0,0,1,0,2.632" fill="#9ec8ff"/>
              <path id="Trazado_196128" data-name="Trazado 196128" d="M99.321,133.238H55.329a1.316,1.316,0,0,1,0-2.632H99.321a1.316,1.316,0,1,1,0,2.632" fill="#9ec8ff"/>
              <path id="Trazado_196129" data-name="Trazado 196129" d="M107.425,133.238h-4.552a.451.451,0,0,1-.45-.45v-1.732a.452.452,0,0,1,.45-.45h4.552a.452.452,0,0,1,.45.45v1.732a.451.451,0,0,1-.45.45" fill="#9ec8ff"/>
              <path id="Trazado_196130" data-name="Trazado 196130" d="M114.287,133.238h-4.552a.451.451,0,0,1-.45-.45v-1.732a.452.452,0,0,1,.45-.45h4.552a.451.451,0,0,1,.45.45v1.732a.451.451,0,0,1-.45.45" fill="#9ec8ff"/>
              <path id="Trazado_196131" data-name="Trazado 196131" d="M132.832,118.668H59.982a.893.893,0,0,1,0-1.786h72.85a.893.893,0,1,1,0,1.786" fill="#9ec8ff"/>
              <path id="Trazado_196132" data-name="Trazado 196132" d="M132.832,122.522H59.982a.893.893,0,0,1,0-1.786h72.85a.893.893,0,1,1,0,1.786" fill="#9ec8ff"/>
              <path id="Trazado_196133" data-name="Trazado 196133" d="M169.5,126.5a11.42,11.42,0,1,1-11.42-11.42A11.42,11.42,0,0,1,169.5,126.5" fill="#feca2e"/>
              <path id="Trazado_196134" data-name="Trazado 196134" d="M156.946,130.723h-.032a.868.868,0,0,1-.621-.3l-3.1-3.524a.87.87,0,1,1,1.306-1.149l2.5,2.837,5.972-5.845a.869.869,0,0,1,1.216,1.243l-6.627,6.486a.87.87,0,0,1-.608.247" fill="#fff"/>
              <path id="Trazado_196135" data-name="Trazado 196135" d="M242.673,73.454H170.058a3.394,3.394,0,0,1-3.384-3.384V44.126a3.394,3.394,0,0,1,3.384-3.384h72.615a3.394,3.394,0,0,1,3.384,3.384V70.07a3.394,3.394,0,0,1-3.384,3.384" fill="#9ec8ff"/>
              <path id="Trazado_196136" data-name="Trazado 196136" d="M176.262,68.518V86.566l20.8-20.8s-20.375,2.749-20.8,2.749" fill="#9ec8ff"/>
              <path id="Trazado_196137" data-name="Trazado 196137" d="M239.082,70.21H173.649a2.877,2.877,0,0,1-2.869-2.869V46.853a2.877,2.877,0,0,1,2.869-2.869h65.433a2.878,2.878,0,0,1,2.87,2.869V67.341a2.878,2.878,0,0,1-2.87,2.869" fill="#fff"/>
              <path id="Trazado_196138" data-name="Trazado 196138" d="M209.538,50.47H177.39a1.41,1.41,0,1,1,0-2.82h32.148a1.41,1.41,0,1,1,0,2.82" fill="#9ec8ff"/>
              <path id="Trazado_196139" data-name="Trazado 196139" d="M236.39,55.861H176.764a.786.786,0,0,1-.784-.784v-.016a.786.786,0,0,1,.784-.784H236.39a.787.787,0,0,1,.784.784v.016a.787.787,0,0,1-.784.784" fill="#9ec8ff"/>
              <path id="Trazado_196140" data-name="Trazado 196140" d="M236.39,58.93H176.764a.786.786,0,0,1-.784-.784V58.13a.786.786,0,0,1,.784-.784H236.39a.787.787,0,0,1,.784.784v.016a.787.787,0,0,1-.784.784" fill="#9ec8ff"/>
              <path id="Trazado_196141" data-name="Trazado 196141" d="M224.066,69.082h-1.953a.747.747,0,0,1-.747-.747V66.727a.747.747,0,0,1,.747-.747h1.953a.747.747,0,0,1,.747.747v1.608a.747.747,0,0,1-.747.747" fill="#9ec8ff"/>
              <path id="Trazado_196142" data-name="Trazado 196142" d="M230.333,69.082H228.38a.747.747,0,0,1-.747-.747V66.727a.747.747,0,0,1,.747-.747h1.953a.746.746,0,0,1,.747.747v1.608a.746.746,0,0,1-.747.747" fill="#9ec8ff"/>
              <path id="Trazado_196143" data-name="Trazado 196143" d="M236.6,69.082h-1.954a.746.746,0,0,1-.747-.747V66.727a.746.746,0,0,1,.747-.747H236.6a.747.747,0,0,1,.746.747v1.608a.747.747,0,0,1-.746.747" fill="#9ec8ff"/>
            </g>
          </g>
        </g>
      </g>
    </g>
  </g>
</svg>
