<svg xmlns="http://www.w3.org/2000/svg" xmlns:xlink="http://www.w3.org/1999/xlink" width="398" height="420" viewBox="0 0 398 420">
  <defs>
    <clipPath id="clip-path">
      <rect id="Rectángulo_44939" data-name="Rectángulo 44939" width="398" height="420" fill="#fff" stroke="#707070" stroke-width="1"/>
    </clipPath>
    <clipPath id="clip-path-2">
      <rect id="Rectángulo_44436" data-name="Rectángulo 44436" width="455.75" height="437.555" fill="none"/>
    </clipPath>
    <clipPath id="clip-path-3">
      <path id="Trazado_196199" data-name="Trazado 196199" d="M49.228,212.813c0,103.96,84.275,188.234,188.235,188.234S425.7,316.773,425.7,212.813,341.422,24.578,237.463,24.578,49.228,108.854,49.228,212.813" transform="translate(-49.228 -24.578)" fill="none"/>
    </clipPath>
    <clipPath id="clip-path-5">
      <rect id="Rectángulo_44392" data-name="Rectángulo 44392" width="137.954" height="152.526" fill="none"/>
    </clipPath>
    <clipPath id="clip-path-6">
      <rect id="Rectángulo_44395" data-name="Rectángulo 44395" width="120.219" height="132.05" fill="none"/>
    </clipPath>
    <clipPath id="clip-path-7">
      <rect id="Rectángulo_44397" data-name="Rectángulo 44397" width="75.264" height="125.252" fill="none"/>
    </clipPath>
    <clipPath id="clip-path-8">
      <rect id="Rectángulo_44399" data-name="Rectángulo 44399" width="98.238" height="134.259" fill="none"/>
    </clipPath>
    <clipPath id="clip-path-9">
      <rect id="Rectángulo_44401" data-name="Rectángulo 44401" width="253.115" height="135.911" fill="none"/>
    </clipPath>
    <clipPath id="clip-path-10">
      <rect id="Rectángulo_44402" data-name="Rectángulo 44402" width="259.89" height="138.279" fill="none"/>
    </clipPath>
    <clipPath id="clip-path-11">
      <rect id="Rectángulo_44404" data-name="Rectángulo 44404" width="49.06" height="49.06" fill="none"/>
    </clipPath>
    <clipPath id="clip-path-12">
      <rect id="Rectángulo_44408" data-name="Rectángulo 44408" width="113.095" height="119.606" fill="none"/>
    </clipPath>
    <clipPath id="clip-path-13">
      <rect id="Rectángulo_44409" data-name="Rectángulo 44409" width="19.196" height="29.766" fill="none"/>
    </clipPath>
    <clipPath id="clip-path-14">
      <rect id="Rectángulo_44410" data-name="Rectángulo 44410" width="24.387" height="37.994" fill="none"/>
    </clipPath>
    <clipPath id="clip-path-15">
      <rect id="Rectángulo_44411" data-name="Rectángulo 44411" width="17.723" height="27.433" fill="none"/>
    </clipPath>
    <clipPath id="clip-path-16">
      <rect id="Rectángulo_44412" data-name="Rectángulo 44412" width="19.195" height="29.766" fill="none"/>
    </clipPath>
    <clipPath id="clip-path-18">
      <rect id="Rectángulo_44414" data-name="Rectángulo 44414" width="17.722" height="27.433" fill="none"/>
    </clipPath>
    <clipPath id="clip-path-20">
      <rect id="Rectángulo_44416" data-name="Rectángulo 44416" width="24.388" height="37.994" fill="none"/>
    </clipPath>
    <clipPath id="clip-path-22">
      <rect id="Rectángulo_44418" data-name="Rectángulo 44418" width="136.253" height="133.816" fill="none"/>
    </clipPath>
    <clipPath id="clip-path-23">
      <rect id="Rectángulo_44426" data-name="Rectángulo 44426" width="47.208" height="47.208" fill="none"/>
    </clipPath>
    <clipPath id="clip-path-24">
      <rect id="Rectángulo_44431" data-name="Rectángulo 44431" width="102.029" height="103.995" fill="none"/>
    </clipPath>
    <clipPath id="clip-path-25">
      <rect id="Rectángulo_44434" data-name="Rectángulo 44434" width="15.681" height="6.563" fill="none"/>
    </clipPath>
    <clipPath id="clip-path-26">
      <rect id="Rectángulo_44435" data-name="Rectángulo 44435" width="16.437" height="8.152" fill="none"/>
    </clipPath>
  </defs>
  <g id="Grupo_143213" data-name="Grupo 143213" transform="translate(-180 -4530)">
    <g id="Grupo_142047" data-name="Grupo 142047" transform="translate(0 970)">
      <g id="Enmascarar_grupo_116" data-name="Enmascarar grupo 116" transform="translate(180 3560)" clip-path="url(#clip-path)">
        <g id="Grupo_142045" data-name="Grupo 142045" transform="translate(-45.759 -0.383)">
          <g id="Grupo_142044" data-name="Grupo 142044">
            <g id="Grupo_142043" data-name="Grupo 142043" clip-path="url(#clip-path-2)">
              <g id="Grupo_141974" data-name="Grupo 141974" transform="translate(51.196 25.56)">
                <g id="Grupo_141973" data-name="Grupo 141973" clip-path="url(#clip-path-3)">
                  <rect id="Rectángulo_44390" data-name="Rectángulo 44390" width="376.47" height="376.47" transform="translate(0 0)" fill="#fff"/>
                  <rect id="Rectángulo_44391" data-name="Rectángulo 44391" width="376.47" height="376.47" transform="translate(0 0)" fill="#2e7d87"/>
                  <path id="Trazado_196197" data-name="Trazado 196197" d="M425.7,24.578V204.3c-43.093-63.364-111.373-104.3-188.232-104.3S92.321,140.941,49.228,204.3V24.578Z" transform="translate(-49.228 -24.578)" fill="#078e8c"/>
                  <path id="Trazado_196198" data-name="Trazado 196198" d="M425.7,24.578v88.169c-50.916-47.6-116.57-76.256-188.232-76.256S100.144,65.149,49.228,112.747V24.578Z" transform="translate(-49.228 -24.578)" fill="#0e7f7c"/>
                </g>
              </g>
              <g id="Grupo_142042" data-name="Grupo 142042" transform="translate(51.196 25.56)">
                <g id="Grupo_142041" data-name="Grupo 142041" clip-path="url(#clip-path-3)">
                  <g id="Grupo_141977" data-name="Grupo 141977" transform="translate(145.218 171.872)" opacity="0.2">
                    <g id="Grupo_141976" data-name="Grupo 141976">
                      <g id="Grupo_141975" data-name="Grupo 141975" clip-path="url(#clip-path-5)">
                        <path id="Trazado_196200" data-name="Trazado 196200" d="M279.293,189.844l-21.607,8.912a7.286,7.286,0,0,0-7.242-.953l-4.085,1.685a6.331,6.331,0,0,1-6.858-1.249,9.688,9.688,0,0,0-16.5,6.784,6.368,6.368,0,0,1-4,5.748l-4.066,1.677a7.289,7.289,0,0,0-4.465,5.781l-21.607,8.912L236.389,342.37l90.429-37.3Z" transform="translate(-188.864 -189.844)" fill="#12110b"/>
                      </g>
                    </g>
                  </g>
                  <rect id="Rectángulo_44393" data-name="Rectángulo 44393" width="97.818" height="124.646" transform="matrix(0.924, -0.381, 0.381, 0.924, 146.207, 205.707)" fill="#615b5c"/>
                  <g id="Grupo_141980" data-name="Grupo 141980" transform="translate(153.942 177.387)" opacity="0.2">
                    <g id="Grupo_141979" data-name="Grupo 141979">
                      <g id="Grupo_141978" data-name="Grupo 141978" clip-path="url(#clip-path-6)">
                        <rect id="Rectángulo_44394" data-name="Rectángulo 44394" width="85.709" height="107.491" transform="translate(0 32.679) rotate(-22.413)" fill="#12110b"/>
                      </g>
                    </g>
                  </g>
                  <rect id="Rectángulo_44396" data-name="Rectángulo 44396" width="85.709" height="107.491" transform="translate(153.942 208.582) rotate(-22.413)" fill="#fffbe6"/>
                  <path id="Trazado_196201" data-name="Trazado 196201" d="M250.567,194.259l-4.085,1.685a6.331,6.331,0,0,1-6.858-1.249,9.688,9.688,0,0,0-16.5,6.784,6.369,6.369,0,0,1-4,5.748l-4.066,1.677a7.137,7.137,0,0,0-4.265,8.431,7.011,7.011,0,0,0,9.4,4.581l35.9-14.806a7.012,7.012,0,0,0,3.439-9.878,7.137,7.137,0,0,0-8.969-2.973" transform="translate(-42.78 -17.89)" fill="#443f3e"/>
                  <path id="Trazado_196202" data-name="Trazado 196202" d="M253.8,228.338,224.059,240.6a.495.495,0,1,1-.378-.914l29.736-12.264a.495.495,0,1,1,.378.914" transform="translate(-42.267 -16.471)" fill="#d4d1bd"/>
                  <path id="Trazado_196203" data-name="Trazado 196203" d="M218.253,242.05a1.591,1.591,0,1,1-2.077-.864,1.59,1.59,0,0,1,2.077.864" transform="translate(-42.594 -15.924)" fill="#d4d1bd"/>
                  <path id="Trazado_196204" data-name="Trazado 196204" d="M245.093,242.019l-17.409,7.18a.495.495,0,0,1-.376-.915l17.408-7.179a.494.494,0,1,1,.377.914" transform="translate(-42.122 -15.924)" fill="#d4d1bd"/>
                  <path id="Trazado_196205" data-name="Trazado 196205" d="M221.879,250.841a1.591,1.591,0,1,1-2.077-.863,1.591,1.591,0,0,1,2.077.863" transform="translate(-42.449 -15.573)" fill="#d4d1bd"/>
                  <path id="Trazado_196206" data-name="Trazado 196206" d="M267.027,243.292,247.615,251.3a.495.495,0,0,1-.378-.914l19.412-8.006a.495.495,0,0,1,.378.914" transform="translate(-41.325 -15.873)" fill="#d4d1bd"/>
                  <path id="Trazado_196207" data-name="Trazado 196207" d="M225.5,259.634a1.591,1.591,0,1,1-2.077-.864,1.59,1.59,0,0,1,2.077.864" transform="translate(-42.304 -15.221)" fill="#d4d1bd"/>
                  <path id="Trazado_196208" data-name="Trazado 196208" d="M267.718,253.507l-32.781,13.52a.494.494,0,1,1-.376-.914l32.78-13.52a.495.495,0,1,1,.378.914" transform="translate(-41.832 -15.465)" fill="#d4d1bd"/>
                  <path id="Trazado_196209" data-name="Trazado 196209" d="M229.132,268.425a1.591,1.591,0,1,1-2.078-.863,1.592,1.592,0,0,1,2.078.863" transform="translate(-42.159 -14.87)" fill="#d4d1bd"/>
                  <path id="Trazado_196210" data-name="Trazado 196210" d="M262.12,265.956l-23.556,9.716a.495.495,0,0,1-.378-.914l23.556-9.716a.495.495,0,0,1,.377.914" transform="translate(-41.687 -14.967)" fill="#d4d1bd"/>
                  <path id="Trazado_196211" data-name="Trazado 196211" d="M232.758,277.217a1.591,1.591,0,1,1-2.077-.864,1.591,1.591,0,0,1,2.077.864" transform="translate(-42.014 -14.518)" fill="#d4d1bd"/>
                  <path id="Trazado_196212" data-name="Trazado 196212" d="M289.609,254.642l-25,10.312a.495.495,0,0,1-.377-.914l25-10.312a.495.495,0,1,1,.378.914" transform="translate(-40.646 -15.42)" fill="#d4d1bd"/>
                  <path id="Trazado_196213" data-name="Trazado 196213" d="M285.626,245.85l-15.719,6.483a.495.495,0,0,1-.378-.914l15.719-6.483a.495.495,0,0,1,.378.914" transform="translate(-40.434 -15.771)" fill="#d4d1bd"/>
                  <path id="Trazado_196214" data-name="Trazado 196214" d="M244.89,252.329l-13.579,5.6a.495.495,0,0,1-.378-.914l13.579-5.6a.495.495,0,1,1,.378.914" transform="translate(-41.977 -15.512)" fill="#d4d1bd"/>
                  <path id="Trazado_196215" data-name="Trazado 196215" d="M281.877,237.058l-12.5,5.156A.495.495,0,1,1,269,241.3l12.5-5.156a.495.495,0,0,1,.378.914" transform="translate(-40.455 -16.122)" fill="#d4d1bd"/>
                  <path id="Trazado_196216" data-name="Trazado 196216" d="M278.978,228.266l-31.424,12.96a.495.495,0,1,1-.378-.914l31.424-12.96a.495.495,0,1,1,.377.914" transform="translate(-41.328 -16.474)" fill="#d4d1bd"/>
                  <path id="Trazado_196217" data-name="Trazado 196217" d="M236.384,286.009a1.591,1.591,0,1,1-2.077-.864,1.59,1.59,0,0,1,2.077.864" transform="translate(-41.869 -14.167)" fill="#d4d1bd"/>
                  <path id="Trazado_196218" data-name="Trazado 196218" d="M240.01,294.8a1.591,1.591,0,1,1-2.077-.864,1.591,1.591,0,0,1,2.077.864" transform="translate(-41.724 -13.816)" fill="#d4d1bd"/>
                  <path id="Trazado_196219" data-name="Trazado 196219" d="M274.867,219.474l-18.794,7.751a.494.494,0,0,1-.376-.914l18.793-7.751a.495.495,0,0,1,.378.914" transform="translate(-40.987 -16.825)" fill="#d4d1bd"/>
                  <path id="Trazado_196220" data-name="Trazado 196220" d="M259.6,277.187l-17.408,7.18a.495.495,0,1,1-.376-.915l17.407-7.179a.495.495,0,0,1,.378.914" transform="translate(-41.542 -14.518)" fill="#d4d1bd"/>
                  <g id="Grupo_141983" data-name="Grupo 141983" transform="translate(142.289 286.743)" opacity="0.2">
                    <g id="Grupo_141982" data-name="Grupo 141982">
                      <g id="Grupo_141981" data-name="Grupo 141981" clip-path="url(#clip-path-7)">
                        <path id="Trazado_196221" data-name="Trazado 196221" d="M260.433,314.052c2.243-3.993-1.915-6.36-4.578-2.556-2.715,3.879-7.77,12.883-11.786,18.58a.7.7,0,0,1-1.207-.683c2.842-6.436,7.677-18.26,9.574-22.609,1.519-3.48-2.421-6.754-5.14-2.184-2.437,4.1-8.562,15.759-11.664,21.44a.446.446,0,0,1-.813-.358c2.12-6.2,4.94-16.985,6.5-21.4,1.343-3.805-3.313-5.922-5.383-1.527-1.8,3.829-5.389,13.143-8.107,18.778a.575.575,0,0,1-1.075-.39c1.243-4.939,2.363-12.861,3.167-16,.515-2.015-3.228-3.426-4.484-.688-3.45,7.517-5.811,15.742-7.962,22.495a23.05,23.05,0,0,0-.322,12.828l.579,2.211a12.354,12.354,0,0,1-.388,7.471l-1.206,3.21-2.315-.869-1.858,4.944L186.048,412.28l33.027,13.271,13.45-61.185,1.772-4.872-2.854-1.072,1.4-3.478a5.906,5.906,0,0,1,4.851-3.79,25.391,25.391,0,0,0,16.544-8.905c2.336-2.784,4.709-5.619,6-7.175,3.247-3.923-1.574-8.8-5.131-4.53-1.021,1.225-2.914,3.5-4.745,5.705a.633.633,0,0,1-1.036-.72c3.836-6.637,8.649-17.1,11.107-21.479" transform="translate(-186.048 -300.299)" fill="#12110b"/>
                      </g>
                    </g>
                  </g>
                  <path id="Trazado_196222" data-name="Trazado 196222" d="M213.61,419.221l-28.038-10.537,25.914-55.538,20.023,7.524Z" transform="translate(-43.778 -11.444)" fill="#d6d5d5"/>
                  <rect id="Rectángulo_44398" data-name="Rectángulo 44398" width="5.282" height="21.39" transform="translate(167.708 341.702) rotate(-69.402)" fill="#555150"/>
                  <path id="Trazado_196223" data-name="Trazado 196223" d="M253.476,329.1c-1.021,1.225-2.914,3.5-4.745,5.705a.633.633,0,0,1-1.036-.719c3.836-6.638,9.572-16.583,12.029-20.958,2.244-3.995-1.914-6.36-4.577-2.556-2.716,3.878-8.693,12.362-12.71,18.058a.7.7,0,0,1-1.207-.683c2.842-6.435,8.359-17.64,10.256-21.989,1.519-3.48-2.421-6.754-5.14-2.184-2.437,4.1-9.244,15.139-12.347,20.821a.446.446,0,0,1-.813-.358c2.121-6.2,5.652-16.441,7.21-20.855,1.344-3.806-3.313-5.922-5.383-1.527-1.8,3.829-6.1,12.6-8.819,18.234a.575.575,0,0,1-1.075-.39c1.243-4.94,3-11.9,3.8-15.04.515-2.015-3.228-3.427-4.484-.688a193.958,193.958,0,0,0-8.593,21.531,23.051,23.051,0,0,0-.323,12.828l.579,2.211a12.354,12.354,0,0,1-.388,7.471l-1.206,3.21,15.393,5.785,1.319-3.509a5.905,5.905,0,0,1,4.851-3.789A25.4,25.4,0,0,0,252.61,340.8c2.336-2.784,4.709-5.618,6-7.175,3.247-3.922-1.573-8.8-5.131-4.53" transform="translate(-42.621 -13.593)" fill="#f2b68a"/>
                  <g id="Grupo_141986" data-name="Grupo 141986" transform="translate(220.57 260.846)" opacity="0.2">
                    <g id="Grupo_141985" data-name="Grupo 141985" transform="translate(0 0)">
                      <g id="Grupo_141984" data-name="Grupo 141984" clip-path="url(#clip-path-8)">
                        <path id="Trazado_196224" data-name="Trazado 196224" d="M263.614,279.164l-2.156-2.688a.644.644,0,0,1-.135-.338.657.657,0,0,1,.964-.655l9.328,5.748,6.888,5.752a3.892,3.892,0,0,1,4.191-6.305l11.837,4.36a21.667,21.667,0,0,1,9.144,6.446l5.98,7.161a29.013,29.013,0,0,1,6.2,13.008l1.528,7.795,5.39,4.5h0l2.675,2.233a.756.756,0,0,1,.233.8,5.859,5.859,0,0,1-3.085,3.693.757.757,0,0,1-.828-.086L319.15,328.4a33.1,33.1,0,0,0,2.236,6.61l1.216,2.629,1.641-.758,2.214,4.8,33.1,61.995-36.867,5.985-16.369-58.723-2.2-4.762,2.346-1.084-1.189-2.575a20.509,20.509,0,0,0-4.609-6.382l-7.068-6.615a37.28,37.28,0,0,1-7.684-10.186l-5.092-9.916-.329.022c-5.12.39-5.531-4.646-2.5-5.551-.026-.051-.048-.1-.071-.155-3.48-.568-3.575-6.34.973-6.513-3.827-.059-4.877-3.614-3.672-5.243l-7.083-6.627Z" transform="translate(-261.32 -275.398)" fill="#12110b"/>
                      </g>
                    </g>
                  </g>
                  <path id="Trazado_196225" data-name="Trazado 196225" d="M294.111,292.7a37.386,37.386,0,0,0-17.385-2.641c-2.777.263-2.7,6.01,2.122,6.084-4.772.182-4.436,6.533-.436,6.563-3.527.5-3.336,6.065,2.036,5.657,6.045-.461,11.843-.165,17.726,2.982l1.394-19.205Z" transform="translate(-40.208 -13.972)" fill="#dba37a"/>
                  <path id="Trazado_196226" data-name="Trazado 196226" d="M358.276,400.648l-30.267,4-22.253-57.028,19.42-8.965Z" transform="translate(-38.974 -12.023)" fill="#d6d5d5"/>
                  <rect id="Rectángulo_44400" data-name="Rectángulo 44400" width="21.389" height="5.282" transform="translate(264.568 330.8) rotate(-24.781)" fill="#555150"/>
                  <path id="Trazado_196227" data-name="Trazado 196227" d="M305.132,341.843l1.189,2.576,16.134-7.449-1.214-2.629a32.923,32.923,0,0,1-2.417-7.465l-3.117-15.893a28.988,28.988,0,0,0-6.2-13.009l-5.979-7.16a21.69,21.69,0,0,0-9.146-6.448l-11.836-4.357a3.89,3.89,0,0,0-3.013,7.165l10.566,5.012a9.452,9.452,0,0,1,4.892,5.483l1.556,4.551a5,5,0,0,1-.7,4.575l-.789,1.073a3.041,3.041,0,0,1-5.119-.338l-4.666-8.519a4.1,4.1,0,0,0-5.523-1.645,4.444,4.444,0,0,0-1.861,5.95l7.879,15.345a37.273,37.273,0,0,0,7.685,10.188l7.068,6.615a20.537,20.537,0,0,1,4.609,6.381" transform="translate(-40.111 -14.377)" fill="#f2b68a"/>
                  <path id="Trazado_196228" data-name="Trazado 196228" d="M271.837,280.532l51.157,42.718a5.963,5.963,0,0,1-3.678,4.4l-51.157-42.717a5.978,5.978,0,0,0,3.678-4.405" transform="translate(-40.477 -14.347)" fill="#b66e7d"/>
                  <path id="Trazado_196229" data-name="Trazado 196229" d="M262.23,275.383l9.883,5.356a5.967,5.967,0,0,1-3.679,4.406l-7.03-8.772a.658.658,0,0,1,.827-.99" transform="translate(-40.753 -14.556)" fill="#d5beb3"/>
                  <path id="Trazado_196230" data-name="Trazado 196230" d="M320.852,328.332a5.855,5.855,0,0,0,3.084-3.693.754.754,0,0,0-.232-.8l-2.676-2.233a5.959,5.959,0,0,1-3.677,4.405l2.674,2.235a.756.756,0,0,0,.828.085" transform="translate(-38.51 -12.705)" fill="#8f5761"/>
                  <path id="Trazado_196231" data-name="Trazado 196231" d="M262.228,275.385l3.031,1.641a5.618,5.618,0,0,1-1.7,2.038l-2.155-2.688a.659.659,0,0,1,.827-.991" transform="translate(-40.753 -14.556)" fill="#908e7e"/>
                  <path id="Trazado_196232" data-name="Trazado 196232" d="M290.793,296.36l31.443,26.254a5.951,5.951,0,0,1-3.679,4.407l-31.442-26.256a5.974,5.974,0,0,0,3.678-4.405" transform="translate(-39.719 -13.714)" fill="#b66e7d"/>
                  <path id="Trazado_196233" data-name="Trazado 196233" d="M285.714,299.476l-3.971-3.246a4.4,4.4,0,0,1,3.356,2.119Z" transform="translate(-39.934 -13.719)" fill="#f2b68a"/>
                  <g id="Grupo_141989" data-name="Grupo 141989" transform="translate(-41.165 -23.582)" opacity="0.2">
                    <g id="Grupo_141988" data-name="Grupo 141988" transform="translate(0 0)">
                      <g id="Grupo_141987" data-name="Grupo 141987" clip-path="url(#clip-path-9)">
                        <path id="Trazado_196234" data-name="Trazado 196234" d="M256.357,71.215,36.839,137.428a9,9,0,0,1-11.215-6.017l-15.592-51.7A9,9,0,0,1,16.048,68.5L235.567,2.288a9,9,0,0,1,11.214,6.017L262.374,60a9,9,0,0,1-6.017,11.215" transform="translate(-9.645 -1.902)" fill="#12110b"/>
                      </g>
                    </g>
                  </g>
                  <path id="Trazado_196235" data-name="Trazado 196235" d="M256.357,69.313,36.839,135.526a9,9,0,0,1-11.215-6.017l-15.592-51.7A9,9,0,0,1,16.048,66.6L235.567.386A9,9,0,0,1,246.781,6.4l15.593,51.7a9,9,0,0,1-6.017,11.215" transform="translate(-50.81 -25.56)" fill="#d9d5dd"/>
                  <path id="Trazado_196236" data-name="Trazado 196236" d="M253.763,64.948,36.368,130.52a5.934,5.934,0,0,1-7.4-3.967L14.322,77.978a5.934,5.934,0,0,1,3.967-7.4l217.4-65.572a5.934,5.934,0,0,1,7.4,3.968l14.651,48.574a5.935,5.935,0,0,1-3.967,7.4" transform="translate(-50.633 -25.37)" fill="#5c4327"/>
                  <g id="Grupo_141992" data-name="Grupo 141992" transform="translate(-51.196 -10.98)" opacity="0.2">
                    <g id="Grupo_141991" data-name="Grupo 141991">
                      <g id="Grupo_141990" data-name="Grupo 141990" clip-path="url(#clip-path-10)">
                        <path id="Trazado_196237" data-name="Trazado 196237" d="M253.641,89.513A48.19,48.19,0,0,0,248.2,69.618a48.739,48.739,0,0,0-13.163-15.9,52.873,52.873,0,0,0-9.961-6.2,56.029,56.029,0,0,0-6.142-2.5,48.272,48.272,0,0,0-4.765-1.381,2.59,2.59,0,0,0,.054-.474c.337-.006.671-.015,1.008-.02a29.671,29.671,0,0,0,3.407-.249,29.886,29.886,0,0,0,15.65-7.033,29.492,29.492,0,0,0,9.976-17.789,22.688,22.688,0,0,0,.319-3.374.5.5,0,0,0-.441-.511,22.679,22.679,0,0,0-3.384-.173,29.552,29.552,0,0,0-19.047,7.292,29.811,29.811,0,0,0-9.967,17.8c-.064.4-.109.819-.146,1.25a2.733,2.733,0,0,0-1.229.235c-.414-.854-.854-1.642-1.284-2.454a41.869,41.869,0,0,0-49.924-20.393,31.924,31.924,0,0,0-4.429,1.751.7.7,0,0,0-.359.878,31.952,31.952,0,0,0,1.941,4.35,41.508,41.508,0,0,0,2.478,4.121,41.611,41.611,0,0,0,5.623,6.612,41.462,41.462,0,0,0,13.181,8.482,41.916,41.916,0,0,0,15.367,3.124,42.022,42.022,0,0,0,8.641-.785,41.874,41.874,0,0,0,4.65-1.2,25.551,25.551,0,0,0,2.654-1.036,2.893,2.893,0,0,0,.136.316,2.733,2.733,0,0,0,1.454,1.3c-.634,1.572-1.127,3.072-1.558,4.539a55.724,55.724,0,0,0-1.5,6.457,52.786,52.786,0,0,0-.683,11.712A48.733,48.733,0,0,0,212.143,88.3a48.173,48.173,0,0,0,13.111,15.924,52.367,52.367,0,0,0,9.968,6.193,55.679,55.679,0,0,0,6.159,2.489,45.086,45.086,0,0,0,6.464,1.722,1.17,1.17,0,0,0,1.265-.655,45.058,45.058,0,0,0,2.321-6.274,55.51,55.51,0,0,0,1.519-6.467,52.355,52.355,0,0,0,.691-11.715" transform="translate(6.169 -14.02)" fill="#12110b"/>
                        <path id="Trazado_196238" data-name="Trazado 196238" d="M187.706,66.9a42.174,42.174,0,0,0-42.482-6.121,41.72,41.72,0,0,0-11.439,7.053,25.7,25.7,0,0,0-2.04,2,2.686,2.686,0,0,0-.242-.244,2.718,2.718,0,0,0-1.847-.613c-.035-1.7-.172-3.274-.353-4.794a55.991,55.991,0,0,0-1.159-6.528,52.825,52.825,0,0,0-3.98-11.036,48.723,48.723,0,0,0-12.8-16.193,48.164,48.164,0,0,0-18.318-9.481,52.3,52.3,0,0,0-11.6-1.773,55.779,55.779,0,0,0-6.641.135,44.949,44.949,0,0,0-6.62.96,1.168,1.168,0,0,0-.9,1.1,44.983,44.983,0,0,0,.334,6.682,55.609,55.609,0,0,0,1.147,6.542,52.342,52.342,0,0,0,3.974,11.042A48.189,48.189,0,0,0,85.572,61.783a48.724,48.724,0,0,0,18.354,9.437A52.8,52.8,0,0,0,115.522,73a55.9,55.9,0,0,0,6.629-.121,48.537,48.537,0,0,0,4.935-.606,2.7,2.7,0,0,0,.137.452c-.311.14-.618.282-.929.421a29.84,29.84,0,0,0-14.656,14.191,29.51,29.51,0,0,0-2.174,20.279,22.644,22.644,0,0,0,1.034,3.226.5.5,0,0,0,.606.3,22.791,22.791,0,0,0,3.179-1.172,29.55,29.55,0,0,0,14.642-14.2,29.875,29.875,0,0,0,2.793-16.93,29.492,29.492,0,0,0-.632-3.356c-.1-.394-.223-.8-.36-1.216a2.727,2.727,0,0,0,1.035-.7c.718.625,1.434,1.177,2.152,1.757a41.863,41.863,0,0,0,53.921-.891,31.9,31.9,0,0,0,3.384-3.352.7.7,0,0,0-.016-.948,31.93,31.93,0,0,0-3.5-3.236" transform="translate(2.689 -13.816)" fill="#12110b"/>
                        <path id="Trazado_196239" data-name="Trazado 196239" d="M93.009,110.233A29.557,29.557,0,0,0,79.779,94.71a29.871,29.871,0,0,0-16.717-3.872,29.523,29.523,0,0,0-3.389.415c-.4.072-.815.172-1.237.282a2.73,2.73,0,0,0-.628-1.077c.67-.676,1.268-1.356,1.891-2.035A41.958,41.958,0,0,0,70.733,61.95a41.472,41.472,0,0,0-8.465-27.395,31.936,31.936,0,0,0-3.128-3.591.7.7,0,0,0-.947-.045,31.926,31.926,0,0,0-3.454,3.28A41.543,41.543,0,0,0,43.724,60.673a41.874,41.874,0,0,0,8.488,27.4,25.469,25.469,0,0,0,1.869,2.164,2.537,2.537,0,0,0-.26.227,2.719,2.719,0,0,0-.729,1.8c-1.7-.074-3.278-.038-4.808.045a55.838,55.838,0,0,0-6.589.738A52.793,52.793,0,0,0,30.426,96.31a48.728,48.728,0,0,0-16.981,11.732A48.2,48.2,0,0,0,2.809,125.714,52.382,52.382,0,0,0,.3,137.178a55.74,55.74,0,0,0-.29,6.636,44.8,44.8,0,0,0,.534,6.668,1.167,1.167,0,0,0,1.039.973,45.093,45.093,0,0,0,6.689.1,55.655,55.655,0,0,0,6.6-.726,52.313,52.313,0,0,0,11.274-3.257A48.184,48.184,0,0,0,43.083,135.8a48.743,48.743,0,0,0,10.594-17.712A52.788,52.788,0,0,0,56.2,106.626,56.116,56.116,0,0,0,56.5,100a48.244,48.244,0,0,0-.289-4.963,2.693,2.693,0,0,0,.461-.107c.12.318.241.634.361.954a29.855,29.855,0,0,0,13.222,15.535,29.5,29.5,0,0,0,20.1,3.469,22.678,22.678,0,0,0,3.285-.824.5.5,0,0,0,.334-.587,22.725,22.725,0,0,0-.964-3.248" transform="translate(0 -13.351)" fill="#12110b"/>
                      </g>
                    </g>
                  </g>
                  <path id="Trazado_196240" data-name="Trazado 196240" d="M209.6,40.118a44.128,44.128,0,0,1,7.317,1.889,55.742,55.742,0,0,1,6.142,2.5,52.788,52.788,0,0,1,9.961,6.2,48.725,48.725,0,0,1,13.163,15.9,48.194,48.194,0,0,1,5.445,19.895,52.367,52.367,0,0,1-.691,11.716,55.545,55.545,0,0,1-1.519,6.466,45.059,45.059,0,0,1-2.321,6.274,1.17,1.17,0,0,1-1.265.655,45.087,45.087,0,0,1-6.464-1.722,55.68,55.68,0,0,1-6.159-2.489,52.315,52.315,0,0,1-9.968-6.193,48.173,48.173,0,0,1-13.111-15.924,48.734,48.734,0,0,1-5.394-19.921,52.786,52.786,0,0,1,.683-11.712,55.727,55.727,0,0,1,1.5-6.457,44.206,44.206,0,0,1,2.678-7.067" transform="translate(-43.015 -23.957)" fill="#a2b723"/>
                  <path id="Trazado_196241" data-name="Trazado 196241" d="M209.3,41.129a23.9,23.9,0,0,1,.239-3.914,29.382,29.382,0,0,1,.739-3.334,29.9,29.9,0,0,1,9.227-14.466,29.491,29.491,0,0,1,19.047-7.292,22.672,22.672,0,0,1,3.384.173.5.5,0,0,1,.441.511,22.828,22.828,0,0,1-.318,3.374,29.556,29.556,0,0,1-9.976,17.789A29.893,29.893,0,0,1,216.436,41a29.671,29.671,0,0,1-3.407.249,20.652,20.652,0,0,1-3.725-.121" transform="translate(-42.829 -25.076)" fill="#a2b723"/>
                  <path id="Trazado_196242" data-name="Trazado 196242" d="M209.385,40.132a61.258,61.258,0,0,1,5.885,6.324c1.8,2.191,3.47,4.45,5.068,6.747A131.841,131.841,0,0,1,228.9,67.511a130.1,130.1,0,0,1,6.758,15.244c.957,2.629,1.839,5.3,2.589,8.032a66.612,66.612,0,0,1,1.585,7.177.457.457,0,0,1-.771.4,66.593,66.593,0,0,1-4.949-5.434c-1.8-2.191-3.472-4.45-5.069-6.747a130.263,130.263,0,0,1-8.555-14.313,131.831,131.831,0,0,1-6.746-15.25c-.955-2.63-1.838-5.3-2.59-8.032a61.291,61.291,0,0,1-1.771-8.455" transform="translate(-42.826 -23.956)" fill="#6d8a2c"/>
                  <path id="Trazado_196243" data-name="Trazado 196243" d="M209.29,40.925a38.162,38.162,0,0,1,2.637-3.89c.958-1.2,1.96-2.342,2.989-3.457a82.055,82.055,0,0,1,6.526-6.281,80.991,80.991,0,0,1,7.157-5.551c1.252-.856,2.53-1.683,3.854-2.455,1.135-.655,2.285-1.291,3.506-1.845a.209.209,0,0,1,.269.311c-.726,1.128-1.521,2.175-2.333,3.2-.958,1.2-1.96,2.343-2.99,3.458a80.959,80.959,0,0,1-6.529,6.276,81.858,81.858,0,0,1-7.161,5.546c-1.252.857-2.53,1.683-3.853,2.457a36.936,36.936,0,0,1-4.073,2.229" transform="translate(-42.83 -24.864)" fill="#6d8a2c"/>
                  <path id="Trazado_196244" data-name="Trazado 196244" d="M211.305,40.924a33.735,33.735,0,0,1-5.056,2.2,41.646,41.646,0,0,1-4.65,1.2,42.023,42.023,0,0,1-24.009-2.338,41.472,41.472,0,0,1-13.18-8.483,41.565,41.565,0,0,1-5.623-6.612,41.813,41.813,0,0,1-2.479-4.12,32.138,32.138,0,0,1-1.94-4.35.7.7,0,0,1,.359-.879,31.913,31.913,0,0,1,4.429-1.75A42.024,42.024,0,0,1,209.081,36.18a28.889,28.889,0,0,1,2.225,4.744" transform="translate(-45.027 -25.01)" fill="#a2b723"/>
                  <path id="Trazado_196245" data-name="Trazado 196245" d="M210.923,40.623a53.694,53.694,0,0,1-6.555-.825c-2.11-.436-4.184-.963-6.238-1.541a115.164,115.164,0,0,1-12.03-4.171,113.941,113.941,0,0,1-11.518-5.428c-1.872-1.023-3.722-2.1-5.536-3.263-1.543-1-3.073-2.04-4.546-3.218a.294.294,0,0,1,.218-.535c1.875.189,3.694.519,5.5.881,2.111.436,4.185.962,6.238,1.541a113.726,113.726,0,0,1,12.027,4.18A115.435,115.435,0,0,1,200,33.679c1.871,1.024,3.721,2.1,5.535,3.263a51.761,51.761,0,0,1,5.389,3.68" transform="translate(-44.625 -24.695)" fill="#6d8a2c"/>
                  <path id="Trazado_196246" data-name="Trazado 196246" d="M206.948,41.455a2.744,2.744,0,1,1,3.7,1.174,2.745,2.745,0,0,1-3.7-1.174" transform="translate(-42.936 -24.064)" fill="#6d8a2c"/>
                  <path id="Trazado_196247" data-name="Trazado 196247" d="M129.621,69.834a44.206,44.206,0,0,1-7.47,1.143,55.894,55.894,0,0,1-6.629.121,52.8,52.8,0,0,1-11.6-1.779,48.736,48.736,0,0,1-18.356-9.437A48.189,48.189,0,0,1,72.738,43.733,52.342,52.342,0,0,1,68.765,32.69a55.393,55.393,0,0,1-1.147-6.542,44.983,44.983,0,0,1-.334-6.682,1.168,1.168,0,0,1,.9-1.1,45.089,45.089,0,0,1,6.62-.96,55.778,55.778,0,0,1,6.641-.135,52.3,52.3,0,0,1,11.6,1.773,48.164,48.164,0,0,1,18.318,9.481,48.723,48.723,0,0,1,12.8,16.193,52.826,52.826,0,0,1,3.98,11.036,56.035,56.035,0,0,1,1.157,6.528,44.1,44.1,0,0,1,.318,7.55" transform="translate(-48.507 -24.872)" fill="#a2b723"/>
                  <path id="Trazado_196248" data-name="Trazado 196248" d="M128.178,67.866a24.034,24.034,0,0,1,1.321,3.693,29.786,29.786,0,0,1-16.8,34.483,22.791,22.791,0,0,1-3.179,1.172.5.5,0,0,1-.606-.3,22.643,22.643,0,0,1-1.034-3.226,29.553,29.553,0,0,1,2.175-20.279,29.784,29.784,0,0,1,14.655-14.191,20.61,20.61,0,0,1,3.472-1.355" transform="translate(-46.919 -22.848)" fill="#a2b723"/>
                  <path id="Trazado_196249" data-name="Trazado 196249" d="M129.2,69.4a61.441,61.441,0,0,1-7.9-3.5c-2.517-1.307-4.941-2.727-7.313-4.21a131.76,131.76,0,0,1-13.5-9.785A130.1,130.1,0,0,1,88.27,40.549c-1.914-2.04-3.773-4.145-5.539-6.366a66.753,66.753,0,0,1-4.281-5.975A.457.457,0,0,1,79,27.538a66.833,66.833,0,0,1,6.688,3.049C88.209,31.893,90.633,33.312,93,34.8a130.238,130.238,0,0,1,13.5,9.794,131.891,131.891,0,0,1,12.2,11.367c1.913,2.041,3.773,4.146,5.54,6.366A61.3,61.3,0,0,1,129.2,69.4" transform="translate(-48.063 -24.461)" fill="#6d8a2c"/>
                  <path id="Trazado_196250" data-name="Trazado 196250" d="M127.975,67.853a38.126,38.126,0,0,1-.894,4.613c-.41,1.478-.882,2.924-1.388,4.354a81.951,81.951,0,0,1-3.529,8.342,80.949,80.949,0,0,1-4.4,7.919c-.814,1.279-1.664,2.542-2.577,3.774-.785,1.048-1.593,2.085-2.5,3.074a.209.209,0,0,1-.37-.18c.224-1.322.543-2.6.886-3.861.408-1.478.88-2.924,1.387-4.354a81.15,81.15,0,0,1,3.534-8.34,82.084,82.084,0,0,1,4.4-7.916c.814-1.279,1.664-2.542,2.576-3.774a36.671,36.671,0,0,1,2.867-3.651" transform="translate(-46.706 -22.848)" fill="#6d8a2c"/>
                  <path id="Trazado_196251" data-name="Trazado 196251" d="M127.589,68.461a33.661,33.661,0,0,1,3.784-4.008,41.873,41.873,0,0,1,53.921-.933,31.941,31.941,0,0,1,3.5,3.236.7.7,0,0,1,.016.948,31.9,31.9,0,0,1-3.383,3.353,41.547,41.547,0,0,1-26.8,10.205A41.872,41.872,0,0,1,131.5,71.948a29,29,0,0,1-3.911-3.487" transform="translate(-46.096 -23.393)" fill="#a2b723"/>
                  <path id="Trazado_196252" data-name="Trazado 196252" d="M127.567,68.055a53.913,53.913,0,0,1,6.35-1.821c2.112-.428,4.226-.76,6.342-1.037a115.451,115.451,0,0,1,12.7-.9,113.7,113.7,0,0,1,12.725.459c2.123.2,4.247.464,6.372.823,1.815.316,3.628.668,5.446,1.17a.294.294,0,0,1,.009.577c-1.8.564-3.6.977-5.4,1.353-2.112.431-4.226.762-6.341,1.038a113.709,113.709,0,0,1-12.7.888,115.22,115.22,0,0,1-12.725-.467c-2.123-.2-4.247-.465-6.372-.822a51.979,51.979,0,0,1-6.4-1.265" transform="translate(-46.097 -22.991)" fill="#6d8a2c"/>
                  <path id="Trazado_196253" data-name="Trazado 196253" d="M129.207,65.775a2.744,2.744,0,1,1-3.862.375,2.744,2.744,0,0,1,3.862-.375" transform="translate(-46.21 -22.956)" fill="#6d8a2c"/>
                  <path id="Trazado_196254" data-name="Trazado 196254" d="M55.838,88.211a44.179,44.179,0,0,1,.661,7.527,55.893,55.893,0,0,1-.3,6.624,52.788,52.788,0,0,1-2.519,11.458,48.729,48.729,0,0,1-10.594,17.712A48.183,48.183,0,0,1,26.144,143.3a52.311,52.311,0,0,1-11.274,3.257,55.628,55.628,0,0,1-6.6.726,45.1,45.1,0,0,1-6.689-.1,1.168,1.168,0,0,1-1.039-.973,44.943,44.943,0,0,1-.534-6.668A55.515,55.515,0,0,1,.3,132.913a52.262,52.262,0,0,1,2.513-11.464,48.167,48.167,0,0,1,10.637-17.672,48.734,48.734,0,0,1,16.98-11.732,52.785,52.785,0,0,1,11.269-3.263,55.794,55.794,0,0,1,6.588-.738,44.212,44.212,0,0,1,7.555.167" transform="translate(-51.196 -22.045)" fill="#a2b723"/>
                  <path id="Trazado_196255" data-name="Trazado 196255" d="M53.755,88.125a23.913,23.913,0,0,1,3.77-1.081,29.789,29.789,0,0,1,33.335,18.98,22.686,22.686,0,0,1,.964,3.248.5.5,0,0,1-.334.585,22.553,22.553,0,0,1-3.285.825,29.556,29.556,0,0,1-20.1-3.469A29.808,29.808,0,0,1,54.883,91.677a20.5,20.5,0,0,1-1.128-3.553" transform="translate(-49.047 -22.1)" fill="#a2b723"/>
                  <path id="Trazado_196256" data-name="Trazado 196256" d="M55.4,88.181a61.3,61.3,0,0,1-4,7.657c-1.465,2.428-3.038,4.757-4.671,7.029A131.753,131.753,0,0,1,36.1,115.716a130.241,130.241,0,0,1-12.116,11.457c-2.159,1.778-4.379,3.5-6.709,5.12a66.541,66.541,0,0,1-6.237,3.887.457.457,0,0,1-.633-.593,66.722,66.722,0,0,1,3.471-6.478c1.464-2.43,3.036-4.758,4.669-7.029A130.242,130.242,0,0,1,29.19,109.24,132.021,132.021,0,0,1,41.315,97.792c2.161-1.777,4.38-3.5,6.708-5.121a61.455,61.455,0,0,1,7.38-4.491" transform="translate(-50.781 -22.036)" fill="#6d8a2c"/>
                  <path id="Trazado_196257" data-name="Trazado 196257" d="M53.743,88.054a38.03,38.03,0,0,1,4.547,1.189c1.448.5,2.862,1.067,4.256,1.664a82.086,82.086,0,0,1,8.1,4.057,80.915,80.915,0,0,1,7.62,4.894c1.226.894,2.431,1.823,3.6,2.814,1,.851,1.979,1.723,2.909,2.689a.21.21,0,0,1-.2.358c-1.305-.308-2.557-.708-3.8-1.131-1.449-.5-2.862-1.066-4.257-1.664a80.918,80.918,0,0,1-8.1-4.061,82.069,82.069,0,0,1-7.618-4.9c-1.225-.894-2.43-1.824-3.6-2.813a36.815,36.815,0,0,1-3.46-3.095" transform="translate(-49.048 -22.041)" fill="#6d8a2c"/>
                  <path id="Trazado_196258" data-name="Trazado 196258" d="M54.289,90.2a33.752,33.752,0,0,1-3.757-4.034A41.873,41.873,0,0,1,53.058,32.3a32.028,32.028,0,0,1,3.454-3.28.7.7,0,0,1,.947.045,32.029,32.029,0,0,1,3.128,3.591,41.552,41.552,0,0,1,8.467,27.395,42.017,42.017,0,0,1-7.989,22.761,41.575,41.575,0,0,1-3.046,3.712,28.935,28.935,0,0,1-3.73,3.68" transform="translate(-49.517 -24.407)" fill="#a2b723"/>
                  <path id="Trazado_196259" data-name="Trazado 196259" d="M53.9,89.791a53.844,53.844,0,0,1-1.41-6.454C52.2,81.2,52,79.071,51.86,76.942a115.1,115.1,0,0,1-.08-12.733A113.619,113.619,0,0,1,53.053,51.54c.34-2.1.735-4.208,1.229-6.306.433-1.79.9-3.578,1.517-5.359a.293.293,0,0,1,.576.027c.447,1.831.744,3.656,1,5.479.294,2.135.489,4.266.629,6.395a114.073,114.073,0,0,1,.072,12.732A115.345,115.345,0,0,1,56.8,77.176c-.34,2.1-.735,4.208-1.228,6.306A51.887,51.887,0,0,1,53.9,89.791" transform="translate(-49.131 -23.976)" fill="#6d8a2c"/>
                  <path id="Trazado_196260" data-name="Trazado 196260" d="M51.779,86.3a2.744,2.744,0,1,1,.127,3.879,2.744,2.744,0,0,1-.127-3.879" transform="translate(-49.156 -22.146)" fill="#6d8a2c"/>
                  <g id="Grupo_141995" data-name="Grupo 141995" transform="translate(210.452 107.431)" opacity="0.2">
                    <g id="Grupo_141994" data-name="Grupo 141994">
                      <g id="Grupo_141993" data-name="Grupo 141993" clip-path="url(#clip-path-11)">
                        <rect id="Rectángulo_44403" data-name="Rectángulo 44403" width="34.825" height="34.825" transform="translate(0 26.69) rotate(-50.032)" fill="#12110b"/>
                      </g>
                    </g>
                  </g>
                  <rect id="Rectángulo_44405" data-name="Rectángulo 44405" width="34.825" height="34.825" transform="translate(210.452 132.638) rotate(-50.032)" fill="#fff"/>
                  <rect id="Rectángulo_44406" data-name="Rectángulo 44406" width="26.053" height="26.053" transform="translate(216.631 132.094) rotate(-50.033)" fill="#3d9fd9"/>
                  <rect id="Rectángulo_44407" data-name="Rectángulo 44407" width="6.63" height="2.161" transform="matrix(0.642, -0.766, 0.766, 0.642, 225.085, 135.739)" fill="#5c4327"/>
                  <path id="Trazado_196261" data-name="Trazado 196261" d="M276.878,151.466a2.421,2.421,0,0,0,.56-1.433,2.432,2.432,0,0,0,2.2-2.809,2.376,2.376,0,0,0,.465-.417,2.432,2.432,0,0,0-1.3-3.944,2.44,2.44,0,1,0-4.812-.808,2.431,2.431,0,0,0-1.047.721,2.4,2.4,0,0,0-.256.376,2.441,2.441,0,0,0-1.68.866c-.049.058-.083.124-.126.185a2.443,2.443,0,0,0-2.106,3.156,2.566,2.566,0,0,0-.285.279,2.436,2.436,0,0,0,1.878,4.011,2.439,2.439,0,0,0,4.8.682,2.436,2.436,0,0,0,1.706-.866" transform="translate(-40.486 -19.963)" fill="#a2b723"/>
                  <path id="Trazado_196262" data-name="Trazado 196262" d="M277.5,168.407l-19.967-16.734,1.694-2.021a75.392,75.392,0,0,1,19.967,16.734Z" transform="translate(-40.901 -19.578)" fill="#a2b723"/>
                  <path id="Trazado_196263" data-name="Trazado 196263" d="M288.214,151.595a3.595,3.595,0,1,1-.446-5.065,3.6,3.6,0,0,1,.446,5.065" transform="translate(-39.929 -19.737)" fill="#fff091"/>
                  <g id="Grupo_141998" data-name="Grupo 141998" transform="translate(290.4 44.793)" opacity="0.2">
                    <g id="Grupo_141997" data-name="Grupo 141997">
                      <g id="Grupo_141996" data-name="Grupo 141996" clip-path="url(#clip-path-12)">
                        <path id="Trazado_196264" data-name="Trazado 196264" d="M437.607,108.6l-.462.731a.215.215,0,0,1-.215.1,23.1,23.1,0,0,1-15.724-9.883.216.216,0,0,1-.005-.237l.478-.759a.211.211,0,0,0,.015-.2l-1.6-3.611,0-.007-3.96.105a.213.213,0,0,0-.173.1l-.461.731a.218.218,0,0,1-.216.1A23.23,23.23,0,0,1,399.55,85.9a.214.214,0,0,1-.006-.237l.491-.779a.208.208,0,0,0,.015-.2l-1.6-3.616v0l-3.959.105a.212.212,0,0,0-.173.1l-.462.731a.216.216,0,0,1-.215.1A23.157,23.157,0,0,1,377.9,72.233.216.216,0,0,1,377.9,72l.485-.769a.213.213,0,0,0,.015-.2l-1.445-3.255a.211.211,0,0,0-.371-.027l-41.789,66.222-4.743,7.517a10.254,10.254,0,0,0,3.2,14.143l4.487,2.832c4.11,2.593,9.6,1.174,12.044-.924a.209.209,0,0,1,.335.224c-.865,3.09.5,8.825,4.607,11.415l4.666,2.945a10.013,10.013,0,0,0,11.874-1.208.207.207,0,0,1,.348.2,11.56,11.56,0,0,0,4.755,11.73l4.487,2.832a10.252,10.252,0,0,0,14.143-3.2l4.743-7.516,41.789-66.222a.212.212,0,0,0-.184-.324l-3.565.095a.213.213,0,0,0-.173.1" transform="translate(-328.466 -67.649)" fill="#12110b"/>
                      </g>
                    </g>
                  </g>
                  <path id="Trazado_196265" data-name="Trazado 196265" d="M394.29,78.636a22.927,22.927,0,0,1-15.927-10.05l-39.693,62.9a6.767,6.767,0,0,0,2.112,9.335l4.479,2.828a6.768,6.768,0,0,0,9.336-2.112Z" transform="translate(-37.7 -22.819)" fill="#e3e2e2"/>
                  <g id="Grupo_142001" data-name="Grupo 142001" transform="translate(329.226 56.06)" opacity="0.2">
                    <g id="Grupo_142000" data-name="Grupo 142000" transform="translate(0)">
                      <g id="Grupo_141999" data-name="Grupo 141999" clip-path="url(#clip-path-13)">
                        <path id="Trazado_196266" data-name="Trazado 196266" d="M365.819,107.833a.556.556,0,0,1,.068-.441l18.079-28.649a.558.558,0,1,1,.944.595l-18.08,28.65a.557.557,0,0,1-1.011-.155" transform="translate(-365.8 -78.483)" fill="#12110b"/>
                      </g>
                    </g>
                  </g>
                  <g id="Grupo_142004" data-name="Grupo 142004" transform="translate(318.985 52.068)" opacity="0.2">
                    <g id="Grupo_142003" data-name="Grupo 142003">
                      <g id="Grupo_142002" data-name="Grupo 142002" clip-path="url(#clip-path-14)">
                        <path id="Trazado_196267" data-name="Trazado 196267" d="M355.971,112.223a.556.556,0,0,1,.068-.441L379.31,74.905a.558.558,0,0,1,.943.6l-23.272,36.877a.557.557,0,0,1-1.011-.155" transform="translate(-355.952 -74.645)" fill="#12110b"/>
                      </g>
                    </g>
                  </g>
                  <g id="Grupo_142007" data-name="Grupo 142007" transform="translate(305.967 89.385)" opacity="0.2">
                    <g id="Grupo_142006" data-name="Grupo 142006">
                      <g id="Grupo_142005" data-name="Grupo 142005" clip-path="url(#clip-path-15)">
                        <path id="Trazado_196268" data-name="Trazado 196268" d="M343.454,137.544a.556.556,0,0,1,.068-.441l16.607-26.317a.558.558,0,0,1,.943.6L344.465,137.7a.557.557,0,0,1-1.011-.155" transform="translate(-343.435 -110.527)" fill="#12110b"/>
                      </g>
                    </g>
                  </g>
                  <path id="Trazado_196269" data-name="Trazado 196269" d="M343.286,147.444l-4.7-2.968a10.02,10.02,0,0,1-3.126-13.821l42-66.556,1.65,3.72-40.288,63.843A6.769,6.769,0,0,0,340.935,141l4.477,2.826a6.766,6.766,0,0,0,9.334-2.112l40.289-63.844,4.073-.108-42,66.557a10.019,10.019,0,0,1-13.82,3.126" transform="translate(-37.848 -22.998)" fill="#173457"/>
                  <path id="Trazado_196270" data-name="Trazado 196270" d="M338.586,152.587l-4.666-2.944a10.044,10.044,0,0,1-3.133-13.851l4.857-7.7a10.019,10.019,0,0,0,3.126,13.821l4.7,2.968a10.019,10.019,0,0,0,13.82-3.126l-4.856,7.695a10.043,10.043,0,0,1-13.851,3.133" transform="translate(-38.035 -20.44)" fill="#0f477c"/>
                  <path id="Trazado_196271" data-name="Trazado 196271" d="M415.109,91.771a22.928,22.928,0,0,1-15.927-10.05l-39.693,62.9a6.768,6.768,0,0,0,2.112,9.336l4.479,2.828a6.769,6.769,0,0,0,9.336-2.112Z" transform="translate(-36.868 -22.294)" fill="#e3e2e2"/>
                  <g id="Grupo_142010" data-name="Grupo 142010" transform="translate(350.879 69.72)" opacity="0.2">
                    <g id="Grupo_142009" data-name="Grupo 142009" transform="translate(0)">
                      <g id="Grupo_142008" data-name="Grupo 142008" clip-path="url(#clip-path-16)">
                        <path id="Trazado_196272" data-name="Trazado 196272" d="M386.639,120.968a.556.556,0,0,1,.068-.441l18.079-28.649a.558.558,0,1,1,.944.595l-18.08,28.65a.558.558,0,0,1-1.011-.155" transform="translate(-386.62 -91.618)" fill="#12110b"/>
                      </g>
                    </g>
                  </g>
                  <g id="Grupo_142013" data-name="Grupo 142013" transform="translate(340.637 65.728)" opacity="0.2">
                    <g id="Grupo_142012" data-name="Grupo 142012" transform="translate(0)">
                      <g id="Grupo_142011" data-name="Grupo 142011" clip-path="url(#clip-path-14)">
                        <path id="Trazado_196273" data-name="Trazado 196273" d="M376.79,125.358a.556.556,0,0,1,.068-.441L400.129,88.04a.558.558,0,0,1,.944.6L377.8,125.513a.557.557,0,0,1-1.011-.155" transform="translate(-376.772 -87.78)" fill="#12110b"/>
                      </g>
                    </g>
                  </g>
                  <g id="Grupo_142016" data-name="Grupo 142016" transform="translate(327.62 103.045)" opacity="0.2">
                    <g id="Grupo_142015" data-name="Grupo 142015">
                      <g id="Grupo_142014" data-name="Grupo 142014" clip-path="url(#clip-path-18)">
                        <path id="Trazado_196274" data-name="Trazado 196274" d="M364.273,150.679a.556.556,0,0,1,.068-.441l16.607-26.317a.558.558,0,0,1,.943.6l-16.607,26.317a.557.557,0,0,1-1.011-.155" transform="translate(-364.255 -123.662)" fill="#12110b"/>
                      </g>
                    </g>
                  </g>
                  <path id="Trazado_196275" data-name="Trazado 196275" d="M364.105,160.579l-4.7-2.968a10.02,10.02,0,0,1-3.126-13.821l42-66.556,1.649,3.72L359.638,144.8a6.769,6.769,0,0,0,2.116,9.338l4.477,2.826a6.766,6.766,0,0,0,9.334-2.112L415.853,91l4.073-.108-42,66.557a10.019,10.019,0,0,1-13.82,3.126" transform="translate(-37.016 -22.473)" fill="#5f4d43"/>
                  <path id="Trazado_196276" data-name="Trazado 196276" d="M359.405,165.722l-4.666-2.944a10.044,10.044,0,0,1-3.133-13.851l4.857-7.7a10.019,10.019,0,0,0,3.126,13.821l4.7,2.968a10.019,10.019,0,0,0,13.82-3.126l-4.856,7.695a10.042,10.042,0,0,1-13.851,3.133" transform="translate(-37.203 -19.915)" fill="#7d655b"/>
                  <path id="Trazado_196277" data-name="Trazado 196277" d="M435.921,104.91a22.927,22.927,0,0,1-15.927-10.05L380.3,157.76a6.767,6.767,0,0,0,2.112,9.335l4.479,2.828a6.768,6.768,0,0,0,9.336-2.112Z" transform="translate(-36.036 -21.769)" fill="#e3e2e2"/>
                  <g id="Grupo_142019" data-name="Grupo 142019" transform="translate(372.522 83.384)" opacity="0.2">
                    <g id="Grupo_142018" data-name="Grupo 142018" transform="translate(0)">
                      <g id="Grupo_142017" data-name="Grupo 142017" clip-path="url(#clip-path-13)">
                        <path id="Trazado_196278" data-name="Trazado 196278" d="M407.45,134.107a.554.554,0,0,1,.068-.44L425.6,105.018a.558.558,0,1,1,.944.594l-18.08,28.651a.557.557,0,0,1-1.011-.156" transform="translate(-407.431 -104.757)" fill="#12110b"/>
                      </g>
                    </g>
                  </g>
                  <g id="Grupo_142022" data-name="Grupo 142022" transform="translate(362.28 79.393)" opacity="0.2">
                    <g id="Grupo_142021" data-name="Grupo 142021" transform="translate(0)">
                      <g id="Grupo_142020" data-name="Grupo 142020" clip-path="url(#clip-path-20)">
                        <path id="Trazado_196279" data-name="Trazado 196279" d="M397.6,138.5a.556.556,0,0,1,.068-.441l23.272-36.877a.558.558,0,0,1,.944.6l-23.273,36.877a.557.557,0,0,1-1.011-.155" transform="translate(-397.583 -100.919)" fill="#12110b"/>
                      </g>
                    </g>
                  </g>
                  <g id="Grupo_142025" data-name="Grupo 142025" transform="translate(349.263 116.709)" opacity="0.2">
                    <g id="Grupo_142024" data-name="Grupo 142024">
                      <g id="Grupo_142023" data-name="Grupo 142023" clip-path="url(#clip-path-15)">
                        <path id="Trazado_196280" data-name="Trazado 196280" d="M385.085,163.818a.556.556,0,0,1,.068-.441l16.607-26.317a.558.558,0,0,1,.943.6L386.1,163.973a.557.557,0,0,1-1.011-.155" transform="translate(-385.066 -136.801)" fill="#12110b"/>
                      </g>
                    </g>
                  </g>
                  <path id="Trazado_196281" data-name="Trazado 196281" d="M384.917,173.718l-4.7-2.967a10.02,10.02,0,0,1-3.126-13.821l42-66.557,1.649,3.72L380.45,157.937a6.768,6.768,0,0,0,2.116,9.337l4.477,2.826a6.767,6.767,0,0,0,9.334-2.112l40.289-63.843,4.073-.109-42,66.556a10.018,10.018,0,0,1-13.82,3.126" transform="translate(-36.184 -21.948)" fill="#b36f2d"/>
                  <path id="Trazado_196282" data-name="Trazado 196282" d="M380.217,178.861l-4.666-2.944a10.044,10.044,0,0,1-3.133-13.851l4.857-7.7a10.019,10.019,0,0,0,3.126,13.821l4.7,2.968a10.019,10.019,0,0,0,13.82-3.126l-4.856,7.695a10.042,10.042,0,0,1-13.851,3.133" transform="translate(-36.371 -19.39)" fill="#f29943"/>
                  <g id="Grupo_142028" data-name="Grupo 142028" transform="translate(2.517 224.758)" opacity="0.2">
                    <g id="Grupo_142027" data-name="Grupo 142027">
                      <g id="Grupo_142026" data-name="Grupo 142026" clip-path="url(#clip-path-22)">
                        <path id="Trazado_196283" data-name="Trazado 196283" d="M187.9,351.066l-6.278-107.308-24.766,1.449L156,240.7l-24.643,4.67-2.18-4.625-14.744,6.948-18.377,1.075.19,3.255-24.457,4.635,1.935,10.218-22.08,10.4,45.821,97.235,43.99-20.73Z" transform="translate(-51.648 -240.697)" fill="#12110b"/>
                      </g>
                    </g>
                  </g>
                  <rect id="Rectángulo_44419" data-name="Rectángulo 44419" width="85.71" height="107.491" transform="matrix(0.905, -0.426, 0.426, 0.905, 3.012, 259.856)" fill="#e7e7e8"/>
                  <path id="Trazado_196284" data-name="Trazado 196284" d="M110.758,279.213l-29.1,13.712a.495.495,0,0,1-.421-.9l29.1-13.711a.494.494,0,0,1,.421.894" transform="translate(-47.96 -14.437)" fill="#9e9fa0"/>
                  <path id="Trazado_196285" data-name="Trazado 196285" d="M75.954,294.6a1.591,1.591,0,1,1-2.117-.761,1.591,1.591,0,0,1,2.117.761" transform="translate(-48.281 -13.821)" fill="#9e9fa0"/>
                  <path id="Trazado_196286" data-name="Trazado 196286" d="M102.749,293.283,85.715,301.31a.494.494,0,1,1-.421-.894l17.034-8.027a.494.494,0,0,1,.421.894" transform="translate(-47.798 -13.875)" fill="#9e9fa0"/>
                  <path id="Trazado_196287" data-name="Trazado 196287" d="M80.008,303.206a1.591,1.591,0,1,1-2.117-.761,1.591,1.591,0,0,1,2.117.761" transform="translate(-48.119 -13.477)" fill="#9e9fa0"/>
                  <path id="Trazado_196288" data-name="Trazado 196288" d="M124.717,293.479l-19,8.951a.494.494,0,1,1-.421-.894l19-8.951a.494.494,0,0,1,.421.894" transform="translate(-46.998 -13.867)" fill="#9e9fa0"/>
                  <path id="Trazado_196289" data-name="Trazado 196289" d="M84.062,311.809a1.591,1.591,0,1,1-2.117-.761,1.591,1.591,0,0,1,2.117.761" transform="translate(-47.957 -13.133)" fill="#9e9fa0"/>
                  <path id="Trazado_196290" data-name="Trazado 196290" d="M125.9,303.673,93.823,318.789a.495.495,0,1,1-.421-.9l32.076-15.115a.494.494,0,0,1,.421.894" transform="translate(-47.474 -13.459)" fill="#9e9fa0"/>
                  <path id="Trazado_196291" data-name="Trazado 196291" d="M88.116,320.412A1.591,1.591,0,1,1,86,319.651a1.591,1.591,0,0,1,2.117.761" transform="translate(-47.795 -12.789)" fill="#9e9fa0"/>
                  <path id="Trazado_196292" data-name="Trazado 196292" d="M120.928,316.365,97.877,327.228a.494.494,0,1,1-.421-.894l23.05-10.863a.495.495,0,0,1,.422.894" transform="translate(-47.312 -12.952)" fill="#9e9fa0"/>
                  <path id="Trazado_196293" data-name="Trazado 196293" d="M92.17,329.015a1.591,1.591,0,1,1-2.117-.761,1.591,1.591,0,0,1,2.117.761" transform="translate(-47.633 -12.445)" fill="#9e9fa0"/>
                  <path id="Trazado_196294" data-name="Trazado 196294" d="M147.826,303.715l-24.465,11.529a.495.495,0,0,1-.422-.894l24.466-11.529a.494.494,0,0,1,.421.894" transform="translate(-46.293 -13.458)" fill="#9e9fa0"/>
                  <path id="Trazado_196295" data-name="Trazado 196295" d="M143.422,295.112l-15.381,7.249a.495.495,0,0,1-.422-.9L143,294.218a.494.494,0,0,1,.421.894" transform="translate(-46.106 -13.801)" fill="#9e9fa0"/>
                  <path id="Trazado_196296" data-name="Trazado 196296" d="M103.057,303.583l-13.288,6.262a.494.494,0,1,1-.421-.894l13.288-6.262a.494.494,0,0,1,.421.894" transform="translate(-47.636 -13.463)" fill="#9e9fa0"/>
                  <path id="Trazado_196297" data-name="Trazado 196297" d="M139.247,286.509l-12.233,5.765a.494.494,0,1,1-.421-.894l12.233-5.765a.494.494,0,0,1,.421.894" transform="translate(-46.147 -14.145)" fill="#9e9fa0"/>
                  <path id="Trazado_196298" data-name="Trazado 196298" d="M135.9,277.906,105.156,292.4a.494.494,0,0,1-.421-.894l30.749-14.49a.494.494,0,0,1,.421.894" transform="translate(-47.021 -14.489)" fill="#9e9fa0"/>
                  <path id="Trazado_196299" data-name="Trazado 196299" d="M96.224,337.618a1.591,1.591,0,1,1-2.117-.761,1.591,1.591,0,0,1,2.117.761" transform="translate(-47.471 -12.101)" fill="#9e9fa0"/>
                  <path id="Trazado_196300" data-name="Trazado 196300" d="M100.278,346.221a1.591,1.591,0,1,1-2.117-.761,1.591,1.591,0,0,1,2.117.761" transform="translate(-47.308 -11.757)" fill="#9e9fa0"/>
                  <path id="Trazado_196301" data-name="Trazado 196301" d="M131.376,269.3l-18.39,8.666a.495.495,0,0,1-.422-.894l18.391-8.666a.494.494,0,1,1,.421.894" transform="translate(-46.708 -14.833)" fill="#9e9fa0"/>
                  <path id="Trazado_196302" data-name="Trazado 196302" d="M118.965,327.7l-17.034,8.027a.494.494,0,1,1-.421-.894l17.034-8.027a.494.494,0,0,1,.421.894" transform="translate(-47.149 -12.499)" fill="#9e9fa0"/>
                  <path id="Trazado_196303" data-name="Trazado 196303" d="M140.933,327.891l-19,8.951a.494.494,0,1,1-.421-.894l19-8.951a.494.494,0,0,1,.421.894" transform="translate(-46.35 -12.491)" fill="#9e9fa0"/>
                  <path id="Trazado_196304" data-name="Trazado 196304" d="M119.273,338l-13.288,6.262a.494.494,0,1,1-.421-.894l13.288-6.262a.494.494,0,0,1,.421.894" transform="translate(-46.987 -12.087)" fill="#9e9fa0"/>
                  <path id="Trazado_196305" data-name="Trazado 196305" d="M155.464,320.921l-12.233,5.765a.495.495,0,1,1-.422-.894l12.233-5.765a.495.495,0,0,1,.422.894" transform="translate(-45.499 -12.77)" fill="#9e9fa0"/>
                  <path id="Trazado_196306" data-name="Trazado 196306" d="M152.117,312.313,121.8,326.6a.494.494,0,0,1-.421-.894L151.7,311.419a.494.494,0,0,1,.421.894" transform="translate(-46.355 -13.114)" fill="#9e9fa0"/>
                  <rect id="Rectángulo_44420" data-name="Rectángulo 44420" width="66.45" height="10.988" transform="translate(15.739 262.921) rotate(-25.231)" fill="#9e9fa0"/>
                  <rect id="Rectángulo_44421" data-name="Rectángulo 44421" width="85.709" height="107.491" transform="matrix(0.983, -0.186, 0.186, 0.983, 23.155, 239.233)" fill="#dcdbdb"/>
                  <path id="Trazado_196307" data-name="Trazado 196307" d="M127.2,273.63l-31.6,5.989a.495.495,0,0,1-.184-.972l31.6-5.988a.494.494,0,1,1,.184.971" transform="translate(-47.398 -14.662)" fill="#9e9fa0"/>
                  <path id="Trazado_196308" data-name="Trazado 196308" d="M89.534,280.085a1.591,1.591,0,1,1-1.859-1.267,1.591,1.591,0,0,1,1.859,1.267" transform="translate(-47.743 -14.416)" fill="#9e9fa0"/>
                  <path id="Trazado_196309" data-name="Trazado 196309" d="M115.871,285.362l-18.5,3.506a.494.494,0,1,1-.184-.971l18.5-3.506a.494.494,0,1,1,.184.971" transform="translate(-47.327 -14.193)" fill="#9e9fa0"/>
                  <path id="Trazado_196310" data-name="Trazado 196310" d="M91.305,289.429a1.591,1.591,0,1,1-1.859-1.267,1.592,1.592,0,0,1,1.859,1.267" transform="translate(-47.672 -14.043)" fill="#9e9fa0"/>
                  <path id="Trazado_196311" data-name="Trazado 196311" d="M137.1,291.034l-20.631,3.909a.494.494,0,1,1-.184-.971l20.631-3.909a.494.494,0,1,1,.184.971" transform="translate(-46.564 -13.966)" fill="#9e9fa0"/>
                  <path id="Trazado_196312" data-name="Trazado 196312" d="M93.075,298.773a1.591,1.591,0,1,1-1.859-1.267,1.591,1.591,0,0,1,1.859,1.267" transform="translate(-47.601 -13.669)" fill="#9e9fa0"/>
                  <path id="Trazado_196313" data-name="Trazado 196313" d="M135.751,301.073l-34.839,6.6a.494.494,0,1,1-.184-.971l34.839-6.6a.494.494,0,1,1,.184.971" transform="translate(-47.185 -13.565)" fill="#9e9fa0"/>
                  <path id="Trazado_196314" data-name="Trazado 196314" d="M94.846,308.117a1.591,1.591,0,1,1-1.859-1.267,1.592,1.592,0,0,1,1.859,1.267" transform="translate(-47.531 -13.296)" fill="#9e9fa0"/>
                  <path id="Trazado_196315" data-name="Trazado 196315" d="M127.718,312.2l-25.036,4.744a.494.494,0,1,1-.184-.971l25.036-4.744a.494.494,0,1,1,.184.971" transform="translate(-47.115 -13.12)" fill="#9e9fa0"/>
                  <path id="Trazado_196316" data-name="Trazado 196316" d="M96.617,317.461a1.591,1.591,0,1,1-1.859-1.267,1.591,1.591,0,0,1,1.859,1.267" transform="translate(-47.46 -12.922)" fill="#9e9fa0"/>
                  <path id="Trazado_196317" data-name="Trazado 196317" d="M156.933,306.678l-26.573,5.036a.494.494,0,1,1-.184-.971l26.573-5.036a.494.494,0,1,1,.184.971" transform="translate(-46.008 -13.341)" fill="#9e9fa0"/>
                  <path id="Trazado_196318" data-name="Trazado 196318" d="M154.784,297.334,138.078,300.5a.494.494,0,1,1-.184-.971l16.706-3.166a.494.494,0,1,1,.184.971" transform="translate(-45.7 -13.714)" fill="#9e9fa0"/>
                  <path id="Trazado_196319" data-name="Trazado 196319" d="M113.572,295.447l-14.432,2.735a.495.495,0,1,1-.184-.972l14.432-2.734a.494.494,0,1,1,.184.971" transform="translate(-47.256 -13.79)" fill="#9e9fa0"/>
                  <path id="Trazado_196320" data-name="Trazado 196320" d="M152.881,287.99l-13.287,2.518a.494.494,0,1,1-.184-.971l13.287-2.518a.494.494,0,1,1,.184.971" transform="translate(-45.639 -14.088)" fill="#9e9fa0"/>
                  <path id="Trazado_196321" data-name="Trazado 196321" d="M151.883,278.646l-33.4,6.328A.494.494,0,1,1,118.3,284l33.4-6.328a.494.494,0,1,1,.184.971" transform="translate(-46.483 -14.461)" fill="#9e9fa0"/>
                  <path id="Trazado_196322" data-name="Trazado 196322" d="M98.387,326.8a1.591,1.591,0,1,1-1.859-1.267,1.592,1.592,0,0,1,1.859,1.267" transform="translate(-47.389 -12.549)" fill="#9e9fa0"/>
                  <path id="Trazado_196323" data-name="Trazado 196323" d="M100.158,336.149a1.591,1.591,0,1,1-1.859-1.267,1.591,1.591,0,0,1,1.859,1.267" transform="translate(-47.318 -12.175)" fill="#9e9fa0"/>
                  <path id="Trazado_196324" data-name="Trazado 196324" d="M149.6,269.3l-19.974,3.786a.495.495,0,0,1-.185-.972l19.975-3.784a.494.494,0,1,1,.184.971" transform="translate(-46.038 -14.835)" fill="#9e9fa0"/>
                  <path id="Trazado_196325" data-name="Trazado 196325" d="M122.954,322.738l-18.5,3.506a.494.494,0,1,1-.184-.971l18.5-3.506a.494.494,0,1,1,.184.971" transform="translate(-47.044 -12.699)" fill="#9e9fa0"/>
                  <path id="Trazado_196326" data-name="Trazado 196326" d="M144.183,328.41l-20.632,3.909a.494.494,0,1,1-.183-.971L144,327.438a.494.494,0,0,1,.185.971" transform="translate(-46.281 -12.472)" fill="#9e9fa0"/>
                  <path id="Trazado_196327" data-name="Trazado 196327" d="M120.655,332.823l-14.432,2.735a.495.495,0,0,1-.185-.972l14.433-2.734a.494.494,0,1,1,.184.971" transform="translate(-46.973 -12.296)" fill="#9e9fa0"/>
                  <path id="Trazado_196328" data-name="Trazado 196328" d="M159.964,325.366l-13.287,2.518a.494.494,0,1,1-.184-.971l13.287-2.518a.494.494,0,1,1,.184.971" transform="translate(-45.356 -12.594)" fill="#9e9fa0"/>
                  <path id="Trazado_196329" data-name="Trazado 196329" d="M158.962,316.019l-32.926,6.239a.494.494,0,1,1-.184-.97l32.926-6.239a.494.494,0,1,1,.184.97" transform="translate(-46.181 -12.967)" fill="#9e9fa0"/>
                  <rect id="Rectángulo_44422" data-name="Rectángulo 44422" width="66.45" height="10.988" transform="translate(34.71 245.388) rotate(-10.73)" fill="#9e9fa0"/>
                  <rect id="Rectángulo_44423" data-name="Rectángulo 44423" width="85.71" height="107.491" transform="matrix(0.998, -0.058, 0.058, 0.998, 47.423, 231.343)" fill="#f6fbff"/>
                  <path id="Trazado_196330" data-name="Trazado 196330" d="M147.665,272.884l-32.111,1.879a.495.495,0,0,1-.057-.988l32.109-1.878a.494.494,0,0,1,.059.987" transform="translate(-46.598 -14.692)" fill="#9e9fa0"/>
                  <path id="Trazado_196331" data-name="Trazado 196331" d="M109.455,274.6a1.591,1.591,0,1,1-1.681-1.5,1.59,1.59,0,0,1,1.681,1.5" transform="translate(-46.948 -14.644)" fill="#9e9fa0"/>
                  <path id="Trazado_196332" data-name="Trazado 196332" d="M134.908,283.127l-18.8,1.1a.5.5,0,0,1-.058-.989l18.8-1.1a.494.494,0,1,1,.058.986" transform="translate(-46.575 -14.282)" fill="#9e9fa0"/>
                  <path id="Trazado_196333" data-name="Trazado 196333" d="M110.011,284.091a1.591,1.591,0,1,1-1.681-1.5,1.59,1.59,0,0,1,1.681,1.5" transform="translate(-46.925 -14.264)" fill="#9e9fa0"/>
                  <path id="Trazado_196334" data-name="Trazado 196334" d="M155.234,291.47,134.27,292.7a.494.494,0,1,1-.057-.987l20.962-1.226a.494.494,0,0,1,.059.987" transform="translate(-45.849 -13.949)" fill="#9e9fa0"/>
                  <path id="Trazado_196335" data-name="Trazado 196335" d="M110.566,293.585a1.591,1.591,0,1,1-1.681-1.494,1.592,1.592,0,0,1,1.681,1.494" transform="translate(-46.903 -13.885)" fill="#9e9fa0"/>
                  <path id="Trazado_196336" data-name="Trazado 196336" d="M152.619,301.182l-35.4,2.072a.495.495,0,0,1-.057-.988l35.4-2.071a.494.494,0,0,1,.057.987" transform="translate(-46.531 -13.561)" fill="#9e9fa0"/>
                  <path id="Trazado_196337" data-name="Trazado 196337" d="M111.122,303.08a1.591,1.591,0,1,1-1.681-1.5,1.591,1.591,0,0,1,1.681,1.5" transform="translate(-46.881 -13.505)" fill="#9e9fa0"/>
                  <path id="Trazado_196338" data-name="Trazado 196338" d="M143.214,311.236l-25.438,1.488a.494.494,0,1,1-.058-.987l25.438-1.488a.494.494,0,1,1,.058.987" transform="translate(-46.509 -13.159)" fill="#9e9fa0"/>
                  <path id="Trazado_196339" data-name="Trazado 196339" d="M111.677,312.574a1.591,1.591,0,1,1-1.682-1.5,1.592,1.592,0,0,1,1.682,1.5" transform="translate(-46.859 -13.126)" fill="#9e9fa0"/>
                  <path id="Trazado_196340" data-name="Trazado 196340" d="M172.9,309.5l-27,1.58a.494.494,0,1,1-.058-.987l27-1.58a.494.494,0,1,1,.057.987" transform="translate(-45.385 -13.228)" fill="#9e9fa0"/>
                  <path id="Trazado_196341" data-name="Trazado 196341" d="M171.958,300.009,154.983,301a.494.494,0,1,1-.058-.987l16.974-.993a.494.494,0,1,1,.058.987" transform="translate(-45.022 -13.608)" fill="#9e9fa0"/>
                  <path id="Trazado_196342" data-name="Trazado 196342" d="M131.329,292.854l-14.664.858a.494.494,0,1,1-.058-.987l14.665-.858a.494.494,0,1,1,.057.987" transform="translate(-46.553 -13.894)" fill="#9e9fa0"/>
                  <path id="Trazado_196343" data-name="Trazado 196343" d="M171.269,290.515l-13.5.789a.494.494,0,1,1-.058-.987l13.5-.789a.494.494,0,1,1,.058.987" transform="translate(-44.91 -13.987)" fill="#9e9fa0"/>
                  <path id="Trazado_196344" data-name="Trazado 196344" d="M171.5,281.021l-33.933,1.985a.494.494,0,1,1-.058-.987l33.933-1.985a.494.494,0,1,1,.058.987" transform="translate(-45.718 -14.367)" fill="#9e9fa0"/>
                  <path id="Trazado_196345" data-name="Trazado 196345" d="M112.233,322.068a1.591,1.591,0,1,1-1.682-1.5,1.59,1.59,0,0,1,1.682,1.5" transform="translate(-46.837 -12.746)" fill="#9e9fa0"/>
                  <path id="Trazado_196346" data-name="Trazado 196346" d="M112.788,331.562a1.591,1.591,0,1,1-1.682-1.5,1.592,1.592,0,0,1,1.682,1.5" transform="translate(-46.814 -12.367)" fill="#9e9fa0"/>
                  <path id="Trazado_196347" data-name="Trazado 196347" d="M170.419,271.526l-20.3,1.189a.5.5,0,0,1-.057-.989l20.294-1.186a.494.494,0,1,1,.058.986" transform="translate(-45.216 -14.746)" fill="#9e9fa0"/>
                  <path id="Trazado_196348" data-name="Trazado 196348" d="M137.13,321.1l-18.8,1.1a.495.495,0,1,1-.058-.988l18.8-1.1a.494.494,0,1,1,.058.987" transform="translate(-46.487 -12.764)" fill="#9e9fa0"/>
                  <path id="Trazado_196349" data-name="Trazado 196349" d="M157.455,329.446l-20.963,1.226a.494.494,0,0,1-.058-.987l20.963-1.226a.494.494,0,1,1,.058.987" transform="translate(-45.761 -12.431)" fill="#9e9fa0"/>
                  <path id="Trazado_196350" data-name="Trazado 196350" d="M133.551,330.831l-14.664.858a.494.494,0,1,1-.058-.987l14.664-.858a.494.494,0,1,1,.058.987" transform="translate(-46.464 -12.375)" fill="#9e9fa0"/>
                  <path id="Trazado_196351" data-name="Trazado 196351" d="M173.491,328.491l-13.5.79a.495.495,0,0,1-.058-.988l13.5-.789a.494.494,0,1,1,.058.987" transform="translate(-44.821 -12.469)" fill="#9e9fa0"/>
                  <path id="Trazado_196352" data-name="Trazado 196352" d="M173.716,319l-33.454,1.957a.494.494,0,1,1-.057-.986l33.453-1.958a.494.494,0,1,1,.058.987" transform="translate(-45.61 -12.849)" fill="#9e9fa0"/>
                  <rect id="Rectángulo_44424" data-name="Rectángulo 44424" width="66.45" height="10.988" transform="matrix(0.998, -0.058, 0.058, 0.998, 58.091, 238.931)" fill="#9e9fa0"/>
                  <g id="Grupo_142031" data-name="Grupo 142031" transform="translate(302.783 231.608)" opacity="0.2">
                    <g id="Grupo_142030" data-name="Grupo 142030" transform="translate(0)">
                      <g id="Grupo_142029" data-name="Grupo 142029" clip-path="url(#clip-path-23)">
                        <rect id="Rectángulo_44425" data-name="Rectángulo 44425" width="34.825" height="34.825" transform="translate(0 16.587) rotate(-28.445)" fill="#12110b"/>
                      </g>
                    </g>
                  </g>
                  <rect id="Rectángulo_44427" data-name="Rectángulo 44427" width="34.825" height="34.825" transform="translate(303.277 246.712) rotate(-28.445)" fill="#fff"/>
                  <rect id="Rectángulo_44428" data-name="Rectángulo 44428" width="26.053" height="26.053" transform="translate(309.223 248.479) rotate(-28.444)" fill="#2f8fc6"/>
                  <rect id="Rectángulo_44429" data-name="Rectángulo 44429" width="26.053" height="7.153" transform="translate(318.226 265.1) rotate(-28.449)" fill="#979492"/>
                  <path id="Trazado_196353" data-name="Trazado 196353" d="M362.958,277.343a1.044,1.044,0,1,1-1.415-.421,1.044,1.044,0,0,1,1.415.421" transform="translate(-36.766 -14.496)" fill="#484441"/>
                  <path id="Trazado_196354" data-name="Trazado 196354" d="M372.823,272a1.044,1.044,0,1,1-1.415-.421,1.044,1.044,0,0,1,1.415.421" transform="translate(-36.371 -14.71)" fill="#484441"/>
                  <path id="Trazado_196355" data-name="Trazado 196355" d="M375.307,269.965a.649.649,0,0,1-.046,1.114l-1.805.979c-.5-.918-2.648.246-2.15,1.165l-8.117,4.4c-.5-.918-2.605.224-2.107,1.142l-1.476.8a.722.722,0,0,1-1.066-.632l0-.792a1.894,1.894,0,0,1,.992-1.672l1.169-.633a2.474,2.474,0,0,0,1.193-1.471l.374-1.259a3.1,3.1,0,0,1,1.5-1.843l4.021-2.178,1.006-.546a3.629,3.629,0,0,1,2.756-.288Z" transform="translate(-36.864 -14.844)" fill="#5c4b42"/>
                  <path id="Trazado_196356" data-name="Trazado 196356" d="M366.311,259.783a3.111,3.111,0,1,1-4.217-1.253,3.111,3.111,0,0,1,4.217,1.253" transform="translate(-36.787 -15.241)" fill="#fff091"/>
                  <path id="Trazado_196357" data-name="Trazado 196357" d="M171.115,169.249a4.412,4.412,0,0,1,5.5-2.929l15.812,4.824a3.136,3.136,0,0,1-1.83,6l-12.818-3.911a.495.495,0,0,1,.288-.946l12.819,3.911a2.146,2.146,0,0,0,1.253-4.106l-15.812-4.825a3.419,3.419,0,0,0-2,6.539l16.84,5.139a4.4,4.4,0,0,0,2.567-8.41L190,169.391a.494.494,0,0,1,.288-.945l3.743,1.142a5.386,5.386,0,0,1-3.144,10.3l-16.841-5.14a4.412,4.412,0,0,1-2.929-5.5" transform="translate(-44.363 -18.92)" fill="#615b5c"/>
                  <path id="Trazado_196358" data-name="Trazado 196358" d="M209.944,160.134a4.412,4.412,0,0,1-6.224-.32L192.645,147.54a3.136,3.136,0,0,1,4.657-4.2l8.977,9.95a.494.494,0,1,1-.734.662L196.566,144a2.146,2.146,0,0,0-3.188,2.876l11.075,12.274a3.418,3.418,0,0,0,5.076-4.579l-11.8-13.074a4.4,4.4,0,1,0-6.528,5.89l2.621,2.9a.495.495,0,0,1-.734.664l-2.622-2.906a5.386,5.386,0,0,1,8-7.215l11.8,13.074a4.412,4.412,0,0,1-.32,6.224" transform="translate(-43.637 -20.002)" fill="#615b5c"/>
                  <g id="Grupo_142034" data-name="Grupo 142034" transform="translate(-20.07 120.501)" opacity="0.2">
                    <g id="Grupo_142033" data-name="Grupo 142033">
                      <g id="Grupo_142032" data-name="Grupo 142032" clip-path="url(#clip-path-24)">
                        <rect id="Rectángulo_44430" data-name="Rectángulo 44430" width="77.899" height="71.994" transform="translate(0 66.502) rotate(-58.615)" fill="#12110b"/>
                      </g>
                    </g>
                  </g>
                  <rect id="Rectángulo_44432" data-name="Rectángulo 44432" width="77.899" height="71.995" transform="translate(-20.564 185.025) rotate(-58.615)" fill="#0f477c"/>
                  <rect id="Rectángulo_44433" data-name="Rectángulo 44433" width="11.884" height="61.038" transform="translate(16.365 135.006) rotate(-58.615)" fill="#173457"/>
                  <g id="Grupo_142037" data-name="Grupo 142037" transform="translate(171.882 336.85)" opacity="0.1">
                    <g id="Grupo_142036" data-name="Grupo 142036">
                      <g id="Grupo_142035" data-name="Grupo 142035" clip-path="url(#clip-path-25)">
                        <path id="Trazado_196359" data-name="Trazado 196359" d="M214.5,349.258l.292-.778,15.388,5.8-.288.765Z" transform="translate(-214.503 -348.48)" fill="#12110b"/>
                      </g>
                    </g>
                  </g>
                  <g id="Grupo_142040" data-name="Grupo 142040" transform="translate(265.908 321.889)" opacity="0.1">
                    <g id="Grupo_142039" data-name="Grupo 142039" transform="translate(0 0)">
                      <g id="Grupo_142038" data-name="Grupo 142038" clip-path="url(#clip-path-26)">
                        <path id="Trazado_196360" data-name="Trazado 196360" d="M305.218,342.247l-.3-.657,16.113-7.5.324.7Z" transform="translate(-304.915 -334.095)" fill="#12110b"/>
                      </g>
                    </g>
                  </g>
                </g>
              </g>
            </g>
          </g>
          <ellipse id="Elipse_4772" data-name="Elipse 4772" cx="92.5" cy="90.5" rx="92.5" ry="90.5" transform="translate(73.759 17.383)" fill="#4dd0e1" opacity="0.18"/>
          <ellipse id="Elipse_4773" data-name="Elipse 4773" cx="68.5" cy="68" rx="68.5" ry="68" transform="translate(77.759 247.383)" fill="#4dd0e1" opacity="0.18"/>
          <path id="Rectángulo_40506" data-name="Rectángulo 40506" d="M30.159,3.12A27.014,27.014,0,0,0,3.12,30.159V371.271A27.014,27.014,0,0,0,30.159,398.31H297.432a27.014,27.014,0,0,0,27.039-27.039V30.159A27.014,27.014,0,0,0,297.432,3.12H30.159m0-3.12H297.432a30.159,30.159,0,0,1,30.159,30.159V371.271a30.159,30.159,0,0,1-30.159,30.159H30.159A30.159,30.159,0,0,1,0,371.271V30.159A30.159,30.159,0,0,1,30.159,0Z" transform="translate(94.638 12.863)" fill="#707070"/>
        </g>
      </g>
    </g>
  </g>
</svg>
