<svg xmlns="http://www.w3.org/2000/svg" xmlns:xlink="http://www.w3.org/1999/xlink" width="190" height="99.785" viewBox="0 0 190 99.785">
  <defs>
    <clipPath id="clip-path">
      <rect id="Rectángulo_44441" data-name="Rectángulo 44441" width="99.812" height="99.785" fill="none"/>
    </clipPath>
  </defs>
  <g id="Grupo_143215" data-name="Grupo 143215" transform="translate(-180 -404)">
    <g id="Grupo_142060" data-name="Grupo 142060">
      <rect id="Rectángulo_41430" data-name="Rectángulo 41430" width="85" height="28" rx="14" transform="translate(285 404.5)" fill="#feca2e" opacity="0.2"/>
      <rect id="Rectángulo_41431" data-name="Rectángulo 41431" width="85" height="28" rx="14" transform="translate(180 465.5)" fill="#4dd0e1" opacity="0.2"/>
    </g>
    <g id="Grupo_142059" data-name="Grupo 142059" transform="translate(225 404)">
      <g id="Grupo_142058" data-name="Grupo 142058" clip-path="url(#clip-path)">
        <path id="Trazado_196362" data-name="Trazado 196362" d="M96.821,75.737V72.826H2.985v2.911H9.328c.423,0,.846-.021,1.267.016A1.468,1.468,0,0,1,12.04,76.96a5.291,5.291,0,0,1,1.6.132c.13.034.264.052.4.08.536.034,1.073.05,1.613.051.131,0,.252.029.38.039a1.29,1.29,0,0,1,1.022-1.408,5.959,5.959,0,0,1,1.447-.113q38.449-.006,76.9,0Z" fill="#fff"/>
        <path id="Trazado_196363" data-name="Trazado 196363" d="M95.151,43.836c0-.04,0-.081,0-.121-.034,0-.063.007-.1,0a1.338,1.338,0,0,1-1.277-1.255,7.378,7.378,0,0,1-.021-.976V10.858H6.069V25.8c0,.293.011.587-.011.878a1.362,1.362,0,0,1-1.344,1.4,1.489,1.489,0,0,1-.25,0c.015,1.334.058,2.667.111,4a1.887,1.887,0,0,1,.25,0,1.321,1.321,0,0,1,1.215,1.2,7.1,7.1,0,0,1,.028,1.073q0,17.088,0,34.178v1.231H93.75V68.648q0-9.375,0-18.75c0-.325-.111-.736.044-.958A3.074,3.074,0,0,1,95,47.757a1.191,1.191,0,0,1,.305-.065c-.061-1.285.01-2.576-.159-3.856M12.232,16.529c0-1.5.469-1.952,2.007-1.953q14.223,0,28.448,0c1.509,0,1.975.472,1.975,1.984q0,9.372,0,18.743c0,1.469-.451,1.924-1.91,1.925q-7.161.008-14.322,0-7.112,0-14.224,0c-1.541,0-1.973-.425-1.974-1.959q-.008-9.37,0-18.742M44.663,64.048c0,1.57-.452,2.017-2.04,2.017q-14.177,0-28.352,0c-1.59,0-2.038-.44-2.039-2.017q-.008-9.321,0-18.644c0-1.589.417-1.992,2.038-1.993q7.113,0,14.225,0,7.063,0,14.127,0c1.612,0,2.04.418,2.041,1.992q0,9.323,0,18.645m42.923.063c0,1.5-.47,1.953-2,1.954q-7.113.006-14.225,0-7.063,0-14.127,0c-1.642,0-2.074-.434-2.074-2.079q0-9.274,0-18.547c0-1.61.41-2.027,2-2.028q14.224,0,28.449,0c1.542,0,1.977.427,1.978,1.957q.008,9.372,0,18.743m0-28.874c0,1.588-.42,1.992-2.039,1.993q-7.111,0-14.224,0-7.063,0-14.127,0c-1.615,0-2.04-.415-2.041-1.99q0-9.323,0-18.644c0-1.57.452-2.019,2.037-2.02q14.176,0,28.351,0c1.59,0,2.042.443,2.043,2.016q.006,9.323,0,18.645" fill="#fff"/>
        <path id="Trazado_196364" data-name="Trazado 196364" d="M99.812,77.82a2.607,2.607,0,0,1-2.23.861c-8.381-.025-16.763-.015-25.144-.015H71.16c.695,2.431,1.349,4.732,2.014,7.03q1.693,5.852,3.4,11.7c.47,1.624-.071,2.37-1.73,2.381s-3.315.009-4.972,0c-1.324-.007-1.642-.25-2.009-1.517C66.1,92.175,64.31,86.1,62.611,79.994c-.3-1.085-.746-1.413-1.854-1.358-2.1.1-4.2.03-6.417.03v1.263q0,8.838,0,17.675c0,1.777-.4,2.172-2.187,2.175q-2.241,0-4.483,0c-1.791,0-2.19-.4-2.191-2.169q0-8.836,0-17.675V78.666H39.455c-1.841,0-1.841,0-2.36,1.8l-5.112,17.7c-.405,1.4-.681,1.614-2.125,1.619q-2.388.007-4.776,0c-1.792-.007-2.313-.725-1.807-2.476q2.547-8.8,5.1-17.6c.08-.278.15-.559.261-.975-.388-.022-.723-.057-1.057-.057q-4.679-.007-9.357,0a6.993,6.993,0,0,1-.972-.038,1.336,1.336,0,0,1-1.22-1.312,1.3,1.3,0,0,1,1.026-1.462,5.959,5.959,0,0,1,1.447-.112q38.449-.007,76.9,0h1.425V72.825H2.985v2.911H9.328c.423,0,.847-.021,1.267.015a1.464,1.464,0,0,1,1.493,1.482,1.424,1.424,0,0,1-1.535,1.42c-1.624.031-3.249.011-4.873.012-1.332,0-2.664.016-4-.007A1.473,1.473,0,0,1,.012,76.976c-.018-1.79-.014-3.581,0-5.371C.019,70.354.539,69.85,1.8,69.828c.416-.007.831,0,1.346,0V68.592q0-17.187.006-34.373a3.974,3.974,0,0,1,.138-1.246,1.3,1.3,0,0,1,1.536-.9,1.318,1.318,0,0,1,1.215,1.2,7.1,7.1,0,0,1,.028,1.073q0,17.089,0,34.178v1.231h87.68V68.647q0-9.375,0-18.75c0-.325-.111-.736.044-.958a3.07,3.07,0,0,1,1.211-1.183,1.171,1.171,0,0,1,1.521.863,3.921,3.921,0,0,1,.141,1.246q.012,9.373.006,18.749v1.159c1.117.174,2.447-.3,3.138,1.016Zm-48.475.923H48.462V96.79h2.875Zm-16.763-.077a17.847,17.847,0,0,1-1.869-.013c-.749-.084-1.083.2-1.281.931-.687,2.537-1.441,5.056-2.169,7.581q-1.374,4.764-2.748,9.53c2.335.557,2.755.33,3.357-1.757.09-.311.193-.62.283-.931C31.6,88.96,33.06,83.913,34.574,78.666M73.2,96.844c.04-.138.062-.171.056-.2q-2.5-8.748-5.026-17.488a.753.753,0,0,0-.5-.465c-.789-.05-1.582-.022-2.479-.022.308,1.067.566,1.965.826,2.863,1.383,4.8,2.76,9.606,4.168,14.4.1.339.408.823.68.866a14.528,14.528,0,0,0,2.273.041" fill="#0f2771"/>
        <path id="Trazado_196365" data-name="Trazado 196365" d="M93.75,10.858H6.069v1.071q0,6.933,0,13.866c0,.293.012.588-.01.879a1.362,1.362,0,0,1-1.344,1.4,1.394,1.394,0,0,1-1.54-1.3c-.067-.678-.028-1.366-.028-2.049q0-7.422,0-14.844c0-1.513.473-1.984,1.973-1.985H45.478c0-1.926,0-3.769,0-5.612C45.48.362,45.838,0,47.755,0Q49.9,0,52.044,0c1.928,0,2.294.362,2.3,2.26,0,1.529,0,3.059,0,4.589,0,.316.03.632.05,1.041H94.486c1.776,0,2.187.4,2.187,2.164q0,15.771,0,31.542a3.887,3.887,0,0,1-.12,1.153,1.315,1.315,0,0,1-1.5.968,1.338,1.338,0,0,1-1.277-1.256,7.363,7.363,0,0,1-.021-.975V10.858M48.459,7.82h2.89V2.995h-2.89Z" fill="#0f2771"/>
        <path id="Trazado_196366" data-name="Trazado 196366" d="M71.356,66.066q-7.063,0-14.127,0c-1.641,0-2.074-.434-2.074-2.079q0-9.274,0-18.548c0-1.609.412-2.026,2.005-2.027q14.223,0,28.448,0c1.542,0,1.978.427,1.979,1.957q.006,9.371,0,18.742c0,1.5-.471,1.953-2.006,1.955q-7.112,0-14.225,0M84.612,46.409H58.132V61.2c.339-.282.584-.473.814-.68q3.884-3.481,7.763-6.966c1.093-.976,1.715-.933,2.719.151.831.9,1.654,1.8,2.532,2.761,1.644-1.859,3.2-3.64,4.783-5.4.989-1.1,1.956-1.022,2.754.234,1.516,2.385,3.013,4.782,4.523,7.173.144.229.31.445.592.845ZM67.921,56.4c-2.46,2.21-4.866,4.374-7.412,6.661H83.444c-1.889-3-3.7-5.883-5.572-8.853l-4.053,4.583c-1.614,1.826-2.076,1.831-3.682.049-.7-.772-1.4-1.539-2.216-2.44" fill="#0f2771"/>
        <path id="Trazado_196367" data-name="Trazado 196367" d="M28.43,37.231q-7.112,0-14.224,0c-1.541,0-1.973-.424-1.974-1.958q-.008-9.37,0-18.742c0-1.5.469-1.952,2.006-1.953q14.225,0,28.449,0c1.509,0,1.975.473,1.975,1.985q0,9.37,0,18.742c0,1.469-.451,1.924-1.91,1.926q-7.161.008-14.322,0M41.683,17.586H15.216V34.253H41.683Z" fill="#0f2771"/>
        <path id="Trazado_196368" data-name="Trazado 196368" d="M71.324,37.231q-7.063,0-14.127,0c-1.615,0-2.04-.415-2.041-1.99q0-9.323,0-18.645c0-1.57.451-2.019,2.037-2.019q14.176,0,28.351,0c1.59,0,2.042.443,2.043,2.016q.006,9.323,0,18.645c0,1.587-.421,1.992-2.039,1.993q-7.111,0-14.224,0m-13.185-3.01H84.6V17.554H58.139Z" fill="#0f2771"/>
        <path id="Trazado_196369" data-name="Trazado 196369" d="M28.5,43.41q7.063,0,14.126,0c1.613,0,2.041.418,2.041,1.992q0,9.323,0,18.645c0,1.57-.452,2.016-2.041,2.017q-14.175,0-28.351,0c-1.59,0-2.039-.441-2.04-2.017q-.006-9.322,0-18.645c0-1.588.418-1.991,2.039-1.992q7.113,0,14.225,0m13.2,2.987H15.234V63.075h26.46Z" fill="#0f2771"/>
        <rect id="Rectángulo_44437" data-name="Rectángulo 44437" width="2.875" height="18.047" transform="translate(48.461 78.743)" fill="#fff"/>
        <path id="Trazado_196370" data-name="Trazado 196370" d="M34.574,78.667c-1.514,5.246-2.97,10.294-4.427,15.341-.09.311-.193.619-.283.931-.6,2.087-1.022,2.314-3.357,1.757q1.374-4.769,2.748-9.53c.728-2.526,1.482-5.044,2.169-7.581.2-.732.532-1.015,1.281-.931a17.844,17.844,0,0,0,1.869.013" fill="#fff"/>
        <path id="Trazado_196371" data-name="Trazado 196371" d="M73.2,96.844a14.528,14.528,0,0,1-2.273-.041c-.272-.043-.58-.527-.68-.866-1.408-4.795-2.785-9.6-4.168-14.4-.26-.9-.518-1.8-.826-2.863.9,0,1.69-.028,2.479.022a.753.753,0,0,1,.5.465q2.532,8.737,5.026,17.488c.006.025-.016.058-.056.2" fill="#fff"/>
        <rect id="Rectángulo_44438" data-name="Rectángulo 44438" width="2.89" height="4.825" transform="translate(48.459 2.995)" fill="#fff"/>
        <path id="Trazado_196372" data-name="Trazado 196372" d="M84.613,46.409v12.9c-.282-.4-.449-.615-.594-.845-1.508-2.39-3.006-4.788-4.522-7.173-.8-1.255-1.765-1.338-2.753-.234-1.58,1.764-3.14,3.545-4.783,5.4-.879-.958-1.7-1.863-2.533-2.761-1-1.084-1.625-1.126-2.718-.15q-3.89,3.473-7.763,6.965c-.231.207-.476.4-.815.68V46.409ZM61.162,50.427a1.942,1.942,0,0,0,2.01,1.921,1.964,1.964,0,0,0-.086-3.927,1.94,1.94,0,0,0-1.924,2.006" fill="#fff"/>
        <path id="Trazado_196373" data-name="Trazado 196373" d="M67.921,56.4c.818.9,1.52,1.668,2.216,2.44,1.606,1.782,2.068,1.777,3.682-.049L77.872,54.2c1.871,2.97,3.683,5.852,5.572,8.853H60.509c2.546-2.287,4.952-4.451,7.412-6.661" fill="#fff"/>
        <path id="Trazado_196374" data-name="Trazado 196374" d="M41.683,34.253H15.216V17.586H41.683Zm-9.708-5.847c-1.656,0-3.312-.005-4.969,0-1.127,0-1.807.572-1.8,1.471.012.863.677,1.447,1.73,1.451q5.065.018,10.132,0a1.508,1.508,0,0,0,1.7-1.481c-.009-.864-.675-1.432-1.73-1.439-1.689-.012-3.377,0-5.066,0m0-4.968c1.655,0,3.31.01,4.965,0,1.137-.01,1.815-.566,1.823-1.451s-.668-1.463-1.8-1.468q-4.965-.021-9.93,0c-1.145,0-1.816.564-1.822,1.447s.672,1.461,1.8,1.471c1.655.015,3.31,0,4.965,0m-11.374.02c0-.011,0-.021,0-.031.324,0,.651.027.972,0A1.445,1.445,0,0,0,23,21.984a1.4,1.4,0,0,0-1.4-1.442,13.437,13.437,0,0,0-2.234.027,1.289,1.289,0,0,0-1.219,1.393,1.327,1.327,0,0,0,1.2,1.422,10.525,10.525,0,0,0,1.26.074m-.072,4.959V28.41c-.323,0-.646-.02-.967,0a1.449,1.449,0,0,0-1.431,1.413,1.42,1.42,0,0,0,1.356,1.484,11.34,11.34,0,0,0,2.316-.03,1.316,1.316,0,0,0,1.186-1.426,1.369,1.369,0,0,0-1.3-1.429,8.465,8.465,0,0,0-1.16-.009" fill="#fff"/>
        <rect id="Rectángulo_44439" data-name="Rectángulo 44439" width="26.458" height="16.667" transform="translate(58.139 17.555)" fill="#fff"/>
        <rect id="Rectángulo_44440" data-name="Rectángulo 44440" width="26.46" height="16.678" transform="translate(15.234 46.397)" fill="#fff"/>
        <path id="Trazado_196375" data-name="Trazado 196375" d="M61.162,50.427a1.94,1.94,0,0,1,1.924-2.006,1.964,1.964,0,0,1,.086,3.927,1.942,1.942,0,0,1-2.01-1.921" fill="#0f2771"/>
        <path id="Trazado_196376" data-name="Trazado 196376" d="M31.975,28.406c1.689,0,3.377-.008,5.066,0,1.055.007,1.721.575,1.73,1.44a1.509,1.509,0,0,1-1.7,1.481q-5.065.021-10.132,0c-1.053,0-1.718-.587-1.73-1.451-.011-.9.669-1.466,1.8-1.471,1.657-.008,3.313,0,4.969,0" fill="#0f2771"/>
        <path id="Trazado_196377" data-name="Trazado 196377" d="M31.98,23.437c-1.655,0-3.31.011-4.965,0-1.129-.01-1.808-.583-1.8-1.472s.677-1.442,1.822-1.447q4.965-.02,9.93,0c1.134.005,1.81.585,1.8,1.467s-.686,1.442-1.823,1.452c-1.655.014-3.31,0-4.965,0" fill="#0f2771"/>
        <path id="Trazado_196378" data-name="Trazado 196378" d="M20.6,23.457a10.345,10.345,0,0,1-1.26-.073,1.327,1.327,0,0,1-1.2-1.422,1.289,1.289,0,0,1,1.219-1.394,13.425,13.425,0,0,1,2.233-.027A1.406,1.406,0,0,1,23,21.983a1.446,1.446,0,0,1-1.426,1.438c-.321.032-.648.006-.972.006v.03" fill="#0f2771"/>
        <path id="Trazado_196379" data-name="Trazado 196379" d="M20.534,28.417a8.465,8.465,0,0,1,1.16.009,1.369,1.369,0,0,1,1.3,1.429,1.316,1.316,0,0,1-1.186,1.426,11.34,11.34,0,0,1-2.316.03,1.42,1.42,0,0,1-1.356-1.484,1.449,1.449,0,0,1,1.431-1.413c.321-.024.644,0,.967,0v.007" fill="#0f2771"/>
      </g>
    </g>
  </g>
</svg>
