<svg xmlns="http://www.w3.org/2000/svg" xmlns:xlink="http://www.w3.org/1999/xlink" width="400" height="237.945" viewBox="0 0 400 237.945">
  <defs>
    <clipPath id="clip-path">
      <path id="Trazado_195122" data-name="Trazado 195122" d="M794.591,655.322c-101.89-5.93-183.6-113.726-129.385-176.286,42.05-48.519,98.117,22.1,150.41-13.478,80.45-54.739,210.788-64.692,228.04,4.313s-39.893,176.826-82.483,183.3S794.591,655.322,794.591,655.322Z" transform="translate(-647.927 -421.286)" fill="none"/>
    </clipPath>
  </defs>
  <g id="Grupo_143170" data-name="Grupo 143170" transform="translate(-180 -401)">
    <g id="Grupo_141110" data-name="Grupo 141110" transform="translate(-467.927 -20.286)">
      <path id="Trazado_195116" data-name="Trazado 195116" d="M794.591,655.322c-101.89-5.93-183.6-113.726-129.385-176.286,42.05-48.519,98.117,22.1,150.41-13.478,80.45-54.739,210.788-64.692,228.04,4.313s-39.893,176.826-82.483,183.3S794.591,655.322,794.591,655.322Z" fill="#bddcf6" opacity="0.15"/>
      <path id="Trazado_195117" data-name="Trazado 195117" d="M796.243,493.078c1.078,25.877.808,39.893-8.626,50.675s-35.85,8.087-35.85,8.087-2.606,38.1-39.534,39.714-42.23-47.441-13.3-60.02c27.54-11.974,36.3-15.454,45.822-45.105,8.7-27.086,35.851-21.923,42.32-10.6S796.243,493.078,796.243,493.078Z" transform="translate(11.556 16.147)" fill="#0f2771"/>
      <path id="Trazado_195118" data-name="Trazado 195118" d="M756.887,584.668s17.43,3.414,18.329,3.234,19.947-8.625,21.924-7.367,13.477,6.11,15.993,7.188-1.437,1.437-3.414,1.437-13.3-4.673-14.556-3.773,9.883,2.7,9.883,3.414-29.831,7.547-31.627,7.547-15.634-1.258-15.634-1.258Z" transform="translate(38.782 56.637)" fill="#e38540"/>
      <path id="Trazado_195119" data-name="Trazado 195119" d="M746.219,513.342c9.389,1.843,14.915,11.779,16.712,20.483S746.219,513.342,746.219,513.342Z" transform="translate(34.985 32.766)" fill="#6791c9"/>
      <g id="Grupo_141094" data-name="Grupo 141094" transform="translate(647.927 421.286)">
        <g id="Grupo_141093" data-name="Grupo 141093" clip-path="url(#clip-path)">
          <path id="Trazado_195120" data-name="Trazado 195120" d="M742.829,509.01s-18.06,12.13-27.763,18.06,3.5,69.814,6.738,93.534,59.3,2.157,59.3,2.157-3.774-19.947,1.078-52.023c3.475-22.978-9.254-37.378-16.533-47.352C747.283,498.214,742.829,509.01,742.829,509.01Z" transform="translate(-625.277 -390.881)" fill="#4dd0e1"/>
          <path id="Trazado_195121" data-name="Trazado 195121" d="M725.677,521.924C746.432,547.261,753.448,552,748.319,569.1c-4.043,13.477-5.391,18.33-6.2,22.911s38.547-2.965,38.547-2.965l-.27,14.826s-31,14.826-46.094,17.79-24.529-.538-24.529-.538Z" transform="translate(-625.914 -385.465)" fill="#6791c9"/>
        </g>
      </g>
      <path id="Trazado_195123" data-name="Trazado 195123" d="M978.487,598.455H732.915a3.21,3.21,0,1,1,0-6.42H978.487a3.21,3.21,0,0,1,0,6.42Z" transform="translate(29.107 60.775)" fill="#0f2771"/>
      <path id="Trazado_195124" data-name="Trazado 195124" d="M741.979,489.587l-9.345,27.673s10.244,27.764,18.869,21.565c2.945-2.117-1.078-18.869-1.078-18.869l6.289-22.462Z" transform="translate(30.15 24.311)" fill="#f09959"/>
      <path id="Trazado_195125" data-name="Trazado 195125" d="M723.8,521.134c-12.9,1.433-14.016,18.868-19.947,47.98s-4.148,48.327-1.348,52.023c6.739,8.895,82.483-22.1,91.917-21.833,6.511.186,1.078-10.782,1.078-10.782l-72.24,11.052s10.244-33.7,10.244-50.945S728.65,520.594,723.8,521.134Z" transform="translate(18.5 35.533)" fill="#f09959"/>
      <path id="Trazado_195126" data-name="Trazado 195126" d="M771.7,572.48c7.547-1.887,18.6-6.2,20.755-4.313S803.5,583.531,806.468,587.3s-1.348.809-4.582-2.156a41.211,41.211,0,0,0-5.931-4.583,50.922,50.922,0,0,1-7.817,5.931c-3.774,2.156-5.121-2.156-11.591-3.235s-22.643,4.583-22.643,4.583Z" transform="translate(37.721 52.114)" fill="#f09959"/>
      <path id="Trazado_195127" data-name="Trazado 195127" d="M725.057,519.6c-7.906.359-14.016,7.009-16.172,17.251s-8.446,42.769-8.446,42.769-1.258.9,11.86,3.234a63.178,63.178,0,0,0,23.9-.359s2.7-18.508,1.977-31.268-3.595-24.8-8.266-28.932S725.057,519.6,725.057,519.6Z" transform="translate(18.679 34.908)" fill="#4dd0e1"/>
      <path id="Trazado_195128" data-name="Trazado 195128" d="M748.571,519.956l6.289-22.462-14.735-7.906-2.251,6.666c-.49,22.316,5.227,29.779,9.079,32.509,1.2.852,2.237.194,3.105-1.2C749.425,523.518,748.571,519.956,748.571,519.956Z" transform="translate(32.005 24.311)" fill="#e38540"/>
      <path id="Trazado_195129" data-name="Trazado 195129" d="M777.855,496.885c0,12.023-1.435,26.763-11.86,26.416-16.174-.538-26.365-13.11-26.365-25.134s8.457-21.768,18.888-21.768S777.855,484.864,777.855,496.885Z" transform="translate(32.64 19.617)" fill="#f09959"/>
      <path id="Trazado_195130" data-name="Trazado 195130" d="M872.749,607.12H812.121l24.937-54.865a4.485,4.485,0,0,1,4.084-2.629h55.021a1.752,1.752,0,0,1,1.595,2.476Z" transform="translate(58.442 45.681)" fill="#9bd6e8"/>
      <path id="Trazado_195131" data-name="Trazado 195131" d="M886.1,593.88H774.248a7.056,7.056,0,0,1,7.056-7.056H886.1Z" transform="translate(44.962 58.921)" fill="#9bd6e8"/>
      <path id="Trazado_195132" data-name="Trazado 195132" d="M894.448,549.626H845.96a4.483,4.483,0,0,0-4.083,2.629L816.939,607.12h54.095L896.043,552.1A1.752,1.752,0,0,0,894.448,549.626Z" transform="translate(60.157 45.681)" fill="#7bcee8"/>
      <path id="Trazado_195133" data-name="Trazado 195133" d="M759.391,473.331c11.456-.81,18.24,9.658,20.217,18.823,1.426,6.613.719,7.906.719,7.906s-1.258,1.8-10.243,2.336-10.064.359-10.064.359l-.538-10.422-2.7,10.062s-1.437,1.977-7.009-.719S741.691,490,741.691,490s-1.257-5.931,3.055-9.883S759.391,473.331,759.391,473.331Z" transform="translate(33.313 18.509)" fill="#0f2771"/>
      <path id="Trazado_195134" data-name="Trazado 195134" d="M754.224,497.181c-1.1,7.272-6.9,12.424-12.964,11.508s-10.084-7.554-8.986-14.826,6.9-12.424,12.964-11.508S755.323,489.91,754.224,497.181Z" transform="translate(29.958 21.699)" fill="#d54a41"/>
      <path id="Trazado_195135" data-name="Trazado 195135" d="M749.858,496.687c-1.018,6.734-5.783,11.6-10.644,10.862s-7.977-6.789-6.96-13.523,5.783-11.6,10.644-10.861S750.875,489.953,749.858,496.687Z" transform="translate(29.946 21.999)" fill="#feca2e"/>
      <path id="Trazado_195136" data-name="Trazado 195136" d="M741.577,493.911c-.559,3.7-2.573,6.462-4.5,6.171s-3.036-3.527-2.477-7.226,2.575-6.462,4.5-6.171S742.136,490.211,741.577,493.911Z" transform="translate(30.798 23.27)" fill="#f2e5de"/>
      <path id="Trazado_195137" data-name="Trazado 195137" d="M739.493,486.639c5.256-19.542,23.4-16.692,27.988-13.972a8.8,8.8,0,0,1,4.4,5.525s-4.987-4.042-13.478-2.56c-8.057,1.406-12.847,6.155-13.521,11.41C744.54,489.724,739.493,486.639,739.493,486.639Z" transform="translate(32.591 17.599)" fill="#d54a41"/>
      <g id="Grupo_141095" data-name="Grupo 141095" transform="translate(691.027 500.364)">
        <path id="Trazado_195138" data-name="Trazado 195138" d="M680.13,546.566h-.041a.416.416,0,0,1-.374-.453,24.886,24.886,0,0,1,6.956-14.305c4.537-4.842,10.994-8.656,18.673-11.032,17.112-5.291,32.038-12.02,41.418-40.883a.416.416,0,0,1,.791.258c-4.311,13.264-10.179,22.922-17.939,29.524-6.843,5.822-14.553,8.967-24.023,11.9-7.542,2.332-13.874,6.069-18.313,10.805a24.069,24.069,0,0,0-6.735,13.816A.414.414,0,0,1,680.13,546.566Z" transform="translate(-679.714 -479.606)" fill="#0f2771"/>
      </g>
      <g id="Grupo_141096" data-name="Grupo 141096" transform="translate(698.755 503.059)">
        <path id="Trazado_195139" data-name="Trazado 195139" d="M685.828,525.913a.416.416,0,0,1-.255-.744,49.891,49.891,0,0,1,17.957-7.985c20.3-4.472,33.921-16.675,39.4-35.292a.416.416,0,1,1,.8.236c-3.387,11.5-9.759,20.576-18.94,26.976A58.685,58.685,0,0,1,703.707,518a49.044,49.044,0,0,0-17.625,7.829A.41.41,0,0,1,685.828,525.913Z" transform="translate(-685.413 -481.594)" fill="#0f2771"/>
      </g>
      <g id="Grupo_141102" data-name="Grupo 141102" transform="translate(850.579 475.801)">
        <path id="Trazado_195140" data-name="Trazado 195140" d="M892.167,518.374H837.425a.628.628,0,0,1-.591-.929l11.1-30.507a1.47,1.47,0,0,1,1.268-.93h54.742a.629.629,0,0,1,.59.93l-11.1,30.507A1.469,1.469,0,0,1,892.167,518.374Z" transform="translate(-783.362 -452.764)" fill="#9ec8ff"/>
        <path id="Trazado_195141" data-name="Trazado 195141" d="M891.048,516.575H838.667a.587.587,0,0,1-.552-.868l10.11-27.779a1.373,1.373,0,0,1,1.184-.868h52.382a.588.588,0,0,1,.552.868l-10.111,27.779A1.372,1.372,0,0,1,891.048,516.575Z" transform="translate(-782.905 -452.39)" fill="#fff"/>
        <path id="Trazado_195142" data-name="Trazado 195142" d="M889.53,514.29H840.355a.66.66,0,0,1-.621-.975l8.716-23.946a1.542,1.542,0,0,1,1.33-.975h49.176a.659.659,0,0,1,.62.975l-8.715,23.946A1.544,1.544,0,0,1,889.53,514.29Z" transform="translate(-782.331 -451.915)" fill="#9ec8ff"/>
        <ellipse id="Elipse_5139" data-name="Elipse 5139" cx="10.768" cy="7.497" rx="10.768" ry="7.497" transform="matrix(0.768, -0.641, 0.641, 0.768, 74.252, 50.57)" fill="#fff"/>
        <path id="Trazado_195143" data-name="Trazado 195143" d="M871.683,499.974c-1.555,4.274-6.281,7.737-10.553,7.737s-6.476-3.463-4.921-7.737,6.279-7.737,10.553-7.737S873.238,495.7,871.683,499.974Z" transform="translate(-776.622 -450.547)" fill="#9ec8ff"/>
        <path id="Trazado_195144" data-name="Trazado 195144" d="M866.5,498.5l-3.422,1.633-3.423,1.633,1.189-3.266,1.189-3.266,2.234,1.633Z" transform="translate(-775.217 -449.482)" fill="#fff"/>
        <g id="Grupo_141097" data-name="Grupo 141097" transform="translate(19.096 20.463)">
          <path id="Trazado_195145" data-name="Trazado 195145" d="M818.308,487.409h-4.313a2.5,2.5,0,0,1-2.1-1.011,2.736,2.736,0,0,1-.222-2.53l1.57-4.312a4.667,4.667,0,0,1,4.089-2.974h4.313a2.5,2.5,0,0,1,2.1,1.013,2.733,2.733,0,0,1,.221,2.529l-1.57,4.313A4.666,4.666,0,0,1,818.308,487.409Zm-.978-9.165a3.042,3.042,0,0,0-2.527,1.879l-1.57,4.313a1.121,1.121,0,0,0,.022,1.007.879.879,0,0,0,.74.3h4.313a2.992,2.992,0,0,0,2.527-1.879l1.57-4.312a1.116,1.116,0,0,0-.022-1.007.877.877,0,0,0-.74-.3Z" transform="translate(-811.466 -476.582)" fill="#feca2e" opacity="0.35"/>
        </g>
        <g id="Grupo_141098" data-name="Grupo 141098" transform="translate(12.425 38.793)">
          <path id="Trazado_195146" data-name="Trazado 195146" d="M813.388,500.927h-4.313a2.5,2.5,0,0,1-2.1-1.012,2.735,2.735,0,0,1-.222-2.53l1.57-4.312a4.666,4.666,0,0,1,4.089-2.974h4.313a2.5,2.5,0,0,1,2.1,1.013,2.733,2.733,0,0,1,.221,2.529l-1.57,4.313A4.666,4.666,0,0,1,813.388,500.927Zm-.978-9.165a3.041,3.041,0,0,0-2.527,1.879l-1.57,4.313a1.121,1.121,0,0,0,.022,1.007.88.88,0,0,0,.74.3h4.313a2.992,2.992,0,0,0,2.527-1.879l1.57-4.312a1.116,1.116,0,0,0-.022-1.008.877.877,0,0,0-.74-.3Z" transform="translate(-806.546 -490.1)" fill="#feca2e" opacity="0.35"/>
        </g>
        <g id="Grupo_141099" data-name="Grupo 141099" transform="translate(5.753 57.122)">
          <path id="Trazado_195147" data-name="Trazado 195147" d="M808.468,514.445h-4.313a2.5,2.5,0,0,1-2.1-1.012,2.731,2.731,0,0,1-.222-2.53l1.57-4.312a4.665,4.665,0,0,1,4.089-2.974H811.8a2.5,2.5,0,0,1,2.1,1.013,2.729,2.729,0,0,1,.222,2.529l-1.57,4.313A4.666,4.666,0,0,1,808.468,514.445Zm-.978-9.165a3,3,0,0,0-2.527,1.879l-1.57,4.313a1.113,1.113,0,0,0,.022,1.006.877.877,0,0,0,.74.3h4.313A2.993,2.993,0,0,0,811,510.9l1.57-4.312a1.116,1.116,0,0,0-.022-1.008.877.877,0,0,0-.74-.3Z" transform="translate(-801.626 -503.618)" fill="#9ec8ff"/>
        </g>
        <path id="Trazado_195148" data-name="Trazado 195148" d="M849.056,482.391H825.335a.548.548,0,0,1-.514-.808,1.285,1.285,0,0,1,1.1-.809h23.719a.549.549,0,0,1,.515.809A1.285,1.285,0,0,1,849.056,482.391Z" transform="translate(-787.635 -454.627)" fill="#9ec8ff"/>
        <path id="Trazado_195149" data-name="Trazado 195149" d="M848.188,484.777H824.468a.548.548,0,0,1-.514-.809,1.282,1.282,0,0,1,1.1-.808h23.721a.548.548,0,0,1,.514.808A1.283,1.283,0,0,1,848.188,484.777Z" transform="translate(-787.944 -453.778)" fill="#9ec8ff"/>
        <path id="Trazado_195150" data-name="Trazado 195150" d="M844.5,494.914H820.778a.548.548,0,0,1-.514-.808,1.282,1.282,0,0,1,1.1-.808h23.721a.547.547,0,0,1,.514.808A1.282,1.282,0,0,1,844.5,494.914Z" transform="translate(-789.258 -450.169)" fill="#9ec8ff"/>
        <path id="Trazado_195151" data-name="Trazado 195151" d="M843.63,497.3H819.91a.549.549,0,0,1-.515-.808,1.284,1.284,0,0,1,1.1-.809h23.721a.549.549,0,0,1,.514.809A1.284,1.284,0,0,1,843.63,497.3Z" transform="translate(-789.567 -449.32)" fill="#9ec8ff"/>
        <path id="Trazado_195152" data-name="Trazado 195152" d="M839.433,508.831H815.713a.548.548,0,0,1-.514-.81,1.282,1.282,0,0,1,1.1-.808h23.721a.547.547,0,0,1,.514.808A1.281,1.281,0,0,1,839.433,508.831Z" transform="translate(-791.06 -445.216)" fill="#9ec8ff"/>
        <path id="Trazado_195153" data-name="Trazado 195153" d="M838.565,511.215H814.845a.547.547,0,0,1-.514-.808,1.282,1.282,0,0,1,1.1-.808h23.721a.548.548,0,0,1,.514.808A1.282,1.282,0,0,1,838.565,511.215Z" transform="translate(-791.369 -444.367)" fill="#9ec8ff"/>
        <g id="Grupo_141100" data-name="Grupo 141100" transform="translate(22.474 19.116)">
          <path id="Trazado_195154" data-name="Trazado 195154" d="M816.418,485.337a.853.853,0,0,1-.218-.029.836.836,0,0,1-.553-.492l-1.629-4.043a.831.831,0,0,1,1.542-.621l1.219,3.026,9.622-7.417a.831.831,0,1,1,1.016,1.317l-10.491,8.087A.836.836,0,0,1,816.418,485.337Z" transform="translate(-813.958 -475.589)" fill="#f37168"/>
        </g>
        <g id="Grupo_141101" data-name="Grupo 141101" transform="translate(15.803 37.445)">
          <path id="Trazado_195155" data-name="Trazado 195155" d="M811.5,498.855a.854.854,0,0,1-.218-.029.836.836,0,0,1-.553-.492l-1.629-4.043a.831.831,0,0,1,1.542-.621l1.219,3.026,9.622-7.417A.831.831,0,1,1,822.5,490.6L812,498.683A.839.839,0,0,1,811.5,498.855Z" transform="translate(-809.038 -489.106)" fill="#f37168"/>
        </g>
        <path id="Trazado_195156" data-name="Trazado 195156" d="M950.439,467.96H859.331l2.355-6.469h91.108Z" transform="translate(-775.334 -461.491)" fill="#9ec8ff"/>
        <path id="Trazado_195157" data-name="Trazado 195157" d="M947.834,475.116H856.726l2.355-6.469h91.108Z" transform="translate(-776.261 -458.943)" fill="#9ec8ff"/>
        <path id="Trazado_195158" data-name="Trazado 195158" d="M867.3,531.463h-66.9a1.077,1.077,0,0,1-1.01-1.589,2.525,2.525,0,0,1,2.168-1.589h66.9a1.077,1.077,0,0,1,1.01,1.589A2.523,2.523,0,0,1,867.3,531.463Z" transform="translate(-796.708 -437.716)" fill="#9ec8ff"/>
        <path id="Trazado_195159" data-name="Trazado 195159" d="M865.4,536.673h-66.9a1.077,1.077,0,0,1-1.01-1.589,2.521,2.521,0,0,1,2.168-1.589h66.9a1.077,1.077,0,0,1,1.011,1.589A2.523,2.523,0,0,1,865.4,536.673Z" transform="translate(-797.383 -435.862)" fill="#9ec8ff"/>
      </g>
      <g id="Grupo_141109" data-name="Grupo 141109" transform="translate(967.415 535.282)">
        <path id="Trazado_195160" data-name="Trazado 195160" d="M896.359,606.037c0-1.123,13.521-38.491,4.38-62.547-6.4-16.843-7.411-37.056-7.411-37.056s-12.464,17.855-4.042,45.142c5.184,16.795,7.3,21.447,7.748,26.388s-2.022,29.646-2.022,29.646Z" transform="translate(-882.547 -504.975)" fill="#feca2e" opacity="0.35"/>
        <g id="Grupo_141103" data-name="Grupo 141103" transform="translate(3.416 1.044)">
          <path id="Trazado_195161" data-name="Trazado 195161" d="M895.116,608.134a.406.406,0,0,1-.163-.034.413.413,0,0,1-.249-.423c.024-.247,2.461-24.721,2.02-29.566-.293-3.223-1.288-6.271-3.47-12.947-1.117-3.42-2.508-7.676-4.262-13.357a59.964,59.964,0,0,1-1.142-33.031,41.824,41.824,0,0,1,5.241-12.471.415.415,0,0,1,.755.217c.011.2,1.082,20.343,7.386,36.929,3.418,9,4.1,20.858,2.039,35.258a175.973,175.973,0,0,1-5.843,25.52c-.286.957-.533,1.783-.551,1.935a.362.362,0,0,1-.1.251l-1.348,1.573A.416.416,0,0,1,895.116,608.134ZM893.1,507.864a45.634,45.634,0,0,0-4.458,11.162,59.151,59.151,0,0,0,1.143,32.536c1.751,5.675,3.141,9.927,4.256,13.344,2.2,6.738,3.207,9.813,3.508,13.131.393,4.323-1.384,23.187-1.891,28.411l.411-.48c.047-.247.193-.739.563-1.974,7.807-26.1,9.094-46.372,3.822-60.245C895.033,529.477,893.455,512.613,893.1,507.864Z" transform="translate(-886.068 -506.128)" fill="#feca2e"/>
        </g>
        <path id="Trazado_195162" data-name="Trazado 195162" d="M895.932,610.238c-.307-6.315-.087-18.046-.087-18.046S906.864,543.276,924,528.04c20.213-17.966,21.111-22.682,21.111-22.682s-3.143,35.035-14.822,47.162-28.747,21.111-31.218,27.4-1.572,27.4-1.572,27.4l-1.571,3.817Z" transform="translate(-879.2 -505.358)" fill="#feca2e" opacity="0.35"/>
        <path id="Trazado_195163" data-name="Trazado 195163" d="M894.069,597.207c-.225-.674,4.266-38.853,20.662-41.1s20.212,1.572,31.441-.225a70.059,70.059,0,0,0,14.148-3.818s-4.252,10.826-18.864,15.272c-10.331,3.144-23.806-2.022-31.667-.674s-11.9,18.191-11.9,18.191l-1.346,8.759Z" transform="translate(-879.807 -488.733)" fill="#feca2e" opacity="0.35"/>
        <g id="Grupo_141104" data-name="Grupo 141104" transform="translate(15.881 12.834)">
          <path id="Trazado_195164" data-name="Trazado 195164" d="M895.886,604.813a.414.414,0,0,1-.412-.377c-.026-.268-2.351-27.09,9.033-47.627,5.881-10.607,12.3-16.755,18.511-22.7,5.786-5.539,11.25-10.77,15.393-19.056a.415.415,0,0,1,.743.372c-4.208,8.415-9.722,13.695-15.561,19.284-6.165,5.9-12.54,12.007-18.359,22.5-11.257,20.309-8.957,46.883-8.933,47.148a.416.416,0,0,1-.376.452Z" transform="translate(-895.262 -514.823)" fill="#feca2e"/>
        </g>
        <g id="Grupo_141105" data-name="Grupo 141105" transform="translate(14.968 67.416)">
          <path id="Trazado_195165" data-name="Trazado 195165" d="M895,585.1a.439.439,0,0,1-.117-.016.416.416,0,0,1-.283-.515c4.3-14.818,9.234-23.462,15.527-27.207,5.627-3.348,11.443-2.32,17.6-1.233,1.506.267,3.066.542,4.607.744,13.38,1.755,19.9-1.5,19.969-1.529a.416.416,0,0,1,.381.739c-.271.14-6.785,3.407-20.458,1.615-1.561-.2-3.128-.481-4.644-.75-6-1.06-11.668-2.062-17.029,1.128-6.1,3.63-10.917,12.122-15.154,26.724A.415.415,0,0,1,895,585.1Z" transform="translate(-894.588 -555.077)" fill="#feca2e"/>
        </g>
        <g id="Grupo_141106" data-name="Grupo 141106" transform="translate(36.416 30.801)">
          <path id="Trazado_195166" data-name="Trazado 195166" d="M910.822,537.1a.416.416,0,0,1-.255-.744,50.351,50.351,0,0,1,19.153-8.277.416.416,0,0,1,.157.816,49.4,49.4,0,0,0-18.8,8.118A.416.416,0,0,1,910.822,537.1Z" transform="translate(-910.406 -528.074)" fill="#feca2e"/>
        </g>
        <g id="Grupo_141107" data-name="Grupo 141107" transform="translate(23.727 40.233)">
          <path id="Trazado_195167" data-name="Trazado 195167" d="M901.463,552.7a.413.413,0,0,1-.357-.626c5.848-9.863,12.7-12.349,27.632-17.029a.416.416,0,0,1,.248.793c-14.724,4.616-21.474,7.06-27.166,16.659A.413.413,0,0,1,901.463,552.7Z" transform="translate(-901.048 -535.03)" fill="#feca2e"/>
        </g>
        <path id="Trazado_195168" data-name="Trazado 195168" d="M904.06,598.906H894.03a7.379,7.379,0,0,1-7.247-5.993L883.549,576h30.993l-3.234,16.914A7.377,7.377,0,0,1,904.06,598.906Z" transform="translate(-883.549 -480.214)" fill="#feca2e"/>
        <g id="Grupo_141108" data-name="Grupo 141108" transform="translate(0.18 98.434)">
          <path id="Trazado_195169" data-name="Trazado 195169" d="M913.708,579.615h-29.2a.831.831,0,0,1,0-1.662h29.2a.831.831,0,1,1,0,1.662Z" transform="translate(-883.682 -577.953)" fill="#d54a41"/>
        </g>
      </g>
    </g>
  </g>
</svg>
